<?xml version="1.0" encoding="UTF-8"?>
<svg version="1.1" xmlns="http://www.w3.org/2000/svg" width="6000" height="3375">
<path d="M0 0 C1980 0 3960 0 6000 0 C6000 1113.75 6000 2227.5 6000 3375 C4020 3375 2040 3375 0 3375 C0 2261.25 0 1147.5 0 0 Z " fill="#121212" transform="translate(0,0)"/>
<path d="M0 0 C627.33 0 1254.66 0 1901 0 C1897.23089077 4.39729411 1893.61232229 8.51269734 1889.54683573 12.57830811 C1889.02894804 13.09757622 1888.51106035 13.61684433 1887.97747909 14.15184784 C1886.24949873 15.88322168 1884.5179988 17.61103065 1882.78648198 19.33886719 C1881.52394681 20.60239432 1880.26163087 21.86614053 1878.99951356 23.13008505 C1875.51887373 26.61448658 1872.03511957 30.09575983 1868.5508637 33.57654496 C1864.7511296 37.3735984 1860.95430152 41.17355584 1857.15710193 44.97314358 C1850.47204504 51.66159843 1843.78512146 58.34818252 1837.09699453 65.03356743 C1827.08459685 75.04187869 1817.07507729 85.05306477 1807.06612405 95.06482055 C1790.00962824 112.12601709 1772.95065938 129.18473919 1755.89044571 146.24221802 C1738.59550103 163.53440515 1721.30164349 180.82767843 1704.00911713 198.12228394 C1703.46400517 198.6674604 1702.91889322 199.21263687 1702.35726273 199.77433383 C1697.36175038 204.77043771 1692.36624921 209.76655277 1687.37076149 214.76268128 C1674.84326996 227.29177714 1662.31560422 239.82069879 1649.78782058 252.34950256 C1649.21370932 252.92366072 1648.63959806 253.49781888 1648.04808949 254.08937577 C1619.73654107 282.40320386 1591.42308418 310.71512331 1563.10943985 339.02685547 C1561.86889963 340.26731205 1560.62835941 341.50776864 1559.3878192 342.74822523 C1558.7730048 343.36299817 1558.15819041 343.97777111 1557.52474527 344.61117353 C1549.41716031 352.71821198 1541.30958029 360.82525539 1533.20201349 368.93231201 C1532.58229721 369.55198913 1531.96258093 370.17166625 1531.32408537 370.81012147 C1502.6193467 399.51305972 1473.91572196 428.21711182 1445.21234459 456.92141137 C1442.08201089 460.05184486 1438.95167505 463.1822762 1435.82133945 466.31270778 C1426.38635986 475.74797796 1416.95138345 485.18325131 1407.51641361 494.61853123 C1378.74428574 523.39160368 1349.97198568 552.16450394 1321.19953728 580.93725586 C1320.23853094 581.8982725 1320.23853094 581.8982725 1319.25811033 582.87870362 C1277.75965552 624.37759725 1236.26043074 665.87572081 1194.76065254 707.37329102 C1194.09803136 708.03587708 1193.43541017 708.69846315 1192.75270956 709.38112758 C1170.55745193 731.57520882 1148.36215448 753.76925023 1126.16685295 775.96328756 C1059.04679924 843.07952085 991.92760904 910.19661729 872.06880079 1030.06145504 C849.88162903 1052.24989 827.69444992 1074.43831761 805.50723457 1096.62670898 C804.51368907 1097.62030735 804.51368907 1097.62030735 803.50007195 1098.63397841 C762.02537633 1140.11087903 720.55006945 1181.58716833 679.074049 1223.06274414 C678.43357595 1223.70321043 677.7931029 1224.34367673 677.13322157 1225.00355109 C648.37587842 1253.76058754 619.61836948 1282.5174582 590.86070716 1311.27417547 C581.42926397 1320.70530911 571.99782839 1330.13645035 562.5663954 1339.56759418 C559.43767104 1342.69622255 556.30894599 1345.82485024 553.18021937 1348.95347635 C524.47512743 1377.65764895 495.77036274 1406.36214869 467.06663752 1435.06768799 C466.44739144 1435.68697304 465.82814536 1436.30625808 465.19013426 1436.94430935 C457.08816849 1445.04678692 448.98621814 1453.14927991 440.88426965 1461.25177477 C440.27002184 1461.86606399 439.65577404 1462.48035321 439.02291266 1463.11325726 C437.78366346 1464.35259002 436.5444143 1465.59192281 435.30516517 1466.83125565 C407.03318725 1495.10513821 378.76091067 1523.37872191 350.4868257 1551.65049744 C349.91337512 1552.22390133 349.33992455 1552.79730522 348.74909667 1553.38808499 C336.23963127 1565.89652035 323.73002115 1578.40481096 311.22026866 1590.9129592 C306.23139395 1595.901198 301.2425369 1600.88945446 296.253685 1605.87771606 C295.43737637 1606.69392657 295.43737637 1606.69392657 294.60457667 1607.52662617 C277.3318189 1624.79732406 260.06059431 1642.06955411 242.79025122 1659.34266661 C225.32125922 1676.81444595 207.85054471 1694.28450099 190.37771428 1711.7524417 C180.43113224 1721.69634669 170.48593037 1731.64162731 160.54272692 1741.58891066 C153.94868185 1748.18538988 147.35284298 1754.78007175 140.75550905 1761.37326167 C137.00949291 1765.11702691 133.26427248 1768.86157881 129.52124996 1772.60833728 C126.12619385 1776.00675292 122.72885279 1779.40286663 119.32966402 1782.79714852 C118.11006982 1784.01578599 116.89131142 1785.23526064 115.67349593 1786.45567561 C110.12903149 1792.01115745 104.59918314 1797.53615097 98.60876865 1802.61797529 C95.96728085 1804.88716509 93.51827414 1807.34205703 91.06225586 1809.80834961 C90.52613174 1810.34272141 89.99000763 1810.8770932 89.43763733 1811.42765808 C87.69421024 1813.16674136 85.95439948 1814.90938874 84.21484375 1816.65234375 C82.98765878 1817.87885354 81.76032553 1819.10521498 80.53285217 1820.33143616 C77.97201619 1822.89080528 75.41297829 1825.45195493 72.85522461 1828.0144043 C69.59522046 1831.28010508 66.33074635 1834.54129475 63.06490231 1837.80115414 C60.53303715 1840.32938627 58.00358256 1842.86001939 55.47482491 1845.39135933 C54.27281401 1846.59403192 53.07007481 1847.79597709 51.86655998 1848.9971447 C46.26967689 1854.58550283 40.72580832 1860.16744239 35.58537292 1866.18556213 C32.66656438 1869.52609903 29.51967885 1872.64298781 26.38671875 1875.78125 C25.69109329 1876.48020386 24.99546783 1877.17915771 24.27876282 1877.89929199 C22.82378308 1879.35929204 21.36748513 1880.81797954 19.90991211 1882.27539062 C17.67077889 1884.51673765 15.43979722 1886.76600014 13.20898438 1889.015625 C11.78955107 1890.43798773 10.36964637 1891.85988023 8.94921875 1893.28125 C8.28153976 1893.9561145 7.61386078 1894.630979 6.9259491 1895.32629395 C6.30802994 1895.94113647 5.69011078 1896.555979 5.0534668 1897.18945312 C4.51054489 1897.73380005 3.96762299 1898.27814697 3.4082489 1898.83898926 C2 1900 2 1900 0 1900 C0 1273 0 646 0 0 Z " fill="#272727" transform="translate(0,0)"/>
<path d="M0 0 C412.5 0 825 0 1250 0 C1246.25805678 4.36560043 1242.66795479 8.46890138 1238.625 12.5 C1237.75101563 13.3765625 1236.87703125 14.253125 1235.9765625 15.15625 C1233.79250085 17.28762925 1231.52470183 19.29180231 1229.2109375 21.28125 C1224.57884103 25.29887352 1220.29693053 29.62974301 1216 34 C1211.14353654 38.93933826 1206.24978224 43.71151141 1200.99609375 48.2265625 C1197.33204512 51.48190121 1193.93294957 55.00451948 1190.5 58.5 C1185.81672776 63.26857774 1181.08033648 67.84975966 1176.01367188 72.20898438 C1172.34510446 75.47191 1168.93887401 78.99848712 1165.5 82.5 C1160.81672776 87.26857774 1156.08033648 91.84975966 1151.01367188 96.20898438 C1147.34510446 99.47191 1143.93887401 102.99848712 1140.5 106.5 C1135.81672776 111.26857774 1131.08033648 115.84975966 1126.01367188 120.20898438 C1122.34510446 123.47191 1118.93887401 126.99848712 1115.5 130.5 C1110.81672776 135.26857774 1106.08033648 139.84975966 1101.01367188 144.20898438 C1097.34510446 147.47191 1093.93887401 150.99848712 1090.5 154.5 C1085.81672776 159.26857774 1081.08033648 163.84975966 1076.01367188 168.20898438 C1072.34510446 171.47191 1068.93887401 174.99848712 1065.5 178.5 C1061.45051536 182.62324574 1057.41641052 186.700117 1053.03125 190.46875 C1048.44821339 194.41187392 1044.23659911 198.69110398 1040 203 C1035.14353654 207.93933826 1030.24978224 212.71151141 1024.99609375 217.2265625 C1021.33204512 220.48190121 1017.93294957 224.00451948 1014.5 227.5 C1009.81672776 232.26857774 1005.08033648 236.84975966 1000.01367188 241.20898438 C996.34510446 244.47191 992.93887401 247.99848712 989.5 251.5 C984.81672776 256.26857774 980.08033648 260.84975966 975.01367188 265.20898438 C971.34510446 268.47191 967.93887401 271.99848712 964.5 275.5 C959.81672776 280.26857774 955.08033648 284.84975966 950.01367188 289.20898438 C946.34510446 292.47191 942.93887401 295.99848712 939.5 299.5 C934.81672776 304.26857774 930.08033648 308.84975966 925.01367188 313.20898438 C921.34510446 316.47191 917.93887401 319.99848712 914.5 323.5 C909.81672776 328.26857774 905.08033648 332.84975966 900.01367188 337.20898438 C896.34510446 340.47191 892.93887401 343.99848712 889.5 347.5 C885.45051536 351.62324574 881.41641052 355.700117 877.03125 359.46875 C872.44821339 363.41187392 868.23659911 367.69110398 864 372 C859.14353654 376.93933826 854.24978224 381.71151141 848.99609375 386.2265625 C845.33204512 389.48190121 841.93294957 393.00451948 838.5 396.5 C833.81672776 401.26857774 829.08033648 405.84975966 824.01367188 410.20898438 C820.34510446 413.47191 816.93887401 416.99848712 813.5 420.5 C808.81672776 425.26857774 804.08033648 429.84975966 799.01367188 434.20898438 C795.34510446 437.47191 791.93887401 440.99848712 788.5 444.5 C783.81672776 449.26857774 779.08033648 453.84975966 774.01367188 458.20898438 C770.34510446 461.47191 766.93887401 464.99848712 763.5 468.5 C758.81672776 473.26857774 754.08033648 477.84975966 749.01367188 482.20898438 C745.34510446 485.47191 741.93887401 488.99848712 738.5 492.5 C733.81672776 497.26857774 729.08033648 501.84975966 724.01367188 506.20898438 C720.34510446 509.47191 716.93887401 512.99848712 713.5 516.5 C709.45051536 520.62324574 705.41641052 524.700117 701.03125 528.46875 C696.44821339 532.41187392 692.23659911 536.69110398 688 541 C683.14353654 545.93933826 678.24978224 550.71151141 672.99609375 555.2265625 C669.33204512 558.48190121 665.93294957 562.00451948 662.5 565.5 C657.81672776 570.26857774 653.08033648 574.84975966 648.01367188 579.20898438 C644.34510446 582.47191 640.93887401 585.99848712 637.5 589.5 C632.81672776 594.26857774 628.08033648 598.84975966 623.01367188 603.20898438 C619.34510446 606.47191 615.93887401 609.99848712 612.5 613.5 C607.81672776 618.26857774 603.08033648 622.84975966 598.01367188 627.20898438 C594.34510446 630.47191 590.93887401 633.99848712 587.5 637.5 C582.81672776 642.26857774 578.08033648 646.84975966 573.01367188 651.20898438 C569.34510446 654.47191 565.93887401 657.99848712 562.5 661.5 C557.81672776 666.26857774 553.08033648 670.84975966 548.01367188 675.20898438 C544.34510446 678.47191 540.93887401 681.99848712 537.5 685.5 C533.45051536 689.62324574 529.41641052 693.700117 525.03125 697.46875 C520.44821339 701.41187392 516.23659911 705.69110398 512 710 C507.14353654 714.93933826 502.24978224 719.71151141 496.99609375 724.2265625 C493.33204512 727.48190121 489.93294957 731.00451948 486.5 734.5 C481.81672776 739.26857774 477.08033648 743.84975966 472.01367188 748.20898438 C468.34510446 751.47191 464.93887401 754.99848712 461.5 758.5 C456.81672776 763.26857774 452.08033648 767.84975966 447.01367188 772.20898438 C443.34510446 775.47191 439.93887401 778.99848712 436.5 782.5 C431.81672776 787.26857774 427.08033648 791.84975966 422.01367188 796.20898438 C418.34510446 799.47191 414.93887401 802.99848712 411.5 806.5 C406.81672776 811.26857774 402.08033648 815.84975966 397.01367188 820.20898438 C393.34510446 823.47191 389.93887401 826.99848712 386.5 830.5 C382.45051536 834.62324574 378.41641052 838.700117 374.03125 842.46875 C369.44821339 846.41187392 365.23659911 850.69110398 361 855 C356.14353654 859.93933826 351.24978224 864.71151141 345.99609375 869.2265625 C342.33204512 872.48190121 338.93294957 876.00451948 335.5 879.5 C330.81672776 884.26857774 326.08033648 888.84975966 321.01367188 893.20898438 C317.34510446 896.47191 313.93887401 899.99848712 310.5 903.5 C305.81672776 908.26857774 301.08033648 912.84975966 296.01367188 917.20898438 C292.34510446 920.47191 288.93887401 923.99848712 285.5 927.5 C280.81672776 932.26857774 276.08033648 936.84975966 271.01367188 941.20898438 C267.34510446 944.47191 263.93887401 947.99848712 260.5 951.5 C255.81672776 956.26857774 251.08033648 960.84975966 246.01367188 965.20898438 C242.34510446 968.47191 238.93887401 971.99848712 235.5 975.5 C230.81672776 980.26857774 226.08033648 984.84975966 221.01367188 989.20898438 C217.34510446 992.47191 213.93887401 995.99848712 210.5 999.5 C206.45051536 1003.62324574 202.41641052 1007.700117 198.03125 1011.46875 C193.44821339 1015.41187392 189.23659911 1019.69110398 185 1024 C180.14353654 1028.93933826 175.24978224 1033.71151141 169.99609375 1038.2265625 C166.33204512 1041.48190121 162.93294957 1045.00451948 159.5 1048.5 C154.81672776 1053.26857774 150.08033648 1057.84975966 145.01367188 1062.20898438 C141.34510446 1065.47191 137.93887401 1068.99848712 134.5 1072.5 C129.81672776 1077.26857774 125.08033648 1081.84975966 120.01367188 1086.20898438 C116.34510446 1089.47191 112.93887401 1092.99848712 109.5 1096.5 C104.81672776 1101.26857774 100.08033648 1105.84975966 95.01367188 1110.20898438 C91.34510446 1113.47191 87.93887401 1116.99848712 84.5 1120.5 C79.81672776 1125.26857774 75.08033648 1129.84975966 70.01367188 1134.20898438 C66.34510446 1137.47191 62.93887401 1140.99848712 59.5 1144.5 C54.81672776 1149.26857774 50.08033648 1153.84975966 45.01367188 1158.20898438 C41.34510446 1161.47191 37.93887401 1164.99848712 34.5 1168.5 C30.4492247 1172.62455992 26.41363484 1176.70251784 22.02734375 1180.47265625 C17.46757661 1184.39466231 13.27626566 1188.65025978 9.0625 1192.9375 C7.55565907 1194.46968728 6.04666913 1195.99976519 4.53515625 1197.52734375 C3.55107788 1198.52882446 3.55107788 1198.52882446 2.54711914 1199.55053711 C1 1201 1 1201 0 1201 C0 804.67 0 408.34 0 0 Z " fill="#000000" transform="translate(0,0)"/>
<path d="M0 0 C133.65 0 267.3 0 405 0 C398.23812369 7.88885569 398.23812369 7.88885569 395.4140625 10.71875 C394.79273438 11.34136719 394.17140625 11.96398438 393.53125 12.60546875 C392.9021875 13.23066406 392.273125 13.85585937 391.625 14.5 C391.00367188 15.12519531 390.38234375 15.75039062 389.7421875 16.39453125 C386.60374497 19.5264894 383.41540603 22.54460407 380.0546875 25.4375 C375.64744813 29.24419012 371.57869053 33.34701638 367.5 37.5 C362.81672776 42.26857774 358.08033648 46.84975966 353.01367188 51.20898438 C349.34510446 54.47191 345.93887401 57.99848712 342.5 61.5 C337.81672776 66.26857774 333.08033648 70.84975966 328.01367188 75.20898438 C324.34510446 78.47191 320.93887401 81.99848712 317.5 85.5 C312.81672776 90.26857774 308.08033648 94.84975966 303.01367188 99.20898438 C299.34510446 102.47191 295.93887401 105.99848712 292.5 109.5 C287.81672776 114.26857774 283.08033648 118.84975966 278.01367188 123.20898438 C274.34510446 126.47191 270.93887401 129.99848712 267.5 133.5 C262.81672776 138.26857774 258.08033648 142.84975966 253.01367188 147.20898438 C249.34510446 150.47191 245.93887401 153.99848712 242.5 157.5 C237.81672776 162.26857774 233.08033648 166.84975966 228.01367188 171.20898438 C224.34510446 174.47191 220.93887401 177.99848712 217.5 181.5 C212.81672776 186.26857774 208.08033648 190.84975966 203.01367188 195.20898438 C199.34510446 198.47191 195.93887401 201.99848712 192.5 205.5 C188.45051536 209.62324574 184.41641052 213.700117 180.03125 217.46875 C175.44821339 221.41187392 171.23659911 225.69110398 167 230 C162.14353654 234.93933826 157.24978224 239.71151141 151.99609375 244.2265625 C148.33204512 247.48190121 144.93294957 251.00451948 141.5 254.5 C136.81672776 259.26857774 132.08033648 263.84975966 127.01367188 268.20898438 C123.34510446 271.47191 119.93887401 274.99848712 116.5 278.5 C111.81672776 283.26857774 107.08033648 287.84975966 102.01367188 292.20898438 C98.34510446 295.47191 94.93887401 298.99848712 91.5 302.5 C86.81672776 307.26857774 82.08033648 311.84975966 77.01367188 316.20898438 C73.34510446 319.47191 69.93887401 322.99848712 66.5 326.5 C61.81672776 331.26857774 57.08033648 335.84975966 52.01367188 340.20898438 C48.34510446 343.47191 44.93887401 346.99848712 41.5 350.5 C37.44059741 354.63334435 33.39565899 358.7179665 29 362.49609375 C23.81767261 366.95355774 19.11360684 371.87034213 14.35546875 376.77148438 C13.65035156 377.48755859 12.94523438 378.20363281 12.21875 378.94140625 C11.59935547 379.57763916 10.97996094 380.21387207 10.34179688 380.86938477 C7.09828518 383.82039879 3.50805718 386.36895711 0 389 C0 260.63 0 132.26 0 0 Z " fill="#282828" transform="translate(0,0)"/>
</svg>
