<?xml version="1.0" encoding="UTF-8"?>
<svg version="1.1" xmlns="http://www.w3.org/2000/svg" width="3375" height="3375">
<path d="M0 0 C0.89368279 -0.00433118 1.78736558 -0.00866236 2.70812967 -0.01312479 C5.7062321 -0.02399113 8.70387442 -0.01349212 11.70197308 -0.00311857 C13.88098845 -0.00655135 16.06000209 -0.01129764 18.23901206 -0.01723954 C24.25194126 -0.02979341 30.26472928 -0.0235793 36.27765924 -0.01440586 C42.13633086 -0.00840665 47.99497202 -0.01652772 53.85363916 -0.0242305 C65.98387913 -0.03966782 78.11408325 -0.0408356 90.24432957 -0.03425127 C102.53834842 -0.02762608 114.83234162 -0.02749533 127.12636006 -0.03529841 C127.90264942 -0.03578641 128.67893878 -0.0362744 129.47875207 -0.03677719 C132.64042295 -0.03878535 135.8020938 -0.04083845 138.96376461 -0.04294893 C171.06828972 -0.06435676 203.17279588 -0.06640214 235.27732633 -0.06089189 C239.71438188 -0.06013619 244.15143743 -0.05940857 248.58849299 -0.05870992 C249.91042137 -0.05850128 249.91042137 -0.05850128 251.25905537 -0.05828843 C270.78281353 -0.05533714 290.30656941 -0.05834794 309.83032716 -0.06260621 C312.50174394 -0.06318837 315.17316072 -0.06375721 317.8445775 -0.06432184 C325.00558545 -0.06583677 332.16659341 -0.06736368 339.32760135 -0.06891485 C389.32334882 -0.07967306 439.31909418 -0.08437185 489.31484234 -0.07644469 C490.72873859 -0.07622223 490.72873859 -0.07622223 492.1711984 -0.07599527 C502.68238925 -0.07433624 513.19358008 -0.07258666 523.70477091 -0.07080226 C524.65379404 -0.07064124 525.60281718 -0.07048021 526.58059859 -0.07031431 C534.28315382 -0.06900645 534.28315382 -0.06900645 538.09439061 -0.06835312 C598.80378089 -0.05796069 659.51314218 -0.06572929 720.22252858 -0.08935457 C735.52010479 -0.09529786 750.81768103 -0.10118937 766.11525738 -0.1067639 C767.05715691 -0.10710767 767.99905643 -0.10745144 768.96949836 -0.10780563 C797.99300578 -0.11833103 827.01651078 -0.12392693 856.04002011 -0.12432104 C856.95104727 -0.12433383 857.86207444 -0.12434661 858.80070849 -0.12435978 C878.79852153 -0.12458806 898.79633436 -0.1235821 918.79414728 -0.12145072 C925.94943293 -0.12069594 933.10471858 -0.12001774 940.26000425 -0.11937057 C942.04009224 -0.11920788 943.82018023 -0.11904022 945.60026823 -0.11886756 C973.97907964 -0.11614495 1002.35787347 -0.12470668 1030.7366811 -0.13872166 C1060.10793202 -0.15312042 1089.47914947 -0.15269063 1118.85039924 -0.13534694 C1122.00320768 -0.13354272 1125.15601615 -0.13180253 1128.30882466 -0.13011271 C1129.08258827 -0.12969221 1129.85635189 -0.12927171 1130.65356289 -0.12883846 C1142.91462982 -0.12253613 1155.17565082 -0.12965169 1167.43671128 -0.14232191 C1179.4876255 -0.15449252 1191.53846713 -0.15241801 1203.58937584 -0.13510159 C1210.03802454 -0.126425 1216.48650452 -0.12415404 1222.93514489 -0.13937091 C1228.79818398 -0.15307594 1234.66090875 -0.14847423 1240.5239292 -0.12908572 C1242.63505782 -0.12534082 1244.74621154 -0.12833769 1246.85731756 -0.13879881 C1267.66032695 -0.23480413 1267.66032695 -0.23480413 1274.84899342 4.37719816 C1275.50899342 5.03719816 1276.16899342 5.69719816 1276.84899342 6.37719816 C1279.15757385 6.68028322 1279.15757385 6.68028322 1281.87485707 6.62875456 C1283.4706535 6.63682882 1283.4706535 6.63682882 1285.09868824 6.6450662 C1286.27111073 6.64094221 1287.44353322 6.63681822 1288.65148365 6.63256925 C1290.49810345 6.63799993 1290.49810345 6.63799993 1292.3820287 6.64354032 C1295.06454611 6.65045086 1297.7468129 6.65381765 1300.42931378 6.65159315 C1304.67938871 6.64876073 1308.92929724 6.66311265 1313.17933095 6.6805734 C1325.26670236 6.72759666 1337.35406394 6.75151508 1349.44152272 6.75805753 C1356.11415165 6.76182165 1362.78659357 6.7799655 1369.45914239 6.8131519 C1373.67447868 6.83326243 1377.88932912 6.8357864 1382.10469341 6.82487172 C1385.36385312 6.82162594 1388.62285557 6.84441399 1391.8819524 6.863038 C1393.03615681 6.85486555 1394.19036122 6.84669309 1395.37954152 6.83827299 C1403.95449226 6.92504641 1411.26128057 8.62457045 1418.66149342 13.06469816 C1427.58828685 22.50159407 1429.15454031 31.60998542 1429.10084242 44.20202094 C1429.10377128 45.38527993 1429.10670015 46.56853891 1429.10971776 47.78765423 C1429.11582654 51.07459614 1429.11298455 54.36139002 1429.10638195 57.64832647 C1429.10139104 61.2366082 1429.10803825 64.82487181 1429.11318561 68.41315073 C1429.12063414 74.7271393 1429.120626 81.04109415 1429.11579613 87.35508476 C1429.10860125 96.80739985 1429.11291394 106.25968579 1429.11947748 115.71200009 C1429.13032113 131.82069678 1429.13163087 147.92938179 1429.12777913 164.03808111 C1429.12390595 180.36671271 1429.12435302 196.69533559 1429.13008893 213.02396673 C1429.13044775 214.05460142 1429.13080658 215.08523612 1429.13117628 216.14710216 C1429.13265115 220.34459435 1429.13415555 224.54208652 1429.13569774 228.73957868 C1429.15134331 271.37344818 1429.15401056 314.00731169 1429.15154168 356.64118355 C1429.15120324 362.53449879 1429.15088115 368.42781402 1429.150576 374.32112926 C1429.15048443 376.07689193 1429.15048443 376.07689193 1429.15039102 377.86812455 C1429.14911982 403.79345128 1429.15171922 429.71877719 1429.15510206 455.64410368 C1429.1558728 461.56146727 1429.15661752 467.47883087 1429.15736708 473.39619447 C1429.15766877 475.77101691 1429.15797065 478.14583935 1429.15827272 480.52066179 C1429.1584224 481.69780665 1429.15857208 482.87495152 1429.15872629 484.08776744 C1429.15902982 486.46877103 1429.15933451 488.84977461 1429.15964034 491.2307782 C1429.16831537 558.80491643 1429.17295581 626.37905393 1429.16869271 693.95319265 C1429.16861465 695.20486879 1429.16853659 696.45654493 1429.16845617 697.74615065 C1429.16758335 711.70414061 1429.16665409 725.66213056 1429.16570554 739.62012051 C1429.16562003 740.88035744 1429.16553452 742.14059436 1429.16544642 743.43902029 C1429.16473556 753.91148266 1429.16473556 753.91148266 1429.16440419 758.7285497 C1429.15886763 839.34874171 1429.16641196 919.96892228 1429.18517506 1000.58911222 C1429.18989713 1020.90384697 1429.19457757 1041.21858173 1429.19901192 1061.53331655 C1429.19928524 1062.78411017 1429.19955857 1064.03490379 1429.19984017 1065.32360024 C1429.20820886 1103.86155506 1429.21289089 1142.39950893 1429.21371949 1180.93746465 C1429.21374585 1182.14703615 1429.21377222 1183.35660765 1429.21379939 1184.60283283 C1429.21434012 1211.15317287 1429.21396782 1237.70351284 1429.21275967 1264.25385285 C1429.21233403 1273.75352062 1429.21196891 1283.25318839 1429.21163023 1292.75285615 C1429.21154493 1295.1162045 1429.21145599 1297.47955284 1429.21136341 1299.84290119 C1429.20991352 1337.53024387 1429.21704811 1375.21757877 1429.22836737 1412.90491958 C1429.2400057 1451.90708664 1429.24059395 1490.9092398 1429.22852395 1529.91140692 C1429.22727207 1534.09681376 1429.22606859 1538.2822206 1429.22490323 1542.46762747 C1429.22461293 1543.49482084 1429.22432264 1544.52201422 1429.22402355 1545.58033466 C1429.21969265 1561.86646828 1429.22543855 1578.15258221 1429.23534342 1594.43871274 C1429.24486421 1610.44026362 1429.2437277 1626.44178401 1429.23113719 1642.4433331 C1429.22406995 1651.83250249 1429.22525165 1661.2215844 1429.23848558 1670.61074762 C1429.24645088 1676.84094811 1429.24359988 1683.07108215 1429.23183594 1689.3012765 C1429.22546629 1692.83653495 1429.22378597 1696.37162013 1429.23540315 1699.90686914 C1429.24537603 1703.70530145 1429.23696531 1707.50326433 1429.22389024 1711.30167705 C1429.23482579 1712.93482221 1429.23482579 1712.93482221 1429.24598225 1714.60096021 C1429.16821905 1725.49002075 1426.75262213 1733.656298 1419.59899342 1742.00219816 C1414.11678704 1746.73683094 1407.92211103 1749.50069538 1400.63835615 1749.50376 C1399.79842612 1749.50653531 1398.95849609 1749.50931063 1398.09311364 1749.51217004 C1397.17292375 1749.51013371 1396.25273386 1749.50809737 1395.30465943 1749.50599933 C1394.31968781 1749.50777434 1393.3347162 1749.50954935 1392.31989696 1749.51137814 C1388.98664571 1749.51614635 1385.65343721 1749.51373833 1382.32018387 1749.51141924 C1379.90908063 1749.51337096 1377.49797771 1749.51575934 1375.08687529 1749.51854721 C1369.81116642 1749.52362509 1364.53546993 1749.52556332 1359.25975966 1749.52479646 C1351.3617098 1749.5236627 1343.46367035 1749.52823684 1335.56562283 1749.5339273 C1322.10666726 1749.54344748 1308.64771376 1749.54814786 1295.18875515 1749.55023664 C1281.54335194 1749.55236367 1267.89795193 1749.55661998 1254.25255024 1749.56347936 C1252.96126641 1749.56412528 1252.96126641 1749.56412528 1251.64389603 1749.56478425 C1248.13793085 1749.56654256 1244.63196568 1749.56831221 1241.12600052 1749.57009728 C1198.60028205 1749.59170721 1156.07456295 1749.60257744 1113.54884024 1749.61157351 C1099.76079255 1749.61450664 1085.97274502 1749.61787641 1072.18469751 1749.62154073 C1071.2122561 1749.62179902 1070.23981469 1749.62205731 1069.23790536 1749.62232343 C1065.30390328 1749.62336962 1061.36990121 1749.62441805 1057.43589913 1749.62546925 C990.1444446 1749.64343437 922.85298981 1749.65881433 855.56153322 1749.66622828 C850.27486667 1749.66681225 844.98820013 1749.66740952 839.70153359 1749.66800589 C838.12845515 1749.66818307 838.12845515 1749.66818307 836.52359734 1749.66836383 C825.89839596 1749.66956124 815.27319458 1749.67077 804.64799321 1749.67199637 C802.51759021 1749.6722416 800.38718721 1749.67248546 798.25678421 1749.67272793 C729.82591453 1749.68051883 661.39506199 1749.70290452 592.96419981 1749.73540436 C543.8012361 1749.75874544 494.63827579 1749.78029956 445.47530663 1749.78741068 C443.9591713 1749.78763121 443.9591713 1749.78763121 442.41240697 1749.78785619 C420.225227 1749.79104081 398.03804705 1749.79309184 375.85086687 1749.79408374 C366.9239328 1749.79449849 357.99699873 1749.79505339 349.07006466 1749.79564565 C348.09305297 1749.79570632 347.11604127 1749.79576699 346.10942317 1749.7958295 C314.62026125 1749.7978466 283.13111955 1749.81209322 251.64196469 1749.83259066 C219.92999923 1749.85315996 188.21805717 1749.86107177 156.50608571 1749.85151289 C152.12580518 1749.8501944 147.74552462 1749.84901637 143.36524403 1749.84792227 C142.50657264 1749.84770242 141.64790126 1749.84748257 140.76320952 1749.84725606 C127.15634156 1749.84413941 113.54951828 1749.85447725 99.94266067 1749.87039781 C86.56902785 1749.88576732 73.19545693 1749.88691559 59.82182197 1749.87284958 C51.97745294 1749.86502824 44.13327283 1749.86818391 36.2889226 1749.88748674 C30.47007741 1749.90058678 24.65138193 1749.89288919 18.83253947 1749.87699939 C16.48953538 1749.87384164 14.14651034 1749.87743228 11.80353023 1749.88849114 C8.62560419 1749.90251744 5.44866343 1749.89187128 2.27077156 1749.87514281 C1.36731687 1749.88506019 0.46386217 1749.89497756 -0.46696994 1749.90519546 C-8.32919377 1749.81789779 -15.94998821 1748.03336233 -22.08850658 1742.93969816 C-22.76913158 1742.09407316 -23.44975658 1741.24844816 -24.15100658 1740.37719816 C-24.85225658 1739.57282316 -25.55350658 1738.76844816 -26.27600658 1737.93969816 C-32.36719316 1729.6150765 -32.29803233 1721.67671716 -32.27865708 1711.7547375 C-32.28030786 1710.56904946 -32.28195864 1709.38336143 -32.28365944 1708.16174346 C-32.28723988 1704.85867275 -32.28632957 1701.55565777 -32.28355766 1698.25258987 C-32.28163696 1694.65022342 -32.28551625 1691.04786244 -32.28865445 1687.44549748 C-32.2933724 1681.103568 -32.29435156 1674.76164632 -32.2929261 1668.41971537 C-32.29080782 1658.92554956 -32.29441428 1649.43139186 -32.29914088 1639.9372273 C-32.30702109 1623.7580314 -32.31010326 1607.5788377 -32.31058681 1591.39964002 C-32.31108883 1574.99760608 -32.31373197 1558.5955746 -32.3189944 1542.19354147 C-32.31932454 1541.15859409 -32.31965467 1540.12364672 -32.31999481 1539.0573373 C-32.32134477 1534.8423365 -32.32270743 1530.62733571 -32.32408691 1526.41233493 C-32.34039848 1476.48374886 -32.34677647 1426.55516327 -32.35153478 1376.626575 C-32.35391684 1351.7727333 -32.35762006 1326.91889187 -32.36157188 1302.06505039 C-32.37423649 1222.37103667 -32.38502089 1142.67702296 -32.38841234 1062.98300826 C-32.38857458 1059.17329081 -32.38874014 1055.36357336 -32.38890672 1051.55385591 C-32.38924053 1043.91322014 -32.38957101 1036.27258436 -32.38990128 1028.63194859 C-32.39028818 1019.68633996 -32.39067779 1010.74073132 -32.39107234 1001.79512269 C-32.39118476 999.23480299 -32.39129618 996.67448329 -32.3914066 994.1141636 C-32.39495715 911.85979713 -32.4100401 829.6054394 -32.43334434 747.35107627 C-32.45008086 688.25415136 -32.46555881 629.15722808 -32.4700793 570.06030077 C-32.47017279 568.84552996 -32.47026627 567.63075915 -32.47036259 566.3791771 C-32.47238142 539.71489747 -32.47353765 513.05061785 -32.47389118 486.38633814 C-32.47402736 476.84591045 -32.47423635 467.30548276 -32.47448443 457.76505507 C-32.47454599 455.39155275 -32.47460431 453.01805042 -32.47465938 450.6445481 C-32.47557998 412.79154264 -32.48555754 374.93854629 -32.50011687 337.08554383 C-32.51471811 298.97115616 -32.51978382 260.85677967 -32.51169733 222.7423897 C-32.51058189 217.47994583 -32.50957124 212.21750194 -32.508623 206.95505804 C-32.50843304 205.92343967 -32.50824307 204.89182131 -32.50804734 203.82894178 C-32.50530972 187.46968981 -32.51266837 171.11045846 -32.52419637 154.75121097 C-32.53531298 138.679512 -32.53579274 122.60784229 -32.52482619 106.53614289 C-32.51871278 97.10461567 -32.52086943 87.67317653 -32.53507816 78.24165754 C-32.54368982 71.98466379 -32.54149967 65.72773512 -32.53037945 59.47074544 C-32.52437447 55.91942339 -32.52308239 52.36827453 -32.53506431 48.81696372 C-32.54782888 45.0031251 -32.53744046 41.18954976 -32.52475274 37.37570632 C-32.53216123 36.27958295 -32.53956973 35.18345959 -32.54720273 34.05412036 C-32.47777825 24.17024957 -30.44285013 15.8576152 -23.39710033 8.56079191 C-16.31503395 1.92222088 -9.50310664 -0.08188713 0 0 Z " fill="#E6E5E5" transform="translate(989.1510065793991,812.6228018403053)"/>
<path d="M0 0 C0.74646738 -0.00350607 1.49293477 -0.00701215 2.26202238 -0.01062447 C4.7593792 -0.01991659 7.25650171 -0.01502081 9.7538681 -0.01015663 C11.56413319 -0.01389402 13.37439666 -0.01849589 15.18465757 -0.02388728 C20.15659391 -0.03612222 25.12846298 -0.03585621 30.10041094 -0.03349853 C35.46396198 -0.03309047 40.82749142 -0.04412856 46.19103241 -0.05361366 C56.69948215 -0.07022846 67.20790946 -0.07572347 77.71637124 -0.07683842 C86.26060663 -0.07778887 94.80483463 -0.08189905 103.34906769 -0.08823967 C127.58024196 -0.10585508 151.81139851 -0.11507833 176.04257923 -0.11357872 C177.34895861 -0.11349881 178.65533799 -0.1134189 180.00130463 -0.11333656 C181.30928196 -0.1132548 182.61725929 -0.11317304 183.9648723 -0.1130888 C205.1515981 -0.1122763 226.33825273 -0.13140408 247.52495795 -0.1596133 C269.28590586 -0.18835806 291.04681909 -0.20215264 312.80778646 -0.20042574 C325.02212878 -0.19976229 337.23639654 -0.20523488 349.45072174 -0.22678185 C359.85308147 -0.24501478 370.25533286 -0.24932375 380.65770167 -0.235763 C385.96183237 -0.22924345 391.26575537 -0.2290795 396.56986618 -0.2464695 C401.43341 -0.26225046 406.29658229 -0.25928538 411.16011733 -0.24190123 C412.91184743 -0.23884233 414.66360561 -0.2424215 416.41530257 -0.25362138 C437.0868588 -0.37694845 453.87966707 4.54497643 469.21126556 19.05805016 C479.76756181 30.23671307 487.43087965 46.52316004 487.43542165 61.97944337 C487.43818139 63.13106355 487.44094113 64.28268372 487.44378451 65.46920148 C487.44172919 66.73244294 487.43967387 67.99568441 487.43755627 69.29720592 C487.43890281 70.65983901 487.44068664 72.02247173 487.4428685 73.38510373 C487.4476081 77.14525583 487.44609373 80.90538377 487.44359073 84.66553707 C487.44196088 88.75041018 487.4460958 92.83527805 487.44949991 96.92014951 C487.45466051 104.08471257 487.45606996 111.24926888 487.45504379 118.41383362 C487.45352155 129.06776331 487.45767464 139.72168551 487.46291842 150.37561375 C487.47260063 170.50875546 487.47540298 190.64189463 487.47597548 210.7750384 C487.47643461 226.3197615 487.47849083 241.86448361 487.4816761 257.40920639 C487.48257361 261.88000891 487.48346343 266.35081144 487.48435098 270.82161397 C487.48457203 271.93299516 487.48479308 273.04437636 487.48502082 274.18943577 C487.49117694 305.459996 487.49512119 336.73055589 487.49467754 368.00111675 C487.49466196 369.18062455 487.49464639 370.36013235 487.49463034 371.57538281 C487.49454722 377.55393475 487.49444818 383.5324867 487.49434563 389.51103864 C487.49431571 391.29215609 487.49431571 391.29215609 487.49428519 393.10925572 C487.49424475 395.51049224 487.49420295 397.91172876 487.4941598 400.31296529 C487.49354692 437.679739 487.5010551 475.04650365 487.51473236 512.41327477 C487.53008389 554.37173329 487.53869915 596.33018585 487.53776914 638.28864735 C487.5376945 642.76039294 487.5376458 647.23213853 487.53761482 651.70388412 C487.53759734 653.3555327 487.53759734 653.3555327 487.53757951 655.0405479 C487.5375487 672.78084253 487.5439419 690.5211293 487.55254709 708.26142159 C487.56101276 726.08233376 487.56202205 743.90323441 487.55543777 761.72414748 C487.55173489 772.31819632 487.55359643 782.91221019 487.56338011 793.50625535 C487.56936042 800.57798475 487.56810643 807.6496887 487.56090961 814.72141691 C487.55701158 818.75383608 487.55629975 822.78618738 487.56436696 826.81860188 C487.57164157 830.48686268 487.56971432 834.15499902 487.56044309 837.82325426 C487.55790928 839.7643488 487.56518915 841.70544857 487.57286587 843.64652959 C487.49486139 862.6785178 479.66372901 879.61467077 466.21175385 892.96820641 C458.28700443 900.40147954 448.74919768 905.34768383 438.30892181 908.25726891 C437.31892181 908.58726891 436.32892181 908.91726891 435.30892181 909.25726891 C432.90292605 909.35407737 430.52608728 909.39484265 428.12006569 909.38869667 C427.37930286 909.3907493 426.63854004 909.39280194 425.87532985 909.39491677 C423.37336986 909.40060696 420.87146456 909.39912703 418.36949921 909.3977108 C416.56538704 909.4002933 414.76127544 909.40330614 412.95716465 909.4067142 C407.98374691 909.4148014 403.0103436 909.41657473 398.03692007 909.41731167 C392.67879694 909.41915932 387.32068135 909.42670535 381.96256256 909.43344688 C370.23703569 909.44704451 358.51151224 909.45305759 346.78597879 909.45745754 C339.46484841 909.46021843 332.14371936 909.46445558 324.82258987 909.46896172 C304.55526373 909.48115791 284.28793864 909.49145545 264.0206089 909.49483681 C262.0737504 909.49516616 262.0737504 909.49516616 260.08756142 909.49550216 C258.78652453 909.49572044 257.48548763 909.49593871 256.14502537 909.49616361 C253.50857679 909.49660707 250.87212821 909.49705364 248.23567963 909.49750328 C246.92790628 909.49772471 245.62013294 909.49794614 244.2727301 909.49817428 C223.09411332 909.50212012 201.915531 909.51956604 180.73692752 909.5428628 C158.99645983 909.56658458 137.25600941 909.57903909 115.51552856 909.58020473 C103.30790894 909.5811212 91.10033416 909.58686625 78.8927269 909.60502434 C68.49425538 909.62043668 58.09584255 909.6255392 47.69736178 909.61728624 C42.3935383 909.61338332 37.08983298 909.61429177 31.78602409 909.62834358 C26.92495038 909.64110429 22.06408334 909.63986586 17.20300983 909.62775287 C15.44984956 909.6257996 13.69667455 909.62885712 11.94353499 909.63759723 C-7.32647076 909.72753805 -24.27311351 906.38407809 -38.58951569 892.41742516 C-39.28303131 891.70457359 -39.97654694 890.99172203 -40.69107819 890.25726891 C-41.24021881 889.74035484 -41.78935944 889.22344078 -42.35514069 888.69086266 C-51.2600564 879.57165752 -58.76272836 862.45706975 -58.78482819 849.88226891 C-58.75389069 848.68601891 -58.72295319 847.48976891 -58.69107819 846.25726891 C-57.58635162 845.89117516 -56.48162506 845.52508141 -55.34342194 845.14789391 C-33.63247903 837.69852499 -14.38866183 826.44231456 4.30892181 813.25726891 C5.10169525 812.69862144 5.89446869 812.13997398 6.71126556 811.56439781 C15.52578629 805.32200117 24.1805343 798.87176051 32.8094101 792.37640953 C50.59707396 779.00521103 50.59707396 779.00521103 60.26481342 779.01117325 C60.95631342 779.00886576 61.64781341 779.00655827 62.36026795 779.00418086 C64.68145029 778.99888018 67.00235632 779.00786341 69.32352448 779.01675987 C70.9984519 779.01588502 72.67337905 779.01413119 74.34830475 779.01157188 C78.96416567 779.00707866 83.5799341 779.01512273 88.19578327 779.02512345 C93.24482129 779.03384231 98.29385488 779.03093518 103.34289837 779.02948761 C113.14879343 779.02842324 122.95465194 779.0376681 132.76053761 779.05049027 C144.10035909 779.0648751 155.44015853 779.06647893 166.77999115 779.06805992 C196.72714051 779.07856595 226.67428171 779.1064881 256.62142181 779.13226891 C323.50829681 779.17351891 390.39517181 779.21476891 459.30892181 779.25726891 C459.30892181 565.08726891 459.30892181 350.91726891 459.30892181 130.25726891 C297.27892181 130.25726891 135.24892181 130.25726891 -31.69107819 130.25726891 C-31.69107819 267.53726891 -31.69107819 404.81726891 -31.69107819 546.25726891 C-40.60107819 546.25726891 -49.51107819 546.25726891 -58.69107819 546.25726891 C-58.77644062 500.00104875 -58.85632235 453.74482348 -58.90279388 407.48854637 C-58.90348417 406.80321754 -58.90417445 406.1178887 -58.90488566 405.41179232 C-58.9198525 390.51538328 -58.93370308 375.6189734 -58.94640483 360.72256226 C-58.95264116 353.41666677 -58.95912397 346.11077149 -58.96573639 338.80487633 C-58.96639018 338.07787752 -58.96704398 337.3508787 -58.96771759 336.60184962 C-58.9889992 313.06574019 -59.0265369 289.52969104 -59.07256429 265.99361808 C-59.11980323 241.79389496 -59.15052299 217.59420517 -59.16065314 193.39443673 C-59.16209377 189.97120969 -59.16372195 186.54798276 -59.1654644 183.12475586 C-59.16597007 182.11421126 -59.16597007 182.11421126 -59.16648596 181.08325162 C-59.17237938 170.26741718 -59.19552846 159.45168619 -59.22523836 148.63589383 C-59.25478269 137.74488534 -59.26548832 126.85398356 -59.25858507 115.96293696 C-59.25539127 110.06896395 -59.26019254 104.17529292 -59.28710556 98.28137398 C-59.31161569 92.87390142 -59.31255141 87.46693105 -59.29557266 82.05943433 C-59.29347732 80.11428066 -59.29966834 78.16909435 -59.3154941 76.22400393 C-59.48950008 53.49605704 -54.57196112 34.22269994 -38.69107819 17.25726891 C-28.39721636 7.34659652 -14.4697237 -0.08705609 0 0 Z " fill="#050404" transform="translate(1503.6910781860352,1027.7427310943604)"/>
<path d="M0 0 C0.99829834 -0.00287018 1.99659668 -0.00574036 3.02514648 -0.00869751 C5.12972584 -0.01073332 7.23432433 -0.00523733 9.33886719 0.00732422 C12.55186456 0.02338434 15.76360404 0.00745869 18.9765625 -0.01171875 C21.02604443 -0.00973623 23.07552558 -0.00589238 25.125 0 C26.08140381 -0.00607269 27.03780762 -0.01214539 28.02319336 -0.0184021 C33.27536501 0.03671401 37.04302374 0.4131242 41.5625 3.3984375 C48.03793786 12.07495621 48.16030358 24.56914191 49.36938477 34.94262695 C50.16844203 41.65645065 51.20798478 48.2632257 52.5 54.8984375 C54.1922556 63.69368168 55.38246509 72.50617479 56.4375 81.3984375 C57.93502006 94.00757956 59.75010328 106.54665998 61.75 119.0859375 C61.8825116 119.91875244 62.01502319 120.75156738 62.15155029 121.60961914 C62.52987077 123.98098382 62.91056142 126.35194741 63.29296875 128.72265625 C63.40635086 129.4264592 63.51973297 130.13026215 63.6365509 130.85539246 C64.21236491 134.3886209 64.86008322 137.88635361 65.5625 141.3984375 C173.4725 141.8934375 173.4725 141.8934375 283.5625 142.3984375 C283.8925 139.0984375 284.2225 135.7984375 284.5625 132.3984375 C287.46432482 126.51187858 289.26132802 123.71002766 295.5625 121.3984375 C299.36243018 120.99617018 303.12012264 121.0250737 306.9375 121.0859375 C307.94039062 121.08271484 308.94328125 121.07949219 309.9765625 121.07617188 C323.88453304 121.1762947 323.88453304 121.1762947 329.5 125.8359375 C333.0130836 130.20067773 332.97309529 134.32059873 332.89453125 139.734375 C332.5625 142.3984375 332.5625 142.3984375 330.625 145.3984375 C324.63957689 149.30728525 318.58854787 150.47530712 311.5625 151.3984375 C309.55244327 163.4392628 309.18173345 175.47978774 308.90454102 187.65649414 C308.87287842 188.95578857 308.84121582 190.25508301 308.80859375 191.59375 C308.77270142 193.34196045 308.77270142 193.34196045 308.73608398 195.12548828 C308.5625 198.3984375 308.5625 198.3984375 308.07617188 201.13916016 C307.33167308 205.86304749 307.25050053 210.57649469 307.09765625 215.3515625 C307.01911729 217.51953985 306.94033353 219.68750835 306.86132812 221.85546875 C306.74197717 225.24974136 306.62514478 228.64405758 306.51293945 232.03857422 C306.40253129 235.33070122 306.28194731 238.62233958 306.16015625 241.9140625 C306.12986832 242.9154425 306.09958038 243.91682251 306.06837463 244.94854736 C305.52973711 259.06571823 302.25423325 272.66744108 292.5625 283.3984375 C291.86447266 284.19507813 291.86447266 284.19507813 291.15234375 285.0078125 C282.22943979 293.86225428 269.58014804 296.15832244 257.56352234 296.16717529 C255.96047309 296.14914107 254.35743051 296.13050578 252.75439453 296.11132812 C251.02296028 296.11291417 249.29152678 296.11712184 247.56010437 296.12371826 C242.90522975 296.13388881 238.25125618 296.10711882 233.59652567 296.07266426 C228.70409422 296.04234933 223.81166858 296.04493477 218.91915894 296.04333496 C210.71352981 296.03597775 202.5082381 296.0061793 194.30273438 295.9609375 C183.78788103 295.90307891 173.27329797 295.88247426 162.75830269 295.8735733 C153.68644481 295.86560036 144.61464501 295.84061112 135.54282904 295.81287956 C132.64031068 295.80470861 129.73779434 295.798844 126.83526993 295.79328918 C122.2698075 295.78346053 117.70450631 295.76298282 113.13912392 295.73441315 C111.46907191 295.7254161 109.79899833 295.71970149 108.12892342 295.71759796 C93.08081321 295.69440119 79.01586435 294.2194075 67.5625 283.3984375 C61.77137362 276.87288553 55.5625 266.44125214 55.5625 257.3984375 C47.0917649 258.15779242 39.70090877 259.09978915 33.5625 265.3984375 C27.34531779 273.53752874 26.12124273 282.44358224 27.20361328 292.37255859 C28.56081586 300.03382864 32.31488923 305.91901845 38.5625 310.3984375 C43.42621313 313.07844269 47.35457365 314.52476125 52.89262867 314.52034283 C53.75667468 314.52211708 54.62072069 314.52389133 55.51094991 314.52571934 C56.45558793 314.52260473 57.40022596 314.51949012 58.37348938 314.51628113 C59.38060555 314.51698571 60.38772172 314.51769029 61.42535657 314.51841623 C64.81003661 314.51972774 68.19467039 314.51404491 71.5793457 314.50854492 C74.00204468 314.50830285 76.42474376 314.50857982 78.84744263 314.50933838 C83.39300331 314.51030207 87.9385575 314.5098161 92.48411753 314.50713757 C101.41750907 314.50200971 110.35084424 314.51036675 119.28422546 314.52375793 C120.6909605 314.5258046 122.09769554 314.52784693 123.50443059 314.52988499 C126.35242787 314.53404098 129.20042506 314.53825612 132.04842222 314.54249251 C139.36878731 314.55329331 146.68915327 314.5630997 154.00952148 314.5715332 C154.74410515 314.57238445 155.47868882 314.5732357 156.2355326 314.57411275 C168.13868039 314.58733224 180.04176118 314.58231491 191.94490824 314.57146164 C204.16848121 314.56082955 216.3918873 314.57301972 228.61542195 314.60554391 C236.15345639 314.62481633 243.69104497 314.625836 251.22907259 314.60338763 C257.00712875 314.58800999 262.78476857 314.60401014 268.56276321 314.63168335 C270.93189314 314.63805915 273.30107618 314.63417226 275.67016792 314.61928749 C278.90440411 314.60047477 282.13643029 314.61849156 285.37055969 314.64567566 C286.30850555 314.63140744 287.24645141 314.61713922 288.21281987 314.60243863 C293.91965708 314.69939733 297.01743247 315.78596436 301.1942479 319.72177678 C304.54700726 323.83025937 305.01789124 327.11589914 304.5625 332.3984375 C303.13216628 336.21266074 301.26840291 338.75142907 298.5 341.6484375 C295.34797179 345.17220368 294.75134495 348.19989216 294.03515625 352.7890625 C291.78393767 365.21727745 283.54568581 375.07640908 273.5625 382.3984375 C261.29680249 389.58597999 251.5900478 390.87407445 237.84375 387.4375 C224.28252748 383.14311287 216.84495021 375.03772841 210.296875 362.84375 C206.99657493 356.28774852 205.5625 351.79106181 205.5625 344.3984375 C180.4825 344.3984375 155.4025 344.3984375 129.5625 344.3984375 C129.5625 346.7084375 129.5625 349.0184375 129.5625 351.3984375 C126.12134572 364.69982232 117.98433705 376.75436579 106.1171875 383.86328125 C96.13754426 389.12777195 86.1655001 391.26379568 74.99609375 388.5234375 C62.79646073 384.52269485 52.46169483 377.08973637 46.05859375 365.73046875 C42.59207357 358.39386336 39.2867219 350.61372207 39.5625 342.3984375 C38.02529297 342.02525391 38.02529297 342.02525391 36.45703125 341.64453125 C24.50294646 338.20461492 13.77307851 327.30728843 7.49609375 317.0078125 C-1.52634502 300.47775132 -2.70610728 283.4325592 2.5625 265.3984375 C8.65401375 249.24117453 19.73771018 237.69368783 35.4375 230.5234375 C40.67446453 228.63813027 45.00263721 228.36596167 50.5625 228.3984375 C50.47924469 227.81787094 50.39598938 227.23730438 50.31021118 226.6391449 C49.43314036 220.52200704 48.55710739 214.40472115 47.68164062 208.28735352 C47.35605314 206.0132279 47.03021296 203.73913844 46.70410156 201.46508789 C46.23173434 198.17083366 45.76017655 194.87646492 45.2890625 191.58203125 C45.13584534 190.51181732 44.98262817 189.44160339 44.82476807 188.33895874 C43.84788515 181.48662925 42.91918345 174.63115472 42.06787109 167.76196289 C41.65886153 165.03977704 41.16504407 162.38188365 40.60986328 159.68798828 C39.49603346 154.22855736 38.68014997 148.74701794 37.90625 143.23046875 C37.75845093 142.19258713 37.61065186 141.15470551 37.45837402 140.08537292 C36.99044609 136.79426231 36.5264833 133.50260627 36.0625 130.2109375 C35.75154643 128.02275172 35.44035044 125.83460038 35.12890625 123.64648438 C33.87278602 114.80141584 32.62535934 105.95633503 31.46875 97.09765625 C30.77615836 91.83580176 29.95849222 86.60863424 29.0625 81.37792969 C28.14970546 75.93860127 27.36285787 70.48024635 26.5625 65.0234375 C26.38879883 63.83967529 26.21509766 62.65591309 26.03613281 61.4362793 C25.69625959 59.11854161 25.35672614 56.80075407 25.01757812 54.48291016 C24.6403236 51.92591785 24.25407747 49.37074571 23.859375 46.81640625 C23.67890625 45.62660156 23.4984375 44.43679688 23.3125 43.2109375 C23.16296875 42.24800781 23.0134375 41.28507812 22.859375 40.29296875 C22.48481028 36.64096273 22.54466168 33.07008022 22.5625 29.3984375 C21.02710571 29.40012939 21.02710571 29.40012939 19.46069336 29.40185547 C15.63771086 29.39816514 11.81597726 29.35520042 7.9934082 29.30078125 C6.34375082 29.28269042 4.69394276 29.27504016 3.04418945 29.27832031 C-12.44288395 29.29703016 -12.44288395 29.29703016 -16.99609375 25.46875 C-21.14461368 20.25157134 -21.0929133 15.93410812 -20.4375 9.3984375 C-16.23159898 0.33957377 -8.95227042 -0.05684251 0 0 Z " fill="#060505" transform="translate(1594.4375,1249.6015625)"/>
<path d="M0 0 C7.31551477 3.03642489 13.67633257 8.32915654 17.1875 15.5 C19.43825078 27.2130908 14.89193418 35.78885772 9.1875 45.5 C8.60274902 46.50853027 8.01799805 47.51706055 7.41552734 48.55615234 C2.75062044 56.58525403 -2.01425889 64.55006951 -6.8125 72.5 C-7.33811523 73.37543457 -7.86373047 74.25086914 -8.40527344 75.15283203 C-14.48352733 85.27426574 -20.82323672 95.20579054 -27.28515625 105.0859375 C-31.90968382 112.16523417 -36.45259371 119.29661354 -41.00390625 126.4230957 C-44.37813239 131.70387361 -47.76335021 136.97653569 -51.18334961 142.2277832 C-61.10977837 157.47358506 -70.59471108 172.98028007 -79.75634766 188.69628906 C-82.07267042 192.6521357 -84.44128311 196.57688913 -86.8125 200.5 C-86.14347656 200.19707031 -85.47445313 199.89414063 -84.78515625 199.58203125 C-65.50508675 191.17126268 -38.53075372 182.58388478 -17.8125 190.5 C-9.12351895 194.14076448 -1.13576086 198.51510871 4.1875 206.5 C4.05346556 210.71761719 0.96365667 213.21824392 -1.875 216 C-2.40448242 216.52263428 -2.93396484 217.04526855 -3.47949219 217.58374023 C-12.91770022 226.65925375 -23.88359074 233.94509557 -34.67749023 241.29199219 C-45.33618716 248.55370594 -55.72520516 256.1978993 -66.07592773 263.88989258 C-86.49658351 279.03313847 -107.21299078 292.58849197 -131.81933594 299.89404297 C-141.21958587 302.75188475 -150.34896374 306.45616353 -159.4375 310.16796875 C-170.51171319 314.53869409 -176.98897518 313.9937833 -187.8125 309.5 C-192.14787211 307.43116664 -196.38597595 305.19609731 -200.625 302.9375 C-203.01523751 301.67776683 -205.40806939 300.42299433 -207.80078125 299.16796875 C-208.39533112 298.8553006 -208.98988098 298.54263245 -209.60244751 298.2204895 C-215.13330259 295.316959 -220.71487376 292.52196178 -226.3125 289.75 C-233.71728441 286.07518057 -241.05062648 282.28929656 -248.34960938 278.40917969 C-255.1163251 274.82927822 -261.95807341 271.40836337 -268.8125 268 C-276.70979001 264.06403122 -284.6038164 260.12394431 -292.4375 256.0625 C-293.54544922 255.49789062 -293.54544922 255.49789062 -294.67578125 254.921875 C-301.46972893 251.36792455 -307.79376173 247.17416245 -312.75 241.25 C-313.31589844 240.58484375 -313.88179687 239.9196875 -314.46484375 239.234375 C-318.36472266 234.2154004 -317.11913931 227.50040739 -316.50390625 221.48046875 C-313.10706921 197.58236744 -305.19828866 175.19455135 -294.8125 153.5 C-294.49732422 152.83258789 -294.18214844 152.16517578 -293.85742188 151.47753906 C-291.61996433 146.75858164 -289.24917116 142.11892663 -286.8125 137.5 C-286.36406738 136.64470703 -285.91563477 135.78941406 -285.45361328 134.90820312 C-278.20608496 121.21125874 -270.17297898 108.1808541 -261.5625 95.3125 C-261.10309021 94.62584259 -260.64368042 93.93918518 -260.17034912 93.23171997 C-257.08394879 88.63162801 -253.96172782 84.0572807 -250.8125 79.5 C-250.36217407 78.84661652 -249.91184814 78.19323303 -249.44787598 77.52005005 C-248.1188604 75.59894442 -246.78014167 73.68503817 -245.4375 71.7734375 C-245.04181824 71.20168289 -244.64613647 70.62992828 -244.23846436 70.04084778 C-240.77591702 65.15788223 -236.85220589 61.67061108 -231.8125 58.5 C-230.843125 57.860625 -229.87375 57.22125 -228.875 56.5625 C-222.09899243 54.21164023 -216.9197646 54.71150793 -210.40820312 57.81494141 C-206.30345085 59.89446538 -202.44443956 62.0236148 -198.765625 64.796875 C-195.95035952 66.74965899 -195.95035952 66.74965899 -192.83203125 66.4921875 C-189.2877624 65.32757652 -186.60318607 63.69379072 -183.5 61.625 C-176.38213808 57.04879695 -169.48497639 53.34366982 -160.8125 54.5 C-153.87176925 56.57668141 -147.98473094 59.23611068 -142.125 63.5 C-138.56699617 65.9323153 -138.56699617 65.9323153 -134.43359375 66.41796875 C-131.80652321 65.60864059 -129.34593648 64.56708203 -126.8125 63.5 C-112.84901771 59.21966138 -104.29451165 58.10302732 -90.8125 64.5 C-89.14847176 65.27871905 -87.48440656 66.05735911 -85.8203125 66.8359375 C-81.14030696 69.03504436 -76.47297677 71.25983682 -71.8125 73.5 C-71.58820313 72.85289063 -71.36390625 72.20578125 -71.1328125 71.5390625 C-69.34283653 67.4189403 -67.02823528 63.70300187 -64.6875 59.875 C-60.6840115 53.27985436 -56.72531019 46.66261274 -52.83033752 40.00270081 C-31.95233726 4.33592239 -31.95233726 4.33592239 -21.8125 -0.5 C-15.71520851 -3.54864574 -6.2724634 -2.01678356 0 0 Z " fill="#050404" transform="translate(1562.8125,1546.5)"/>
<path d="M0 0 C0.89368279 -0.00433118 1.78736558 -0.00866236 2.70812967 -0.01312479 C5.7062321 -0.02399113 8.70387442 -0.01349212 11.70197308 -0.00311857 C13.88098845 -0.00655135 16.06000209 -0.01129764 18.23901206 -0.01723954 C24.25194126 -0.02979341 30.26472928 -0.0235793 36.27765924 -0.01440586 C42.13633086 -0.00840665 47.99497202 -0.01652772 53.85363916 -0.0242305 C65.98387913 -0.03966782 78.11408325 -0.0408356 90.24432957 -0.03425127 C102.53834842 -0.02762608 114.83234162 -0.02749533 127.12636006 -0.03529841 C127.90264942 -0.03578641 128.67893878 -0.0362744 129.47875207 -0.03677719 C132.64042295 -0.03878535 135.8020938 -0.04083845 138.96376461 -0.04294893 C171.06828972 -0.06435676 203.17279588 -0.06640214 235.27732633 -0.06089189 C239.71438188 -0.06013619 244.15143743 -0.05940857 248.58849299 -0.05870992 C249.91042137 -0.05850128 249.91042137 -0.05850128 251.25905537 -0.05828843 C270.78281353 -0.05533714 290.30656941 -0.05834794 309.83032716 -0.06260621 C312.50174394 -0.06318837 315.17316072 -0.06375721 317.8445775 -0.06432184 C325.00558545 -0.06583677 332.16659341 -0.06736368 339.32760135 -0.06891485 C389.32334882 -0.07967306 439.31909418 -0.08437185 489.31484234 -0.07644469 C490.72873859 -0.07622223 490.72873859 -0.07622223 492.1711984 -0.07599527 C502.68238925 -0.07433624 513.19358008 -0.07258666 523.70477091 -0.07080226 C524.65379404 -0.07064124 525.60281718 -0.07048021 526.58059859 -0.07031431 C534.28315382 -0.06900645 534.28315382 -0.06900645 538.09439061 -0.06835312 C598.80378089 -0.05796069 659.51314218 -0.06572929 720.22252858 -0.08935457 C735.52010479 -0.09529786 750.81768103 -0.10118937 766.11525738 -0.1067639 C767.05715691 -0.10710767 767.99905643 -0.10745144 768.96949836 -0.10780563 C797.99300578 -0.11833103 827.01651078 -0.12392693 856.04002011 -0.12432104 C856.95104727 -0.12433383 857.86207444 -0.12434661 858.80070849 -0.12435978 C878.79852153 -0.12458806 898.79633436 -0.1235821 918.79414728 -0.12145072 C925.94943293 -0.12069594 933.10471858 -0.12001774 940.26000425 -0.11937057 C942.04009224 -0.11920788 943.82018023 -0.11904022 945.60026823 -0.11886756 C973.97907964 -0.11614495 1002.35787347 -0.12470668 1030.7366811 -0.13872166 C1060.10793202 -0.15312042 1089.47914947 -0.15269063 1118.85039924 -0.13534694 C1122.00320768 -0.13354272 1125.15601615 -0.13180253 1128.30882466 -0.13011271 C1129.08258827 -0.12969221 1129.85635189 -0.12927171 1130.65356289 -0.12883846 C1142.91462982 -0.12253613 1155.17565082 -0.12965169 1167.43671128 -0.14232191 C1179.4876255 -0.15449252 1191.53846713 -0.15241801 1203.58937584 -0.13510159 C1210.03802454 -0.126425 1216.48650452 -0.12415404 1222.93514489 -0.13937091 C1228.79818398 -0.15307594 1234.66090875 -0.14847423 1240.5239292 -0.12908572 C1242.63505782 -0.12534082 1244.74621154 -0.12833769 1246.85731756 -0.13879881 C1267.66032695 -0.23480413 1267.66032695 -0.23480413 1274.84899342 4.37719816 C1275.50899342 5.03719816 1276.16899342 5.69719816 1276.84899342 6.37719816 C1279.15757385 6.68028322 1279.15757385 6.68028322 1281.87485707 6.62875456 C1283.4706535 6.63682882 1283.4706535 6.63682882 1285.09868824 6.6450662 C1286.27111073 6.64094221 1287.44353322 6.63681822 1288.65148365 6.63256925 C1290.49810345 6.63799993 1290.49810345 6.63799993 1292.3820287 6.64354032 C1295.06454611 6.65045086 1297.7468129 6.65381765 1300.42931378 6.65159315 C1304.67938871 6.64876073 1308.92929724 6.66311265 1313.17933095 6.6805734 C1325.26670236 6.72759666 1337.35406394 6.75151508 1349.44152272 6.75805753 C1356.11415165 6.76182165 1362.78659357 6.7799655 1369.45914239 6.8131519 C1373.67447868 6.83326243 1377.88932912 6.8357864 1382.10469341 6.82487172 C1385.36385312 6.82162594 1388.62285557 6.84441399 1391.8819524 6.863038 C1393.03615681 6.85486555 1394.19036122 6.84669309 1395.37954152 6.83827299 C1403.95449226 6.92504641 1411.26128057 8.62457045 1418.66149342 13.06469816 C1427.58828685 22.50159407 1429.15454031 31.60998542 1429.10084242 44.20202094 C1429.10377128 45.38527993 1429.10670015 46.56853891 1429.10971776 47.78765423 C1429.11582654 51.07459614 1429.11298455 54.36139002 1429.10638195 57.64832647 C1429.10139104 61.2366082 1429.10803825 64.82487181 1429.11318561 68.41315073 C1429.12063414 74.7271393 1429.120626 81.04109415 1429.11579613 87.35508476 C1429.10860125 96.80739985 1429.11291394 106.25968579 1429.11947748 115.71200009 C1429.13032113 131.82069678 1429.13163087 147.92938179 1429.12777913 164.03808111 C1429.12390595 180.36671271 1429.12435302 196.69533559 1429.13008893 213.02396673 C1429.13044775 214.05460142 1429.13080658 215.08523612 1429.13117628 216.14710216 C1429.13265115 220.34459435 1429.13415555 224.54208652 1429.13569774 228.73957868 C1429.15134331 271.37344818 1429.15401056 314.00731169 1429.15154168 356.64118355 C1429.15120324 362.53449879 1429.15088115 368.42781402 1429.150576 374.32112926 C1429.15048443 376.07689193 1429.15048443 376.07689193 1429.15039102 377.86812455 C1429.14911982 403.79345128 1429.15171922 429.71877719 1429.15510206 455.64410368 C1429.1558728 461.56146727 1429.15661752 467.47883087 1429.15736708 473.39619447 C1429.15766877 475.77101691 1429.15797065 478.14583935 1429.15827272 480.52066179 C1429.1584224 481.69780665 1429.15857208 482.87495152 1429.15872629 484.08776744 C1429.15902982 486.46877103 1429.15933451 488.84977461 1429.15964034 491.2307782 C1429.16831537 558.80491643 1429.17295581 626.37905393 1429.16869271 693.95319265 C1429.16861465 695.20486879 1429.16853659 696.45654493 1429.16845617 697.74615065 C1429.16758335 711.70414061 1429.16665409 725.66213056 1429.16570554 739.62012051 C1429.16562003 740.88035744 1429.16553452 742.14059436 1429.16544642 743.43902029 C1429.16473556 753.91148266 1429.16473556 753.91148266 1429.16440419 758.7285497 C1429.15886763 839.34874171 1429.16641196 919.96892228 1429.18517506 1000.58911222 C1429.18989713 1020.90384697 1429.19457757 1041.21858173 1429.19901192 1061.53331655 C1429.19928524 1062.78411017 1429.19955857 1064.03490379 1429.19984017 1065.32360024 C1429.20820886 1103.86155506 1429.21289089 1142.39950893 1429.21371949 1180.93746465 C1429.21374585 1182.14703615 1429.21377222 1183.35660765 1429.21379939 1184.60283283 C1429.21434012 1211.15317287 1429.21396782 1237.70351284 1429.21275967 1264.25385285 C1429.21233403 1273.75352062 1429.21196891 1283.25318839 1429.21163023 1292.75285615 C1429.21154493 1295.1162045 1429.21145599 1297.47955284 1429.21136341 1299.84290119 C1429.20991352 1337.53024387 1429.21704811 1375.21757877 1429.22836737 1412.90491958 C1429.2400057 1451.90708664 1429.24059395 1490.9092398 1429.22852395 1529.91140692 C1429.22727207 1534.09681376 1429.22606859 1538.2822206 1429.22490323 1542.46762747 C1429.22461293 1543.49482084 1429.22432264 1544.52201422 1429.22402355 1545.58033466 C1429.21969265 1561.86646828 1429.22543855 1578.15258221 1429.23534342 1594.43871274 C1429.24486421 1610.44026362 1429.2437277 1626.44178401 1429.23113719 1642.4433331 C1429.22406995 1651.83250249 1429.22525165 1661.2215844 1429.23848558 1670.61074762 C1429.24645088 1676.84094811 1429.24359988 1683.07108215 1429.23183594 1689.3012765 C1429.22546629 1692.83653495 1429.22378597 1696.37162013 1429.23540315 1699.90686914 C1429.24537603 1703.70530145 1429.23696531 1707.50326433 1429.22389024 1711.30167705 C1429.23482579 1712.93482221 1429.23482579 1712.93482221 1429.24598225 1714.60096021 C1429.16821905 1725.49002075 1426.75262213 1733.656298 1419.59899342 1742.00219816 C1414.11678704 1746.73683094 1407.92211103 1749.50069538 1400.63835615 1749.50376 C1399.79842612 1749.50653531 1398.95849609 1749.50931063 1398.09311364 1749.51217004 C1397.17292375 1749.51013371 1396.25273386 1749.50809737 1395.30465943 1749.50599933 C1394.31968781 1749.50777434 1393.3347162 1749.50954935 1392.31989696 1749.51137814 C1388.98664571 1749.51614635 1385.65343721 1749.51373833 1382.32018387 1749.51141924 C1379.90908063 1749.51337096 1377.49797771 1749.51575934 1375.08687529 1749.51854721 C1369.81116642 1749.52362509 1364.53546993 1749.52556332 1359.25975966 1749.52479646 C1351.3617098 1749.5236627 1343.46367035 1749.52823684 1335.56562283 1749.5339273 C1322.10666726 1749.54344748 1308.64771376 1749.54814786 1295.18875515 1749.55023664 C1281.54335194 1749.55236367 1267.89795193 1749.55661998 1254.25255024 1749.56347936 C1252.96126641 1749.56412528 1252.96126641 1749.56412528 1251.64389603 1749.56478425 C1248.13793085 1749.56654256 1244.63196568 1749.56831221 1241.12600052 1749.57009728 C1198.60028205 1749.59170721 1156.07456295 1749.60257744 1113.54884024 1749.61157351 C1099.76079255 1749.61450664 1085.97274502 1749.61787641 1072.18469751 1749.62154073 C1071.2122561 1749.62179902 1070.23981469 1749.62205731 1069.23790536 1749.62232343 C1065.30390328 1749.62336962 1061.36990121 1749.62441805 1057.43589913 1749.62546925 C990.1444446 1749.64343437 922.85298981 1749.65881433 855.56153322 1749.66622828 C850.27486667 1749.66681225 844.98820013 1749.66740952 839.70153359 1749.66800589 C838.12845515 1749.66818307 838.12845515 1749.66818307 836.52359734 1749.66836383 C825.89839596 1749.66956124 815.27319458 1749.67077 804.64799321 1749.67199637 C802.51759021 1749.6722416 800.38718721 1749.67248546 798.25678421 1749.67272793 C729.82591453 1749.68051883 661.39506199 1749.70290452 592.96419981 1749.73540436 C543.8012361 1749.75874544 494.63827579 1749.78029956 445.47530663 1749.78741068 C443.9591713 1749.78763121 443.9591713 1749.78763121 442.41240697 1749.78785619 C420.225227 1749.79104081 398.03804705 1749.79309184 375.85086687 1749.79408374 C366.9239328 1749.79449849 357.99699873 1749.79505339 349.07006466 1749.79564565 C348.09305297 1749.79570632 347.11604127 1749.79576699 346.10942317 1749.7958295 C314.62026125 1749.7978466 283.13111955 1749.81209322 251.64196469 1749.83259066 C219.92999923 1749.85315996 188.21805717 1749.86107177 156.50608571 1749.85151289 C152.12580518 1749.8501944 147.74552462 1749.84901637 143.36524403 1749.84792227 C142.50657264 1749.84770242 141.64790126 1749.84748257 140.76320952 1749.84725606 C127.15634156 1749.84413941 113.54951828 1749.85447725 99.94266067 1749.87039781 C86.56902785 1749.88576732 73.19545693 1749.88691559 59.82182197 1749.87284958 C51.97745294 1749.86502824 44.13327283 1749.86818391 36.2889226 1749.88748674 C30.47007741 1749.90058678 24.65138193 1749.89288919 18.83253947 1749.87699939 C16.48953538 1749.87384164 14.14651034 1749.87743228 11.80353023 1749.88849114 C8.62560419 1749.90251744 5.44866343 1749.89187128 2.27077156 1749.87514281 C1.36731687 1749.88506019 0.46386217 1749.89497756 -0.46696994 1749.90519546 C-8.32919377 1749.81789779 -15.94998821 1748.03336233 -22.08850658 1742.93969816 C-22.76913158 1742.09407316 -23.44975658 1741.24844816 -24.15100658 1740.37719816 C-24.85225658 1739.57282316 -25.55350658 1738.76844816 -26.27600658 1737.93969816 C-32.36719316 1729.6150765 -32.29803233 1721.67671716 -32.27865708 1711.7547375 C-32.28030786 1710.56904946 -32.28195864 1709.38336143 -32.28365944 1708.16174346 C-32.28723988 1704.85867275 -32.28632957 1701.55565777 -32.28355766 1698.25258987 C-32.28163696 1694.65022342 -32.28551625 1691.04786244 -32.28865445 1687.44549748 C-32.2933724 1681.103568 -32.29435156 1674.76164632 -32.2929261 1668.41971537 C-32.29080782 1658.92554956 -32.29441428 1649.43139186 -32.29914088 1639.9372273 C-32.30702109 1623.7580314 -32.31010326 1607.5788377 -32.31058681 1591.39964002 C-32.31108883 1574.99760608 -32.31373197 1558.5955746 -32.3189944 1542.19354147 C-32.31932454 1541.15859409 -32.31965467 1540.12364672 -32.31999481 1539.0573373 C-32.32134477 1534.8423365 -32.32270743 1530.62733571 -32.32408691 1526.41233493 C-32.34039848 1476.48374886 -32.34677647 1426.55516327 -32.35153478 1376.626575 C-32.35391684 1351.7727333 -32.35762006 1326.91889187 -32.36157188 1302.06505039 C-32.37423649 1222.37103667 -32.38502089 1142.67702296 -32.38841234 1062.98300826 C-32.38857458 1059.17329081 -32.38874014 1055.36357336 -32.38890672 1051.55385591 C-32.38924053 1043.91322014 -32.38957101 1036.27258436 -32.38990128 1028.63194859 C-32.39028818 1019.68633996 -32.39067779 1010.74073132 -32.39107234 1001.79512269 C-32.39118476 999.23480299 -32.39129618 996.67448329 -32.3914066 994.1141636 C-32.39495715 911.85979713 -32.4100401 829.6054394 -32.43334434 747.35107627 C-32.45008086 688.25415136 -32.46555881 629.15722808 -32.4700793 570.06030077 C-32.47017279 568.84552996 -32.47026627 567.63075915 -32.47036259 566.3791771 C-32.47238142 539.71489747 -32.47353765 513.05061785 -32.47389118 486.38633814 C-32.47402736 476.84591045 -32.47423635 467.30548276 -32.47448443 457.76505507 C-32.47454599 455.39155275 -32.47460431 453.01805042 -32.47465938 450.6445481 C-32.47557998 412.79154264 -32.48555754 374.93854629 -32.50011687 337.08554383 C-32.51471811 298.97115616 -32.51978382 260.85677967 -32.51169733 222.7423897 C-32.51058189 217.47994583 -32.50957124 212.21750194 -32.508623 206.95505804 C-32.50843304 205.92343967 -32.50824307 204.89182131 -32.50804734 203.82894178 C-32.50530972 187.46968981 -32.51266837 171.11045846 -32.52419637 154.75121097 C-32.53531298 138.679512 -32.53579274 122.60784229 -32.52482619 106.53614289 C-32.51871278 97.10461567 -32.52086943 87.67317653 -32.53507816 78.24165754 C-32.54368982 71.98466379 -32.54149967 65.72773512 -32.53037945 59.47074544 C-32.52437447 55.91942339 -32.52308239 52.36827453 -32.53506431 48.81696372 C-32.54782888 45.0031251 -32.53744046 41.18954976 -32.52475274 37.37570632 C-32.53216123 36.27958295 -32.53956973 35.18345959 -32.54720273 34.05412036 C-32.47777825 24.17024957 -30.44285013 15.8576152 -23.39710033 8.56079191 C-16.31503395 1.92222088 -9.50310664 -0.08188713 0 0 Z M-23.15100658 25.37719816 C-24.792516 28.871843 -25.40117488 31.60857345 -25.40223958 35.45840727 C-25.40736779 36.46757846 -25.41249601 37.47674966 -25.41777962 38.51650179 C-25.4132344 39.62110589 -25.40868919 40.72570999 -25.40400624 41.86378694 C-25.40705934 43.04693226 -25.41011243 44.23007758 -25.41325805 45.44907579 C-25.41973374 48.74973072 -25.41720346 52.05016094 -25.41096631 55.35080201 C-25.40637 58.94873864 -25.41337124 62.54665565 -25.41889995 66.14458838 C-25.42702037 72.48025771 -25.42765349 78.81589424 -25.42348807 85.1515669 C-25.41728639 94.63635787 -25.42255407 104.1211186 -25.43008548 113.60590736 C-25.44257477 129.76869319 -25.44549449 145.93146832 -25.44325054 162.09425825 C-25.44100417 178.48058822 -25.44306092 194.86690909 -25.45039546 211.25323766 C-25.45085477 212.28703695 -25.45131408 213.32083623 -25.4517873 214.38596276 C-25.45367051 218.59625945 -25.45558188 222.80655613 -25.45752968 227.01685278 C-25.47783618 270.97477621 -25.4839423 314.93269454 -25.4851139 358.89062212 C-25.48524339 363.62456676 -25.48537927 368.3585114 -25.48552072 373.09245604 C-25.48555473 374.26714179 -25.48558874 375.44182755 -25.48562378 376.65210983 C-25.48644011 402.66375004 -25.49081807 428.67538927 -25.49583241 454.68702896 C-25.49788907 465.39207594 -25.49986911 476.09712293 -25.50186491 486.80216992 C-25.50208609 487.98492491 -25.50230727 489.1676799 -25.50253515 490.38627595 C-25.51518633 558.17957709 -25.52343305 625.9728776 -25.52251804 693.76617998 C-25.52248648 696.30415894 -25.52245501 698.8421379 -25.52242362 701.38011687 C-25.52227685 712.83932998 -25.52210051 724.2985431 -25.52191585 735.75775621 C-25.52183361 740.86789534 -25.52175331 745.97803447 -25.52167323 751.0881736 C-25.52163244 753.64589252 -25.5215904 756.20361144 -25.52154711 758.76133036 C-25.52018637 839.65388296 -25.53482431 920.54641805 -25.56262767 1001.43896574 C-25.56962944 1021.821439 -25.57656824 1042.20391227 -25.58315647 1062.58638567 C-25.58356221 1063.84133384 -25.58396796 1065.096282 -25.58438601 1066.3892589 C-25.59681129 1105.05300475 -25.60434621 1143.71674916 -25.60687244 1182.38049692 C-25.60695234 1183.59395651 -25.60703224 1184.80741611 -25.60711457 1186.05764721 C-25.60882092 1212.69292231 -25.60934357 1239.32819732 -25.60877381 1265.96347247 C-25.60858084 1275.49348768 -25.60847675 1285.02350289 -25.60841635 1294.5535181 C-25.60840053 1296.92443879 -25.60838012 1299.29535949 -25.60835511 1301.66628018 C-25.60800212 1339.4812285 -25.61941214 1377.29616186 -25.63666274 1415.11110589 C-25.65394388 1453.18648182 -25.65836122 1491.26183702 -25.64514009 1529.33721523 C-25.64331539 1534.59379527 -25.64162886 1539.85037535 -25.64002407 1545.10695547 C-25.63970389 1546.13742879 -25.63938372 1547.16790211 -25.63905384 1548.22960189 C-25.63434021 1564.57349537 -25.64308052 1580.91735307 -25.65736644 1597.26123982 C-25.67112016 1613.31621862 -25.67069248 1629.37114438 -25.65498217 1645.42612198 C-25.64619043 1654.84897161 -25.64843106 1664.27166539 -25.66671574 1673.69450226 C-25.67775815 1679.94448878 -25.67441817 1686.19435842 -25.65915017 1692.44433584 C-25.65089134 1695.99253001 -25.6489418 1699.54041643 -25.66465155 1703.08859236 C-25.68137794 1706.8974041 -25.66729843 1710.705744 -25.6501019 1714.51456189 C-25.65990114 1715.61199376 -25.66970038 1716.70942563 -25.67979656 1717.84011301 C-25.60942375 1725.27425744 -24.42921004 1730.65327405 -19.36975658 1736.40063566 C-18.80256908 1736.84665128 -18.23538158 1737.29266691 -17.65100658 1737.75219816 C-17.08381908 1738.21368253 -16.51663158 1738.67516691 -15.93225658 1739.15063566 C-12.59374983 1741.4495197 -10.01437949 1742.62698649 -5.92890124 1742.6293765 C-4.66515784 1742.63738563 -4.66515784 1742.63738563 -3.37588426 1742.64555656 C-2.45282109 1742.64124762 -1.52975792 1742.63693868 -0.57872313 1742.63249916 C0.40927465 1742.63580072 1.39727243 1742.63910227 2.41520954 1742.64250388 C5.75881588 1742.65119981 9.10224801 1742.64553698 12.44585907 1742.64005369 C14.8643902 1742.64335079 17.28292027 1742.64752233 19.70144853 1742.65249389 C24.99344978 1742.66132967 30.2854001 1742.66388658 35.57740404 1742.66103721 C43.49980671 1742.65680289 51.42217051 1742.66401033 59.34456719 1742.67346675 C72.84492876 1742.68923193 86.34527977 1742.69539177 99.84564984 1742.69635862 C113.53298152 1742.69736249 127.22030135 1742.70264701 140.90762913 1742.71317381 C141.77112575 1742.71383407 142.63462236 1742.71449434 143.52428554 1742.71517462 C147.04100061 1742.71787453 150.55771566 1742.72059985 154.07443069 1742.72335883 C195.73802066 1742.75598723 237.40160838 1742.7687388 279.06520896 1742.77825457 C299.80534265 1742.78301838 320.54547505 1742.79042478 341.28560775 1742.79832876 C407.78884669 1742.82365904 474.29208556 1742.84522728 540.79532923 1742.85200968 C543.97470476 1742.85233416 547.15408028 1742.85266528 550.33345581 1742.85299845 C556.70990875 1742.85366605 563.08636169 1742.85432701 569.46281463 1742.85498756 C576.92833861 1742.85576137 584.39386259 1742.85654058 591.85938657 1742.85732969 C593.99609267 1742.85755453 596.13279877 1742.85777736 598.26950487 1742.8579982 C666.90822114 1742.86509865 735.54689557 1742.89526119 804.18559587 1742.94187369 C853.49810603 1742.97534821 902.81060831 1743.00630335 952.12312996 1743.01534361 C953.6437215 1743.01562406 953.6437215 1743.01562406 955.19503206 1743.01591019 C977.4468653 1743.01994792 999.69869842 1743.02226031 1021.95053202 1743.02296736 C1029.91232071 1743.02323971 1037.8741094 1743.02365771 1045.83589808 1743.02415386 C1047.81665857 1743.02427698 1049.79741905 1743.02439363 1051.77817953 1743.02450376 C1083.36417798 1743.02634475 1114.95013279 1743.0462975 1146.53611687 1743.07541874 C1178.34287287 1743.10462622 1210.14957527 1743.1147496 1241.9563423 1743.09857965 C1246.34867892 1743.0963488 1250.74101562 1743.0943275 1255.1333524 1743.09243101 C1255.99439501 1743.09205107 1256.85543761 1743.09167114 1257.74257242 1743.09127969 C1271.39273384 1743.08580604 1285.04279637 1743.10051658 1298.69293627 1743.12357774 C1312.10570578 1743.14582002 1325.51833508 1743.14676147 1338.9311067 1743.12483737 C1346.80074648 1743.11261771 1354.66996389 1743.11690418 1362.53956413 1743.14534132 C1368.3735485 1743.16459938 1374.20719426 1743.15274429 1380.04116973 1743.12852067 C1382.39290609 1743.1236298 1384.74468991 1743.12890078 1387.09637408 1743.14531362 C1390.28167347 1743.1660915 1393.4647461 1743.15003426 1396.64996415 1743.12469047 C1397.56107362 1743.13950747 1398.47218308 1743.15432446 1399.41090192 1743.16959045 C1406.19674422 1743.05584116 1410.77722557 1740.89465559 1415.84899342 1736.37719816 C1419.71636212 1731.38811968 1421.97351682 1726.9502769 1421.97508259 1720.55632677 C1421.9777523 1719.55432134 1421.98042201 1718.55231591 1421.98317262 1717.51994668 C1421.98101815 1716.41307998 1421.97886368 1715.30621328 1421.97664392 1714.16580516 C1421.9782947 1712.98811795 1421.97994548 1711.81043074 1421.98164628 1710.59705604 C1421.98523848 1707.30245687 1421.98430956 1704.00791323 1421.9815445 1700.7133168 C1421.97962957 1697.1253863 1421.98349932 1693.53746138 1421.98664129 1689.94953239 C1421.99136658 1683.6283841 1421.99233649 1677.30724363 1421.99091294 1670.98609386 C1421.98879747 1661.52299171 1421.99239712 1652.0598977 1421.99712772 1642.59679681 C1422.00501378 1626.4717007 1422.0080904 1610.3466068 1422.00857365 1594.22150892 C1422.00907546 1577.87142924 1422.01171641 1561.52135204 1422.01698124 1545.17127317 C1422.01731138 1544.14007152 1422.01764151 1543.10886986 1422.01798165 1542.04641968 C1422.01933159 1537.84675214 1422.02069426 1533.64708462 1422.02207375 1529.4474171 C1422.03839137 1479.68273474 1422.0447642 1429.91805285 1422.04952162 1380.15336827 C1422.05190321 1355.38165832 1422.05560634 1330.60994864 1422.05955872 1305.8382389 C1422.07222422 1226.41350847 1422.08300826 1146.98877804 1422.08639918 1067.56404661 C1422.08656142 1063.76659821 1422.08672698 1059.96914981 1422.08689356 1056.17170141 C1422.08722737 1048.55561773 1422.08755785 1040.93953406 1422.08788812 1033.32345039 C1422.08827503 1024.40650695 1422.08866463 1015.48956352 1422.08905919 1006.57262009 C1422.08917161 1004.02050004 1422.08928302 1001.46837999 1422.08939344 998.91625994 C1422.09294368 916.93262977 1422.10802481 834.94900836 1422.13133118 752.96538153 C1422.14806767 694.06842662 1422.16354571 635.17147336 1422.16806614 576.27451605 C1422.16815963 575.06383948 1422.16825312 573.85316292 1422.16834943 572.60579918 C1422.17036827 546.03123221 1422.17152449 519.45666526 1422.17187802 492.88209822 C1422.1720142 483.37367995 1422.1722232 473.86526168 1422.17247127 464.35684341 C1422.17253283 461.99129156 1422.17259115 459.6257397 1422.17264622 457.26018784 C1422.17356685 419.5326646 1422.18354485 381.8051505 1422.19810371 344.07763026 C1422.21270523 306.08762916 1422.21777053 268.09763926 1422.20968417 230.10763584 C1422.20856873 224.86226708 1422.20755808 219.61689831 1422.20660985 214.37152952 C1422.20641988 213.34325665 1422.20622991 212.31498378 1422.20603419 211.25555112 C1422.20329657 194.94938473 1422.2106552 178.64323903 1422.22218321 162.33707715 C1422.23329993 146.31738603 1422.23377947 130.29772425 1422.22281303 114.27803269 C1422.21669967 104.87699562 1422.21885615 95.47604692 1422.233065 86.0750181 C1422.24167681 79.83818686 1422.23948634 73.60142092 1422.22836629 67.36459377 C1422.22236143 63.82473089 1422.2210689 60.28504177 1422.23305115 56.74519017 C1422.24341605 52.94352688 1422.23542718 49.14233214 1422.22273958 45.34068614 C1422.23014807 44.24816389 1422.23755657 43.15564164 1422.24518957 42.03001266 C1422.1915454 34.41683385 1421.52012923 27.54038531 1416.47399342 21.56469816 C1415.60774342 20.84282316 1414.74149342 20.12094816 1413.84899342 19.37719816 C1412.98274342 18.63469816 1412.11649342 17.89219816 1411.22399342 17.12719816 C1408.03968657 14.7808668 1405.60736157 14.25227038 1401.75682061 14.25016365 C1400.91785509 14.24728273 1400.07888957 14.24440181 1399.21450084 14.24143359 C1397.82812053 14.2443109 1397.82812053 14.2443109 1396.41373253 14.24724633 C1395.42840169 14.24534708 1394.44307084 14.24344784 1393.42788149 14.24149105 C1390.08737823 14.23629502 1386.74691658 14.23828855 1383.40641034 14.24018377 C1380.99245644 14.23792928 1378.57850292 14.23523843 1376.16454995 14.23214793 C1370.87948856 14.22640675 1365.59443915 14.22381211 1360.30937563 14.22392108 C1352.39733773 14.22407135 1344.48531089 14.2185292 1336.57327616 14.21187417 C1323.09094935 14.20071308 1309.60862405 14.19439466 1296.1262933 14.19070143 C1282.45628312 14.18694996 1268.78627638 14.18108055 1255.11626828 14.17262357 C1253.82289622 14.17182693 1253.82289622 14.17182693 1252.50339543 14.1710142 C1248.99179146 14.16884755 1245.4801875 14.16667093 1241.96858354 14.16448026 C1199.36902998 14.13795964 1156.76947458 14.12241023 1114.16991507 14.10931738 C1100.35841435 14.10506888 1086.54691375 14.10050128 1072.73541319 14.09573406 C1000.41127796 14.07082804 928.08714233 14.04876135 855.76300373 14.03654368 C850.46753784 14.0356463 845.17207194 14.0347316 839.87660605 14.03381594 C838.82613811 14.03363433 837.77567017 14.03345272 836.69336987 14.0332656 C826.05039082 14.03142289 815.40741178 14.02955704 804.76443274 14.02766751 C802.63045986 14.02728946 800.49648697 14.02691317 798.36251409 14.02653863 C729.81405008 14.01450627 661.26561144 13.98481412 592.71715939 13.94312352 C543.47130589 13.91318154 494.22545759 13.88554937 444.9795953 13.87584585 C443.96723236 13.87564529 442.95486942 13.87544474 441.91182881 13.8752381 C419.68989982 13.8708879 397.46797086 13.86794191 375.24604152 13.86631159 C366.3052319 13.86563521 357.36442231 13.8647797 348.42361271 13.86387342 C347.4450773 13.86377933 346.46654189 13.86368523 345.45835389 13.86358828 C313.91418756 13.86047384 282.37005348 13.84195167 250.82589878 13.81552345 C219.06061061 13.78899761 187.29535846 13.77822194 155.53005992 13.78925944 C151.14341497 13.79078104 146.75676998 13.79212645 142.37012494 13.79336637 C141.08023377 13.79374097 141.08023377 13.79374097 139.7642842 13.79412313 C126.13182913 13.79762211 112.49944419 13.78428949 98.86700597 13.76398864 C85.47158791 13.74438755 72.07626588 13.74252914 58.68084341 13.75971493 C50.82141257 13.7692607 42.96227678 13.76504403 35.10287623 13.74069258 C29.27643186 13.72415899 23.45022083 13.73355476 17.62377964 13.75325695 C15.27508068 13.75713654 12.92634942 13.75254671 10.57768825 13.73866994 C7.39670871 13.72108593 4.21727551 13.73420191 1.0363493 13.75505501 C0.12644021 13.74262876 -0.78346889 13.73020251 -1.72095098 13.7173997 C-10.9942327 13.84633556 -17.92143181 17.77054395 -23.15100658 25.37719816 Z " fill="#F8F8F8" transform="translate(989.1510065793991,812.6228018403053)"/>
<path d="M0 0 C75.11946995 0 75.11946995 0 93.71484375 17.65234375 C105.70462489 29.97005052 110.36360348 43.26320338 110.3125 60.25 C110.32861328 61.30574219 110.34472656 62.36148438 110.36132812 63.44921875 C110.37111026 79.43322827 105.35304074 93.249165 94.20703125 104.8203125 C93.11455078 105.89925781 93.11455078 105.89925781 92 107 C91.44699219 107.57492188 90.89398437 108.14984375 90.32421875 108.7421875 C68.04993856 130.07685785 23.50691938 123 0 123 C0 82.41 0 41.82 0 0 Z " fill="#060505" transform="translate(1751,2282)"/>
<path d="M0 0 C75.27973079 0 75.27973079 0 93.86621094 17.46362305 C106.27695663 30.01128294 110.34449345 45.75790249 110.38085938 62.95898438 C110.13004908 78.08393571 105.48714209 91.15657426 96 103 C95.50113281 103.62519531 95.00226563 104.25039062 94.48828125 104.89453125 C84.95754512 115.52958441 70.5660615 120.2867877 57 123 C38.19 123 19.38 123 0 123 C0 82.41 0 41.82 0 0 Z " fill="#060505" transform="translate(1951,2119)"/>
<path d="M0 0 C9.9 0 19.8 0 30 0 C34.08819684 5.84028121 38.14911466 11.65230965 42.046875 17.61328125 C42.5024176 18.30721481 42.95796021 19.00114838 43.42730713 19.71611023 C44.86963213 21.91397456 46.30986363 24.11320114 47.75 26.3125 C48.66522628 27.70777302 49.58059053 29.10295555 50.49609375 30.49804688 C53.66600574 35.33075718 56.83286855 40.165467 60 45 C66.27 54.57 72.54 64.14 79 74 C79.33 49.58 79.66 25.16 80 0 C89.9 0 99.8 0 110 0 C110 40.59 110 81.18 110 123 C100.1 123 90.2 123 80 123 C70.96140408 110.57193061 70.96140408 110.57193061 67.33203125 104.5625 C61.37155664 94.87209069 55.02568226 85.44580299 48.6875 76 C46.95061323 73.40859303 45.2144638 70.81669929 43.47969055 68.22387695 C42.41248122 66.62907808 41.34404164 65.03510146 40.27409363 63.44213867 C39.78620865 62.71357666 39.29832367 61.98501465 38.7956543 61.234375 C38.3750322 60.60756836 37.9544101 59.98076172 37.52104187 59.33496094 C35.29766291 55.92183792 33.15891298 52.45426077 31 49 C30.67 73.42 30.34 97.84 30 123 C20.1 123 10.2 123 0 123 C0 82.41 0 41.82 0 0 Z " fill="#060505" transform="translate(1494,2119)"/>
<path d="M0 0 C30 0 30 0 36.27734375 5.11328125 C37.65000591 7.52455672 38.80274631 9.80446276 39.9375 12.3125 C40.63496884 13.61208804 41.34535453 14.9048126 42.06738281 16.19091797 C43.60947472 18.95417349 45.09675923 21.73875171 46.56005859 24.54443359 C50.42956737 31.79271842 55.13174588 38.53019095 59.71536255 45.3387146 C62.15398838 48.9717516 64.55345725 52.63022746 66.953125 56.2890625 C67.35968826 56.90590408 67.76625153 57.52274567 68.18513489 58.15827942 C71.85288385 63.73473931 75.41511585 69.36661062 79 75 C79.33 50.25 79.66 25.5 80 0 C89.57 0 99.14 0 109 0 C109 40.59 109 81.18 109 123 C79 123 79 123 71.41015625 115.91796875 C69.71092224 113.46353149 69.71092224 113.46353149 68.63842773 111.26025391 C68.21745819 110.43309875 67.79648865 109.6059436 67.36276245 108.75372314 C66.93367584 107.90686951 66.50458923 107.06001587 66.0625 106.1875 C65.08457082 104.46911088 64.09482767 102.75739678 63.09399414 101.05224609 C61.0344576 97.5218943 59.03072615 93.96758873 57.05957031 90.38720703 C52.18280518 81.65001466 46.50326329 73.43132885 40.9375 65.125 C37.658125 60.13375 34.37875 55.1425 31 50 C30.67 74.09 30.34 98.18 30 123 C20.1 123 10.2 123 0 123 C0 82.41 0 41.82 0 0 Z " fill="#060505" transform="translate(1620,2282)"/>
<path d="M0 0 C1.18651657 0.00092148 2.37303314 0.00184296 3.59550476 0.00279236 C4.92914943 0.00937851 6.26279301 0.01618827 7.59643555 0.02319336 C9.03501823 0.02727441 10.47360167 0.03109448 11.91218567 0.03468323 C17.019242 0.05059251 22.12617789 0.08083689 27.2331543 0.11303711 C28.21861992 0.11916771 29.20408554 0.12529831 30.21941376 0.13161469 C45.17447734 0.22648777 60.1292355 0.35026612 75.08398438 0.48535156 C81.22281495 0.54061762 87.36167642 0.59076069 93.50055981 0.6397543 C98.31472821 0.6790685 103.12885916 0.7220473 107.94298744 0.76597786 C110.20511051 0.78602937 112.46724545 0.80479279 114.7293911 0.82211113 C120.90732275 0.87010845 127.08355459 0.94679974 133.26055527 1.06495285 C135.27224664 1.09749363 137.28415614 1.11831091 139.29608536 1.12840652 C142.27268008 1.14438556 145.2466723 1.19745319 148.22265625 1.2578125 C149.10107524 1.25395003 149.97949423 1.25008757 150.88453197 1.24610806 C157.61204075 1.44117633 162.17881923 3.6705058 167.2331543 8.11303711 C169.01747625 10.40651827 170.0101838 12.42250201 171.2331543 15.11303711 C171.8519043 16.25772461 171.8519043 16.25772461 172.4831543 17.42553711 C174.44631814 24.46020756 173.63717206 30.6773354 170.3581543 37.14428711 C167.02909788 42.97013584 163.50134502 45.86955882 157.2331543 48.11303711 C153.41283883 48.72531467 149.63456328 48.79782653 145.77026367 48.84594727 C144.64167686 48.87423929 143.51309006 48.90253132 142.35030365 48.93168068 C138.64460242 49.01580352 134.93952567 49.06797957 131.2331543 49.11303711 C129.9843045 49.13118217 128.73545471 49.14932724 127.44876099 49.16802216 C117.84572803 49.30099117 108.24321027 49.35450463 98.6394043 49.38647461 C97.52333266 49.39044778 97.52333266 49.39044778 96.38471413 49.39450121 C89.33842486 49.41952682 82.29213442 49.4414317 75.24581146 49.45422935 C66.33291293 49.47055228 57.42044329 49.50411605 48.50770617 49.5606302 C42.17586806 49.59938766 35.84414484 49.61886597 29.5121913 49.62414992 C25.75392556 49.62778106 21.99612621 49.63957149 18.23799133 49.67225266 C14.06359078 49.70807034 9.89012394 49.70394783 5.71557617 49.6965332 C4.49262344 49.71293854 3.26967072 49.72934387 2.00965881 49.74624634 C-6.94015203 49.68126751 -13.57204804 47.71562804 -20.4230957 41.83178711 C-21.0315332 41.09959961 -21.6399707 40.36741211 -22.2668457 39.61303711 C-22.8959082 38.88084961 -23.5249707 38.14866211 -24.1730957 37.39428711 C-28.40165102 31.3416491 -28.52167271 25.28855314 -27.7668457 18.11303711 C-25.93607604 12.07644525 -22.28979164 7.23253304 -16.8449707 3.95678711 C-11.23429021 1.00379738 -6.36044271 -0.01551848 0 0 Z " fill="#E5E4E4" transform="translate(1644.766845703125,1850.886962890625)"/>
<path d="M0 0 C1.47583955 0.0001591 2.95168467 0.00585225 4.42749023 0.01586914 C5.20293686 0.01728409 5.97838348 0.01869904 6.77732849 0.02015686 C9.26361893 0.02577194 11.74982059 0.03832693 14.23608398 0.05102539 C15.91772331 0.05603845 17.59936405 0.06060169 19.28100586 0.06469727 C23.41189965 0.07574626 27.54272674 0.09302094 31.67358398 0.11352539 C39.60021122 21.59637294 47.39827419 43.12567727 55.18441963 64.65975189 C61.41769939 81.9008645 61.41769939 81.9008645 67.69702148 99.12524414 C67.98781082 99.92041946 68.27860016 100.71559479 68.57820129 101.53486633 C69.87301269 105.07528795 71.1706149 108.61462584 72.47412109 112.15185547 C72.90732666 113.33545654 73.34053223 114.51905762 73.78686523 115.73852539 C74.15593994 116.74141602 74.52501465 117.74430664 74.90527344 118.77758789 C75.67358398 121.11352539 75.67358398 121.11352539 75.67358398 123.11352539 C65.11358398 123.11352539 54.55358398 123.11352539 43.67358398 123.11352539 C40.20858398 112.71852539 40.20858398 112.71852539 36.67358398 102.11352539 C21.49358398 101.78352539 6.31358398 101.45352539 -9.32641602 101.11352539 C-10.31641602 104.74352539 -11.30641602 108.37352539 -12.32641602 112.11352539 C-13.64641602 115.74352539 -14.96641602 119.37352539 -16.32641602 123.11352539 C-26.55641602 123.11352539 -36.78641602 123.11352539 -47.32641602 123.11352539 C-45.93678822 116.86020031 -44.44039951 111.19797511 -42.22875977 105.26196289 C-41.92257217 104.42558289 -41.61638458 103.58920288 -41.30091858 102.72747803 C-40.29368569 99.97925726 -39.27872633 97.23395607 -38.26391602 94.48852539 C-37.55166808 92.54850042 -36.84009231 90.60822856 -36.12915039 88.66772461 C-35.01415648 85.62454015 -33.89876156 82.58150967 -32.78134155 79.53921509 C-28.58818623 68.12065248 -24.45711285 56.67979558 -20.32641602 45.23852539 C-18.32542568 39.69920347 -16.32339475 34.16026193 -14.31860352 28.62231445 C-12.9022087 24.70936458 -11.49208876 20.79420199 -10.08422852 16.87817383 C-9.35253463 14.84982576 -8.62076599 12.82150465 -7.88891602 10.79321289 C-7.54658936 9.83762482 -7.2042627 8.88203674 -6.8515625 7.89749146 C-6.53517822 7.02244965 -6.21879395 6.14740784 -5.89282227 5.24584961 C-5.6138208 4.47022675 -5.33481934 3.69460388 -5.04736328 2.89547729 C-3.79428767 -0.20172631 -3.6376771 0.12414825 0 0 Z " fill="#070606" transform="translate(1665.326416015625,2118.886474609375)"/>
<path d="M0 0 C1.47583955 0.0001591 2.95168467 0.00585225 4.42749023 0.01586914 C5.20293686 0.01728409 5.97838348 0.01869904 6.77732849 0.02015686 C9.26361893 0.02577194 11.74982059 0.03832693 14.23608398 0.05102539 C15.91772331 0.05603845 17.59936405 0.06060169 19.28100586 0.06469727 C23.41189965 0.07574626 27.54272674 0.09302094 31.67358398 0.11352539 C31.95521645 0.89657799 31.95521645 0.89657799 32.24253845 1.69544983 C41.05475964 26.19584093 49.87600897 50.69289363 58.73608398 75.17602539 C59.44752809 77.14240873 60.15895413 79.10879862 60.87036133 81.07519531 C64.57547319 91.31671381 64.57547319 91.31671381 68.28295898 101.55737305 C69.6023756 105.20047381 70.91944303 108.84442048 72.23608398 112.48852539 C72.78244507 113.99491577 72.78244507 113.99491577 73.33984375 115.53173828 C73.65751709 116.4120874 73.97519043 117.29243652 74.30249023 118.19946289 C74.57134033 118.94244629 74.84019043 119.68542969 75.1171875 120.45092773 C75.67358398 122.11352539 75.67358398 122.11352539 75.67358398 123.11352539 C65.11358398 123.11352539 54.55358398 123.11352539 43.67358398 123.11352539 C39.67358398 112.11352539 39.67358398 112.11352539 36.67358398 101.11352539 C21.49358398 101.44352539 6.31358398 101.77352539 -9.32641602 102.11352539 C-11.63641602 109.04352539 -13.94641602 115.97352539 -16.32641602 123.11352539 C-26.88641602 123.11352539 -37.44641602 123.11352539 -48.32641602 123.11352539 C-40.35841658 99.70752703 -31.97558337 76.46991385 -23.47503662 53.25286865 C-22.26919614 49.95713535 -21.06539066 46.66066434 -19.86206055 43.36401367 C-17.77912218 37.65777345 -15.69310968 31.95266639 -13.60473633 26.24841309 C-12.79579092 24.03786416 -11.987682 21.82700894 -11.18041992 19.61584473 C-10.05601602 16.53724734 -8.9280379 13.45998358 -7.79907227 10.38305664 C-7.46130264 9.45610489 -7.12353302 8.52915314 -6.77552795 7.57411194 C-6.46626877 6.7335173 -6.15700958 5.89292267 -5.83837891 5.02685547 C-5.56909073 4.29130936 -5.29980255 3.55576324 -5.02235413 2.79792786 C-3.77490589 -0.22131315 -3.57130209 0.12188297 0 0 Z " fill="#070606" transform="translate(1918.326416015625,2281.886474609375)"/>
<path d="M0 0 C11.55 0 23.1 0 35 0 C39.4997038 10.12433355 39.4997038 10.12433355 40.83666992 13.86572266 C41.14248993 14.716091 41.44830994 15.56645935 41.76339722 16.44259644 C42.24209763 17.78972214 42.24209763 17.78972214 42.73046875 19.1640625 C43.07844513 20.13425323 43.42642151 21.10444397 43.78494263 22.10403442 C44.92218323 25.27660496 46.05479793 28.45080658 47.1875 31.625 C48.38805538 34.97730264 49.58982828 38.32916736 50.79161072 41.68103027 C51.61709484 43.98370242 52.44217416 46.28651972 53.26686096 48.58947754 C57.58768804 60.65302597 61.94820465 72.70212367 66.3125 84.75 C67.01786263 86.69741377 67.72318596 88.64484177 68.4284668 90.59228516 C68.7633461 91.51695587 69.0982254 92.44162659 69.44325256 93.39431763 C70.39139471 96.01435342 71.33769168 98.63504941 72.28369141 101.25585938 C73.376067 104.28132146 74.47715539 107.30331903 75.58740234 110.32226562 C76.05177611 111.59504541 76.51613291 112.86783138 76.98046875 114.140625 C77.37516357 115.21344727 77.7698584 116.28626953 78.17651367 117.39160156 C79 120 79 120 79 123 C68.77 123 58.54 123 48 123 C46.2675 118.111875 46.2675 118.111875 44.5 113.125 C44.13455078 112.09906738 43.76910156 111.07313477 43.39257812 110.01611328 C42.9662207 108.80544189 42.9662207 108.80544189 42.53125 107.5703125 C42.23798828 106.74289551 41.94472656 105.91547852 41.64257812 105.06298828 C41 103 41 103 41 101 C25.82 101.33 10.64 101.66 -5 102 C-7.31 108.93 -9.62 115.86 -12 123 C-22.56 123 -33.12 123 -44 123 C-40.62470727 111.74902424 -40.62470727 111.74902424 -38.94140625 107.09033203 C-38.56184784 106.03587387 -38.18228943 104.98141571 -37.79122925 103.89500427 C-37.3857486 102.77723099 -36.98026794 101.6594577 -36.5625 100.5078125 C-36.12938507 99.30741837 -35.69627014 98.10702423 -35.25003052 96.87025452 C-34.07907428 93.62551475 -32.90464399 90.38204297 -31.72940826 87.13885117 C-30.75146953 84.43882272 -29.77556115 81.73806222 -28.7996006 79.03731823 C-19.26906531 52.66625645 -9.64877462 26.32800742 0 0 Z " fill="#070606" transform="translate(1401,2119)"/>
<path d="M0 0 C6.85576842 6.69445622 12.5107683 15.50737883 15.4375 24.6875 C15.4375 26.0075 15.4375 27.3275 15.4375 28.6875 C10.8479797 28.91090401 6.26165181 29.07367929 1.66796875 29.18188477 C0.10783758 29.2270005 -1.45191597 29.28831719 -3.01074219 29.36645508 C-16.05906835 30.00387331 -16.05906835 30.00387331 -19.77587891 26.74951172 C-21.296875 24.33984375 -21.296875 24.33984375 -22.49853516 21.86303711 C-23.94738127 18.90051582 -25.70272644 17.96000534 -28.6875 16.6875 C-29.51507812 16.31625 -30.34265625 15.945 -31.1953125 15.5625 C-38.54866796 12.84442802 -46.94725338 12.25266485 -54.3125 15.25 C-62.04982401 19.25206414 -67.4744026 24.50862818 -70.5625 32.6875 C-70.91828125 33.57953125 -71.2740625 34.4715625 -71.640625 35.390625 C-72.77904383 39.46191947 -72.94636694 43.16674855 -72.9375 47.375 C-72.93588867 48.16938477 -72.93427734 48.96376953 -72.93261719 49.78222656 C-72.74613298 58.77369063 -70.28697333 66.61609177 -64.5625 73.6875 C-57.18528983 80.58358777 -50.25125947 83.06579094 -40.33203125 82.9765625 C-33.99781226 82.31544514 -27.9972867 80.30762107 -23.5625 75.6875 C-22.9025 75.6875 -22.2425 75.6875 -21.5625 75.6875 C-21.27375 75.11 -20.985 74.5325 -20.6875 73.9375 C-19.64583333 71.85416667 -18.60416667 69.77083333 -17.5625 67.6875 C-6.6725 67.6875 4.2175 67.6875 15.4375 67.6875 C12.10362692 82.68992885 5.13787819 92.98313683 -7.5625 101.6875 C-23.12457252 110.66950035 -42.4151026 113.65822189 -59.875 109.0625 C-75.35210198 103.95063432 -87.70058937 95.86651073 -96.09765625 81.59765625 C-104.34502822 65.21287726 -107.17603679 45.07677709 -101.9375 27.1875 C-101.20942667 25.32799564 -100.42012645 23.49092011 -99.5625 21.6875 C-98.92634766 20.27404297 -98.92634766 20.27404297 -98.27734375 18.83203125 C-90.8419171 3.81619749 -78.11721526 -6.5644175 -62.5625 -12.3125 C-41.17844441 -18.32766503 -17.04566653 -14.42525204 0 0 Z " fill="#070606" transform="translate(1330.5625,2132.3125)"/>
<path d="M0 0 C1.70808838 0.01426025 1.70808838 0.01426025 3.45068359 0.02880859 C17.04017265 0.36327745 27.99576637 3.54023547 37.91796875 13.18359375 C44.78402054 20.52433554 46.25 26.45867716 46.25 36.5625 C35.69 36.5625 25.13 36.5625 14.25 36.5625 C13.59 34.5825 12.93 32.6025 12.25 30.5625 C9.5536528 27.44484854 7.77690841 25.70007964 3.60546875 25.32421875 C-2.86016143 25.16975905 -2.86016143 25.16975905 -9 26.9375 C-11.29074237 30.37361355 -11.35130563 32.96697434 -11.4140625 37.02734375 C-10.45149149 40.70210015 -8.66151048 42.17245408 -5.75 44.5625 C-2.59446451 46.19422156 -2.59446451 46.19422156 0.9375 47.4375 C1.57961426 47.68234131 2.22172852 47.92718262 2.88330078 48.17944336 C5.00122282 48.98575243 7.12529183 49.77426386 9.25 50.5625 C38.99489555 61.74748609 38.99489555 61.74748609 46.1875 73.8125 C49.82224582 83.22007742 49.62429726 94.70815914 45.70703125 103.99609375 C40.11279009 113.84975714 31.82286769 120.06242726 21.40234375 123.984375 C6.61772221 127.95556191 -12.19578405 126.73449458 -25.75 119.5625 C-34.3063286 114.0864497 -39.07783481 107.63560271 -43.125 98.4375 C-43.75 95.5625 -43.75 95.5625 -43.75 87.5625 C-33.19 87.5625 -22.63 87.5625 -11.75 87.5625 C-10.76 90.5325 -9.77 93.5025 -8.75 96.5625 C-5.0607845 100.44090603 -1.83863183 100.83546753 3.3125 101 C7.87553021 100.99412737 10.52549444 100.2275614 14.25 97.5625 C16.82189679 94.13330428 16.752142 90.72310514 16.25 86.5625 C12.87332553 81.62736039 9.83720158 79.46815032 4.125 77.625 C3.43849365 77.38394531 2.7519873 77.14289062 2.04467773 76.89453125 C-0.21506025 76.10141 -2.48211037 75.33197097 -4.75 74.5625 C-19.85404678 69.3456121 -32.79511436 64.81515943 -41.9140625 50.76953125 C-45.33989484 43.5176525 -44.78329934 33.2492506 -43.09375 25.5859375 C-39.62844914 15.93686699 -32.55840763 9.43414204 -23.75 4.5625 C-15.83438101 0.88955704 -8.6712477 -0.11681474 0 0 Z " fill="#070606" transform="translate(1846.75,2117.4375)"/>
<path d="M0 0 C10.56 0 21.12 0 32 0 C33.0725 3.031875 34.145 6.06375 35.25 9.1875 C35.5790332 10.11328857 35.90806641 11.03907715 36.24707031 11.99291992 C37.884684 16.64838045 39.42043505 21.32012753 40.84960938 26.04394531 C42.89372195 32.71717245 45.08935536 39.33136727 47.328125 45.94140625 C48.13567662 48.34170943 48.94296078 50.74210261 49.75 53.14257812 C51.00702391 56.87634432 52.26589599 60.60945081 53.52929688 64.34106445 C54.75931951 67.97688059 55.98182441 71.61515263 57.203125 75.25390625 C57.77489471 76.9335421 57.77489471 76.9335421 58.35821533 78.64710999 C58.7056781 79.68596848 59.05314087 80.72482697 59.41113281 81.79516602 C59.71883606 82.70637711 60.02653931 83.6175882 60.34356689 84.55641174 C61 87 61 87 61 91 C61.66 91 62.32 91 63 91 C63.23033936 89.82002441 63.46067871 88.64004883 63.69799805 87.42431641 C65.23456637 80.53252696 67.57871434 73.89281707 69.83203125 67.2109375 C70.31083784 65.78013183 70.78923882 64.34919037 71.26725769 62.91812134 C72.52226558 59.16448614 73.78265511 55.41268031 75.04425049 51.66125488 C76.31200021 47.88852357 77.57477211 44.11412758 78.83789062 40.33984375 C80.26729415 36.06984235 81.69720079 31.8000138 83.13056946 27.53134155 C83.34921504 26.88011637 83.56786062 26.22889118 83.79313183 25.5579319 C84.43377949 23.65080433 85.0752355 21.74394836 85.71670532 19.83709717 C86.62236897 17.13804249 87.51549619 14.43514142 88.40219116 11.72979736 C88.63054751 11.03588709 88.85890387 10.34197681 89.09418011 9.62703896 C89.72911351 7.69572496 90.36088874 5.76337353 90.99247742 3.83096313 C92 1 92 1 93 0 C95.29151417 -0.08790975 97.58572524 -0.10694038 99.87890625 -0.09765625 C100.90889992 -0.09553383 100.90889992 -0.09553383 101.95970154 -0.09336853 C104.16067801 -0.08775479 106.36155409 -0.07520007 108.5625 -0.0625 C110.05143083 -0.05748676 111.54036324 -0.05292355 113.02929688 -0.04882812 C116.68623075 -0.03778093 120.34310558 -0.02050713 124 0 C123.38291338 3.39495387 122.54524534 6.55841518 121.39624023 9.81054688 C120.90235054 11.21624687 120.90235054 11.21624687 120.39848328 12.65034485 C119.85898796 14.1692054 119.85898796 14.1692054 119.30859375 15.71875 C118.93148758 16.78880783 118.55438141 17.85886566 118.16584778 18.96134949 C116.92641146 22.47542461 115.68206127 25.98773701 114.4375 29.5 C113.57691696 31.93587201 112.71656764 34.3718266 111.85644531 36.80786133 C109.66428882 43.01304014 107.46758506 49.21659736 105.26898193 55.41949463 C104.06093219 58.82807633 102.85379906 62.2369811 101.64697266 65.64599609 C99.51730164 71.66077342 97.3844589 77.67442026 95.25 83.6875 C94.93078583 84.58742676 94.61157166 85.48735352 94.28268433 86.41455078 C89.94284845 98.64303998 85.50481261 110.83123056 81 123 C68.46 123 55.92 123 43 123 C41.741875 119.40738281 40.48375 115.81476562 39.1875 112.11328125 C30.89262633 88.4369098 22.58792581 64.76417865 14.1875 41.125 C13.87014893 40.23084381 13.55279785 39.33668762 13.22583008 38.41543579 C12.31200799 35.84159706 11.39678844 33.26826305 10.48046875 30.6953125 C10.19468964 29.89286606 9.90891052 29.09041962 9.61447144 28.26365662 C8.1020247 24.03263645 6.56485226 19.81198057 4.99853516 15.60058594 C4.67242752 14.72312714 4.34631989 13.84566833 4.0103302 12.94161987 C3.38429936 11.26200358 2.75527617 9.58349868 2.12284851 7.90628052 C0 2.2181622 0 2.2181622 0 0 Z " fill="#070606" transform="translate(1388,2282)"/>
<path d="M0 0 C24.75 0 49.5 0 75 0 C75 7.92 75 15.84 75 24 C60.15 24 45.3 24 30 24 C30 32.25 30 40.5 30 49 C43.2 49 56.4 49 70 49 C70 56.59 70 64.18 70 72 C56.8 72 43.6 72 30 72 C30 80.91 30 89.82 30 99 C44.85 99 59.7 99 75 99 C75 106.92 75 114.84 75 123 C50.25 123 25.5 123 0 123 C0 82.41 0 41.82 0 0 Z " fill="#060505" transform="translate(1525,2282)"/>
<path d="M0 0 C24.75 0 49.5 0 75 0 C75 7.92 75 15.84 75 24 C60.15 24 45.3 24 30 24 C30 32.25 30 40.5 30 49 C43.2 49 56.4 49 70 49 C70 56.59 70 64.18 70 72 C56.8 72 43.6 72 30 72 C30 80.91 30 89.82 30 99 C44.85 99 59.7 99 75 99 C75 106.92 75 114.84 75 123 C50.25 123 25.5 123 0 123 C0 82.41 0 41.82 0 0 Z " fill="#050404" transform="translate(2078,2119)"/>
<path d="M0 0 C9.9 0 19.8 0 30 0 C30 40.59 30 81.18 30 123 C20.1 123 10.2 123 0 123 C0 82.41 0 41.82 0 0 Z " fill="#080707" transform="translate(1755,2119)"/>
<path d="M0 0 C31.53167421 0 31.53167421 0 41 9 C49.12218711 17.72996981 50.58670504 26.58284991 50.21484375 38.1953125 C49.67456761 47.76311176 47.1441173 55.94090944 40.109375 62.859375 C28.03005647 72.46576218 15.41035916 71 0 71 C0 47.57 0 24.14 0 0 Z " fill="#E5E4E4" transform="translate(1781,2308)"/>
<path d="M0 0 C30.76470588 0 30.76470588 0 41 9 C49.58286245 18.95087328 50.80993741 29.1830957 50 42 C49.02196209 49.60696149 45.43991879 57.56008121 40 63 C26.76438413 72.29506473 17.63925882 71 0 71 C0 47.57 0 24.14 0 0 Z " fill="#E5E4E4" transform="translate(1981,2145)"/>
<path d="M0 0 C1.14026383 -0.00573832 1.14026383 -0.00573832 2.3035633 -0.01159257 C4.8283988 -0.02183918 7.35300335 -0.01794655 9.87785339 -0.01396179 C11.6968049 -0.01831264 13.51575457 -0.02349703 15.33470154 -0.02944946 C20.25784671 -0.04280411 25.18091497 -0.04342255 30.10407472 -0.04088616 C34.21493257 -0.039815 38.32577494 -0.04470304 42.43662947 -0.04949158 C52.12912611 -0.06057248 61.82158397 -0.06103081 71.51408386 -0.05497742 C81.51965359 -0.0489249 91.52508316 -0.06128424 101.53062898 -0.08254749 C110.12270722 -0.10013671 118.71474071 -0.10616947 127.30683631 -0.10290974 C132.43823704 -0.10109396 137.56953756 -0.10376324 142.70092201 -0.11762428 C147.51988675 -0.13015601 152.33863159 -0.12830295 157.15759277 -0.11521339 C158.92854065 -0.11283864 160.69950381 -0.11561425 162.47043419 -0.12383652 C164.8820781 -0.13422918 167.29297361 -0.12626469 169.70458984 -0.11352539 C170.4102198 -0.12089968 171.11584975 -0.12827396 171.84286243 -0.13587171 C174.67771525 -0.10422103 176.58208196 -0.05640635 178.94219494 1.59658527 C180.58712661 4.10184494 180.84971949 6.29883528 181.03483582 9.26069641 C180.37483582 10.25069641 179.71483582 11.24069641 179.03483582 12.26069641 C176.36160021 12.67474691 173.92089419 12.86384396 171.22917175 12.93769836 C170.36209469 12.97071454 169.49501762 13.00373072 168.6016655 13.03774738 C153.9300042 13.5177468 139.23572101 13.42571957 124.55789661 13.42795348 C121.90370035 13.42867104 119.24950904 13.43081818 116.59531403 13.4334507 C107.31408365 13.44264481 98.03286747 13.4467919 88.75163269 13.44599915 C80.12854347 13.44539554 71.50551622 13.45601767 62.88244271 13.47174281 C55.44078411 13.48482575 47.99914582 13.49018293 40.55747581 13.48954374 C36.12866498 13.48928957 31.69990978 13.49209787 27.27111053 13.50272179 C23.11765988 13.51241897 18.96431803 13.51247092 14.81086349 13.50520515 C13.29195115 13.5041623 11.77303193 13.50650437 10.25413132 13.51256561 C-8.58190389 13.58284747 -8.58190389 13.58284747 -13.40266418 8.88569641 C-14.80075864 6.53689773 -15.39155728 4.87812597 -15.96516418 2.26069641 C-10.55178361 0.74016299 -5.63790832 -0.03068136 0 0 Z " fill="#DEDDDD" transform="translate(1633.9651641845703,1058.7393035888672)"/>
<path d="M0 0 C11.55 0 23.1 0 35 0 C35 10.89 35 21.78 35 33 C23.45 33 11.9 33 0 33 C0 22.11 0 11.22 0 0 Z " fill="#E0DFDF" transform="translate(1782,1483)"/>
<path d="M0 0 C11.55 0 23.1 0 35 0 C35 10.56 35 21.12 35 32 C23.45 32 11.9 32 0 32 C0 21.44 0 10.88 0 0 Z " fill="#E1E0E0" transform="translate(1782,1421)"/>
<path d="M0 0 C11.22 0 22.44 0 34 0 C34 10.56 34 21.12 34 32 C22.78 32 11.56 32 0 32 C0 21.44 0 10.88 0 0 Z " fill="#E6E5E5" transform="translate(1721,1483)"/>
<path d="M0 0 C11.22 0 22.44 0 34 0 C34 10.56 34 21.12 34 32 C22.78 32 11.56 32 0 32 C0 21.44 0 10.88 0 0 Z " fill="#E6E5E5" transform="translate(1721,1421)"/>
<path d="M0 0 C10.56 0 21.12 0 32 0 C32 10.87502444 31.76981939 21.22252861 31 32 C20.77 32 10.54 32 0 32 C0 21.44 0 10.88 0 0 Z " fill="#E5E4E4" transform="translate(1844,1421)"/>
<path d="M0 0 C9.9 0 19.8 0 30 0 C30.061875 2.97 30.12375 5.94 30.1875 9 C30.21481201 9.91910156 30.24212402 10.83820313 30.27026367 11.78515625 C30.33035892 17.81277455 29.83758727 23.87205496 25.58276367 28.56225586 C20.39359163 33.07106445 15.95244217 33.15756159 9.375 33.125 C8.58609375 33.12886719 7.7971875 33.13273437 6.984375 33.13671875 C1.12665394 33.12665394 1.12665394 33.12665394 0 32 C-0.0883967 29.6243148 -0.11530305 27.27791326 -0.09765625 24.90234375 C-0.0962413 24.19348526 -0.09482635 23.48462677 -0.09336853 22.75428772 C-0.08775443 20.48198288 -0.07519963 18.20977525 -0.0625 15.9375 C-0.05748681 14.40039204 -0.05292359 12.86328255 -0.04882812 11.32617188 C-0.0386297 7.55071333 -0.01905732 3.77546596 0 0 Z " fill="#E0DFDF" transform="translate(1843,1483)"/>
<path d="M0 0 C9.24 0 18.48 0 28 0 C28 10.56 28 21.12 28 32 C24.24625 32.04125 20.4925 32.0825 16.625 32.125 C15.44244629 32.14320801 14.25989258 32.16141602 13.04150391 32.18017578 C12.11257324 32.1851709 11.18364258 32.19016602 10.2265625 32.1953125 C8.79691162 32.21102295 8.79691162 32.21102295 7.33837891 32.22705078 C5 32 5 32 3 30 C2.49755859 27.88037109 2.49755859 27.88037109 2.1484375 25.2734375 C2.01953125 24.32339844 1.890625 23.37335938 1.7578125 22.39453125 C1.63148437 21.39808594 1.50515625 20.40164063 1.375 19.375 C1.2409375 18.40175781 1.106875 17.42851563 0.96875 16.42578125 C0.22831798 10.81209764 0 5.74432135 0 0 Z " fill="#E5E4E4" transform="translate(1665,1421)"/>
<path d="M0 0 C0.66 0 1.32 0 2 0 C3.99800545 5.94342376 5.99136017 11.88839223 7.98144531 17.83447266 C8.65940338 19.85827173 9.33843659 21.88171096 10.01855469 23.90478516 C10.99434864 26.80798554 11.96630468 29.71244604 12.9375 32.6171875 C13.24373291 33.52556366 13.54996582 34.43393982 13.86547852 35.36984253 C14.14576904 36.21056305 14.42605957 37.05128357 14.71484375 37.91748047 C14.96355225 38.65916473 15.21226074 39.400849 15.46850586 40.16500854 C16 42 16 42 16 44 C6.1 44 -3.8 44 -14 44 C-12.22161135 37.4792416 -10.46083897 31.08816129 -8.30078125 24.70703125 C-8.0608696 23.99012619 -7.82095795 23.27322113 -7.57377625 22.53459167 C-6.82288444 20.29292024 -6.06778745 18.05269371 -5.3125 15.8125 C-4.79594187 14.27288107 -4.27966381 12.73316815 -3.76367188 11.19335938 C-2.51233624 7.4611496 -1.25723297 3.73022712 0 0 Z " fill="#E0DFDF" transform="translate(1931,2316)"/>
<path d="M0 0 C2 1 2 1 2.77200317 2.70800781 C3.01627045 3.44889648 3.26053772 4.18978516 3.51220703 4.953125 C3.93241623 6.20947754 3.93241623 6.20947754 4.3611145 7.49121094 C4.65702484 8.40161133 4.95293518 9.31201172 5.2578125 10.25 C5.56572723 11.17844727 5.87364197 12.10689453 6.19088745 13.06347656 C7.17594055 16.04005346 8.15036303 19.01999831 9.125 22 C9.78971201 24.01063252 10.4550683 26.02105217 11.12109375 28.03125 C12.33329881 31.70191132 13.5453178 35.3726172 14.74658203 39.046875 C14.98925812 39.78776367 15.2319342 40.52865234 15.48196411 41.29199219 C16 43 16 43 16 44 C6.1 44 -3.8 44 -14 44 C-12.6500174 37.92507828 -11.22083019 32.28587881 -9.1796875 26.46484375 C-8.91616486 25.70071671 -8.65264221 24.93658966 -8.38113403 24.14930725 C-7.55036362 21.74374715 -6.71281809 19.34061338 -5.875 16.9375 C-5.30553688 15.29247435 -4.73652246 13.6472933 -4.16796875 12.00195312 C-2.78381833 7.99948968 -1.39359276 3.99918506 0 0 Z " fill="#E0DFDF" transform="translate(1418,2153)"/>
<path d="M0 0 C1.83071004 2.74606506 2.52727175 4.45582531 3.375 7.5625 C4.35729085 10.96875234 5.44645208 14.22942054 6.8125 17.5 C8.83228477 22.41192794 10.55700331 27.40585602 12.25 32.4375 C12.52046143 33.2315625 12.79092285 34.025625 13.06958008 34.84375 C13.3198999 35.59527344 13.57021973 36.34679688 13.828125 37.12109375 C14.0540332 37.7958374 14.27994141 38.47058105 14.51269531 39.16577148 C15 41 15 41 15 44 C5.43 44 -4.14 44 -14 44 C-12.88862837 35.10902696 -12.88862837 35.10902696 -10.875 30.375 C-7.94461674 23.12615719 -5.63059758 15.71929348 -3.32373047 8.25146484 C-3.03643066 7.3280127 -2.74913086 6.40456055 -2.453125 5.453125 C-2.19692383 4.61942383 -1.94072266 3.78572266 -1.67675781 2.92675781 C-1 1 -1 1 0 0 Z " fill="#E1E0E0" transform="translate(1679,2153)"/>
<path d="M0 0 C6.27 0 12.54 0 19 0 C19 10.89 19 21.78 19 33 C9.60073559 31.82509195 9.60073559 31.82509195 6.24609375 28.625 C0.54463989 21.18987521 0 8.9685226 0 0 Z " fill="#E3E2E2" transform="translate(1674,1483)"/>
<path d="M0 0 C11.88 0 23.76 0 36 0 C33.90103507 7.34637725 32.80229103 9.96696533 26.8125 14.3125 C22.60099929 16.53573857 18.65946866 16.68270603 14 16 C7.367101 13.78903367 3.74887003 8.62330504 0 3 C0 2.01 0 1.02 0 0 Z " fill="#DCDBDB" transform="translate(1661,1594)"/>
<path d="M0 0 C11.55 0 23.1 0 35 0 C33.92229503 6.46622981 32.71496289 8.8042128 28 13 C23.22035731 15.69398043 19.45786897 16.67026461 14 16 C7.62878036 14.14069466 4.52046542 10.6240319 1.03125 5.12109375 C0 3 0 3 0 0 Z " fill="#DDDCDC" transform="translate(1827,1594)"/>
</svg>
