<?xml version="1.0" encoding="UTF-8"?>
<svg version="1.1" xmlns="http://www.w3.org/2000/svg" width="3375" height="3375">
<path d="M0 0 C0.99264013 -0.00560927 1.98528026 -0.01121854 3.00800039 -0.01699778 C6.33144312 -0.03090757 9.65413991 -0.01637644 12.97757155 -0.00196791 C15.39567093 -0.0061412 17.81376782 -0.01206675 20.23185912 -0.01958537 C25.50431864 -0.03193466 30.7765611 -0.03184832 36.04900789 -0.02085119 C43.94203026 -0.00446255 51.83491871 -0.01119011 59.72794416 -0.02238176 C73.18062984 -0.04077839 86.63325502 -0.04018339 100.08594614 -0.02925825 C113.71916467 -0.01825393 127.35234338 -0.0159313 140.98556429 -0.02420759 C141.84659234 -0.02472428 142.70762038 -0.02524097 143.59474018 -0.02577332 C147.10156412 -0.0279064 150.60838801 -0.03010123 154.11521186 -0.03237442 C186.78128107 -0.05353433 219.4473236 -0.05496542 252.1133967 -0.04378462 C253.56546862 -0.04328785 253.56546862 -0.04328785 255.04687532 -0.04278104 C256.01647001 -0.04244932 256.98606471 -0.0421176 257.98504107 -0.04177583 C287.51139706 -0.03168749 317.03774202 -0.02907549 346.56409937 -0.03386641 C348.54048748 -0.03417632 350.5168756 -0.03448495 352.49326371 -0.03479229 C360.43534347 -0.03603413 368.37742323 -0.03730879 376.31950298 -0.03863134 C398.52169356 -0.04229958 420.72388419 -0.04458183 442.92607504 -0.04577589 C443.93715604 -0.04583047 444.94823703 -0.04588506 445.98995684 -0.04594129 C478.21291394 -0.04757868 510.43586719 -0.04306943 542.65882307 -0.03437757 C543.70411896 -0.03409658 544.74941486 -0.03381558 545.82638638 -0.03352607 C562.80184056 -0.02894615 579.77729466 -0.02406836 596.75274875 -0.01916538 C664.07891881 0.00025958 731.40505706 -0.00064064 798.73122698 -0.02008772 C815.6968791 -0.0249724 832.66253122 -0.02981657 849.62818342 -0.03437757 C850.67279127 -0.03465937 851.71739911 -0.03494116 852.79366173 -0.03523149 C884.98180229 -0.04385509 917.1699402 -0.04751354 949.35808188 -0.04577589 C950.36843605 -0.04572155 951.37879022 -0.04566722 952.41976118 -0.04561123 C974.5978048 -0.04436136 996.77584814 -0.0418269 1018.95389148 -0.03813388 C1026.88923204 -0.03681729 1034.82457262 -0.03556497 1042.75991319 -0.03433103 C1044.73405827 -0.03402148 1046.70820334 -0.03370656 1048.68234842 -0.03338625 C1078.20091371 -0.02861002 1107.71946657 -0.03268126 1137.23803032 -0.04278104 C1138.68997804 -0.04327781 1138.68997804 -0.04327781 1140.17125803 -0.04378462 C1141.62053275 -0.04428071 1141.62053275 -0.04428071 1143.09908574 -0.04478683 C1175.67107165 -0.05581445 1208.24302552 -0.05177203 1240.81500684 -0.03066164 C1244.31133276 -0.02845218 1247.80765871 -0.02630537 1251.3039847 -0.02420759 C1252.59108885 -0.02342635 1252.59108885 -0.02342635 1253.9041951 -0.02262933 C1267.50140085 -0.01473398 1281.09856683 -0.02023887 1294.69576901 -0.03128362 C1308.05973509 -0.04185435 1321.42363393 -0.03816952 1334.78759147 -0.01922726 C1342.62614839 -0.00854107 1350.46452112 -0.0087957 1358.3030693 -0.02515365 C1364.1175622 -0.03606735 1369.93189764 -0.0261936 1375.74637694 -0.00812855 C1378.08759972 -0.00408969 1380.42884598 -0.00679115 1382.77005019 -0.01695231 C1409.84233141 -0.12614046 1409.84233141 -0.12614046 1419.21047503 8.72405291 C1424.18458964 14.61786058 1426.83469579 20.79478137 1426.8365642 28.47898005 C1426.83923391 29.49050708 1426.84190362 30.50203411 1426.84465423 31.54421347 C1426.84142252 33.21279397 1426.84142252 33.21279397 1426.83812553 34.91508317 C1426.8406017 36.69621715 1426.8406017 36.69621715 1426.84312789 38.51333364 C1426.84671624 41.83061371 1426.84579339 45.14783851 1426.8430261 48.46511582 C1426.8411093 52.07945015 1426.84498216 55.69377896 1426.84812289 59.30811179 C1426.85284579 65.67425023 1426.85381872 72.0403809 1426.85239455 78.40652081 C1426.85027816 87.93694468 1426.85388003 97.46736046 1426.85860932 106.99778308 C1426.86649347 123.23794039 1426.86957191 139.4780955 1426.87005526 155.71825457 C1426.87055713 172.18401748 1426.87319879 188.64977793 1426.87846285 205.11554003 C1426.87879298 206.15419014 1426.87912312 207.19284026 1426.87946326 208.26296462 C1426.88081321 212.49299005 1426.88217587 216.72301548 1426.88355536 220.9530409 C1426.89987089 271.07125527 1426.90624547 321.18946917 1426.91100323 371.30768574 C1426.91338494 396.2550639 1426.9170881 421.2024418 1426.92104033 446.14981975 C1426.93370543 526.13840814 1426.94448968 606.12699652 1426.94788079 686.1155859 C1426.94804303 689.93977381 1426.94820859 693.76396172 1426.94837517 697.58814964 C1426.94870897 705.25785047 1426.94903946 712.9275513 1426.94936973 720.59725213 C1426.94975663 729.57695467 1426.95014624 738.55665722 1426.95054079 747.53635976 C1426.95065321 750.10644103 1426.95076463 752.67652229 1426.95087505 755.24660356 C1426.95442551 837.81241639 1426.96950779 920.37822052 1426.99281279 1002.94403003 C1427.00954884 1062.26114724 1427.0250271 1121.57826281 1427.02954775 1180.8953824 C1427.02968798 1182.72426368 1427.02968798 1182.72426368 1427.02983104 1184.59009205 C1427.03184986 1211.35259785 1427.03300609 1238.11510361 1427.03335963 1264.87760947 C1427.03349581 1274.45317507 1427.0337048 1284.02874067 1427.03395288 1293.60430627 C1427.03401444 1295.98656386 1427.03407276 1298.36882146 1427.03412783 1300.75107905 C1427.03504852 1338.74742382 1427.04502718 1376.74375953 1427.05958532 1414.74010132 C1427.07418533 1452.99873094 1427.07925305 1491.25734942 1427.07116577 1529.51598133 C1427.07005033 1534.79787055 1427.06903969 1540.07975978 1427.06809145 1545.36164904 C1427.06790148 1546.39708464 1427.06771152 1547.43252025 1427.06751579 1548.4993327 C1427.0647777 1564.92204975 1427.07213833 1581.34474627 1427.08366482 1597.76745886 C1427.09477887 1613.89983305 1427.09526378 1630.03217809 1427.08429463 1646.16455271 C1427.0781791 1655.6328711 1427.08034349 1665.10110176 1427.09454661 1674.56941196 C1427.10315347 1680.84951446 1427.10097394 1687.12955209 1427.0898479 1693.40965053 C1427.08383852 1696.9749392 1427.08256291 1700.54005528 1427.09453276 1704.10533281 C1427.10727874 1707.93241245 1427.09691948 1711.75922906 1427.08422118 1715.58631349 C1427.09533393 1717.24054953 1427.09533393 1717.24054953 1427.10667117 1718.92820449 C1427.04594031 1727.58615917 1425.56849486 1734.08946872 1419.64797503 1740.75139666 C1418.95574847 1741.56092791 1418.2635219 1742.37045916 1417.55031878 1743.20452166 C1410.64758005 1748.78747953 1403.0590782 1750.0940611 1394.4005633 1750.00279331 C1393.40571566 1750.00840258 1392.41086801 1750.01401185 1391.38587347 1750.01979109 C1388.05490826 1750.03370132 1384.72468724 1750.01916952 1381.39373308 1750.00476122 C1378.9702148 1750.00893449 1376.54669901 1750.01486003 1374.12318879 1750.02237868 C1368.83884907 1750.03472812 1363.55472592 1750.0346415 1358.27039891 1750.02364451 C1350.35960607 1750.00725608 1342.44894685 1750.01398333 1334.53815093 1750.02517507 C1321.05522212 1750.0435718 1307.57235367 1750.04297666 1294.08941942 1750.03205156 C1280.42556319 1750.02104729 1266.76174668 1750.01872457 1253.09788805 1750.0270009 C1252.23492971 1750.02751759 1251.37197136 1750.02803429 1250.48286276 1750.02856663 C1246.9681799 1750.03069971 1243.45349709 1750.03289454 1239.93881431 1750.03516774 C1207.19966873 1750.05632757 1174.46054978 1750.05775879 1141.72140032 1750.04657793 C1140.75119158 1750.04624675 1139.78098283 1750.04591557 1138.78137382 1750.04557435 C1137.8096154 1750.04524263 1136.83785697 1750.04491091 1135.83665133 1750.04456914 C1106.24488638 1750.03448096 1076.65313244 1750.03186873 1047.06136614 1750.03665972 C1045.08063039 1750.03696963 1043.09989463 1750.03727826 1041.11915888 1750.0375856 C1033.15962704 1750.03882744 1025.2000952 1750.0401021 1017.24056337 1750.04142465 C994.98965878 1750.04509289 972.73875415 1750.04737514 950.4878493 1750.0485692 C948.96790331 1750.04865108 948.96790331 1750.04865108 947.41725135 1750.04873461 C915.12378606 1750.05037199 882.83032461 1750.04586276 850.53686053 1750.03717089 C849.48927861 1750.03688989 848.44169669 1750.03660889 847.36236986 1750.03631938 C830.34975968 1750.03173946 813.33714959 1750.02686167 796.3245395 1750.02195869 C728.84835634 1750.00253298 661.37220493 1750.00343461 593.8960219 1750.02288103 C576.89204448 1750.0277657 559.88806704 1750.03260986 542.88408953 1750.03717089 C541.837127 1750.03745268 540.79016448 1750.03773447 539.71147581 1750.0380248 C507.45201696 1750.04664808 475.19256074 1750.05030692 442.93310076 1750.0485692 C441.92054525 1750.04851487 440.90798975 1750.04846053 439.86475074 1750.04840454 C417.63866699 1750.04715469 395.41258351 1750.04462026 373.18650003 1750.04092719 C365.23403608 1750.03961059 357.28157212 1750.03835828 349.32910816 1750.03712435 C347.35069844 1750.03681479 345.37228873 1750.03649987 343.39387901 1750.03617956 C313.80910677 1750.03140294 284.22434693 1750.03547533 254.63957623 1750.04557435 C253.18426312 1750.04607112 253.18426312 1750.04607112 251.69954973 1750.04657793 C250.73112667 1750.04690866 249.7627036 1750.04723939 248.76493438 1750.04758014 C216.12125489 1750.05860648 183.47760737 1750.05456793 150.83393246 1750.03345495 C147.33030901 1750.03124549 143.82668552 1750.02909868 140.323062 1750.0270009 C139.46319922 1750.02648008 138.60333643 1750.02595925 137.7174172 1750.02542264 C124.08892318 1750.01752568 110.46046884 1750.02303389 96.8319784 1750.03407693 C83.4389831 1750.04464473 70.04605489 1750.04096822 56.65306812 1750.02202058 C48.79635271 1750.01132995 40.93982105 1750.0115967 33.08311434 1750.02794696 C27.2569697 1750.03885271 21.43098238 1750.02899675 15.60485134 1750.01092187 C13.25759566 1750.00687992 10.91031659 1750.00959246 8.56307939 1750.01974562 C5.38183485 1750.03253418 2.20158519 1750.02072992 -0.97961324 1750.00279331 C-2.34046203 1750.01713776 -2.34046203 1750.01713776 -3.7288027 1750.031772 C-11.88204335 1749.93809605 -19.1140185 1747.82670933 -25.16452497 1742.18889666 C-30.49991806 1736.32499765 -33.41256775 1730.50025346 -33.41703215 1722.52307326 C-33.42001867 1721.51138005 -33.4230052 1720.49968685 -33.42608222 1719.45733628 C-33.42338212 1717.78847571 -33.42338212 1717.78847571 -33.42062747 1716.08590078 C-33.42265095 1714.89828062 -33.42467442 1713.71066046 -33.42675921 1712.48705181 C-33.43138839 1709.16921412 -33.43151115 1705.85143017 -33.42978967 1702.53359323 C-33.42900986 1698.91864289 -33.4340099 1695.30369985 -33.43827638 1691.68875259 C-33.4449809 1685.32151158 -33.44793224 1678.95427718 -33.44848084 1672.58703279 C-33.44931358 1663.05489627 -33.455827 1653.52276946 -33.46344381 1643.99063625 C-33.47624177 1627.74742403 -33.48418135 1611.50421259 -33.48947996 1595.26099634 C-33.49485653 1578.79200428 -33.50234026 1562.32301526 -33.51239294 1545.85402536 C-33.51302451 1544.81516723 -33.51365609 1543.77630909 -33.5143068 1542.70597041 C-33.5168818 1538.47508888 -33.5194654 1534.24420735 -33.52206165 1530.01332584 C-33.55568221 1475.10805462 -33.57616881 1420.20278017 -33.59450163 1365.29750205 C-33.59847755 1353.42397382 -33.60266351 1341.55044565 -33.60685704 1329.67691749 C-33.63801292 1241.35287936 -33.66509945 1153.02884027 -33.68180381 1064.70479814 C-33.68569067 1044.22332584 -33.68971076 1023.74185357 -33.69378806 1003.26038131 C-33.69429893 1000.68932024 -33.69480766 998.11825916 -33.69531426 995.54719809 C-33.71158733 912.96052384 -33.74858466 830.37387885 -33.79946806 747.78721906 C-33.83601347 688.45562342 -33.86972243 629.12403391 -33.88201708 569.79242754 C-33.88227117 568.57267156 -33.88252526 567.35291558 -33.88278705 566.0961973 C-33.88830299 539.32157677 -33.89214384 512.54695625 -33.89441252 485.77233525 C-33.89535052 474.99972053 -33.89650666 464.22710583 -33.89772695 453.45449114 C-33.89785448 452.27547459 -33.897982 451.09645804 -33.89811339 449.88171371 C-33.90232444 411.87810405 -33.92511751 373.87453352 -33.95748189 335.87093825 C-33.9899721 297.59961888 -34.00360001 259.32834219 -33.99108768 221.05700963 C-33.989363 215.77133195 -33.98785021 210.48565423 -33.98646444 205.19997644 C-33.98618483 204.16381357 -33.98590522 203.12765069 -33.98561714 202.06008894 C-33.98173781 185.63701641 -33.9980548 169.21402814 -34.02274435 152.79097631 C-34.04659159 136.65153092 -34.0491323 120.51219986 -34.02884002 104.3727483 C-34.01758062 94.90461309 -34.02281669 85.43683101 -34.05224756 75.96873289 C-34.07015056 69.68365697 -34.06635939 63.39883773 -34.04480106 57.11377385 C-34.03318424 53.54878261 -34.03087654 49.98448187 -34.05528844 46.41953974 C-34.08133275 42.58591828 -34.06078627 38.75333226 -34.03586662 34.91968584 C-34.05080175 33.82623806 -34.06573687 32.73279029 -34.08112458 31.60620773 C-33.96073744 22.87649093 -31.29334097 15.37765308 -25.70162006 8.56748372 C-18.54215598 1.82157357 -9.53625479 -0.10075264 0 0 Z " fill="#E6E5E5" transform="translate(989.2895249724388,819.4986033439636)"/>
<path d="M0 0 C8.952726 6.03788498 9.97206332 17.03721364 11.91015625 26.9140625 C12.56039183 30.3012374 13.19965754 33.6902103 13.83178711 37.08081055 C14.97561533 43.19978734 16.19346703 49.26962957 17.6875 55.3125 C19.38246438 62.20842757 20.74773204 69.14717258 22.0625 76.125 C24.02014117 86.50542073 26.1546018 96.83613026 28.390625 107.15991211 C30.15855718 115.3270633 31.87851685 123.50263789 33.5625 131.6875 C35.92749604 143.17327131 38.33010795 154.65068913 40.75 166.125 C45.7108017 189.64781514 45.7108017 189.64781514 48.09472656 201.19262695 C48.91722062 205.16741887 49.75117733 209.13686205 50.65625 213.09375 C53.89817775 227.38224638 53.89817775 227.38224638 51.5625 234 C47.68153891 239.82144163 43.54842287 242.30597101 36.8125 243.8125 C36.11801758 243.97145752 35.42353516 244.13041504 34.70800781 244.29418945 C32.37185573 244.82086433 30.03081756 245.31874642 27.6875 245.8125 C26.5104248 246.06652588 26.5104248 246.06652588 25.30957031 246.32568359 C16.49457448 248.22561814 7.6549229 250.00607283 -1.18164062 251.80224609 C-6.72555852 252.92920233 -12.26917158 254.05764775 -17.8125 255.1875 C-18.76859161 255.38231964 -19.72468323 255.57713928 -20.70974731 255.77786255 C-35.37692753 258.76970615 -50.00811883 261.89303871 -64.625 265.12109375 C-72.90915182 266.94954883 -81.2020578 268.73532638 -89.5 270.5 C-90.19907471 270.64872559 -90.89814941 270.79745117 -91.6184082 270.95068359 C-100.71306159 272.88155827 -109.82150086 274.70265266 -118.96386719 276.39306641 C-126.20645179 277.74977592 -133.38495894 279.35382241 -140.55932617 281.03222656 C-144.46805635 281.9464755 -148.36294591 282.85084758 -152.31640625 283.55078125 C-164.65774461 285.79842164 -176.53210208 290.54307098 -184.3125 300.8125 C-193.71137846 314.8267323 -195.48440031 328.17447469 -192.27412415 344.55967712 C-190.87253238 351.35830569 -189.2778067 358.11040956 -187.67488098 364.86375427 C-182.69326885 386.0919231 -182.69326885 386.0919231 -183.3125 391.8125 C-185.30434016 393.7552347 -187.13430798 395.27146036 -189.375 396.875 C-190.66876101 397.84399519 -191.96170299 398.81408469 -193.25390625 399.78515625 C-194.26155029 400.53176514 -194.26155029 400.53176514 -195.28955078 401.29345703 C-197.88838053 403.24493165 -200.42229637 405.26945793 -202.95043945 407.3112793 C-204.19695222 408.31623629 -205.44948588 409.31376842 -206.70776367 410.30395508 C-209.84073509 412.77373982 -212.86115384 415.28774721 -215.7734375 418.015625 C-221.86910181 423.56308044 -226.4707305 426.7714157 -234.9375 426.625 C-237.74677325 426.46138333 -240.52015623 426.15320106 -243.3125 425.8125 C-244.36308594 425.74417969 -245.41367188 425.67585938 -246.49609375 425.60546875 C-259.68794547 424.26301437 -273.22924326 416.18365711 -282.3125 406.8125 C-292.9374215 393.72672031 -297.19725442 380.3620232 -300.3125 364.0625 C-304.29783053 343.3891052 -309.1189382 323.11873033 -323.3125 306.8125 C-323.97894531 306.00296875 -324.64539062 305.1934375 -325.33203125 304.359375 C-335.13185884 292.84678475 -346.77697129 285.99208277 -360.3125 279.8125 C-361.24320313 279.37808594 -362.17390625 278.94367188 -363.1328125 278.49609375 C-385.23703865 268.86547432 -411.53722359 273.32330114 -433.98339844 279.00878906 C-439.47126165 280.33366774 -445.01216086 281.35009939 -450.5625 282.375 C-459.97431588 284.13566296 -469.33283469 286.06539904 -478.66699219 288.20141602 C-484.21465805 289.44826056 -489.64939366 290.28356012 -495.3125 290.8125 C-499.79379079 284.98682198 -503.45844076 278.92846479 -506.75 272.375 C-507.10384766 271.67697266 -507.45769531 270.97894531 -507.82226562 270.25976562 C-509.29165929 267.27151355 -510.3125 265.18569429 -510.3125 261.8125 C-508.70701294 261.49611572 -508.70701294 261.49611572 -507.0690918 261.17333984 C-488.81152741 257.57070933 -470.56594363 253.96349616 -452.41918945 249.83276367 C-444.47588545 248.03537372 -436.50591416 246.45289657 -428.48950195 245.01660156 C-424.57958 244.62427206 -424.57958 244.62427206 -421.3125 242.8125 C-421.53892131 240.79217799 -421.53892131 240.79217799 -422.0546875 238.40234375 C-422.23386719 237.49419922 -422.41304687 236.58605469 -422.59765625 235.65039062 C-422.79230469 234.69326172 -422.98695312 233.73613281 -423.1875 232.75 C-424.45428802 226.44663753 -425.60472044 220.20510476 -426.3125 213.8125 C-438.34581574 216.29779765 -450.37214881 218.80857252 -462.375 221.4375 C-469.66393088 223.03349615 -476.95722699 224.56141641 -484.28125 225.98828125 C-487.56389755 226.64361146 -490.8282361 227.36967473 -494.09375 228.10546875 C-495.11919922 228.33492187 -496.14464844 228.564375 -497.20117188 228.80078125 C-499.22994338 229.25671358 -501.25737353 229.71866896 -503.28320312 230.1875 C-508.4198149 231.33838346 -513.04790171 232.08304186 -518.3125 231.8125 C-521.17307063 221.95306655 -523.88703155 212.15406798 -523.3125 201.8125 C-521.41716047 199.91716047 -518.16177185 200.00367771 -515.625 199.5625 C-508.80485458 198.34126184 -502.06096778 196.88003678 -495.3125 195.3125 C-487.73448232 193.55681494 -480.16784115 192.00590668 -472.51171875 190.62890625 C-466.45284744 189.49351551 -460.45701265 188.04694507 -454.46289062 186.61328125 C-447.4621219 184.97093313 -440.42958642 183.82882361 -433.3125 182.8125 C-433.49425781 182.04583008 -433.67601562 181.27916016 -433.86328125 180.48925781 C-434.68428237 177.01473897 -435.49846328 173.5386568 -436.3125 170.0625 C-436.59867188 168.8559375 -436.88484375 167.649375 -437.1796875 166.40625 C-437.58574219 164.66601562 -437.58574219 164.66601562 -438 162.890625 C-438.25136719 161.82231445 -438.50273438 160.75400391 -438.76171875 159.65332031 C-439.3125 156.8125 -439.3125 156.8125 -439.3125 152.8125 C-470.26127941 159.00149869 -470.26127941 159.00149869 -501.0703125 165.83984375 C-504.22521016 166.57273254 -507.38509518 167.27470694 -510.5546875 167.94140625 C-511.34472168 168.10842041 -512.13475586 168.27543457 -512.94873047 168.44750977 C-515.43878376 168.83199951 -517.79692516 168.87467836 -520.3125 168.8125 C-515.41032468 142.07336191 -497.19504375 119.03169964 -475.3125 103.8125 C-460.17086352 93.7427033 -439.80624496 85.05408144 -421.3125 85.8125 C-420.96638672 87.44445313 -420.96638672 87.44445313 -420.61328125 89.109375 C-417.25215566 104.46225369 -412.96457363 119.50198655 -399.3125 128.8125 C-376.73111043 141.6346454 -353.13455246 134.23532732 -329.3125 128.8125 C-327.61552979 128.42940674 -327.61552979 128.42940674 -325.88427734 128.03857422 C-322.09460258 127.1819916 -318.30590105 126.32177408 -314.52099609 125.44433594 C-308.3091851 124.00891841 -302.08726394 122.81901481 -295.8125 121.6875 C-289.88358554 120.57237829 -284.00897511 119.2033235 -278.125 117.875 C-269.09408683 115.83753028 -260.05877167 113.95708572 -250.9543457 112.28149414 C-243.76815114 110.94164826 -236.66060334 109.32433725 -229.54174805 107.66772461 C-222.46052271 106.03504092 -215.35260358 104.64973049 -208.20703125 103.33203125 C-201.86936476 102.14786337 -195.59165003 100.77379726 -189.3125 99.3125 C-181.30797082 97.44966881 -173.28850182 95.82231743 -165.20703125 94.33203125 C-158.86936476 93.14786337 -152.59165003 91.77379726 -146.3125 90.3125 C-138.30797082 88.44966881 -130.28850182 86.82231743 -122.20703125 85.33203125 C-115.86936275 84.147863 -109.59165991 82.77376129 -103.3125 81.3125 C-96.08740866 79.63145867 -88.85555485 78.10636309 -81.5625 76.75 C-78.97964356 76.26198266 -76.39701803 75.77276071 -73.81445312 75.28320312 C-72.16298809 74.97250596 -70.51064824 74.66641881 -68.85742188 74.36523438 C-54.17757026 71.65822681 -40.70800826 67.2482702 -31.3125 54.8125 C-22.1418429 39.62194898 -20.44457286 26.15842269 -24.65625 8.84375 C-25.3125 5.8125 -25.3125 5.8125 -25.3125 1.8125 C-7.70062096 -2.76059997 -7.70062096 -2.76059997 0 0 Z " fill="#050404" transform="translate(1832.3125,1148.1875)"/>
<path d="M0 0 C0.99264013 -0.00560927 1.98528026 -0.01121854 3.00800039 -0.01699778 C6.33144312 -0.03090757 9.65413991 -0.01637644 12.97757155 -0.00196791 C15.39567093 -0.0061412 17.81376782 -0.01206675 20.23185912 -0.01958537 C25.50431864 -0.03193466 30.7765611 -0.03184832 36.04900789 -0.02085119 C43.94203026 -0.00446255 51.83491871 -0.01119011 59.72794416 -0.02238176 C73.18062984 -0.04077839 86.63325502 -0.04018339 100.08594614 -0.02925825 C113.71916467 -0.01825393 127.35234338 -0.0159313 140.98556429 -0.02420759 C141.84659234 -0.02472428 142.70762038 -0.02524097 143.59474018 -0.02577332 C147.10156412 -0.0279064 150.60838801 -0.03010123 154.11521186 -0.03237442 C186.78128107 -0.05353433 219.4473236 -0.05496542 252.1133967 -0.04378462 C253.56546862 -0.04328785 253.56546862 -0.04328785 255.04687532 -0.04278104 C256.01647001 -0.04244932 256.98606471 -0.0421176 257.98504107 -0.04177583 C287.51139706 -0.03168749 317.03774202 -0.02907549 346.56409937 -0.03386641 C348.54048748 -0.03417632 350.5168756 -0.03448495 352.49326371 -0.03479229 C360.43534347 -0.03603413 368.37742323 -0.03730879 376.31950298 -0.03863134 C398.52169356 -0.04229958 420.72388419 -0.04458183 442.92607504 -0.04577589 C443.93715604 -0.04583047 444.94823703 -0.04588506 445.98995684 -0.04594129 C478.21291394 -0.04757868 510.43586719 -0.04306943 542.65882307 -0.03437757 C543.70411896 -0.03409658 544.74941486 -0.03381558 545.82638638 -0.03352607 C562.80184056 -0.02894615 579.77729466 -0.02406836 596.75274875 -0.01916538 C664.07891881 0.00025958 731.40505706 -0.00064064 798.73122698 -0.02008772 C815.6968791 -0.0249724 832.66253122 -0.02981657 849.62818342 -0.03437757 C850.67279127 -0.03465937 851.71739911 -0.03494116 852.79366173 -0.03523149 C884.98180229 -0.04385509 917.1699402 -0.04751354 949.35808188 -0.04577589 C950.36843605 -0.04572155 951.37879022 -0.04566722 952.41976118 -0.04561123 C974.5978048 -0.04436136 996.77584814 -0.0418269 1018.95389148 -0.03813388 C1026.88923204 -0.03681729 1034.82457262 -0.03556497 1042.75991319 -0.03433103 C1044.73405827 -0.03402148 1046.70820334 -0.03370656 1048.68234842 -0.03338625 C1078.20091371 -0.02861002 1107.71946657 -0.03268126 1137.23803032 -0.04278104 C1138.68997804 -0.04327781 1138.68997804 -0.04327781 1140.17125803 -0.04378462 C1141.62053275 -0.04428071 1141.62053275 -0.04428071 1143.09908574 -0.04478683 C1175.67107165 -0.05581445 1208.24302552 -0.05177203 1240.81500684 -0.03066164 C1244.31133276 -0.02845218 1247.80765871 -0.02630537 1251.3039847 -0.02420759 C1252.59108885 -0.02342635 1252.59108885 -0.02342635 1253.9041951 -0.02262933 C1267.50140085 -0.01473398 1281.09856683 -0.02023887 1294.69576901 -0.03128362 C1308.05973509 -0.04185435 1321.42363393 -0.03816952 1334.78759147 -0.01922726 C1342.62614839 -0.00854107 1350.46452112 -0.0087957 1358.3030693 -0.02515365 C1364.1175622 -0.03606735 1369.93189764 -0.0261936 1375.74637694 -0.00812855 C1378.08759972 -0.00408969 1380.42884598 -0.00679115 1382.77005019 -0.01695231 C1409.84233141 -0.12614046 1409.84233141 -0.12614046 1419.21047503 8.72405291 C1424.18458964 14.61786058 1426.83469579 20.79478137 1426.8365642 28.47898005 C1426.83923391 29.49050708 1426.84190362 30.50203411 1426.84465423 31.54421347 C1426.84142252 33.21279397 1426.84142252 33.21279397 1426.83812553 34.91508317 C1426.8406017 36.69621715 1426.8406017 36.69621715 1426.84312789 38.51333364 C1426.84671624 41.83061371 1426.84579339 45.14783851 1426.8430261 48.46511582 C1426.8411093 52.07945015 1426.84498216 55.69377896 1426.84812289 59.30811179 C1426.85284579 65.67425023 1426.85381872 72.0403809 1426.85239455 78.40652081 C1426.85027816 87.93694468 1426.85388003 97.46736046 1426.85860932 106.99778308 C1426.86649347 123.23794039 1426.86957191 139.4780955 1426.87005526 155.71825457 C1426.87055713 172.18401748 1426.87319879 188.64977793 1426.87846285 205.11554003 C1426.87879298 206.15419014 1426.87912312 207.19284026 1426.87946326 208.26296462 C1426.88081321 212.49299005 1426.88217587 216.72301548 1426.88355536 220.9530409 C1426.89987089 271.07125527 1426.90624547 321.18946917 1426.91100323 371.30768574 C1426.91338494 396.2550639 1426.9170881 421.2024418 1426.92104033 446.14981975 C1426.93370543 526.13840814 1426.94448968 606.12699652 1426.94788079 686.1155859 C1426.94804303 689.93977381 1426.94820859 693.76396172 1426.94837517 697.58814964 C1426.94870897 705.25785047 1426.94903946 712.9275513 1426.94936973 720.59725213 C1426.94975663 729.57695467 1426.95014624 738.55665722 1426.95054079 747.53635976 C1426.95065321 750.10644103 1426.95076463 752.67652229 1426.95087505 755.24660356 C1426.95442551 837.81241639 1426.96950779 920.37822052 1426.99281279 1002.94403003 C1427.00954884 1062.26114724 1427.0250271 1121.57826281 1427.02954775 1180.8953824 C1427.02968798 1182.72426368 1427.02968798 1182.72426368 1427.02983104 1184.59009205 C1427.03184986 1211.35259785 1427.03300609 1238.11510361 1427.03335963 1264.87760947 C1427.03349581 1274.45317507 1427.0337048 1284.02874067 1427.03395288 1293.60430627 C1427.03401444 1295.98656386 1427.03407276 1298.36882146 1427.03412783 1300.75107905 C1427.03504852 1338.74742382 1427.04502718 1376.74375953 1427.05958532 1414.74010132 C1427.07418533 1452.99873094 1427.07925305 1491.25734942 1427.07116577 1529.51598133 C1427.07005033 1534.79787055 1427.06903969 1540.07975978 1427.06809145 1545.36164904 C1427.06790148 1546.39708464 1427.06771152 1547.43252025 1427.06751579 1548.4993327 C1427.0647777 1564.92204975 1427.07213833 1581.34474627 1427.08366482 1597.76745886 C1427.09477887 1613.89983305 1427.09526378 1630.03217809 1427.08429463 1646.16455271 C1427.0781791 1655.6328711 1427.08034349 1665.10110176 1427.09454661 1674.56941196 C1427.10315347 1680.84951446 1427.10097394 1687.12955209 1427.0898479 1693.40965053 C1427.08383852 1696.9749392 1427.08256291 1700.54005528 1427.09453276 1704.10533281 C1427.10727874 1707.93241245 1427.09691948 1711.75922906 1427.08422118 1715.58631349 C1427.09533393 1717.24054953 1427.09533393 1717.24054953 1427.10667117 1718.92820449 C1427.04594031 1727.58615917 1425.56849486 1734.08946872 1419.64797503 1740.75139666 C1418.95574847 1741.56092791 1418.2635219 1742.37045916 1417.55031878 1743.20452166 C1410.64758005 1748.78747953 1403.0590782 1750.0940611 1394.4005633 1750.00279331 C1393.40571566 1750.00840258 1392.41086801 1750.01401185 1391.38587347 1750.01979109 C1388.05490826 1750.03370132 1384.72468724 1750.01916952 1381.39373308 1750.00476122 C1378.9702148 1750.00893449 1376.54669901 1750.01486003 1374.12318879 1750.02237868 C1368.83884907 1750.03472812 1363.55472592 1750.0346415 1358.27039891 1750.02364451 C1350.35960607 1750.00725608 1342.44894685 1750.01398333 1334.53815093 1750.02517507 C1321.05522212 1750.0435718 1307.57235367 1750.04297666 1294.08941942 1750.03205156 C1280.42556319 1750.02104729 1266.76174668 1750.01872457 1253.09788805 1750.0270009 C1252.23492971 1750.02751759 1251.37197136 1750.02803429 1250.48286276 1750.02856663 C1246.9681799 1750.03069971 1243.45349709 1750.03289454 1239.93881431 1750.03516774 C1207.19966873 1750.05632757 1174.46054978 1750.05775879 1141.72140032 1750.04657793 C1140.75119158 1750.04624675 1139.78098283 1750.04591557 1138.78137382 1750.04557435 C1137.8096154 1750.04524263 1136.83785697 1750.04491091 1135.83665133 1750.04456914 C1106.24488638 1750.03448096 1076.65313244 1750.03186873 1047.06136614 1750.03665972 C1045.08063039 1750.03696963 1043.09989463 1750.03727826 1041.11915888 1750.0375856 C1033.15962704 1750.03882744 1025.2000952 1750.0401021 1017.24056337 1750.04142465 C994.98965878 1750.04509289 972.73875415 1750.04737514 950.4878493 1750.0485692 C948.96790331 1750.04865108 948.96790331 1750.04865108 947.41725135 1750.04873461 C915.12378606 1750.05037199 882.83032461 1750.04586276 850.53686053 1750.03717089 C849.48927861 1750.03688989 848.44169669 1750.03660889 847.36236986 1750.03631938 C830.34975968 1750.03173946 813.33714959 1750.02686167 796.3245395 1750.02195869 C728.84835634 1750.00253298 661.37220493 1750.00343461 593.8960219 1750.02288103 C576.89204448 1750.0277657 559.88806704 1750.03260986 542.88408953 1750.03717089 C541.837127 1750.03745268 540.79016448 1750.03773447 539.71147581 1750.0380248 C507.45201696 1750.04664808 475.19256074 1750.05030692 442.93310076 1750.0485692 C441.92054525 1750.04851487 440.90798975 1750.04846053 439.86475074 1750.04840454 C417.63866699 1750.04715469 395.41258351 1750.04462026 373.18650003 1750.04092719 C365.23403608 1750.03961059 357.28157212 1750.03835828 349.32910816 1750.03712435 C347.35069844 1750.03681479 345.37228873 1750.03649987 343.39387901 1750.03617956 C313.80910677 1750.03140294 284.22434693 1750.03547533 254.63957623 1750.04557435 C253.18426312 1750.04607112 253.18426312 1750.04607112 251.69954973 1750.04657793 C250.73112667 1750.04690866 249.7627036 1750.04723939 248.76493438 1750.04758014 C216.12125489 1750.05860648 183.47760737 1750.05456793 150.83393246 1750.03345495 C147.33030901 1750.03124549 143.82668552 1750.02909868 140.323062 1750.0270009 C139.46319922 1750.02648008 138.60333643 1750.02595925 137.7174172 1750.02542264 C124.08892318 1750.01752568 110.46046884 1750.02303389 96.8319784 1750.03407693 C83.4389831 1750.04464473 70.04605489 1750.04096822 56.65306812 1750.02202058 C48.79635271 1750.01132995 40.93982105 1750.0115967 33.08311434 1750.02794696 C27.2569697 1750.03885271 21.43098238 1750.02899675 15.60485134 1750.01092187 C13.25759566 1750.00687992 10.91031659 1750.00959246 8.56307939 1750.01974562 C5.38183485 1750.03253418 2.20158519 1750.02072992 -0.97961324 1750.00279331 C-2.34046203 1750.01713776 -2.34046203 1750.01713776 -3.7288027 1750.031772 C-11.88204335 1749.93809605 -19.1140185 1747.82670933 -25.16452497 1742.18889666 C-30.49991806 1736.32499765 -33.41256775 1730.50025346 -33.41703215 1722.52307326 C-33.42001867 1721.51138005 -33.4230052 1720.49968685 -33.42608222 1719.45733628 C-33.42338212 1717.78847571 -33.42338212 1717.78847571 -33.42062747 1716.08590078 C-33.42265095 1714.89828062 -33.42467442 1713.71066046 -33.42675921 1712.48705181 C-33.43138839 1709.16921412 -33.43151115 1705.85143017 -33.42978967 1702.53359323 C-33.42900986 1698.91864289 -33.4340099 1695.30369985 -33.43827638 1691.68875259 C-33.4449809 1685.32151158 -33.44793224 1678.95427718 -33.44848084 1672.58703279 C-33.44931358 1663.05489627 -33.455827 1653.52276946 -33.46344381 1643.99063625 C-33.47624177 1627.74742403 -33.48418135 1611.50421259 -33.48947996 1595.26099634 C-33.49485653 1578.79200428 -33.50234026 1562.32301526 -33.51239294 1545.85402536 C-33.51302451 1544.81516723 -33.51365609 1543.77630909 -33.5143068 1542.70597041 C-33.5168818 1538.47508888 -33.5194654 1534.24420735 -33.52206165 1530.01332584 C-33.55568221 1475.10805462 -33.57616881 1420.20278017 -33.59450163 1365.29750205 C-33.59847755 1353.42397382 -33.60266351 1341.55044565 -33.60685704 1329.67691749 C-33.63801292 1241.35287936 -33.66509945 1153.02884027 -33.68180381 1064.70479814 C-33.68569067 1044.22332584 -33.68971076 1023.74185357 -33.69378806 1003.26038131 C-33.69429893 1000.68932024 -33.69480766 998.11825916 -33.69531426 995.54719809 C-33.71158733 912.96052384 -33.74858466 830.37387885 -33.79946806 747.78721906 C-33.83601347 688.45562342 -33.86972243 629.12403391 -33.88201708 569.79242754 C-33.88227117 568.57267156 -33.88252526 567.35291558 -33.88278705 566.0961973 C-33.88830299 539.32157677 -33.89214384 512.54695625 -33.89441252 485.77233525 C-33.89535052 474.99972053 -33.89650666 464.22710583 -33.89772695 453.45449114 C-33.89785448 452.27547459 -33.897982 451.09645804 -33.89811339 449.88171371 C-33.90232444 411.87810405 -33.92511751 373.87453352 -33.95748189 335.87093825 C-33.9899721 297.59961888 -34.00360001 259.32834219 -33.99108768 221.05700963 C-33.989363 215.77133195 -33.98785021 210.48565423 -33.98646444 205.19997644 C-33.98618483 204.16381357 -33.98590522 203.12765069 -33.98561714 202.06008894 C-33.98173781 185.63701641 -33.9980548 169.21402814 -34.02274435 152.79097631 C-34.04659159 136.65153092 -34.0491323 120.51219986 -34.02884002 104.3727483 C-34.01758062 94.90461309 -34.02281669 85.43683101 -34.05224756 75.96873289 C-34.07015056 69.68365697 -34.06635939 63.39883773 -34.04480106 57.11377385 C-34.03318424 53.54878261 -34.03087654 49.98448187 -34.05528844 46.41953974 C-34.08133275 42.58591828 -34.06078627 38.75333226 -34.03586662 34.91968584 C-34.05080175 33.82623806 -34.06573687 32.73279029 -34.08112458 31.60620773 C-33.96073744 22.87649093 -31.29334097 15.37765308 -25.70162006 8.56748372 C-18.54215598 1.82157357 -9.53625479 -0.10075264 0 0 Z M-21.66452497 22.00139666 C-22.12600935 22.56858416 -22.58749372 23.13577166 -23.06296247 23.72014666 C-25.56913106 27.35967811 -26.53952727 30.01223891 -26.54028531 34.46103795 C-26.54530791 35.46855044 -26.55033052 36.47606294 -26.55550533 37.51410611 C-26.55084198 38.62199647 -26.54617863 39.72988684 -26.54137397 40.87134963 C-26.54430283 42.05403553 -26.5472317 43.23672142 -26.55024932 44.45524629 C-26.5563852 47.75927867 -26.55349408 51.06308605 -26.5469135 54.36710336 C-26.54194283 57.96696849 -26.54856147 61.5668151 -26.55371717 65.16667739 C-26.56118129 71.5073007 -26.56114882 77.84789046 -26.55632768 84.18851582 C-26.54914573 93.68072196 -26.55343798 103.17289898 -26.56000903 112.66510432 C-26.57086351 128.84010086 -26.57215928 145.01508578 -26.56831068 161.19008493 C-26.56443974 177.5897341 -26.56488102 193.98937459 -26.57062048 210.3890233 C-26.5709793 211.42350431 -26.57133813 212.45798533 -26.57170783 213.52381425 C-26.57318268 217.73685877 -26.57468707 221.94990328 -26.57622929 226.16294778 C-26.59188174 268.97269373 -26.59454135 311.78243372 -26.59207323 354.59218202 C-26.5917348 360.5114951 -26.5914127 366.43080818 -26.59110755 372.35012126 C-26.5910465 373.52576874 -26.59098546 374.70141623 -26.59092257 375.91268939 C-26.58965176 401.94347709 -26.59225006 427.97426396 -26.59563361 454.00505141 C-26.59640435 459.94520753 -26.59714907 465.88536365 -26.59789863 471.82551977 C-26.59820032 474.20946354 -26.5985022 476.59340731 -26.59880427 478.97735108 C-26.59895395 480.15901139 -26.59910363 481.34067171 -26.59925785 482.55813991 C-26.59956137 484.94826081 -26.59986606 487.3383817 -26.60017189 489.72850259 C-26.60884799 557.56940537 -26.61348661 625.41030742 -26.60922426 693.25121069 C-26.6091462 694.50805209 -26.60906815 695.76489349 -26.60898772 697.05982099 C-26.60811489 711.0756413 -26.60718563 725.0914616 -26.60623709 739.1072819 C-26.60615158 740.37275744 -26.60606607 741.63823297 -26.60597797 742.94205625 C-26.60545918 750.6186074 -26.60545918 750.6186074 -26.60493574 758.29515854 C-26.59939929 839.24891883 -26.60694276 920.20266772 -26.62570661 1001.15642595 C-26.63042863 1021.55420126 -26.63510905 1041.95197658 -26.63954347 1062.34975195 C-26.6398168 1063.60563527 -26.64009012 1064.8615186 -26.64037172 1066.15545899 C-26.64873971 1104.84688082 -26.65342237 1143.53830169 -26.65425104 1182.22972441 C-26.65427741 1183.44402059 -26.65430377 1184.65831677 -26.65433094 1185.90940981 C-26.65487166 1212.56282085 -26.65449941 1239.21623181 -26.65329122 1265.86964282 C-26.65286558 1275.4061116 -26.65250046 1284.94258039 -26.65216178 1294.47904918 C-26.65207648 1296.85158436 -26.65198754 1299.22411954 -26.65189496 1301.59665472 C-26.65044469 1339.44050818 -26.65758214 1377.2843539 -26.66889892 1415.12820551 C-26.68053415 1454.2905001 -26.68112894 1493.45278085 -26.6690555 1532.61507551 C-26.66780361 1536.8165726 -26.66660013 1541.0180697 -26.66543478 1545.21956682 C-26.66514448 1546.25071833 -26.66485419 1547.28186984 -26.6645551 1548.34426837 C-26.660222 1564.70174832 -26.66597391 1581.05920869 -26.67587497 1597.41668557 C-26.68538926 1613.48335032 -26.68426806 1629.54998471 -26.67166875 1645.61664767 C-26.66459423 1655.0474674 -26.6657986 1664.47820004 -26.67901713 1673.90901365 C-26.68696932 1680.16301291 -26.68414964 1686.41694588 -26.67236749 1692.67093899 C-26.66598405 1696.22219861 -26.66435203 1699.77328549 -26.6759347 1703.32453585 C-26.68825961 1707.13491098 -26.67752888 1710.94501897 -26.6644218 1714.75539619 C-26.67171216 1715.85611432 -26.67900252 1716.95683246 -26.6865138 1718.09090569 C-26.6219207 1727.10819245 -24.77978416 1732.86020121 -18.28952497 1739.50139666 C-11.39683494 1743.75433306 -4.38042776 1743.64746177 3.46177381 1743.62789649 C4.93633304 1743.63018631 4.93633304 1743.63018631 6.44068135 1743.63252239 C9.75528206 1743.6364385 13.0698376 1743.63319978 16.38443857 1743.63003111 C18.78684258 1743.63137698 21.18924638 1743.63316042 23.59164977 1743.63534334 C28.84204685 1743.63909684 34.0924307 1743.6397222 39.34282772 1743.6376374 C47.20290709 1743.63453346 55.06297736 1743.6371728 62.92305606 1743.64093611 C76.31799508 1743.64717729 89.71293086 1743.64864112 103.10787112 1743.64751863 C116.68631633 1743.64639509 130.26475881 1743.64742509 143.8432036 1743.6510911 C144.70014873 1743.65132075 145.55709387 1743.6515504 146.44000703 1743.65178702 C149.93009147 1743.65272863 153.42017591 1743.65368432 156.91026034 1743.65465821 C193.34010657 1743.66480893 229.76995127 1743.66786442 266.19979875 1743.66845032 C270.12242918 1743.66851506 274.04505962 1743.668583 277.96769005 1743.66865373 C278.9410645 1743.66867073 279.91443895 1743.66868774 280.9173096 1743.66870526 C302.47505529 1743.66911349 324.03280067 1743.67130269 345.5905462 1743.67380957 C354.46369023 1743.67483791 363.33683425 1743.67582793 372.20997828 1743.67682582 C373.68052741 1743.67699171 373.68052741 1743.67699171 375.1807846 1743.67716094 C431.36974769 1743.6834861 487.55871059 1743.68760994 543.74767405 1743.68715239 C545.8510111 1743.68713661 547.95434815 1743.68712087 550.0576852 1743.68710518 C559.55436849 1743.68703179 569.05105177 1743.68694362 578.54773505 1743.68685129 C582.78266849 1743.68681017 587.01760192 1743.68677002 591.25253536 1743.68672998 C593.37219699 1743.68670958 595.49185861 1743.68668856 597.61152024 1743.68666692 C664.65052956 1743.68598654 731.68953359 1743.69330585 798.72854143 1743.7072072 C815.6208239 1743.71070811 832.51310638 1743.71417751 849.40538889 1743.7174716 C850.44545665 1743.71767447 851.4855244 1743.71787735 852.55710937 1743.71808637 C884.60210289 1743.72429929 916.64709599 1743.72806653 948.69209009 1743.72932959 C949.69786181 1743.72936954 950.70363353 1743.72940949 951.73988318 1743.72945065 C973.81672218 1743.73030384 995.89356117 1743.73056515 1017.97040019 1743.73028027 C1025.86945553 1743.73018378 1033.76851087 1743.73013174 1041.66756621 1743.73010154 C1043.63271494 1743.73009363 1045.59786367 1743.73008342 1047.5630124 1743.73007092 C1078.90157677 1743.72989445 1110.24013662 1743.7355984 1141.57869969 1743.74422474 C1173.13373637 1743.75286652 1204.6887668 1743.75507292 1236.24380417 1743.74846341 C1240.60085088 1743.74755107 1244.9578976 1743.7467078 1249.31494433 1743.7459054 C1250.1690712 1743.74574531 1251.02319808 1743.74558522 1251.90320759 1743.74542029 C1265.44626754 1743.74306412 1278.98931669 1743.74743213 1292.53237461 1743.75457659 C1305.83827299 1743.761456 1319.14415537 1743.76123661 1332.45005339 1743.75338445 C1340.25786012 1743.74899106 1348.06561983 1743.75010313 1355.8734227 1743.75925123 C1361.65990083 1743.76542379 1367.44633363 1743.76123845 1373.23280736 1743.75291793 C1375.56664352 1743.75118839 1377.90048512 1743.75285154 1380.23431575 1743.75821914 C1383.39245666 1743.76499941 1386.55034685 1743.75953093 1389.70847791 1743.75094432 C1391.06767334 1743.75829375 1391.06767334 1743.75829375 1392.45432726 1743.76579165 C1398.99536568 1743.72858023 1406.1065485 1743.23313102 1411.71047503 1739.50139666 C1413.65228534 1737.44728272 1413.65228534 1737.44728272 1415.39797503 1735.06389666 C1415.99996722 1734.28143572 1416.6019594 1733.49897478 1417.22219378 1732.69280291 C1419.51842626 1729.31173618 1419.83574615 1726.64534526 1419.8379822 1722.66474118 C1419.84096873 1721.6592042 1419.84395525 1720.65366722 1419.84703228 1719.61765943 C1419.84523221 1718.50683721 1419.84343214 1717.39601498 1419.84157753 1716.25153148 C1419.843601 1715.06967771 1419.84562447 1713.88782393 1419.84770926 1712.67015641 C1419.85234345 1709.36385299 1419.8524598 1706.05760342 1419.85073973 1702.75130072 C1419.84996068 1699.15063999 1419.85495826 1695.54998661 1419.85922644 1691.94932896 C1419.86593437 1685.60573936 1419.86888253 1679.2621564 1419.86943089 1672.91856341 C1419.87026327 1663.42186293 1419.87677491 1653.92517222 1419.88439386 1644.42847507 C1419.89719491 1628.24613612 1419.90513245 1612.06379795 1419.91043001 1595.88145494 C1419.91580581 1579.47332255 1419.92328878 1563.06519322 1419.93334299 1546.65706301 C1419.93397457 1545.62220171 1419.93460614 1544.58734041 1419.93525686 1543.52111968 C1419.93783185 1539.30654824 1419.94041544 1535.09197681 1419.94301171 1530.87740539 C1419.97663578 1476.17843419 1419.99711903 1421.47945976 1420.01545168 1366.78048163 C1420.01942737 1354.95225855 1420.02361338 1343.12403554 1420.02780709 1331.29581254 C1420.05896218 1243.31547827 1420.08605005 1155.33514306 1420.10275387 1067.35480478 C1420.10664076 1046.95217867 1420.11066084 1026.54955258 1420.11473812 1006.14692651 C1420.11524898 1003.58574912 1420.11575771 1001.02457174 1420.11626431 998.46339435 C1420.13253847 916.18873897 1420.16953736 833.91411296 1420.22041811 751.6394721 C1420.25696074 692.53346937 1420.290671 633.42747279 1420.30296713 574.32145929 C1420.30334827 572.49900104 1420.30334827 572.49900104 1420.3037371 570.63972545 C1420.30925289 543.97087765 1420.31309383 517.30202986 1420.31536258 490.63318159 C1420.31630059 479.90329567 1420.31745672 469.17340978 1420.31867701 458.44352388 C1420.31880453 457.2691774 1420.31893205 456.09483091 1420.31906344 454.88489816 C1420.32327542 417.02342531 1420.34607338 379.16199172 1420.37843194 341.30053331 C1420.41091349 303.17569386 1420.42455381 265.05089724 1420.41203774 226.92604454 C1420.41031303 221.6620753 1420.40880025 216.39810602 1420.4074145 211.13413668 C1420.40699508 209.58625766 1420.40699508 209.58625766 1420.4065672 208.00710836 C1420.40268597 191.64300052 1420.41901402 175.27897716 1420.44369441 158.91489008 C1420.46752577 142.83832848 1420.4700962 126.76188165 1420.44979008 110.68531388 C1420.43851945 101.25078473 1420.44379995 91.81660982 1420.47319761 82.38211777 C1420.49107198 76.12310605 1420.48734182 69.8643524 1420.46575111 63.60535289 C1420.45410992 60.05272717 1420.45189711 56.50079518 1420.47623849 52.9482182 C1420.50217407 49.1329233 1420.48179578 45.31867639 1420.45681667 41.50335681 C1420.4717518 40.40687904 1420.48668693 39.31040127 1420.50207464 38.18069691 C1420.39920424 30.80127291 1418.65165504 26.04358454 1413.71047503 20.50139666 C1408.99826134 16.25828536 1404.78701544 14.37747971 1398.49841975 14.37483482 C1397.65817291 14.3720595 1396.81792606 14.36928419 1395.9522172 14.36642477 C1395.0316729 14.36846111 1394.11112861 14.37049745 1393.16268903 14.37259549 C1392.17734473 14.37082048 1391.19200042 14.36904547 1390.1767972 14.36721667 C1386.84227976 14.36244846 1383.50780506 14.36485649 1380.17328554 14.36717558 C1377.76127443 14.36522386 1375.34926364 14.36283548 1372.93725336 14.36004761 C1367.65956689 14.35496973 1362.3818928 14.35303149 1357.10420492 14.35379835 C1349.203239 14.35493211 1341.30228349 14.35035799 1333.4013199 14.34466751 C1319.93750092 14.33514737 1306.47368402 14.33044696 1293.00986201 14.32835817 C1279.35962366 14.32623115 1265.70938852 14.32197486 1252.05915171 14.31511545 C1250.76741571 14.31446953 1250.76741571 14.31446953 1249.44958404 14.31381056 C1245.94239794 14.31205225 1242.43521186 14.31028261 1238.92802578 14.30849754 C1196.38862066 14.28688813 1153.84921491 14.27601767 1111.30980556 14.2670213 C1097.51814176 14.26408825 1083.72647813 14.26071848 1069.93481451 14.25705409 C1068.96214171 14.2567958 1067.98946891 14.25653751 1066.98732118 14.25627139 C1063.05240391 14.25522519 1059.11748665 14.25417677 1055.18256938 14.25312557 C987.87776093 14.23516096 920.57295224 14.21978065 853.26814174 14.21236654 C847.98052508 14.21178256 842.69290841 14.21118529 837.40529175 14.21058892 C836.35638231 14.2104708 835.30747287 14.21035268 834.2267783 14.21023098 C823.59961136 14.20903357 812.97244442 14.20782482 802.34527749 14.20659845 C800.21447718 14.20635322 798.08367686 14.20610936 795.95287655 14.20586688 C727.50126819 14.19807508 659.04967696 14.17568705 590.59807609 14.14319045 C541.41984103 14.11985153 492.24160936 14.09829634 443.06336886 14.09118414 C442.05245137 14.09103712 441.04153387 14.0908901 439.99998252 14.09073862 C417.81010358 14.08755412 395.62022467 14.08550301 373.43034553 14.08451107 C364.50253519 14.08409632 355.57472487 14.08354142 346.64691454 14.08294916 C345.66980257 14.08288849 344.69269059 14.08282782 343.68596916 14.08276532 C312.18550358 14.0807477 280.6850582 14.06649737 249.18459967 14.04600416 C217.46529244 14.0254417 185.74600858 14.0175195 154.02669535 14.02708192 C149.64693113 14.02840045 145.26716688 14.02957847 140.88740259 14.03067255 C140.02882085 14.0308924 139.1702391 14.03111225 138.28563973 14.03133876 C124.67177907 14.03445726 111.05796301 14.02411036 97.44411269 14.008197 C84.06865791 13.99284002 70.69326504 13.99166749 57.31780814 14.00574524 C49.46905401 14.01357609 41.62048862 14.01038431 33.7717532 13.99110807 C27.95498484 13.97803601 22.13836673 13.98568019 16.32160114 14.00159543 C13.9755018 14.00476025 11.62938163 14.00113704 9.2833061 13.99010368 C6.10841317 13.97613833 2.93451527 13.98667485 -0.24034232 14.003452 C-1.60681431 13.98857594 -1.60681431 13.98857594 -3.00089179 13.97339935 C-10.33994634 14.0555647 -16.96132753 16.02045194 -21.66452497 22.00139666 Z " fill="#FBFBFB" transform="translate(989.2895249724388,819.4986033439636)"/>
<path d="M0 0 C15.54086143 12.7824201 21.41326105 29.5911227 24.96484375 48.77734375 C27.63168134 63.04316404 30.51687653 77.50648152 37.33984375 90.46484375 C37.68080078 91.12750244 38.02175781 91.79016113 38.37304688 92.47290039 C41.19585681 97.81411241 44.47977664 102.48187658 48.46484375 107.02734375 C49.02171875 107.73761719 49.57859375 108.44789062 50.15234375 109.1796875 C58.17090369 119.01279226 68.8373971 126.11835173 80.21484375 131.52734375 C80.87476318 131.84131104 81.53468262 132.15527832 82.21459961 132.47875977 C91.91254855 136.83919812 101.59818648 138.51037153 112.15234375 139.21484375 C113.79493164 139.33762695 113.79493164 139.33762695 115.47070312 139.46289062 C118.13487453 139.66066754 120.79933565 139.84865943 123.46484375 140.02734375 C124.50957464 144.98348789 125.55394174 149.93970852 126.59799194 154.89599609 C126.96756327 156.65024428 127.33721253 158.40447606 127.7069397 160.15869141 C129.67386203 169.49161319 131.63462089 178.82556678 133.56201172 188.16674805 C135.28993384 196.53980985 137.10077459 204.8851577 139.02734375 213.21484375 C140.90425521 221.33137511 142.56094183 229.46962468 144.07739258 237.66088867 C145.23037378 243.88127875 146.52871875 250.04926928 147.94921875 256.21484375 C148.44025454 258.8932208 148.56466028 261.31233412 148.46484375 264.02734375 C136.37943917 266.86653443 124.27088715 269.50445028 112.08984375 271.90234375 C101.06914412 274.07287544 90.09629651 276.40034855 79.13098145 278.83776855 C66.53843211 281.63049924 53.90051237 284.16876 41.24597168 286.66375732 C30.37774953 288.80774562 19.53921809 291.01228302 8.77880859 293.65673828 C4.57153833 294.6680758 0.83206365 295.25058822 -3.53515625 295.02734375 C-16.40431283 247.93792991 -15.89665707 200.03276543 -8.47265625 152.171875 C-3.35061594 118.9215069 -3.95329791 84.30526991 -8.53515625 51.02734375 C-8.7900529 49.03658489 -9.04398993 47.04570289 -9.296875 45.0546875 C-10.42586435 36.45042016 -11.7822077 28.02320898 -13.984375 19.62109375 C-14.53872349 17.01054483 -14.63635185 14.68734251 -14.53515625 12.02734375 C-15.10435791 12.14327881 -15.67355957 12.25921387 -16.26000977 12.37866211 C-18.87214052 12.90947085 -21.48488887 13.43717794 -24.09765625 13.96484375 C-24.99291016 14.14724609 -25.88816406 14.32964844 -26.81054688 14.51757812 C-55.8898504 20.37604587 -83.70586955 16.91368838 -109.53515625 2.02734375 C-109.86515625 1.36734375 -110.19515625 0.70734375 -110.53515625 0.02734375 C-98.95876888 -2.96904356 -87.33026076 -5.66032663 -75.62792969 -8.11962891 C-73.7381285 -8.52050566 -71.85006075 -8.92964606 -69.96386719 -9.34716797 C-45.16880712 -14.82895183 -21.14776153 -16.29318212 0 0 Z " fill="#060505" transform="translate(1476.53515625,1464.97265625)"/>
<path d="M0 0 C3.36923729 14.10857212 6.51388163 28.22307448 9.16357422 42.48535156 C10.69486612 50.64975784 12.47314492 58.73607701 14.47680664 66.79785156 C15.98640779 73.08958174 17.08658315 78.92134774 14.875 85.1875 C10.34640852 91.98038723 5.76398091 93.68708038 -2.00342941 95.33722687 C-3.19967564 95.57237755 -4.39592186 95.80752823 -5.62841797 96.04980469 C-6.89860401 96.31452324 -8.16879005 96.57924179 -9.47746658 96.85198212 C-12.95720479 97.57701481 -16.44106015 98.28008865 -19.9260087 98.97958088 C-23.63400452 99.72804776 -27.33765097 100.49744266 -31.04171753 101.26507568 C-37.25324411 102.55015153 -43.4668972 103.82441565 -49.68200684 105.09204102 C-58.53156685 106.89830262 -67.37299556 108.74205216 -76.21191406 110.59960938 C-77.62025272 110.89545184 -79.0285919 111.19129179 -80.43693161 111.48712921 C-82.54326483 111.9296341 -84.64958956 112.37217919 -86.75588584 112.81485987 C-94.53237862 114.44883001 -102.31104315 116.07237099 -110.08984375 117.6953125 C-111.50685331 117.99100091 -112.92386203 118.28669335 -114.3408699 118.58238983 C-116.46756164 119.02616895 -118.5942563 119.46993408 -120.72095942 119.91365862 C-125.73188591 120.95917969 -130.74268967 122.00528732 -135.75341797 123.05175781 C-136.46565781 123.2005037 -137.17789765 123.34924958 -137.91172051 123.50250292 C-140.77940202 124.10140832 -143.64707969 124.70033211 -146.51474333 125.29932308 C-154.18898817 126.90229142 -161.86344633 128.50421872 -169.53863525 130.10266113 C-172.21490393 130.66014412 -174.89115145 131.21772854 -177.56738281 131.77539062 C-178.21920296 131.91120072 -178.87102311 132.04701082 -179.54259539 132.18693638 C-187.70674301 133.88854357 -195.86785873 135.60375724 -204.02558327 137.33589554 C-208.53031746 138.29211848 -213.0360489 139.24359073 -217.5418663 140.19469452 C-219.60612657 140.63196402 -221.66985783 141.07173965 -223.73300552 141.51422882 C-226.53149399 142.11437576 -229.33164957 142.70605228 -232.13232422 143.29589844 C-233.33893015 143.55844044 -233.33893015 143.55844044 -234.56991196 143.82628632 C-246.66175335 146.34586186 -246.66175335 146.34586186 -251.6875 143.4375 C-252.22761719 143.14746094 -252.76773437 142.85742188 -253.32421875 142.55859375 C-258.00894851 138.20146747 -259.60855629 132.53361457 -260.74609375 126.43359375 C-260.88231644 125.72588333 -261.01853912 125.01817291 -261.15888977 124.28901672 C-261.44740332 122.78360567 -261.73030254 121.27710911 -262.00793457 119.76965332 C-262.73454812 115.8247963 -263.50145033 111.88770091 -264.26171875 107.94921875 C-264.48464096 106.7844249 -264.48464096 106.7844249 -264.71206665 105.59609985 C-265.92585873 99.28245237 -267.28708935 93.0107809 -268.75 86.75 C-270.15801591 80.67715138 -271.55474315 74.60605927 -272.8125 68.5 C-273.04582031 67.3759375 -273.27914063 66.251875 -273.51953125 65.09375 C-273.99918303 62.00526052 -274.03337453 59.11929791 -274 56 C-269.93910105 55.15873388 -265.87604526 54.32838113 -261.8125 53.5 C-260.66201172 53.26152344 -259.51152344 53.02304688 -258.32617188 52.77734375 C-257.21435547 52.55175781 -256.10253906 52.32617188 -254.95703125 52.09375 C-253.93585205 51.88427734 -252.91467285 51.67480469 -251.86254883 51.45898438 C-249.18075268 51.02898209 -246.70948135 50.91294839 -244 51 C-243.82984375 51.71542969 -243.6596875 52.43085937 -243.484375 53.16796875 C-242.68534676 56.45333486 -241.84929938 59.72726875 -241 63 C-240.7215625 64.09054687 -240.443125 65.18109375 -240.15625 66.3046875 C-236.34305238 80.01247549 -229.70259387 89.24596551 -217.41796875 96.53125 C-203.8588091 103.69615157 -191.2425438 102.6573348 -176.52734375 99.48046875 C-175.28304092 99.22123123 -174.0387381 98.96199371 -172.75672913 98.69490051 C-170.14269489 98.14808456 -167.53005715 97.59706615 -164.91870117 97.0378418 C-161.60412118 96.32807618 -158.28693061 95.63163956 -154.96848202 94.9402113 C-151.75797363 94.27069208 -148.54888877 93.59446212 -145.33984375 92.91796875 C-144.16558334 92.67096725 -142.99132294 92.42396576 -141.78147888 92.16947937 C-123.98219296 88.36056914 -107.12014646 84.61497202 -96 69 C-90.91708748 60.1964871 -88.80420707 53.29792628 -88.8125 43.25 C-88.8115332 42.04283325 -88.8115332 42.04283325 -88.81054688 40.8112793 C-88.86015181 35.24932622 -89.58614723 30.3903137 -91 25 C-91.03900535 22.66699271 -91.04470237 20.33290509 -91 18 C-73.59807789 14.25096342 -56.18547307 10.55498804 -38.76513672 6.89257812 C-38.00620117 6.73295593 -37.24726562 6.57333374 -36.46533203 6.40887451 C-34.95183473 6.0910255 -33.43816417 5.77400033 -31.92431641 5.45782471 C-27.88926916 4.61396918 -23.8588597 3.75270387 -19.83251953 2.86816406 C-18.97827896 2.6826297 -18.12403839 2.49709534 -17.24391174 2.30593872 C-15.60978445 1.95067603 -13.97667668 1.59067761 -12.34483337 1.22506714 C-8.14856562 0.31845642 -4.3234759 -0.19349221 0 0 Z " fill="#060505" transform="translate(1706,1808)"/>
<path d="M0 0 C1.58264648 -0.01836914 1.58264648 -0.01836914 3.19726562 -0.03710938 C19.88282425 -0.06829734 34.25909646 6.56575944 46.375 17.9375 C59.78272953 31.96821494 63.93877696 48.72834886 63.5625 67.5546875 C62.79732103 83.77101611 54.95543055 99.10424905 43.1875 110.1875 C31.40194781 120.02904358 17.62275153 125.60633631 2.3125 125.4375 C1.42699463 125.43073242 0.54148926 125.42396484 -0.37084961 125.41699219 C-6.38446532 125.32165235 -12.03571017 124.97360993 -17.8125 123.1875 C-18.68648437 122.93097656 -19.56046875 122.67445313 -20.4609375 122.41015625 C-36.08757336 117.31070785 -48.45710997 106.91188474 -56.0625 92.375 C-57.01128488 90.32707635 -57.92846559 88.26419622 -58.8125 86.1875 C-59.43511719 84.74503906 -59.43511719 84.74503906 -60.0703125 83.2734375 C-65.41851139 68.7996405 -64.39509095 51.27993978 -58.55859375 37.15234375 C-51.2928447 21.49237781 -39.22470586 9.72205483 -23.21875 3.1171875 C-15.42029028 0.43971633 -8.20330815 0.00495668 0 0 Z " fill="#070606" transform="translate(1389.8125,2263.8125)"/>
<path d="M0 0 C11.55 0 23.1 0 35 0 C38.24084882 7.12986741 41.379454 14.21878915 44.29296875 21.4765625 C44.6811377 22.4379866 45.06930664 23.39941071 45.46923828 24.38996887 C46.71100695 27.46737196 47.94933572 30.54614518 49.1875 33.625 C50.0399442 35.73973576 50.89256524 37.85440025 51.74536133 39.96899414 C57.5231612 54.30211479 63.28414007 68.64205394 69 83 C71.6577066 77.81168941 74.06387147 72.625302 76.20800781 67.20703125 C76.50119904 66.47434525 76.79439026 65.74165924 77.09646606 64.98677063 C78.05196615 62.59664186 79.00258439 60.20460492 79.953125 57.8125 C80.619713 56.14229462 81.28660831 54.47221186 81.95379639 52.80224609 C83.69943349 48.43055819 85.44092013 44.05722877 87.18151855 39.68353271 C89.27594054 34.42331043 91.37556318 29.16516214 93.4743042 23.90666199 C96.65350168 15.93934794 99.82612255 7.96944411 103 0 C114.88 0 126.76 0 139 0 C139 40.59 139 81.18 139 123 C129.1 123 119.2 123 109 123 C108.67 99.57 108.34 76.14 108 52 C102.43505651 67.17951621 102.43505651 67.17951621 96.87304688 82.36010742 C93.11577118 92.60695113 89.33328803 102.84384201 85.46875 113.05078125 C85.1322644 113.94435837 84.79577881 114.83793549 84.44909668 115.7585907 C84.14040649 116.56955704 83.83171631 117.38052338 83.51367188 118.21606445 C83.24421753 118.92632278 82.97476318 119.63658112 82.69714355 120.36836243 C82 122 82 122 81 123 C73.08 123 65.16 123 57 123 C48.42 100.23 39.84 77.46 31 54 C30.67 76.77 30.34 99.54 30 123 C20.1 123 10.2 123 0 123 C0 82.41 0 41.82 0 0 Z " fill="#070606" transform="translate(2062,2265)"/>
<path d="M0 0 C11.88 0 23.76 0 36 0 C50.9107285 35.62007365 50.9107285 35.62007365 57.5 52.125 C57.9547168 53.26340332 58.40943359 54.40180664 58.87792969 55.57470703 C61.50744999 62.1848959 64.09767864 68.80978489 66.67382812 75.44091797 C67.15580658 76.68094826 67.15580658 76.68094826 67.64752197 77.94602966 C68.43183247 79.96396103 69.21593754 81.98197224 70 84 C70.4112059 82.97713898 70.8224118 81.95427795 71.24607849 80.90042114 C75.11523815 71.27633084 78.98527725 61.65259459 82.85618496 52.02920723 C84.84638154 47.08133651 86.83626451 42.13334014 88.82543945 37.18505859 C90.743933 32.41263738 92.66323896 27.64054365 94.58311653 22.86867905 C95.31664231 21.04508051 96.04987175 19.22136275 96.78280449 17.39752579 C97.80681902 14.84950219 98.83187191 12.30189873 99.85717773 9.75439453 C100.16215683 8.99482452 100.46713593 8.23525452 100.78135681 7.45266724 C102.88594784 2.22810432 102.88594784 2.22810432 104 0 C115.55 0 127.1 0 139 0 C139 40.59 139 81.18 139 123 C129.43 123 119.86 123 110 123 C109.505 87.36 109.505 87.36 109 51 C107.123125 56.23875 105.24625 61.4775 103.3125 66.875 C98.586435 80.00815352 93.74468255 93.0915939 88.75 106.125 C88.46637604 106.86586853 88.18275208 107.60673706 87.89053345 108.37005615 C83.21551003 120.56897993 83.21551003 120.56897993 82 123 C74.08 123 66.16 123 58 123 C51.72398671 107.51335609 45.80564915 91.91833151 40 76.25 C37.03 68.2475 34.06 60.245 31 52 C30.67 75.43 30.34 98.86 30 123 C20.1 123 10.2 123 0 123 C0 82.41 0 41.82 0 0 Z " fill="#060505" transform="translate(1171,2265)"/>
<path d="M0 0 C75.27973079 0 75.27973079 0 93.86621094 17.46362305 C106.27695663 30.01128294 110.34449345 45.75790249 110.38085938 62.95898438 C110.10978224 79.30611405 104.55089351 93.92772355 93.5 106.0625 C68.57351412 129.84948939 31.14813573 123 0 123 C0 82.41 0 41.82 0 0 Z " fill="#060505" transform="translate(1293,2102)"/>
<path d="M0 0 C75.27973079 0 75.27973079 0 93.86621094 17.46362305 C106.27695663 30.01128294 110.34449345 45.75790249 110.38085938 62.95898438 C110.13004908 78.08393571 105.48714209 91.15657426 96 103 C95.50113281 103.62519531 95.00226563 104.25039062 94.48828125 104.89453125 C84.95754512 115.52958441 70.5660615 120.2867877 57 123 C38.19 123 19.38 123 0 123 C0 82.41 0 41.82 0 0 Z " fill="#060505" transform="translate(1879,2102)"/>
<path d="M0 0 C5.03435909 4.55489632 6.18014514 10.9871361 7.5 17.4375 C7.84156865 19.04315605 8.18405726 20.6486166 8.52734375 22.25390625 C8.70507324 23.09195801 8.88280273 23.93000977 9.06591797 24.79345703 C9.62554184 27.37750194 10.21509007 29.95270104 10.81640625 32.52734375 C13.41466235 43.65950067 15.70827781 54.81810647 17.82006836 66.05273438 C19.07848241 72.69439154 20.48839102 79.26333463 22.10571289 85.82543945 C23.94210721 93.41997262 25.32139779 101.10199388 26.76513672 108.77880859 C28.08526966 115.73775149 29.55692527 122.62877185 31.24169922 129.50756836 C32.56641636 134.96439961 33.62618169 140.45079377 34.61499023 145.97753906 C35.21152096 149.28614074 35.88641669 152.51842256 36.8125 155.75 C38.13333057 161.64293641 38.45762942 167.00857955 36.4375 172.75 C29.46601319 182.84663607 15.41248159 183.34327034 4.1875 185.5 C2.14533174 185.8958494 0.10346386 186.29314813 -1.93800354 186.69259644 C-3.77116368 187.05078667 -5.60516416 187.40466833 -7.43920898 187.75830078 C-10.41646899 188.32524116 -10.41646899 188.32524116 -13.375 189.375 C-15.70799825 189.41454234 -18.04208189 189.41901732 -20.375 189.375 C-22.6406454 183.4406719 -23.60828379 177.28485336 -24.75 171.0625 C-26.14374365 163.62646773 -27.55849982 156.22018148 -29.375 148.875 C-31.13083268 141.75432148 -32.51907883 134.58173642 -33.875 127.375 C-35.40554226 119.24187824 -37.04612362 111.16966939 -39.00048828 103.12817383 C-40.30476851 97.74982755 -41.40151222 92.34897855 -42.4609375 86.91796875 C-43.68900737 80.72100623 -45.04347883 74.55036395 -46.375 68.375 C-48.15377239 60.11794933 -49.90816192 51.86246959 -51.515625 43.5703125 C-52.25904728 39.84347045 -53.09168286 36.13807533 -53.921875 32.4296875 C-54.34049805 30.53959961 -54.34049805 30.53959961 -54.76757812 28.61132812 C-55.33092933 26.07432283 -55.90230432 23.53908342 -56.48242188 21.00585938 C-56.74087891 19.83603516 -56.99933594 18.66621094 -57.265625 17.4609375 C-57.50313477 16.4095459 -57.74064453 15.3581543 -57.98535156 14.27490234 C-58.38203254 11.32266131 -58.14274696 9.23331009 -57.375 6.375 C-56.1375 6.14425781 -54.9 5.91351562 -53.625 5.67578125 C-51.87494202 5.3466623 -50.12494729 5.01720697 -48.375 4.6875 C-46.97846191 4.42610229 -46.97846191 4.42610229 -45.55371094 4.15942383 C-40.33436297 3.17051752 -35.13798903 2.11785161 -29.953125 0.9609375 C-28.89738281 0.72850342 -27.84164063 0.49606934 -26.75390625 0.2565918 C-24.71219836 -0.19632452 -22.67294645 -0.66050143 -20.63671875 -1.13745117 C-13.27101005 -2.75903449 -6.92892029 -3.33614681 0 0 Z " fill="#060505" transform="translate(1932.375,1160.625)"/>
<path d="M0 0 C4.0313751 18.6091154 4.0313751 18.6091154 0.5 25.9375 C-4.52830073 32.0971684 -11.42613431 33.5956879 -19 34.8125 C-28.2409039 36.43718219 -37.40338656 38.34566664 -46.5625 40.375 C-47.93478521 40.67794824 -49.30709978 40.98076354 -50.67944336 41.28344727 C-52.74615974 41.7393646 -54.81285144 42.19539015 -56.87940979 42.65202332 C-63.93504358 44.20989244 -70.99759951 45.73468037 -78.0625 47.25 C-79.14797119 47.48380371 -80.23344238 47.71760742 -81.35180664 47.95849609 C-88.16186061 49.41775607 -94.98391989 50.80631547 -101.81469727 52.16503906 C-127.36741179 57.25247124 -152.86953002 62.55757726 -178.30810547 68.18701172 C-184.55499677 69.5626332 -190.80824858 70.90829973 -197.0625 72.25 C-198.14982422 72.48420654 -199.23714844 72.71841309 -200.35742188 72.9597168 C-207.16560946 74.41853941 -213.98579961 75.80668937 -220.81469727 77.16503906 C-245.4808979 82.07597025 -270.11211267 87.15331928 -294.66796875 92.58984375 C-295.76560547 92.8326709 -296.86324219 93.07549805 -297.99414062 93.32568359 C-299.86497554 93.74537544 -301.7338949 94.17382447 -303.59960938 94.61572266 C-310.91353058 96.33329261 -319.09324944 97.88147361 -326.3125 95.11328125 C-332.15296007 90.92174417 -333.57485168 83.69666467 -335 77 C-335.3896781 74.33621265 -335.7026099 71.67651092 -336 69 C-325.7017916 66.4329979 -315.35065675 64.23769582 -304.9375 62.1875 C-294.26160578 60.08457055 -283.62290729 57.85581434 -273 55.5 C-261.45680916 52.94146581 -249.89042933 50.55316872 -238.2890625 48.26953125 C-229.16530048 46.46199349 -220.08015325 44.51220409 -211 42.5 C-199.4566962 39.94195032 -187.89044437 37.55317168 -176.2890625 35.26953125 C-167.16530048 33.46199349 -158.08015325 31.51220409 -149 29.5 C-137.4566962 26.94195032 -125.89044437 24.55317168 -114.2890625 22.26953125 C-105.16530048 20.46199349 -96.08015325 18.51220409 -87 16.5 C-75.47493845 13.94599289 -63.92715406 11.56002157 -52.34399414 9.28051758 C-38.86138649 6.60972997 -25.44539656 3.64432949 -12.02905273 0.66088867 C-10.52967163 0.33374878 -10.52967163 0.33374878 -9 0 C-8.09000244 -0.20326904 -7.18000488 -0.40653809 -6.24243164 -0.6159668 C-3.82201415 -1.03048141 -2.30992272 -0.76997424 0 0 Z " fill="#070606" transform="translate(1777,1158)"/>
<path d="M0 0 C30 0 30 0 36.27734375 5.11328125 C37.65000591 7.52455672 38.80274631 9.80446276 39.9375 12.3125 C40.63496884 13.61208804 41.34535453 14.9048126 42.06738281 16.19091797 C43.60947472 18.95417349 45.09675923 21.73875171 46.56005859 24.54443359 C50.42956737 31.79271842 55.13174588 38.53019095 59.71536255 45.3387146 C62.15398838 48.9717516 64.55345725 52.63022746 66.953125 56.2890625 C67.35968826 56.90590408 67.76625153 57.52274567 68.18513489 58.15827942 C71.85288385 63.73473931 75.41511585 69.36661062 79 75 C79.33 50.25 79.66 25.5 80 0 C89.57 0 99.14 0 109 0 C109 40.59 109 81.18 109 123 C79 123 79 123 71.41015625 115.91796875 C69.71092224 113.46353149 69.71092224 113.46353149 68.63842773 111.26025391 C68.21745819 110.43309875 67.79648865 109.6059436 67.36276245 108.75372314 C66.93367584 107.90686951 66.50458923 107.06001587 66.0625 106.1875 C65.08457082 104.46911088 64.09482767 102.75739678 63.09399414 101.05224609 C61.0344576 97.5218943 59.03072615 93.96758873 57.05957031 90.38720703 C52.18280518 81.65001466 46.50326329 73.43132885 40.9375 65.125 C37.658125 60.13375 34.37875 55.1425 31 50 C30.67 74.09 30.34 98.18 30 123 C20.1 123 10.2 123 0 123 C0 82.41 0 41.82 0 0 Z " fill="#060505" transform="translate(1470,2265)"/>
<path d="M0 0 C1.03060547 0.80630859 1.03060547 0.80630859 2.08203125 1.62890625 C2.75878906 2.15613281 3.43554688 2.68335937 4.1328125 3.2265625 C10.92704554 9.22923441 14.6341221 17.3851022 18.08203125 25.62890625 C18.08203125 26.61890625 18.08203125 27.60890625 18.08203125 28.62890625 C13.49238238 28.80266979 8.90466816 28.92929568 4.3125 29.01342773 C2.75259027 29.04851277 1.19290884 29.09619707 -0.36621094 29.15698242 C-13.39125034 29.65186738 -13.39125034 29.65186738 -17.16210938 27.12524414 C-18.61668256 25.3633441 -19.75943294 23.5924354 -20.91796875 21.62890625 C-26.58442443 17.50314746 -33.26843701 17.23904434 -40.04296875 17.12890625 C-40.79481445 17.11029541 -41.54666016 17.09168457 -42.32128906 17.07250977 C-49.60503188 17.15466324 -55.96091535 20.07248712 -61.46875 24.87109375 C-69.85810812 35.04686506 -70.98872639 47.02455914 -69.91796875 59.62890625 C-67.93289145 68.63889443 -63.65397544 76.37193807 -55.91796875 81.62890625 C-55.35078125 82.02464844 -54.78359375 82.42039062 -54.19921875 82.828125 C-45.93738971 87.49999261 -33.9286699 87.08298273 -24.8984375 84.8984375 C-22.70587503 83.98331347 -20.86987469 82.97612151 -18.91796875 81.62890625 C-17.84546875 80.92765625 -16.77296875 80.22640625 -15.66796875 79.50390625 C-11.92648812 75.8754161 -11.92648812 75.8754161 -7.91796875 66.62890625 C-20.12796875 66.29890625 -32.33796875 65.96890625 -44.91796875 65.62890625 C-44.91796875 58.36890625 -44.91796875 51.10890625 -44.91796875 43.62890625 C-23.46796875 43.62890625 -2.01796875 43.62890625 20.08203125 43.62890625 C20.08203125 78.81814236 20.08203125 78.81814236 13.08203125 87.62890625 C12.66953125 88.15564941 12.25703125 88.68239258 11.83203125 89.22509766 C1.48027788 102.17634267 -11.94286847 111.10426809 -28.59765625 113.34375 C-47.45234645 114.96303516 -64.12385839 112.28280719 -79.703125 100.52734375 C-91.32297852 90.60752913 -98.78310533 77.77759076 -100.91796875 62.62890625 C-101.88048785 49.83006118 -102.40681219 36.47865236 -96.91796875 24.62890625 C-96.28181641 23.21158203 -96.28181641 23.21158203 -95.6328125 21.765625 C-88.65061216 7.70397919 -76.6868046 -3.10752693 -61.91796875 -8.37109375 C-41.28283581 -14.68331501 -17.79712773 -12.79469183 0 0 Z " fill="#070606" transform="translate(1929.91796875,2275.37109375)"/>
<path d="M0 0 C1.47583955 0.0001591 2.95168467 0.00585225 4.42749023 0.01586914 C5.20293686 0.01728409 5.97838348 0.01869904 6.77732849 0.02015686 C9.26361893 0.02577194 11.74982059 0.03832693 14.23608398 0.05102539 C15.91772331 0.05603845 17.59936405 0.06060169 19.28100586 0.06469727 C23.41189965 0.07574626 27.54272674 0.09302094 31.67358398 0.11352539 C39.60021122 21.59637294 47.39827419 43.12567727 55.18441963 64.65975189 C61.41769939 81.9008645 61.41769939 81.9008645 67.69702148 99.12524414 C67.98781082 99.92041946 68.27860016 100.71559479 68.57820129 101.53486633 C69.87301269 105.07528795 71.1706149 108.61462584 72.47412109 112.15185547 C72.90732666 113.33545654 73.34053223 114.51905762 73.78686523 115.73852539 C74.15593994 116.74141602 74.52501465 117.74430664 74.90527344 118.77758789 C75.67358398 121.11352539 75.67358398 121.11352539 75.67358398 123.11352539 C65.11358398 123.11352539 54.55358398 123.11352539 43.67358398 123.11352539 C40.20858398 112.71852539 40.20858398 112.71852539 36.67358398 102.11352539 C21.49358398 101.78352539 6.31358398 101.45352539 -9.32641602 101.11352539 C-10.31641602 104.74352539 -11.30641602 108.37352539 -12.32641602 112.11352539 C-13.64641602 115.74352539 -14.96641602 119.37352539 -16.32641602 123.11352539 C-26.55641602 123.11352539 -36.78641602 123.11352539 -47.32641602 123.11352539 C-45.93678822 116.86020031 -44.44039951 111.19797511 -42.22875977 105.26196289 C-41.92257217 104.42558289 -41.61638458 103.58920288 -41.30091858 102.72747803 C-40.29368569 99.97925726 -39.27872633 97.23395607 -38.26391602 94.48852539 C-37.55166808 92.54850042 -36.84009231 90.60822856 -36.12915039 88.66772461 C-35.01415648 85.62454015 -33.89876156 82.58150967 -32.78134155 79.53921509 C-28.58818623 68.12065248 -24.45711285 56.67979558 -20.32641602 45.23852539 C-18.32542568 39.69920347 -16.32339475 34.16026193 -14.31860352 28.62231445 C-12.9022087 24.70936458 -11.49208876 20.79420199 -10.08422852 16.87817383 C-9.35253463 14.84982576 -8.62076599 12.82150465 -7.88891602 10.79321289 C-7.54658936 9.83762482 -7.2042627 8.88203674 -6.8515625 7.89749146 C-6.53517822 7.02244965 -6.21879395 6.14740784 -5.89282227 5.24584961 C-5.6138208 4.47022675 -5.33481934 3.69460388 -5.04736328 2.89547729 C-3.79428767 -0.20172631 -3.6376771 0.12414825 0 0 Z " fill="#070606" transform="translate(1744.326416015625,2264.886474609375)"/>
<path d="M0 0 C11.55 0 23.1 0 35 0 C39.4997038 10.12433355 39.4997038 10.12433355 40.83666992 13.86572266 C41.14248993 14.716091 41.44830994 15.56645935 41.76339722 16.44259644 C42.24209763 17.78972214 42.24209763 17.78972214 42.73046875 19.1640625 C43.07844513 20.13425323 43.42642151 21.10444397 43.78494263 22.10403442 C44.92218323 25.27660496 46.05479793 28.45080658 47.1875 31.625 C48.38805538 34.97730264 49.58982828 38.32916736 50.79161072 41.68103027 C51.61709484 43.98370242 52.44217416 46.28651972 53.26686096 48.58947754 C57.58768804 60.65302597 61.94820465 72.70212367 66.3125 84.75 C67.01786263 86.69741377 67.72318596 88.64484177 68.4284668 90.59228516 C68.7633461 91.51695587 69.0982254 92.44162659 69.44325256 93.39431763 C70.39139471 96.01435342 71.33769168 98.63504941 72.28369141 101.25585938 C73.376067 104.28132146 74.47715539 107.30331903 75.58740234 110.32226562 C76.05177611 111.59504541 76.51613291 112.86783138 76.98046875 114.140625 C77.37516357 115.21344727 77.7698584 116.28626953 78.17651367 117.39160156 C79 120 79 120 79 123 C68.77 123 58.54 123 48 123 C47.030625 120.298125 46.06125 117.59625 45.0625 114.8125 C44.75836182 113.97050049 44.45422363 113.12850098 44.14086914 112.26098633 C43.89973389 111.58318115 43.65859863 110.90537598 43.41015625 110.20703125 C43.16402588 109.5210083 42.91789551 108.83498535 42.66430664 108.12817383 C41.93727219 105.79904507 41.47851613 103.39258065 41 101 C25.82 101.33 10.64 101.66 -5 102 C-7.31 108.93 -9.62 115.86 -12 123 C-22.56 123 -33.12 123 -44 123 C-40.62470727 111.74902424 -40.62470727 111.74902424 -38.94140625 107.09033203 C-38.56184784 106.03587387 -38.18228943 104.98141571 -37.79122925 103.89500427 C-37.3857486 102.77723099 -36.98026794 101.6594577 -36.5625 100.5078125 C-36.12938507 99.30741837 -35.69627014 98.10702423 -35.25003052 96.87025452 C-34.07907428 93.62551475 -32.90464399 90.38204297 -31.72940826 87.13885117 C-30.75146953 84.43882272 -29.77556115 81.73806222 -28.7996006 79.03731823 C-19.26906531 52.66625645 -9.64877462 26.32800742 0 0 Z " fill="#070606" transform="translate(1641,2102)"/>
<path d="M0 0 C2.75757878 12.7614343 5.4903334 25.52768857 8.15625 38.30859375 C8.4345591 39.64275833 8.4345591 39.64275833 8.7184906 41.00387573 C9.48523238 44.68075342 10.25169788 48.35768829 11.0173645 52.03479004 C13.55788375 64.22896191 16.17340038 76.40308485 18.875 88.5625 C21.26653129 99.32771606 23.40844554 110.08648369 25 121 C20.33785275 123.16422786 15.58290999 123.92485745 10.5625 124.8125 C2.82440733 126.22598071 -4.84105299 127.83240996 -12.5 129.625 C-20.30952935 131.44688054 -28.04614497 132.94740607 -36 134 C-38.28808615 125.26421988 -40.15475273 116.48828736 -41.875 107.625 C-43.61795392 98.73853031 -45.42953795 89.87963839 -47.5 81.0625 C-49.91764738 70.75113563 -51.91152427 60.36588168 -53.85742188 49.95727539 C-55.14754184 43.12096502 -56.57497514 36.36623617 -58.32885742 29.63305664 C-59.83663154 23.71768966 -61.05377691 18.11348547 -61 12 C-51.2021209 9.70017276 -41.37783186 7.53541048 -31.54077148 5.41064453 C-29.04178195 4.87052208 -26.54334344 4.32789914 -24.04492188 3.78515625 C-22.43753258 3.43734939 -20.83011184 3.08968783 -19.22265625 2.7421875 C-18.48507584 2.58176971 -17.74749542 2.42135193 -16.98756409 2.256073 C-5.72993389 -0.16852747 -5.72993389 -0.16852747 0 0 Z " fill="#060505" transform="translate(2033,1167)"/>
<path d="M0 0 C3.65799268 3.45846581 6.9308237 7.17967101 10.125 11.0625 C10.76888672 11.8369043 10.76888672 11.8369043 11.42578125 12.62695312 C18 20.56658654 18 20.56658654 18 23 C2.93587296 26.61691678 -12.16233073 29.8868634 -27.36083984 32.87744141 C-38.04098544 34.98100103 -48.68606639 37.20272026 -59.3125 39.5625 C-70.9792205 42.15312848 -82.66967497 44.55958736 -94.39550781 46.86694336 C-102.71101919 48.51334382 -110.97394739 50.32226653 -119.22900391 52.24658203 C-126.1527924 53.84616696 -133.10718404 55.1893938 -140.09448242 56.47875977 C-147.41844226 57.84757644 -154.67482287 59.45847982 -161.92773438 61.16210938 C-168.14792008 62.61524451 -174.39299876 63.88877342 -180.65917969 65.12768555 C-185.64432862 66.12150314 -190.61682403 67.17399771 -195.58984375 68.2265625 C-196.51283264 68.42146774 -197.43582153 68.61637299 -198.38677979 68.81718445 C-202.20789767 69.6242092 -206.02889092 70.43177294 -209.84887695 71.24414062 C-212.67857502 71.84544252 -215.50912681 72.44257817 -218.33984375 73.0390625 C-219.19207016 73.22135406 -220.04429657 73.40364563 -220.92234802 73.59146118 C-225.93783433 74.64431109 -230.90593538 75.43387076 -236 76 C-235.11504445 69.02602192 -233.685134 62.29431681 -231.6875 55.5625 C-231.40483276 54.55219727 -231.40483276 54.55219727 -231.11645508 53.52148438 C-229.31010618 47.68166122 -226.5359928 44.4178231 -221.22924805 41.45092773 C-217.98085812 39.99139939 -215.11786083 39.22626098 -211.625 38.5703125 C-209.79340332 38.21731079 -209.79340332 38.21731079 -207.92480469 37.85717773 C-206.62961914 37.61555908 -205.33443359 37.37394043 -204 37.125 C-201.27508575 36.60255373 -198.55153699 36.07318391 -195.828125 35.54296875 C-195.15275696 35.41215408 -194.47738892 35.28133942 -193.78155518 35.14656067 C-188.07361641 34.03354821 -182.41034988 32.76856748 -176.75 31.4375 C-168.98960064 29.62578119 -161.20606959 28.03847022 -153.375 26.5625 C-137.22934845 23.51651296 -121.17309514 20.07074714 -105.14453125 16.4609375 C-93.07861722 13.74402292 -81.00987798 11.18337913 -68.85473633 8.89648438 C-60.73130039 7.35887128 -52.64403782 5.68146539 -44.5625 3.9375 C-43.39259521 3.68532715 -42.22269043 3.4331543 -41.01733398 3.17333984 C-35.7503846 2.03496199 -30.48563349 0.887056 -25.22265625 -0.26953125 C-23.52346077 -0.63812814 -21.82424368 -1.00662541 -20.125 -1.375 C-19.37677979 -1.54265869 -18.62855957 -1.71031738 -17.85766602 -1.88305664 C-10.91912849 -3.37950904 -6.16229156 -3.80226501 0 0 Z " fill="#070606" transform="translate(1671,1756)"/>
<path d="M0 0 C9.02075677 7.76925068 15.20162417 17.27529763 18.78125 28.63671875 C18.78125 29.29671875 18.78125 29.95671875 18.78125 30.63671875 C14.21004047 30.86044146 9.64205841 31.0230457 5.06665039 31.13110352 C3.51335116 31.17616648 1.9604296 31.23744329 0.40844727 31.31567383 C-12.55540799 31.95242178 -12.55540799 31.95242178 -16.64379883 28.71850586 C-18.34887644 26.4325597 -19.76901042 24.08868726 -21.21875 21.63671875 C-28.10888657 16.2756 -35.34737097 14.76657483 -43.953125 15.18359375 C-48.63595869 15.83336493 -52.23908815 17.10565382 -56.21875 19.63671875 C-56.84265625 20.02601563 -57.4665625 20.4153125 -58.109375 20.81640625 C-64.46762767 25.48833973 -68.88707858 33.89546399 -70.21875 41.63671875 C-71.11643534 53.74811278 -70.14989237 66.18008814 -62.0625 75.91796875 C-54.95912043 82.53976326 -47.7472177 85.0109815 -38.23828125 84.921875 C-31.27101267 84.26390526 -24.15118234 81.71422263 -19.21875 76.63671875 C-18.69667969 75.445625 -18.17460938 74.25453125 -17.63671875 73.02734375 C-16.31054688 71.14916992 -16.31054688 71.14916992 -14.21875 69.63671875 C-8.60248327 68.72301707 -3.07466777 68.97944835 2.59375 69.19921875 C4.1607382 69.23435011 5.72780152 69.26628597 7.29492188 69.29492188 C11.12555607 69.37187548 14.95258034 69.49254556 18.78125 69.63671875 C18.31857585 71.05539691 17.85319885 72.47319373 17.38671875 73.890625 C17.12785889 74.68025635 16.86899902 75.4698877 16.60229492 76.28344727 C11.72166413 90.27226683 1.63545898 100.03421293 -11.28125 106.94921875 C-27.23521892 114.3226277 -46.11994616 115.12484635 -62.5625 109.11328125 C-79.9903082 102.07512794 -90.83309895 90.65477498 -98.21875 73.4296875 C-104.07116442 57.0840769 -102.69621879 36.19992371 -95.6953125 20.51953125 C-88.08073731 5.65297968 -76.05573852 -4.69130181 -60.34375 -10.30078125 C-40.14634638 -16.6811326 -16.79982837 -12.33482544 0 0 Z " fill="#070606" transform="translate(1568.21875,2113.36328125)"/>
<path d="M0 0 C1.70808838 0.01426025 1.70808838 0.01426025 3.45068359 0.02880859 C17.04017265 0.36327745 27.99576637 3.54023547 37.91796875 13.18359375 C44.78402054 20.52433554 46.25 26.45867716 46.25 36.5625 C35.69 36.5625 25.13 36.5625 14.25 36.5625 C13.59 34.5825 12.93 32.6025 12.25 30.5625 C9.5536528 27.44484854 7.77690841 25.70007964 3.60546875 25.32421875 C-2.86016143 25.16975905 -2.86016143 25.16975905 -9 26.9375 C-11.29074237 30.37361355 -11.35130563 32.96697434 -11.4140625 37.02734375 C-10.45149149 40.70210015 -8.66151048 42.17245408 -5.75 44.5625 C-2.59446451 46.19422156 -2.59446451 46.19422156 0.9375 47.4375 C1.57961426 47.68234131 2.22172852 47.92718262 2.88330078 48.17944336 C5.00122282 48.98575243 7.12529183 49.77426386 9.25 50.5625 C38.99489555 61.74748609 38.99489555 61.74748609 46.1875 73.8125 C49.82224582 83.22007742 49.62429726 94.70815914 45.70703125 103.99609375 C40.11279009 113.84975714 31.82286769 120.06242726 21.40234375 123.984375 C10.23142936 126.98491099 -3.66548254 126.80947986 -14.75 123.5625 C-16.08417969 123.19511719 -16.08417969 123.19511719 -17.4453125 122.8203125 C-27.91172816 119.52586969 -35.41218825 113.54937714 -40.6328125 103.875 C-43.58238727 97.76958648 -43.75 94.75004387 -43.75 87.5625 C-33.19 87.5625 -22.63 87.5625 -11.75 87.5625 C-10.76 90.5325 -9.77 93.5025 -8.75 96.5625 C-5.0607845 100.44090603 -1.83863183 100.83546753 3.3125 101 C7.87553021 100.99412737 10.52549444 100.2275614 14.25 97.5625 C16.82189679 94.13330428 16.752142 90.72310514 16.25 86.5625 C12.87332553 81.62736039 9.83720158 79.46815032 4.125 77.625 C3.43849365 77.38394531 2.7519873 77.14289062 2.04467773 76.89453125 C-0.21506025 76.10141 -2.48211037 75.33197097 -4.75 74.5625 C-19.85404678 69.3456121 -32.79511436 64.81515943 -41.9140625 50.76953125 C-45.33989484 43.5176525 -44.78329934 33.2492506 -43.09375 25.5859375 C-39.62844914 15.93686699 -32.55840763 9.43414204 -23.75 4.5625 C-15.83438101 0.88955704 -8.6712477 -0.11681474 0 0 Z " fill="#070606" transform="translate(1774.75,2100.4375)"/>
<path d="M0 0 C24.75 0 49.5 0 75 0 C75 7.92 75 15.84 75 24 C60.15 24 45.3 24 30 24 C30 32.25 30 40.5 30 49 C43.2 49 56.4 49 70 49 C70 56.59 70 64.18 70 72 C56.8 72 43.6 72 30 72 C30 80.91 30 89.82 30 99 C44.85 99 59.7 99 75 99 C75 106.92 75 114.84 75 123 C50.25 123 25.5 123 0 123 C0 82.41 0 41.82 0 0 Z " fill="#060505" transform="translate(1967,2265)"/>
<path d="M0 0 C24.75 0 49.5 0 75 0 C75 7.92 75 15.84 75 24 C60.15 24 45.3 24 30 24 C30 32.25 30 40.5 30 49 C43.2 49 56.4 49 70 49 C70 56.59 70 64.18 70 72 C56.8 72 43.6 72 30 72 C30 80.91 30 89.82 30 99 C44.85 99 59.7 99 75 99 C75 106.92 75 114.84 75 123 C50.25 123 25.5 123 0 123 C0 82.41 0 41.82 0 0 Z " fill="#050404" transform="translate(2006,2102)"/>
<path d="M0 0 C31.68 0 63.36 0 96 0 C96 7.92 96 15.84 96 24 C85.11 24 74.22 24 63 24 C63 56.67 63 89.34 63 123 C53.1 123 43.2 123 33 123 C33 90.33 33 57.66 33 24 C22.11 24 11.22 24 0 24 C0 16.08 0 8.16 0 0 Z " fill="#070606" transform="translate(1594,2265)"/>
<path d="M0 0 C7.64745649 5.38253035 12.12377515 11.7303996 14 21 C15.29754744 33.68683627 15.04002871 45.71414075 7.30859375 56.3203125 C1.51877943 62.87162641 -5.90455808 66.36306976 -14.53125 67.44140625 C-24.312754 67.77100041 -31.80480661 65.9010243 -39.375 59.625 C-47.3752842 51.99495028 -50.02468844 43.5316161 -50.35595703 32.66503906 C-50.45123899 21.51949345 -48.95476984 12.34892511 -41 4 C-30.22551124 -5.85471533 -12.64700406 -7.70605982 0 0 Z " fill="#E5E4E4" transform="translate(1408,2295)"/>
<path d="M0 0 C9.9 0 19.8 0 30 0 C30 40.59 30 81.18 30 123 C20.1 123 10.2 123 0 123 C0 82.41 0 41.82 0 0 Z " fill="#060505" transform="translate(1420,2102)"/>
<path d="M0 0 C6.07141264 5.4790797 7.59265147 10.16740509 9.1875 18 C9.39117188 18.94294922 9.59484375 19.88589844 9.8046875 20.85742188 C10.40831503 23.67241564 10.98816046 26.49139947 11.5625 29.3125 C11.75448975 30.23208496 11.94647949 31.15166992 12.14428711 32.09912109 C12.32483643 32.9752002 12.50538574 33.8512793 12.69140625 34.75390625 C12.8519751 35.53064697 13.01254395 36.3073877 13.17797852 37.10766602 C14.23290475 43.15657954 14.07126548 48.04935178 10.5625 53.3125 C6.24349084 57.45340569 3.07762407 59.10670187 -2.875 60.4375 C-3.56948242 60.59508789 -4.26396484 60.75267578 -4.97949219 60.91503906 C-6.4198747 61.23780472 -7.86214824 61.55224227 -9.30615234 61.85839844 C-11.34143651 62.29203286 -13.36756748 62.75579038 -15.39453125 63.2265625 C-33.82624405 67.28875255 -33.82624405 67.28875255 -41.9375 63.8125 C-48.72064686 57.02935314 -49.89843715 47.87647658 -51.6875 38.8125 C-51.955625 37.53246094 -52.22375 36.25242187 -52.5 34.93359375 C-56.08321604 17.25517582 -56.08321604 17.25517582 -51.4375 9.3125 C-45.72585197 4.32345617 -40.29124098 2.96545443 -32.9375 1.5625 C-31.93074219 1.35496094 -30.92398437 1.14742187 -29.88671875 0.93359375 C-7.40252749 -3.63396804 -7.40252749 -3.63396804 0 0 Z " fill="#E5E5E5" transform="translate(1816.4375,1295.6875)"/>
<path d="M0 0 C4.21809665 3.7878695 5.40120262 8.39568161 6.5859375 13.7890625 C6.73706497 14.47328781 6.88819244 15.15751312 7.04389954 15.86247253 C7.35996698 17.30456426 7.67150942 18.74765441 7.97875977 20.19165039 C8.44615342 22.38017813 8.93193269 24.56403071 9.41992188 26.74804688 C9.72637577 28.15731 10.03174936 29.56680857 10.3359375 30.9765625 C10.74718872 32.87692261 10.74718872 32.87692261 11.16674805 34.81567383 C12.03013482 40.28119201 12.87546293 45.95656339 9.76171875 50.83203125 C9.39046875 51.4559375 9.01921875 52.07984375 8.63671875 52.72265625 C2.50026532 58.80797257 -6.12181818 59.90320463 -14.2746582 61.44726562 C-16.30264693 61.83238555 -18.32601391 62.23702031 -20.34960938 62.64453125 C-36.99702028 65.89280655 -36.99702028 65.89280655 -41.92578125 62.95703125 C-42.46589844 62.65539063 -43.00601562 62.35375 -43.5625 62.04296875 C-49.26577897 57.07087939 -50.39958226 50.95793424 -51.86328125 43.83203125 C-52.06695313 42.89359375 -52.270625 41.95515625 -52.48046875 40.98828125 C-53.08352691 38.18947286 -53.66422332 35.38691877 -54.23828125 32.58203125 C-54.4295459 31.66317139 -54.62081055 30.74431152 -54.81787109 29.79760742 C-54.99785645 28.92080322 -55.1778418 28.04399902 -55.36328125 27.140625 C-55.523125 26.36259521 -55.68296875 25.58456543 -55.84765625 24.78295898 C-56.87997986 18.96646063 -56.65019988 14.41840081 -53.69921875 9.22265625 C-49.23592308 4.21039908 -44.0445701 2.73627404 -37.73828125 1.51953125 C-36.13671649 1.19011515 -34.53515402 0.86068794 -32.93359375 0.53125 C-31.74685059 0.29414307 -31.74685059 0.29414307 -30.53613281 0.05224609 C-28.42565251 -0.37962652 -26.32827089 -0.84666191 -24.23046875 -1.3359375 C-7.95136063 -5.08048397 -7.95136063 -5.08048397 0 0 Z " fill="#E5E5E5" transform="translate(1696.23828125,1322.41796875)"/>
<path d="M0 0 C31.80743982 0 31.80743982 0 41.828125 9.78515625 C49.64724502 19.40109426 50.90069731 29.93611477 50 42 C49.00602385 49.6124027 45.44754354 57.55245646 40 63 C26.76438413 72.29506473 17.63925882 71 0 71 C0 47.57 0 24.14 0 0 Z " fill="#E5E5E5" transform="translate(1323,2128)"/>
<path d="M0 0 C30.76470588 0 30.76470588 0 41 9 C49.58286245 18.95087328 50.80993741 29.1830957 50 42 C49.02196209 49.60696149 45.43991879 57.56008121 40 63 C26.76438413 72.29506473 17.63925882 71 0 71 C0 47.57 0 24.14 0 0 Z " fill="#E5E4E4" transform="translate(1909,2128)"/>
<path d="M0 0 C2.44793136 8.48033364 4.79940444 16.70175358 1.875 25.3125 C-3.24691211 32.65390736 -8.80438667 34.14378764 -17.25 35.875 C-18.36592529 36.11621582 -19.48185059 36.35743164 -20.6315918 36.60595703 C-23.08323461 37.13213233 -25.53671486 37.6497988 -27.99169922 38.16015625 C-31.52125111 38.8943538 -35.04219417 39.66429861 -38.56246948 40.44161987 C-41.57033114 41.10336817 -44.58097963 41.75172778 -47.59240723 42.39703369 C-49.05261859 42.71140426 -50.51204269 43.02945811 -51.97058105 43.35150146 C-74.2005304 48.23423585 -74.2005304 48.23423585 -82.625 44.3125 C-86.63416731 40.40883709 -88.3755588 36.45603606 -89.6875 31.0625 C-89.93886719 30.06347656 -90.19023438 29.06445312 -90.44921875 28.03515625 C-91.008225 24.954675 -91.09775282 22.12343535 -91 19 C-80.087647 15.74543858 -69.01047674 13.54742186 -57.84326172 11.35961914 C-49.03476909 9.62917264 -40.25933323 7.77845357 -31.5 5.8125 C-29.82188232 5.43641602 -29.82188232 5.43641602 -28.10986328 5.05273438 C-24.25904367 4.18759014 -20.40904673 3.31885391 -16.55957031 2.44775391 C-14.58245566 2.00203829 -12.60380828 1.5631353 -10.625 1.125 C-9.62726563 0.90070313 -8.62953125 0.67640625 -7.6015625 0.4453125 C-5.01325405 0.00226871 -2.62028907 -0.08575491 0 0 Z " fill="#070606" transform="translate(1584,1833)"/>
<path d="M0 0 C6.30641102 2.00842633 12.2866674 4.64722291 18.30566406 7.37548828 C19.60519412 7.95998309 20.90865639 8.53581041 22.21582031 9.10302734 C24.11711636 9.92882836 26.00424675 10.78138596 27.890625 11.640625 C29.01500977 12.14110352 30.13939453 12.64158203 31.29785156 13.15722656 C34.75605106 15.51560114 35.0965848 16.95558942 36 21 C36.15586578 21.63529633 36.31173157 22.27059265 36.47232056 22.92514038 C37.00503928 25.11219429 37.49677511 27.30550596 37.98046875 29.50390625 C38.15757889 30.30481186 38.33468903 31.10571747 38.51716614 31.93089294 C38.88790393 33.6155469 39.25674272 35.30061977 39.6237793 36.98608398 C40.18694935 39.55998334 40.76422974 42.13047038 41.34179688 44.70117188 C41.70139646 46.34355853 42.06014948 47.98613081 42.41796875 49.62890625 C42.59184616 50.39360733 42.76572357 51.15830841 42.94487 51.94618225 C43.79280094 55.92169322 44.30304823 59.09983877 43 63 C41.25 65.2890625 41.25 65.2890625 39 67.625 C35.61781477 71.22192715 32.44275493 74.88104447 29.375 78.75 C25.89794657 83.05812419 22.34502858 86.57944559 18 90 C17.82984375 89.18660156 17.6596875 88.37320312 17.484375 87.53515625 C16.14147079 81.18493366 14.73151261 74.86775653 13.1875 68.5625 C10.83658574 58.85377138 9.02947717 49.03156107 7.1940918 39.21508789 C5.88518258 32.28755328 4.44617962 25.43932004 2.66894531 18.6159668 C1.08633809 12.42704839 -0.33817583 6.42534082 0 0 Z " fill="#070606" transform="translate(2067,1176)"/>
<path d="M0 0 C0.23710693 1.16571533 0.47421387 2.33143066 0.71850586 3.5324707 C1.59814466 7.85463086 2.48022095 12.17629054 3.36303711 16.49780273 C3.74488843 18.3687606 4.12607731 20.23985378 4.5065918 22.11108398 C5.05343589 24.79967471 5.60265521 27.48777083 6.15234375 30.17578125 C6.3221727 31.01337479 6.49200165 31.85096832 6.66697693 32.71394348 C6.90711266 33.88481758 6.90711266 33.88481758 7.15209961 35.0793457 C7.29199814 35.76551468 7.43189667 36.45168365 7.57603455 37.15864563 C8.01866936 39.21484671 8.01866936 39.21484671 9 42 C9.49241379 47.59414356 9.74420025 52.42891058 7.3125 57.5625 C3.43952024 61.64483002 -0.51843809 63.36934981 -5.9375 64.6875 C-6.93652344 64.93886719 -7.93554688 65.19023438 -8.96484375 65.44921875 C-12.045325 66.008225 -14.87656465 66.09775282 -18 66 C-20.93144561 58.13470593 -22.58886331 50.07193453 -24.21704102 41.86181641 C-24.68685124 39.50325695 -25.17200505 37.14819754 -25.65820312 34.79296875 C-29.48417185 15.91337436 -29.48417185 15.91337436 -26.3125 9.6875 C-21.99216963 4.66657551 -18.53663164 2.51788114 -12 1.25 C-10.80375 1.00765625 -9.6075 0.7653125 -8.375 0.515625 C-5.49208139 0.0751791 -2.90143638 -0.04084787 0 0 Z " fill="#070606" transform="translate(1697,1460)"/>
<path d="M0 0 C-2.32785786 8.27682796 -9.94255455 14.60943038 -17 19 C-23.99976178 22.35963494 -31.2414254 24.18357077 -38.8125 25.75 C-40.3274707 26.08064453 -40.3274707 26.08064453 -41.87304688 26.41796875 C-46.3415998 27.36772059 -50.41465989 28.12547078 -55 28 C-56.91701715 22.73470856 -58.0775529 17.41510897 -59.1875 11.9375 C-59.37763672 11.05255859 -59.56777344 10.16761719 -59.76367188 9.25585938 C-59.93833984 8.39669922 -60.11300781 7.53753906 -60.29296875 6.65234375 C-60.4530542 5.87882568 -60.61313965 5.10530762 -60.77807617 4.30834961 C-61.03107583 1.67676347 -60.62949742 -0.44444948 -60 -3 C-38.19218872 -8.22010252 -19.99475369 -11.95903708 0 0 Z " fill="#070606" transform="translate(2195,1195)"/>
<path d="M0 0 C1.00692527 4.41511736 2.00434223 8.83232925 3 13.25 C3.28617188 14.50425781 3.57234375 15.75851562 3.8671875 17.05078125 C4.13789062 18.25605469 4.40859375 19.46132812 4.6875 20.703125 C4.93886719 21.81333008 5.19023438 22.92353516 5.44921875 24.06738281 C6 27 6 27 6 31 C2.0681511 31.85843909 -1.86455447 32.71282476 -5.7980957 33.56347656 C-7.13590218 33.85338057 -8.47347008 34.14438784 -9.81079102 34.43652344 C-11.73390513 34.85642359 -13.6579576 35.2720188 -15.58203125 35.6875 C-16.73936768 35.93886719 -17.8967041 36.19023438 -19.08911133 36.44921875 C-22 37 -22 37 -25 37 C-25.85843909 33.0681511 -26.71282476 29.13544553 -27.56347656 25.2019043 C-27.85338057 23.86409782 -28.14438784 22.52652992 -28.43652344 21.18920898 C-28.85642359 19.26609487 -29.2720188 17.3420424 -29.6875 15.41796875 C-29.93886719 14.26063232 -30.19023438 13.1032959 -30.44921875 11.91088867 C-31 9 -31 9 -31 6 C-26.58488264 4.99307473 -22.16767075 3.99565777 -17.75 3 C-15.86861328 2.57074219 -15.86861328 2.57074219 -13.94921875 2.1328125 C-12.74394531 1.86210938 -11.53867188 1.59140625 -10.296875 1.3125 C-9.18666992 1.06113281 -8.07646484 0.80976562 -6.93261719 0.55078125 C-4 0 -4 0 0 0 Z " fill="#E2E2E2" transform="translate(1682,1844)"/>
<path d="M0 0 C2 1 2 1 2.77200317 2.70800781 C3.01627045 3.44889648 3.26053772 4.18978516 3.51220703 4.953125 C3.93241623 6.20947754 3.93241623 6.20947754 4.3611145 7.49121094 C4.65702484 8.40161133 4.95293518 9.31201172 5.2578125 10.25 C5.56572723 11.17844727 5.87364197 12.10689453 6.19088745 13.06347656 C7.17594055 16.04005346 8.15036303 19.01999831 9.125 22 C9.78971201 24.01063252 10.4550683 26.02105217 11.12109375 28.03125 C12.33329881 31.70191132 13.5453178 35.3726172 14.74658203 39.046875 C14.98925812 39.78776367 15.2319342 40.52865234 15.48196411 41.29199219 C16 43 16 43 16 44 C6.1 44 -3.8 44 -14 44 C-12.6500174 37.92507828 -11.22083019 32.28587881 -9.1796875 26.46484375 C-8.91616486 25.70071671 -8.65264221 24.93658966 -8.38113403 24.14930725 C-7.55036362 21.74374715 -6.71281809 19.34061338 -5.875 16.9375 C-5.30553688 15.29247435 -4.73652246 13.6472933 -4.16796875 12.00195312 C-2.78381833 7.99948968 -1.39359276 3.99918506 0 0 Z " fill="#E0E0E0" transform="translate(1658,2136)"/>
<path d="M0 0 C1.83071004 2.74606506 2.52727175 4.45582531 3.375 7.5625 C4.35729085 10.96875234 5.44645208 14.22942054 6.8125 17.5 C8.83228477 22.41192794 10.55700331 27.40585602 12.25 32.4375 C12.52046143 33.2315625 12.79092285 34.025625 13.06958008 34.84375 C13.3198999 35.59527344 13.57021973 36.34679688 13.828125 37.12109375 C14.0540332 37.7958374 14.27994141 38.47058105 14.51269531 39.16577148 C15 41 15 41 15 44 C5.43 44 -4.14 44 -14 44 C-12.88862837 35.10902696 -12.88862837 35.10902696 -10.875 30.375 C-7.94461674 23.12615719 -5.63059758 15.71929348 -3.32373047 8.25146484 C-3.03643066 7.3280127 -2.74913086 6.40456055 -2.453125 5.453125 C-2.19692383 4.61942383 -1.94072266 3.78572266 -1.67675781 2.92675781 C-1 1 -1 1 0 0 Z " fill="#E1E0E0" transform="translate(1758,2299)"/>
</svg>
