<?xml version="1.0" encoding="UTF-8"?>
<svg version="1.1" xmlns="http://www.w3.org/2000/svg" width="3375" height="3375">
<path d="M0 0 C4.18366257 0.01709029 8.36675184 0.00688788 12.55039501 -0.01032352 C36.49573946 -0.09353417 60.18387794 1.13296057 84.02050781 3.39111328 C85.10168884 3.49335205 86.18286987 3.59559082 87.29681396 3.70092773 C92.77994017 4.23653681 98.24531426 4.86545627 103.70800781 5.57861328 C104.49905914 5.67960327 105.29011047 5.78059326 106.10513306 5.88464355 C192.40355795 16.99383192 274.83739226 43.55912238 372.02050781 91.39111328 C373.4449321 92.1607461 374.86941152 92.9302769 376.29394531 93.69970703 C408.16325214 111.03516953 439.18809754 130.78736767 468.00537109 152.84960938 C470.10423642 154.45516252 472.21558543 156.04318856 474.32910156 157.62939453 C493.48363445 172.06384976 511.78904733 187.57290488 529.36914062 203.88305664 C530.59755838 205.00486866 531.83854962 206.11294331 533.0859375 207.21362305 C540.22422726 213.53260848 546.99865538 220.1830854 553.73779297 226.9230957 C555.67169875 228.85477405 557.61352875 230.77826005 559.55566406 232.70166016 C560.78661945 233.92968817 562.01710641 235.15818596 563.24707031 236.38720703 C564.11871323 237.24807167 564.11871323 237.24807167 565.00796509 238.12632751 C569.02050781 242.16223767 569.02050781 242.16223767 569.02050781 244.39111328 C569.68050781 244.39111328 570.34050781 244.39111328 571.02050781 244.39111328 C572.36035156 245.71923828 572.36035156 245.71923828 573.95800781 247.64111328 C576.57024534 250.72040367 579.23570524 253.72889605 581.98535156 256.68652344 C586.74888198 261.81127725 591.27989527 267.05600157 595.66503906 272.51220703 C597.32300965 274.53861552 598.99356648 276.52288189 600.71972656 278.48876953 C608.01483284 286.80217168 614.6978428 295.47187996 621.27832031 304.35986328 C624.2011546 308.30727396 627.18033632 312.20537186 630.19140625 316.08569336 C636.09754841 323.70553025 641.58868551 331.49850189 646.83642578 339.58349609 C647.99540978 341.35279868 649.17660112 343.10455715 650.36816406 344.85205078 C662.12766964 362.1349605 672.70289147 380.21932356 683.02050781 398.39111328 C683.66995361 399.53338379 683.66995361 399.53338379 684.33251953 400.69873047 C690.23094194 411.10512285 695.84760388 421.60536304 701.02050781 432.39111328 C701.52066406 433.43251465 702.02082031 434.47391602 702.53613281 435.546875 C739.34833921 512.53642231 764.24964483 594.52306747 778.02050781 713.39111328 C778.08109375 714.11208191 778.14167969 714.83305054 778.20410156 715.5758667 C779.97413348 736.95699185 780.21975042 758.35736722 780.26548767 779.80204391 C780.27039584 781.78341062 780.27853183 783.7647685 780.28674316 785.74612427 C780.36884877 811.8521816 778.84847011 837.7735687 775.83300781 863.70361328 C775.72790894 864.61767944 775.62281006 865.53174561 775.51452637 866.47351074 C765.55759782 952.2294402 741.15846045 1035.42450747 702.02050781 1116.39111328 C701.53775391 1117.39368164 701.055 1118.39625 700.55761719 1119.42919922 C693.63660837 1133.76004335 686.00264306 1147.62684917 678.02050781 1161.39111328 C677.49730957 1162.29829102 676.97411133 1163.20546875 676.43505859 1164.14013672 C664.44374161 1184.89419547 651.73383385 1205.15763416 637.46386719 1224.42578125 C635.65129576 1226.8938462 633.88669084 1229.39371387 632.12426758 1231.89770508 C623.18009578 1244.5880152 613.31605868 1256.56135198 603.49707031 1268.578125 C602.18546889 1270.18856683 600.88353093 1271.80686816 599.58300781 1273.42626953 C594.78895103 1279.37603643 589.75667785 1285.03482079 584.56347656 1290.63330078 C582.57062542 1292.79451876 580.62342996 1294.97458297 578.70800781 1297.20361328 C569.44321624 1307.83214753 559.59939509 1317.91199144 549.64550781 1327.89111328 C548.71859131 1328.82262207 547.7916748 1329.75413086 546.83666992 1330.71386719 C542.26286506 1335.27738829 537.64920237 1339.71954717 532.72045898 1343.89941406 C530.95822201 1345.44576878 529.33147949 1347.07556449 527.70800781 1348.76611328 C524.00886403 1352.53251422 519.94263571 1355.77304301 515.83300781 1359.07861328 C513.21084887 1361.23461063 510.70442213 1363.46678431 508.20800781 1365.76611328 C503.8342876 1369.74723184 499.27722003 1373.40777648 494.60620117 1377.02783203 C490.7689161 1380.00458529 486.99359949 1383.04307159 483.2487793 1386.13525391 C474.13576123 1393.64789869 464.67681814 1400.59550779 455.02050781 1407.39111328 C454.42109375 1407.81376465 453.82167969 1408.23641602 453.20410156 1408.671875 C449.49848866 1411.27805577 445.7663617 1413.84319544 442.02050781 1416.39111328 C441.46927246 1416.76768066 440.91803711 1417.14424805 440.35009766 1417.53222656 C368.8354865 1466.28206203 289.48894912 1502.15867618 73.83300781 1548.14111328 C73.15969421 1548.2001886 72.48638062 1548.25926392 71.79266357 1548.32012939 C67.20453653 1548.71623991 62.61392009 1549.06258611 58.02050781 1549.39111328 C56.76278564 1549.48682617 55.50506348 1549.58253906 54.20922852 1549.68115234 C38.36534796 1550.7867309 22.45743595 1550.63696683 6.58300781 1550.64111328 C5.41979633 1550.64177607 5.41979633 1550.64177607 4.23308563 1550.64245224 C-21.61200327 1550.65015973 -47.25216111 1550.06482876 -72.97949219 1547.39111328 C-73.79138 1547.30861328 -74.60326782 1547.22611328 -75.4397583 1547.14111328 C-113.00821436 1543.30336122 -150.39149074 1536.75751628 -186.97949219 1527.39111328 C-188.09517578 1527.10864746 -189.21085937 1526.82618164 -190.36035156 1526.53515625 C-236.3479519 1514.75962385 -280.96061945 1498.38436096 -323.97949219 1478.39111328 C-325.35258545 1477.75931152 -325.35258545 1477.75931152 -326.75341797 1477.11474609 C-375.69685768 1454.58832136 -422.96943147 1425.95556886 -465.37158203 1392.65185547 C-467.0549672 1391.33193427 -468.74526672 1390.02124211 -470.43652344 1388.71142578 C-477.38604052 1383.31211175 -484.16875407 1377.752301 -490.86230469 1372.03955078 C-498.87541843 1365.14601431 -498.87541843 1365.14601431 -507.28808594 1358.76611328 C-507.84625 1358.31236328 -508.40441406 1357.85861328 -508.97949219 1357.39111328 C-508.97949219 1356.73111328 -508.97949219 1356.07111328 -508.97949219 1355.39111328 C-509.85891479 1354.99388062 -509.85891479 1354.99388062 -510.75610352 1354.58862305 C-513.05490112 1353.35049828 -514.66200083 1352.02227702 -516.55371094 1350.23095703 C-517.54854492 1349.29413086 -517.54854492 1349.29413086 -518.56347656 1348.33837891 C-519.25763672 1347.67515625 -519.95179688 1347.01193359 -520.66699219 1346.32861328 C-521.38306641 1345.65121094 -522.09914063 1344.97380859 -522.83691406 1344.27587891 C-527.30791082 1340.03187745 -531.69716084 1335.71725138 -536.01464844 1331.31689453 C-538.66452836 1328.71969612 -541.47986995 1326.34534965 -544.35058594 1323.99658203 C-545.97949219 1322.39111328 -545.97949219 1322.39111328 -547.01464844 1320.25439453 C-547.89007709 1318.03368056 -547.89007709 1318.03368056 -550.97949219 1317.39111328 C-552.48730469 1315.85986328 -552.48730469 1315.85986328 -554.10449219 1313.89111328 C-556.77164139 1310.74005093 -559.5351414 1307.78521917 -562.47949219 1304.89111328 C-565.87217617 1301.53854549 -569.07049903 1298.09635646 -572.17480469 1294.47705078 C-574.19600495 1292.14085828 -576.27328058 1289.86146477 -578.35449219 1287.57861328 C-582.17985544 1283.33535321 -585.83043308 1278.98251831 -589.42089844 1274.53955078 C-591.30211627 1272.21299874 -593.2107897 1269.91144519 -595.13183594 1267.61767578 C-604.14681653 1256.8280724 -612.64563306 1245.71283872 -620.97949219 1234.39111328 C-621.53491699 1233.64249023 -622.0903418 1232.89386719 -622.66259766 1232.12255859 C-641.64918981 1206.51432827 -658.50845224 1179.24860948 -673.97949219 1151.39111328 C-674.52718262 1150.40546387 -675.07487305 1149.41981445 -675.63916016 1148.40429688 C-689.99477045 1122.4413258 -702.73523468 1095.84706138 -713.97949219 1068.39111328 C-714.46627441 1067.20420898 -714.95305664 1066.01730469 -715.45458984 1064.79443359 C-744.54801815 993.22555857 -761.60368315 917.43379921 -768.25292969 840.55908203 C-768.31300201 839.86592392 -768.37307434 839.17276581 -768.43496704 838.45860291 C-768.63019411 836.10363165 -768.80713502 833.74787546 -768.97949219 831.39111328 C-769.06496811 830.25354584 -769.15044403 829.11597839 -769.23851013 827.94393921 C-769.98069465 817.26070338 -770.17627848 806.61353015 -770.21777344 795.90673828 C-770.22184896 794.99443199 -770.22592449 794.0821257 -770.23012352 793.14217377 C-770.25084989 788.28684229 -770.26519326 783.43153771 -770.2746582 778.57617188 C-770.28339166 774.66943147 -770.30397902 770.76306156 -770.33618164 766.85644531 C-770.6597079 726.66989017 -767.54805749 687.042432 -760.97949219 647.39111328 C-760.86259033 646.68027588 -760.74568848 645.96943848 -760.62524414 645.23706055 C-753.83059082 604.15924154 -743.3055368 563.81719004 -729.97949219 524.39111328 C-729.55028586 523.11198155 -729.12108641 521.83284752 -728.69189453 520.55371094 C-712.74584039 473.39813822 -691.2885301 427.24137406 -665.97949219 384.39111328 C-665.44179199 383.47668457 -664.9040918 382.56225586 -664.35009766 381.62011719 C-647.39656502 352.91760146 -628.31869588 325.77824833 -607.97949219 299.39111328 C-607.44614258 298.69888672 -606.91279297 298.00666016 -606.36328125 297.29345703 C-600.62717245 289.86891222 -594.70918662 282.6306237 -588.61621094 275.49658203 C-586.09189791 272.53631008 -583.62386825 269.53267971 -581.16699219 266.51611328 C-579.77125032 264.80770522 -578.37542482 263.09936547 -576.97949219 261.39111328 C-576.0784375 260.28316406 -576.0784375 260.28316406 -575.15917969 259.15283203 C-573.81065697 257.5274387 -572.40188281 255.95227372 -570.97949219 254.39111328 C-570.31949219 254.39111328 -569.65949219 254.39111328 -568.97949219 254.39111328 C-568.73585938 253.81876953 -568.49222656 253.24642578 -568.24121094 252.65673828 C-566.75431921 249.9867779 -564.99865311 248.25282321 -562.79199219 246.14111328 C-560.01834954 243.43319676 -557.34843804 240.73293718 -554.85449219 237.76611328 C-547.24272138 228.90651119 -538.72256546 220.52487643 -529.79980469 212.99267578 C-527.59262783 211.05073906 -525.54411605 208.98373205 -523.47949219 206.89111328 C-520.1269244 203.49842929 -516.68473537 200.30010644 -513.06542969 197.19580078 C-510.72923718 195.17460052 -508.44984368 193.09732489 -506.16699219 191.01611328 C-501.43618061 186.75192197 -496.56038399 182.70264846 -491.60302734 178.70556641 C-489.77820098 177.22814308 -487.96255916 175.73984559 -486.14746094 174.25048828 C-478.76642611 168.20323651 -471.33575404 162.26960587 -463.64111328 156.62255859 C-461.84113021 155.28857173 -460.06071908 153.93074372 -458.28027344 152.57080078 C-435.64192988 135.42304067 -411.6532767 119.44915821 -386.97949219 105.39111328 C-386.31788086 105.01067871 -385.65626953 104.63024414 -384.97460938 104.23828125 C-380.33583197 101.57425827 -375.66329893 98.97492297 -370.97949219 96.39111328 C-370.16287109 95.93768555 -369.34625 95.48425781 -368.50488281 95.01708984 C-296.72001556 55.18686513 -218.25643725 27.21352099 0 0 Z " fill="#050404" transform="translate(1682.9794921875,912.60888671875)"/>
<path d="M0 0 C2.34352564 0.00563088 4.68704405 0.0084582 7.0305748 0.0110817 C30.10775124 0.04861447 52.97449806 0.67532082 75.94112778 3.05835342 C79.76390028 3.44622773 83.58968063 3.80072225 87.41532516 4.15896988 C107.49389533 6.04576119 127.53606784 8.1390006 147.50069809 11.00555801 C148.21617813 11.10801834 148.93165817 11.21047867 149.66881943 11.31604385 C157.0521741 12.38453827 164.20200963 13.69612725 171.50069809 15.31805801 C171.50069809 78.34805801 171.50069809 141.37805801 171.50069809 206.31805801 C113.68819809 206.63055801 113.68819809 206.63055801 95.54439926 206.70599747 C90.10002662 206.74263185 90.10002662 206.74263185 84.65568161 206.78306961 C82.26154596 206.79904623 79.86736861 206.8094503 77.47318649 206.8151741 C59.38016664 206.86408956 41.71341396 207.53483976 24.31319809 213.00555801 C23.49279037 213.25829483 22.67238266 213.51103165 21.82711411 213.77142715 C13.59337374 216.42353812 6.01498988 220.06387859 -1.49930191 224.31805801 C-2.4931691 224.87235489 -3.48703629 225.42665176 -4.51102066 225.99774551 C-16.08835367 232.90120514 -25.21824532 242.0324203 -32.49930191 253.31805801 C-33.38875504 254.65030411 -33.38875504 254.65030411 -34.29617691 256.00946426 C-48.18148544 278.09693514 -51.60439771 303.6268129 -51.70462418 329.16254044 C-51.71435923 330.75583929 -51.72450571 332.34913568 -51.73502636 333.94242954 C-51.76187843 338.17873022 -51.78315808 342.41504107 -51.80321884 346.65137863 C-51.82296078 350.63815269 -51.84781444 354.6248888 -51.87222672 358.61163712 C-51.94051045 370.2429153 -52.00066804 381.87424005 -52.06180191 393.50555801 C-52.20617691 419.51368301 -52.35055191 445.52180801 -52.49930191 472.31805801 C18.45069809 472.31805801 89.40069809 472.31805801 162.50069809 472.31805801 C160.20287265 491.84957426 160.20287265 491.84957426 159.07125473 499.13324356 C158.8775295 500.40420993 158.8775295 500.40420993 158.67989063 501.70085239 C158.25970851 504.45260245 157.83536114 507.20369085 157.41085434 509.95477676 C157.10715077 511.93700117 156.8036799 513.91926125 156.50042343 515.90155411 C155.69219081 521.17912816 154.8801103 526.45610305 154.06708527 531.73294067 C153.38986621 536.13130391 152.71487512 540.53000806 152.03977299 544.92869663 C147.48202209 574.61932926 142.87251775 604.3017047 138.17867661 633.97113419 C134.89343369 654.74505602 131.69889562 675.5297741 128.50069809 696.31805801 C68.77069809 696.31805801 9.04069809 696.31805801 -52.49930191 696.31805801 C-52.49930191 875.17805801 -52.49930191 1054.03805801 -52.49930191 1238.31805801 C-63.3481801 1240.23256593 -73.92759998 1241.99160896 -84.83206558 1243.14349747 C-87.01072121 1243.37512723 -89.18752574 1243.62033433 -91.36453629 1243.86688614 C-117.71477832 1246.76424005 -144.0873496 1247.70319811 -170.57601547 1247.63611603 C-172.85808254 1247.63044296 -175.14014207 1247.62764282 -177.42221451 1247.62503433 C-213.25512004 1247.56562961 -248.44551301 1245.12332029 -283.96805191 1240.40399551 C-285.05208801 1240.26194435 -285.05208801 1240.26194435 -286.15802383 1240.11702347 C-289.06943652 1239.72028976 -291.70321718 1239.25008626 -294.49930191 1238.31805801 C-294.49930191 1059.45805801 -294.49930191 880.59805801 -294.49930191 696.31805801 C-359.50930191 696.31805801 -424.51930191 696.31805801 -491.49930191 696.31805801 C-491.49930191 622.39805801 -491.49930191 548.47805801 -491.49930191 472.31805801 C-426.48930191 472.31805801 -361.47930191 472.31805801 -294.49930191 472.31805801 C-294.5341066 457.98883926 -294.56891129 443.65962051 -294.60477066 428.89618301 C-294.62011449 419.77248345 -294.63468233 410.64879335 -294.64578629 401.52508926 C-294.66352053 387.07046658 -294.68425819 372.61589672 -294.72562027 358.16131973 C-294.7557423 347.62962129 -294.77492839 337.0979661 -294.78156739 326.56622577 C-294.78544147 321.00185326 -294.79439331 315.43760439 -294.81649208 309.87327194 C-294.90448541 286.82548143 -294.85630987 264.1708861 -291.49930191 241.31805801 C-291.38963939 240.53889558 -291.27997686 239.75973314 -291.16699123 238.95695972 C-290.6118538 235.01707983 -289.97888212 231.10442736 -289.24930191 227.19305801 C-289.04023209 226.05457413 -288.83116226 224.91609024 -288.61575699 223.74310684 C-278.38693345 170.12779416 -255.47745449 119.86070709 -217.49930191 80.31805801 C-216.77009537 79.55598038 -216.77009537 79.55598038 -216.02615738 78.77850723 C-209.25787596 71.74575373 -202.25108692 65.27544835 -194.49930191 59.31805801 C-193.954673 58.89701797 -193.4100441 58.47597794 -192.84891129 58.04217911 C-182.85833889 50.36423921 -172.40125489 43.62618167 -161.49930191 37.31805801 C-160.48344009 36.72662003 -160.48344009 36.72662003 -159.44705582 36.1232338 C-131.4795574 20.03694883 -99.23509914 10.20343388 -67.56180191 4.75555801 C-66.4087355 4.54737442 -65.2556691 4.33919083 -64.06766129 4.12469864 C-42.76953478 0.43425738 -21.5588508 -0.05260405 0 0 Z " fill="#FEFEFE" transform="translate(1861.4993019104004,1215.681941986084)"/>
</svg>
