<svg xmlns="http://www.w3.org/2000/svg" xmlns:xlink="http://www.w3.org/1999/xlink" width="200" zoomAndPan="magnify" viewBox="0 0 150 149.999998" height="200" preserveAspectRatio="xMidYMid meet" version="1.0"><defs><clipPath id="2ccf423c87"><path d="M 0 6 L 0 144 C 0 147.3125 2.6875 150 6 150 L 144 150 C 147.3125 150 150 147.3125 150 144 L 150 6 C 150 2.6875 147.3125 0 144 0 L 6 0 C 2.6875 0 0 2.6875 0 6 Z M 0 6 " clip-rule="nonzero"/></clipPath></defs><g clip-path="url(#2ccf423c87)"><path fill="#050404" d="M 74.957031 -0.0859375 C 116.375 -0.0859375 150 33.539062 150 74.957031 C 150 116.375 116.375 150 74.957031 150 C 33.539062 150 -0.0859375 116.375 -0.0859375 74.957031 C -0.0859375 33.539062 33.539062 -0.0859375 74.957031 -0.0859375 Z M 102.039062 78.394531 C 103.261719 77.679688 104.011719 76.371094 104.011719 74.957031 C 104.011719 73.542969 103.261719 72.234375 102.039062 71.519531 L 62.195312 48.183594 C 60.960938 47.464844 59.4375 47.457031 58.199219 48.167969 C 56.960938 48.878906 56.195312 50.195312 56.195312 51.625 L 56.195312 98.289062 C 56.195312 99.71875 56.960938 101.039062 58.199219 101.746094 C 59.4375 102.457031 60.960938 102.449219 62.195312 101.726562 Z M 102.039062 78.394531 " fill-opacity="1" fill-rule="evenodd"/></g></svg>