<svg xmlns="http://www.w3.org/2000/svg" xmlns:xlink="http://www.w3.org/1999/xlink" width="200" zoomAndPan="magnify" viewBox="0 0 150 149.999998" height="200" preserveAspectRatio="xMidYMid meet" version="1.0"><defs><clipPath id="252a77b7bb"><path d="M 3.683594 0 L 146.183594 0 L 146.183594 150 L 3.683594 150 Z M 3.683594 0 " clip-rule="nonzero"/></clipPath><clipPath id="24b8a01c0b"><path d="M 3.683594 3 L 3.683594 147 C 3.683594 148.65625 5.023438 150 6.683594 150 L 143.316406 150 C 144.976562 150 146.316406 148.65625 146.316406 147 L 146.316406 3 C 146.316406 1.34375 144.976562 0 143.316406 0 L 6.683594 0 C 5.023438 0 3.683594 1.34375 3.683594 3 Z M 3.683594 3 " clip-rule="nonzero"/></clipPath></defs><g clip-path="url(#252a77b7bb)"><g clip-path="url(#24b8a01c0b)"><path fill="#050404" d="M 24.828125 131.363281 C 22.921875 129.457031 21.738281 126.816406 21.738281 123.910156 L 16.753906 123.910156 C 16.753906 126.761719 15.613281 129.351562 13.773438 131.25 L 13.648438 131.363281 C 11.738281 133.273438 9.097656 134.464844 6.199219 134.464844 L 6.199219 139.449219 C 9.097656 139.449219 11.738281 140.636719 13.648438 142.546875 C 15.5625 144.460938 16.75 147.101562 16.75 150 L 21.734375 150 C 21.734375 147.101562 22.921875 144.460938 24.835938 142.546875 C 26.75 140.636719 29.390625 139.449219 32.289062 139.449219 L 32.289062 134.464844 C 29.390625 134.464844 26.75 133.273438 24.835938 131.363281 Z M 21.316406 139.027344 C 20.539062 139.804688 19.84375 140.664062 19.246094 141.585938 C 18.644531 140.660156 17.953125 139.804688 17.175781 139.027344 C 16.398438 138.25 15.539062 137.558594 14.617188 136.957031 C 15.542969 136.359375 16.398438 135.664062 17.175781 134.886719 L 17.3125 134.734375 C 18.035156 133.996094 18.683594 133.183594 19.246094 132.316406 C 19.84375 133.242188 20.542969 134.105469 21.320312 134.882812 C 22.089844 135.664062 22.949219 136.359375 23.871094 136.957031 C 22.949219 137.558594 22.089844 138.25 21.316406 139.027344 Z M 5.894531 12.675781 C 7.238281 14.015625 9.09375 14.851562 11.132812 14.851562 C 13.179688 14.851562 15.042969 14.015625 16.382812 12.675781 L 16.382812 12.664062 C 17.726562 11.320312 18.558594 9.464844 18.558594 7.425781 C 18.558594 5.378906 17.726562 3.515625 16.382812 2.175781 L 16.371094 2.175781 C 15.03125 0.832031 13.171875 0 11.132812 0 C 9.167969 0 7.378906 0.769531 6.050781 2.019531 L 5.882812 2.175781 C 4.542969 3.515625 3.707031 5.375 3.707031 7.425781 C 3.707031 9.46875 4.542969 11.320312 5.882812 12.664062 Z M 9.40625 5.695312 L 9.492188 5.601562 C 9.921875 5.214844 10.496094 4.980469 11.128906 4.980469 C 11.808594 4.980469 12.421875 5.253906 12.859375 5.691406 C 13.296875 6.136719 13.570312 6.746094 13.570312 7.421875 C 13.570312 8.101562 13.296875 8.710938 12.855469 9.148438 C 12.414062 9.59375 11.800781 9.867188 11.128906 9.867188 C 10.453125 9.867188 9.839844 9.59375 9.398438 9.15625 C 8.960938 8.714844 8.6875 8.105469 8.6875 7.425781 C 8.691406 6.75 8.964844 6.140625 9.40625 5.695312 Z M 123.621094 134.347656 L 123.621094 134.5625 C 123.621094 135.9375 122.503906 137.050781 121.132812 137.050781 C 119.757812 137.050781 118.640625 135.933594 118.640625 134.5625 L 118.640625 134.347656 C 118.640625 132.972656 119.761719 131.859375 121.132812 131.859375 C 122.507812 131.855469 123.621094 132.972656 123.621094 134.347656 Z M 6.203125 82.976562 C 4.828125 82.976562 3.710938 81.859375 3.710938 80.484375 L 3.710938 80.273438 C 3.710938 78.894531 4.828125 77.78125 6.203125 77.78125 C 7.574219 77.78125 8.691406 78.898438 8.691406 80.273438 L 8.691406 80.484375 C 8.691406 81.859375 7.578125 82.976562 6.203125 82.976562 Z M 120.90625 80.019531 L 91.425781 134.542969 C 91.222656 134.917969 91.128906 135.324219 91.121094 135.71875 L 91.121094 142.585938 C 91.121094 145.304688 88.917969 147.511719 86.199219 147.511719 L 50.898438 147.511719 C 49.027344 147.511719 47.308594 146.457031 46.488281 144.777344 C 45.449219 142.640625 44.363281 139.941406 43.402344 136.714844 C 42.148438 132.496094 41.117188 127.402344 40.695312 121.542969 C 38.558594 104.214844 40.640625 70.433594 40.640625 51.332031 C 40.640625 50.011719 41.183594 48.804688 42.054688 47.933594 C 42.929688 47.058594 44.132812 46.515625 45.457031 46.515625 C 46.78125 46.515625 47.984375 47.058594 48.859375 47.933594 C 49.734375 48.804688 50.277344 50.015625 50.277344 51.332031 L 50.277344 79.71875 C 50.277344 80.984375 51.1875 82.113281 52.445312 82.269531 C 53.960938 82.460938 55.261719 81.28125 55.261719 79.800781 L 55.261719 37.519531 C 55.261719 36.191406 55.800781 34.988281 56.675781 34.117188 C 57.550781 33.242188 58.753906 32.699219 60.078125 32.699219 C 61.402344 32.699219 62.605469 33.242188 63.480469 34.117188 L 63.589844 34.21875 C 64.398438 35.082031 64.898438 36.246094 64.898438 37.519531 L 64.898438 79.800781 C 64.898438 81.28125 66.191406 82.460938 67.714844 82.269531 C 68.96875 82.113281 69.882812 80.984375 69.882812 79.71875 L 69.882812 22.574219 C 69.882812 21.25 70.425781 20.046875 71.296875 19.171875 C 72.171875 18.300781 73.375 17.757812 74.699219 17.757812 C 76.023438 17.757812 77.226562 18.300781 78.101562 19.171875 L 78.210938 19.273438 C 79.019531 20.136719 79.519531 21.304688 79.519531 22.574219 L 79.53125 33.28125 C 79.523438 33.421875 79.523438 33.566406 79.523438 33.707031 L 79.535156 78.703125 C 79.523438 80.078125 80.640625 81.191406 82.015625 81.191406 C 83.390625 81.191406 84.507812 80.074219 84.507812 78.703125 L 84.496094 33.707031 C 84.507812 32.386719 85.050781 31.179688 85.921875 30.308594 C 86.796875 29.433594 88 28.890625 89.324219 28.890625 C 90.652344 28.890625 91.859375 29.429688 92.726562 30.300781 C 93.605469 31.175781 94.144531 32.382812 94.144531 33.710938 L 94.144531 92.925781 C 94.144531 93.757812 94.550781 94.496094 95.179688 94.945312 C 95.585938 95.242188 96.089844 95.414062 96.632812 95.414062 C 97.464844 95.414062 98.203125 95.007812 98.65625 94.378906 C 98.699219 94.320312 98.738281 94.261719 98.773438 94.195312 L 113.234375 74.109375 C 114.007812 73.039062 115.15625 72.378906 116.382812 72.175781 C 117.609375 71.976562 118.90625 72.238281 119.976562 73.011719 C 120.972656 73.730469 121.535156 74.746094 121.71875 75.855469 C 121.9375 77.179688 121.640625 78.660156 120.90625 80.019531 Z M 121.460938 23.402344 C 122.234375 24.183594 123.09375 24.878906 124.015625 25.476562 C 123.089844 26.078125 122.234375 26.769531 121.457031 27.546875 C 120.683594 28.324219 119.988281 29.183594 119.390625 30.105469 C 118.789062 29.179688 118.09375 28.324219 117.320312 27.546875 C 116.542969 26.769531 115.683594 26.078125 114.761719 25.476562 C 115.6875 24.878906 116.542969 24.183594 117.320312 23.40625 L 117.457031 23.253906 C 118.175781 22.515625 118.828125 21.703125 119.390625 20.835938 C 119.992188 21.761719 120.691406 22.621094 121.460938 23.402344 Z M 146.285156 90.339844 C 146.285156 91.769531 145.707031 93.0625 144.769531 93.996094 C 143.832031 94.929688 142.542969 95.511719 141.113281 95.511719 C 139.683594 95.511719 138.390625 94.933594 137.457031 93.996094 C 136.523438 93.0625 135.941406 91.769531 135.941406 90.339844 C 135.941406 88.914062 136.519531 87.617188 137.457031 86.683594 C 138.390625 85.75 139.683594 85.171875 141.113281 85.171875 C 142.542969 85.171875 143.835938 85.746094 144.769531 86.683594 C 145.703125 87.621094 146.285156 88.917969 146.285156 90.339844 Z M 136.984375 99.617188 C 135.839844 99.109375 134.808594 98.390625 133.9375 97.523438 C 132.101562 95.683594 130.964844 93.144531 130.964844 90.34375 C 130.964844 87.542969 132.101562 85.003906 133.9375 83.167969 C 134.878906 82.226562 136.007812 81.464844 137.261719 80.953125 C 138.09375 80.609375 138.621094 79.78125 138.621094 78.882812 L 138.621094 23.351562 C 138.621094 18.304688 136.554688 13.710938 133.226562 10.378906 C 129.894531 7.050781 125.300781 4.984375 120.253906 4.984375 L 42.179688 4.984375 C 37.132812 4.984375 32.539062 7.050781 29.207031 10.378906 C 25.878906 13.710938 23.808594 18.304688 23.808594 23.351562 L 23.808594 98.679688 C 23.808594 103.054688 25.355469 107.082031 27.917969 110.238281 C 29.128906 111.726562 30.570312 113.023438 32.179688 114.078125 C 33.675781 115.058594 35.660156 113.964844 35.660156 112.179688 L 35.660156 51.328125 C 35.660156 48.632812 36.761719 46.179688 38.535156 44.402344 C 40.308594 42.628906 42.761719 41.527344 45.460938 41.527344 C 47.207031 41.527344 48.855469 41.992188 50.28125 42.800781 L 50.28125 37.515625 C 50.28125 34.828125 51.382812 32.378906 53.15625 30.589844 C 54.929688 28.816406 57.382812 27.710938 60.082031 27.710938 C 61.828125 27.710938 63.476562 28.175781 64.902344 28.988281 L 64.902344 22.574219 C 64.902344 19.878906 66.003906 17.421875 67.777344 15.648438 C 69.550781 13.875 72.003906 12.773438 74.703125 12.773438 C 77.402344 12.773438 79.851562 13.875 81.628906 15.648438 L 81.777344 15.808594 C 83.464844 17.574219 84.507812 19.960938 84.5 22.574219 L 84.5 25.183594 C 85.925781 24.371094 87.578125 23.90625 89.328125 23.90625 C 92.015625 23.90625 94.460938 25.007812 96.25 26.792969 C 98.027344 28.578125 99.132812 31.023438 99.132812 33.707031 L 99.132812 78.21875 C 99.132812 80.40625 101.941406 81.316406 103.21875 79.539062 L 109.210938 71.210938 C 110.785156 69.023438 113.113281 67.675781 115.585938 67.273438 C 118.058594 66.875 120.691406 67.410156 122.878906 68.984375 C 125.027344 70.53125 126.238281 72.699219 126.621094 75.058594 C 127.015625 77.472656 126.523438 80.078125 125.28125 82.378906 L 108.328125 113.722656 C 107.515625 115.226562 108.609375 117.050781 110.3125 117.050781 L 120.246094 117.050781 C 125.296875 117.050781 129.890625 114.984375 133.21875 111.65625 C 135.785156 109.089844 137.597656 105.777344 138.300781 102.078125 C 138.5 101.050781 137.933594 100.042969 136.984375 99.617188 Z M 46.617188 13.378906 C 46.640625 13.378906 46.664062 13.382812 46.691406 13.382812 C 46.632812 13.382812 46.566406 13.382812 46.507812 13.386719 C 46.542969 13.382812 46.578125 13.378906 46.617188 13.378906 Z M 46.691406 18.574219 C 46.664062 18.574219 46.640625 18.578125 46.617188 18.578125 C 46.578125 18.578125 46.542969 18.574219 46.503906 18.574219 C 46.566406 18.574219 46.628906 18.574219 46.691406 18.574219 Z M 45.796875 13.507812 C 45.9375 13.460938 46.074219 13.4375 46.207031 13.414062 C 45.371094 13.550781 44.671875 14.109375 44.339844 14.859375 C 44.609375 14.234375 45.125 13.726562 45.796875 13.507812 Z M 46.207031 18.539062 C 46.074219 18.515625 45.9375 18.492188 45.796875 18.445312 C 45.125 18.230469 44.609375 17.722656 44.339844 17.09375 C 44.671875 17.847656 45.371094 18.402344 46.207031 18.539062 Z M 46.746094 20.804688 C 46.746094 22.359375 45.320312 23.582031 43.703125 23.238281 C 42.550781 22.992188 41.765625 21.910156 41.765625 20.734375 L 41.765625 20.675781 C 41.765625 19.488281 42.550781 18.410156 43.703125 18.160156 C 45.320312 17.8125 46.746094 19.039062 46.746094 20.59375 Z M 49.105469 16.082031 Z M 49.105469 15.871094 Z M 124.984375 31.070312 C 123.070312 32.980469 121.882812 35.621094 121.882812 38.519531 L 116.898438 38.519531 C 116.898438 35.621094 115.710938 32.980469 113.796875 31.070312 C 111.886719 29.15625 109.246094 27.96875 106.347656 27.96875 L 106.347656 22.984375 C 109.246094 22.984375 111.886719 21.796875 113.796875 19.882812 L 113.921875 19.769531 C 115.761719 17.871094 116.902344 15.28125 116.902344 12.429688 L 119.539062 12.40625 C 119.539062 12.40625 121.886719 12.429688 121.886719 12.429688 C 121.886719 15.335938 123.070312 17.976562 124.988281 19.882812 C 126.898438 21.796875 129.539062 22.984375 132.4375 22.984375 L 132.4375 27.96875 C 129.535156 27.96875 126.894531 29.152344 124.984375 31.070312 Z M 124.984375 31.070312 " fill-opacity="1" fill-rule="evenodd"/></g></g></svg>