<svg xmlns="http://www.w3.org/2000/svg" xmlns:xlink="http://www.w3.org/1999/xlink" width="1920" zoomAndPan="magnify" viewBox="0 0 1440 809.999993" height="1080" preserveAspectRatio="xMidYMid meet" version="1.0"><defs><filter x="0%" y="0%" width="100%" height="100%" id="13618b725a"><feColorMatrix values="0 0 0 0 1 0 0 0 0 1 0 0 0 0 1 0 0 0 1 0" color-interpolation-filters="sRGB"/></filter><mask id="81c842bec1"><g filter="url(#13618b725a)"><rect x="-144" width="1728" fill="#000000" y="-80.999999" height="971.999992" fill-opacity="0.89"/></g></mask><clipPath id="966dd17457"><path d="M 0.160156 0.921875 L 383.429688 0.921875 L 383.429688 509 L 0.160156 509 Z M 0.160156 0.921875 " clip-rule="nonzero"/></clipPath><clipPath id="7dab600c07"><path d="M 8.410156 0.921875 L 375.179688 0.921875 C 377.367188 0.921875 379.46875 1.789062 381.015625 3.339844 C 382.5625 4.886719 383.429688 6.984375 383.429688 9.171875 L 383.429688 500.828125 C 383.429688 503.015625 382.5625 505.113281 381.015625 506.660156 C 379.46875 508.210938 377.367188 509.078125 375.179688 509.078125 L 8.410156 509.078125 C 6.222656 509.078125 4.121094 508.210938 2.574219 506.660156 C 1.027344 505.113281 0.160156 503.015625 0.160156 500.828125 L 0.160156 9.171875 C 0.160156 6.984375 1.027344 4.886719 2.574219 3.339844 C 4.121094 1.789062 6.222656 0.921875 8.410156 0.921875 Z M 8.410156 0.921875 " clip-rule="nonzero"/></clipPath><clipPath id="85b91e6ed1"><rect x="0" width="384" y="0" height="510"/></clipPath><clipPath id="024550bdb4"><path d="M 652 195.296875 L 809 195.296875 L 809 454.796875 L 652 454.796875 Z M 652 195.296875 " clip-rule="nonzero"/></clipPath></defs><g mask="url(#81c842bec1)"><g transform="matrix(1, 0, 0, 1, 510, 150)"><g clip-path="url(#85b91e6ed1)"><g clip-path="url(#966dd17457)"><g clip-path="url(#7dab600c07)"><path fill="#ffffff" d="M 0.160156 0.921875 L 383.429688 0.921875 L 383.429688 508.457031 L 0.160156 508.457031 Z M 0.160156 0.921875 " fill-opacity="1" fill-rule="nonzero"/></g></g></g></g></g><path fill="#050404" d="M 690.691406 352.582031 C 694.347656 344.976562 681.765625 339.128906 677.089844 345.5625 C 672.847656 351.5625 669.484375 358.289062 665.53125 364.425781 C 663.007812 363.039062 660.589844 361.542969 657.898438 360.59375 C 657.0625 360.296875 656.152344 360.167969 655.269531 360.265625 C 652.566406 360.585938 650.035156 361.753906 647.398438 362.382812 C 645.851562 361.453125 644.304688 360.378906 642.65625 359.566406 C 640.820312 358.671875 638.664062 358.546875 636.800781 359.371094 C 634.871094 360.226562 633.074219 361.671875 631.167969 362.671875 C 628.386719 361.066406 625.613281 358.429688 622.097656 359.308594 C 618.878906 360.191406 616.984375 363.113281 615.222656 365.601562 C 606.59375 378.175781 598.410156 391.777344 596.210938 407.132812 C 595.191406 411.371094 599.140625 414.007812 602.5 415.613281 C 612.890625 420.882812 623.273438 426.292969 633.65625 431.554688 C 638.480469 434.1875 643.160156 429.800781 647.835938 428.773438 C 658.078125 426.292969 665.972656 418.980469 674.457031 413.128906 C 678.992188 409.761719 683.964844 406.984375 687.621094 402.449219 C 681.472656 393.53125 669.628906 397.1875 661.4375 400.40625 C 670.503906 384.027344 681.914062 369.109375 690.691406 352.582031 " fill-opacity="1" fill-rule="nonzero"/><g clip-path="url(#024550bdb4)"><path fill="#050404" d="M 715.261719 429.941406 C 710.867188 430.238281 704.730469 428.773438 702.386719 433.605469 C 699.757812 438.28125 704.144531 444.425781 709.40625 443.691406 C 724.03125 443.691406 738.804688 444.128906 753.425781 443.550781 C 760.011719 442.816406 760.597656 432.871094 754.597656 430.675781 C 741.578125 429.511719 728.421875 430.675781 715.261719 429.941406 Z M 756.207031 207.949219 C 758.835938 208.679688 758.109375 203.996094 755.914062 204.730469 C 740.851562 204.433594 725.785156 204.875 710.726562 204.582031 C 707.800781 204.433594 704.871094 204.730469 701.949219 205.167969 C 702.535156 209.117188 706.484375 208.089844 709.40625 208.238281 C 725.054688 207.949219 740.558594 208.53125 756.207031 207.949219 M 800.226562 199.03125 C 805.925781 202.976562 808.417969 210.140625 808.125 216.71875 C 808.125 289.40625 808.125 362.085938 808.125 434.773438 C 808.5625 444.71875 800.226562 454.808594 789.84375 454.371094 C 752.257812 454.371094 714.820312 454.222656 677.230469 454.371094 C 671.679688 454.371094 665.390625 454.808594 660.707031 451.296875 C 655.738281 448.082031 653.394531 442.234375 652.519531 436.675781 C 662.023438 433.894531 669.925781 427.757812 677.816406 422.050781 C 680.746094 420 683.375 416.785156 687.324219 417.367188 C 724.910156 417.367188 762.351562 417.367188 799.9375 417.367188 C 799.9375 355.796875 799.9375 294.378906 799.9375 232.808594 C 753.425781 232.808594 707.070312 232.808594 660.558594 232.808594 C 660.558594 272.148438 660.417969 311.636719 660.558594 351.121094 C 657.929688 351.121094 655.296875 351.121094 652.667969 351.121094 C 652.808594 308.707031 652.667969 266.441406 652.667969 224.03125 C 652.808594 218.332031 651.933594 212.484375 654.273438 207.070312 C 657.050781 200.339844 663.925781 195.226562 671.382812 195.664062 C 710.429688 195.664062 749.332031 195.664062 788.378906 195.664062 C 792.621094 195.664062 796.859375 196.394531 800.226562 199.03125 " fill-opacity="1" fill-rule="nonzero"/></g><path fill="#050404" d="M 761.195312 356.914062 C 761.8125 358.726562 763.078125 360.332031 764.675781 361.007812 C 767.449219 362.09375 770.886719 360.125 771.449219 356.859375 C 768.015625 356.859375 764.632812 356.757812 761.195312 356.914062 Z M 714.140625 356.914062 C 714.941406 359.347656 717.007812 361.523438 719.496094 361.261719 C 721.851562 361.421875 723.871094 359.296875 724.433594 356.914062 C 721.003906 356.8125 717.570312 356.8125 714.140625 356.914062 M 766.089844 325.300781 C 765.996094 328.359375 765.996094 331.417969 766.089844 334.476562 C 768.199219 334.320312 770.457031 334.945312 772.429688 333.960938 C 775.15625 332.148438 774.316406 328.257812 774.546875 325.300781 C 771.726562 325.253906 768.90625 325.148438 766.089844 325.300781 M 748.691406 325.300781 C 748.644531 328.359375 748.644531 331.417969 748.691406 334.476562 C 751.9375 334.476562 755.179688 334.476562 758.421875 334.476562 C 758.5625 331.417969 758.515625 328.359375 758.46875 325.300781 C 755.226562 325.199219 751.9375 325.199219 748.691406 325.300781 M 731.203125 325.300781 C 731.105469 328.359375 731.105469 331.417969 731.25 334.429688 C 734.496094 334.367188 737.738281 334.527344 740.980469 334.429688 C 740.980469 331.363281 740.980469 328.359375 740.980469 325.300781 C 737.738281 325.148438 734.449219 325.199219 731.203125 325.300781 M 717.855469 325.253906 C 718.085938 327.53125 718.417969 329.863281 718.980469 332.09375 C 719.6875 333.90625 721.566406 334.582031 723.214844 334.582031 C 723.445312 331.472656 723.355469 328.359375 723.308594 325.253906 C 721.519531 325.199219 719.6875 325.199219 717.855469 325.253906 M 766.132812 307.6875 C 766.035156 310.746094 766.035156 313.796875 766.132812 316.808594 C 769.046875 316.757812 772.011719 316.757812 774.925781 316.808594 C 775.15625 313.75 775.300781 310.695312 775.441406 307.6875 C 772.34375 307.582031 769.238281 307.582031 766.132812 307.6875 M 748.691406 307.6875 C 748.691406 310.746094 748.597656 313.75 748.691406 316.808594 C 751.9375 316.703125 755.179688 316.757812 758.421875 316.808594 C 758.5625 313.75 758.46875 310.746094 758.46875 307.6875 C 755.226562 307.636719 751.984375 307.582031 748.691406 307.6875 M 731.203125 307.636719 C 731.15625 310.695312 731.066406 313.75 731.25 316.808594 C 734.496094 316.757812 737.691406 316.808594 740.9375 316.757812 C 740.9375 313.75 740.886719 310.695312 740.9375 307.6875 C 737.738281 307.582031 734.449219 307.582031 731.203125 307.636719 M 715.21875 307.636719 C 715.480469 309.726562 715.730469 311.820312 715.902344 313.917969 C 715.984375 314.9375 716.066406 316.785156 717.453125 316.832031 C 719.386719 316.902344 721.324219 316.757812 723.261719 316.757812 C 723.492188 313.699219 723.398438 310.640625 723.355469 307.636719 C 720.628906 307.582031 717.898438 307.582031 715.21875 307.636719 M 691.058594 259.65625 C 693.171875 258.464844 695.613281 259.035156 697.871094 258.925781 C 700.550781 259.085938 703.324219 258.511719 705.960938 259.34375 C 707.652344 259.757812 708.023438 261.882812 708.402344 263.4375 C 709.109375 267.425781 709.394531 271.46875 710.144531 275.40625 C 711.128906 280.585938 711.550781 285.875 712.445312 291.054688 C 713.054688 293.804688 713.101562 296.601562 713.855469 299.292969 C 734.496094 299.082031 755.132812 299.398438 775.773438 299.191406 C 776.101562 297.0625 776.664062 294.371094 778.824219 293.644531 C 780.800781 293.382812 785.28125 293.382812 787.257812 293.644531 C 789.699219 294.265625 790.59375 297.738281 789.328125 299.914062 C 788.667969 301.265625 784.703125 301.464844 783.53125 301.933594 C 783.152344 305.714844 782.914062 309.503906 782.914062 313.285156 C 782.398438 318.253906 782.542969 323.28125 782.074219 328.257812 C 782.351562 333.023438 780.570312 338.101562 776.804688 340.691406 C 774.785156 341.882812 772.574219 342.820312 770.273438 342.765625 C 756.027344 342.820312 741.734375 342.714844 727.492188 342.765625 C 724.339844 342.714844 721.097656 343.179688 718.132812 341.730469 C 714.1875 340.382812 711.789062 336.136719 711.035156 331.832031 C 708.917969 331.9375 706.574219 332.246094 705.019531 334.0625 C 701.589844 337.378906 702.007812 344.21875 705.820312 347.015625 C 707.183594 348.054688 708.917969 348.414062 710.566406 348.46875 C 732.992188 348.46875 755.417969 348.46875 777.84375 348.46875 C 780.378906 348.207031 782.636719 351.417969 781.464844 354.007812 C 780.894531 355.613281 779.015625 356.238281 779.015625 358.105469 C 777.84375 365.617188 770.363281 371.113281 763.644531 369.191406 C 761.152344 368.367188 758.5625 367.125 756.875 364.789062 C 755.039062 362.558594 753.960938 359.710938 753.53125 356.8125 C 749.726562 356.496094 745.871094 356.757812 742.066406 356.707031 C 738.777344 356.757812 735.527344 356.605469 732.285156 356.757812 C 731.582031 361.578125 728.949219 366.292969 724.71875 368.15625 C 718.792969 371.628906 710.851562 368.207031 707.933594 361.730469 C 707.230469 359.972656 706.804688 358.105469 706.335938 356.289062 C 702.152344 354.632812 698.339844 351.417969 696.460938 346.914062 C 694.300781 341.316406 694.863281 334.214844 698.671875 329.605469 C 701.351562 325.976562 705.441406 323.902344 709.671875 323.542969 C 709.625 321.058594 701.773438 270.121094 701.445312 267.164062 C 698.339844 266.703125 695.148438 267.371094 692.042969 266.75 C 688.988281 266.386719 688.425781 261.15625 691.058594 259.65625 " fill-opacity="1" fill-rule="nonzero"/></svg>