<svg xmlns="http://www.w3.org/2000/svg" xmlns:xlink="http://www.w3.org/1999/xlink" width="200" zoomAndPan="magnify" viewBox="0 0 150 149.999998" height="200" preserveAspectRatio="xMidYMid meet" version="1.0"><defs><clipPath id="3b8a37ea61"><path d="M 13.125 85 L 69 85 L 69 137 L 13.125 137 Z M 13.125 85 " clip-rule="nonzero"/></clipPath><clipPath id="3360389977"><path d="M 46 0 L 136.875 0 L 136.875 150 L 46 150 Z M 46 0 " clip-rule="nonzero"/></clipPath></defs><g clip-path="url(#3b8a37ea61)"><path fill="#050404" d="M 68.582031 90.886719 C 70.695312 86.492188 63.425781 83.113281 60.722656 86.832031 C 58.273438 90.296875 56.332031 94.183594 54.046875 97.734375 C 52.585938 96.929688 51.191406 96.066406 49.636719 95.515625 C 49.152344 95.347656 48.625 95.269531 48.113281 95.328125 C 46.554688 95.511719 45.089844 96.1875 43.566406 96.550781 C 42.671875 96.011719 41.777344 95.394531 40.828125 94.925781 C 39.765625 94.40625 38.519531 94.335938 37.445312 94.8125 C 36.328125 95.304688 35.289062 96.140625 34.1875 96.71875 C 32.582031 95.789062 30.976562 94.265625 28.949219 94.773438 C 27.089844 95.285156 25.992188 96.972656 24.976562 98.410156 C 19.988281 105.675781 15.257812 113.535156 13.988281 122.410156 C 13.398438 124.859375 15.679688 126.382812 17.621094 127.308594 C 23.625 130.355469 29.625 133.480469 35.625 136.523438 C 38.414062 138.042969 41.117188 135.507812 43.820312 134.917969 C 49.738281 133.480469 54.300781 129.253906 59.203125 125.875 C 61.824219 123.929688 64.695312 122.324219 66.808594 119.703125 C 63.257812 114.550781 56.414062 116.664062 51.679688 118.523438 C 56.917969 109.058594 63.511719 100.4375 68.582031 90.886719 " fill-opacity="1" fill-rule="nonzero"/></g><g clip-path="url(#3360389977)"><path fill="#050404" d="M 82.78125 135.589844 C 80.242188 135.761719 76.695312 134.917969 75.34375 137.707031 C 73.824219 140.410156 76.355469 143.960938 79.398438 143.535156 C 87.847656 143.535156 96.386719 143.789062 104.835938 143.453125 C 108.640625 143.027344 108.980469 137.28125 105.511719 136.015625 C 97.988281 135.339844 90.386719 136.015625 82.78125 135.589844 Z M 106.441406 7.3125 C 107.960938 7.734375 107.539062 5.027344 106.273438 5.453125 C 97.566406 5.28125 88.863281 5.535156 80.160156 5.367188 C 78.46875 5.28125 76.777344 5.453125 75.089844 5.707031 C 75.429688 7.984375 77.710938 7.394531 79.398438 7.480469 C 88.441406 7.3125 97.402344 7.648438 106.441406 7.3125 M 131.878906 2.15625 C 135.171875 4.4375 136.613281 8.578125 136.445312 12.378906 C 136.445312 54.382812 136.445312 96.378906 136.445312 138.382812 C 136.695312 144.128906 131.878906 149.960938 125.878906 149.707031 C 104.160156 149.707031 82.527344 149.621094 60.804688 149.707031 C 57.597656 149.707031 53.964844 149.960938 51.257812 147.929688 C 48.386719 146.074219 47.03125 142.695312 46.527344 139.480469 C 52.019531 137.875 56.582031 134.328125 61.144531 131.03125 C 62.835938 129.84375 64.355469 127.988281 66.636719 128.324219 C 88.355469 128.324219 109.992188 128.324219 131.710938 128.324219 C 131.710938 92.746094 131.710938 57.253906 131.710938 21.675781 C 104.835938 21.675781 78.046875 21.675781 51.171875 21.675781 C 51.171875 44.410156 51.089844 67.226562 51.171875 90.042969 C 49.652344 90.042969 48.132812 90.042969 46.609375 90.042969 C 46.695312 65.535156 46.609375 41.113281 46.609375 16.605469 C 46.695312 13.3125 46.1875 9.929688 47.539062 6.804688 C 49.144531 2.914062 53.117188 -0.0429688 57.425781 0.210938 C 79.988281 0.210938 102.46875 0.210938 125.03125 0.210938 C 127.484375 0.210938 129.933594 0.632812 131.878906 2.15625 " fill-opacity="1" fill-rule="nonzero"/></g><path fill="#050404" d="M 109.324219 93.390625 C 109.679688 94.4375 110.414062 95.367188 111.335938 95.757812 C 112.9375 96.382812 114.925781 95.246094 115.25 93.359375 C 113.265625 93.359375 111.3125 93.300781 109.324219 93.390625 Z M 82.132812 93.390625 C 82.597656 94.796875 83.792969 96.054688 85.230469 95.902344 C 86.589844 95.996094 87.757812 94.765625 88.082031 93.390625 C 86.097656 93.332031 84.117188 93.332031 82.132812 93.390625 M 112.152344 75.125 C 112.097656 76.890625 112.097656 78.65625 112.152344 80.425781 C 113.371094 80.335938 114.675781 80.695312 115.816406 80.128906 C 117.394531 79.078125 116.90625 76.832031 117.039062 75.125 C 115.410156 75.097656 113.78125 75.035156 112.152344 75.125 M 102.097656 75.125 C 102.070312 76.890625 102.070312 78.65625 102.097656 80.425781 C 103.976562 80.425781 105.847656 80.425781 107.722656 80.425781 C 107.804688 78.65625 107.777344 76.890625 107.75 75.125 C 105.875 75.066406 103.976562 75.066406 102.097656 75.125 M 91.992188 75.125 C 91.9375 76.890625 91.9375 78.65625 92.019531 80.398438 C 93.898438 80.363281 95.769531 80.457031 97.644531 80.398438 C 97.644531 78.628906 97.644531 76.890625 97.644531 75.125 C 95.769531 75.035156 93.871094 75.066406 91.992188 75.125 M 84.28125 75.097656 C 84.414062 76.410156 84.605469 77.761719 84.933594 79.046875 C 85.339844 80.097656 86.425781 80.488281 87.375 80.488281 C 87.511719 78.6875 87.460938 76.890625 87.433594 75.097656 C 86.398438 75.066406 85.339844 75.066406 84.28125 75.097656 M 112.175781 64.945312 C 112.121094 66.714844 112.121094 68.476562 112.175781 70.214844 C 113.863281 70.1875 115.574219 70.1875 117.257812 70.214844 C 117.394531 68.449219 117.476562 66.683594 117.558594 64.945312 C 115.765625 64.882812 113.972656 64.882812 112.175781 64.945312 M 102.097656 64.945312 C 102.097656 66.714844 102.042969 68.449219 102.097656 70.214844 C 103.976562 70.15625 105.847656 70.1875 107.722656 70.214844 C 107.804688 68.449219 107.75 66.714844 107.75 64.945312 C 105.875 64.914062 104.003906 64.882812 102.097656 64.945312 M 91.992188 64.914062 C 91.964844 66.683594 91.914062 68.449219 92.019531 70.214844 C 93.898438 70.1875 95.742188 70.214844 97.621094 70.1875 C 97.621094 68.449219 97.589844 66.683594 97.621094 64.945312 C 95.769531 64.882812 93.871094 64.882812 91.992188 64.914062 M 82.757812 64.914062 C 82.90625 66.125 83.050781 67.332031 83.152344 68.546875 C 83.199219 69.132812 83.246094 70.203125 84.046875 70.230469 C 85.164062 70.269531 86.285156 70.1875 87.40625 70.1875 C 87.539062 68.417969 87.484375 66.652344 87.460938 64.914062 C 85.882812 64.882812 84.304688 64.882812 82.757812 64.914062 M 68.796875 37.191406 C 70.019531 36.503906 71.429688 36.832031 72.734375 36.769531 C 74.28125 36.863281 75.882812 36.53125 77.40625 37.007812 C 78.382812 37.25 78.601562 38.476562 78.820312 39.375 C 79.226562 41.679688 79.390625 44.015625 79.824219 46.292969 C 80.394531 49.285156 80.636719 52.339844 81.15625 55.332031 C 81.507812 56.921875 81.535156 58.539062 81.96875 60.09375 C 93.898438 59.972656 105.820312 60.15625 117.75 60.035156 C 117.9375 58.804688 118.261719 57.25 119.511719 56.832031 C 120.652344 56.679688 123.242188 56.679688 124.386719 56.832031 C 125.796875 57.191406 126.3125 59.195312 125.582031 60.453125 C 125.199219 61.234375 122.910156 61.351562 122.230469 61.621094 C 122.011719 63.804688 121.875 65.996094 121.875 68.179688 C 121.578125 71.050781 121.660156 73.957031 121.390625 76.832031 C 121.550781 79.585938 120.519531 82.519531 118.34375 84.015625 C 117.175781 84.707031 115.898438 85.246094 114.570312 85.214844 C 106.339844 85.246094 98.078125 85.183594 89.847656 85.214844 C 88.027344 85.183594 86.15625 85.457031 84.441406 84.617188 C 82.160156 83.839844 80.773438 81.382812 80.339844 78.898438 C 79.117188 78.960938 77.761719 79.136719 76.863281 80.183594 C 74.878906 82.101562 75.125 86.054688 77.324219 87.671875 C 78.113281 88.269531 79.117188 88.480469 80.070312 88.511719 C 93.027344 88.511719 105.984375 88.511719 118.945312 88.511719 C 120.410156 88.359375 121.714844 90.214844 121.035156 91.710938 C 120.707031 92.640625 119.621094 93 119.621094 94.078125 C 118.945312 98.421875 114.621094 101.59375 110.738281 100.484375 C 109.300781 100.011719 107.804688 99.289062 106.828125 97.941406 C 105.765625 96.652344 105.144531 95.007812 104.898438 93.332031 C 102.699219 93.152344 100.46875 93.300781 98.269531 93.269531 C 96.371094 93.300781 94.492188 93.210938 92.621094 93.300781 C 92.210938 96.085938 90.691406 98.8125 88.246094 99.886719 C 84.820312 101.894531 80.234375 99.917969 78.546875 96.175781 C 78.140625 95.15625 77.894531 94.078125 77.625 93.03125 C 75.207031 92.070312 73.003906 90.214844 71.917969 87.613281 C 70.667969 84.378906 70.992188 80.273438 73.195312 77.609375 C 74.742188 75.515625 77.105469 74.316406 79.550781 74.105469 C 79.523438 72.671875 74.988281 43.238281 74.796875 41.53125 C 73.003906 41.261719 71.160156 41.648438 69.363281 41.289062 C 67.601562 41.082031 67.273438 38.058594 68.796875 37.191406 " fill-opacity="1" fill-rule="nonzero"/></svg>