<svg xmlns="http://www.w3.org/2000/svg" xmlns:xlink="http://www.w3.org/1999/xlink" width="200" zoomAndPan="magnify" viewBox="0 0 150 149.999998" height="200" preserveAspectRatio="xMidYMid meet" version="1.0"><defs><clipPath id="3b8c20c885"><path d="M 0 6.410156 L 149 6.410156 L 149 143.660156 L 0 143.660156 Z M 0 6.410156 " clip-rule="nonzero"/></clipPath><clipPath id="6450acf63f"><path d="M 0 13.160156 L 0 136.839844 C 0 140.570312 3.023438 143.589844 6.75 143.589844 L 143.25 143.589844 C 146.976562 143.589844 150 140.570312 150 136.839844 L 150 13.160156 C 150 9.429688 146.976562 6.410156 143.25 6.410156 L 6.75 6.410156 C 3.023438 6.410156 0 9.429688 0 13.160156 Z M 0 13.160156 " clip-rule="nonzero"/></clipPath></defs><g clip-path="url(#3b8c20c885)"><g clip-path="url(#6450acf63f)"><path fill="#050404" d="M 108.328125 143.589844 L 20.296875 143.589844 C 8.945312 139.917969 1.085938 133.109375 0.117188 120.105469 C 0.792969 117.164062 1.386719 114.148438 1.582031 110.800781 C 2.636719 107.894531 0.621094 108.578125 1.421875 105.808594 C 2.082031 104.207031 7.070312 97.601562 8.351562 93.382812 C 9.261719 90.382812 10.765625 87.464844 11.734375 84.195312 C 12.082031 83.023438 11.355469 79.519531 11.734375 78.359375 C 12.328125 76.546875 14.296875 75.453125 14.917969 73.628906 C 17.410156 68.78125 18.800781 64.300781 20.296875 59.988281 C 21.089844 57.6875 19.972656 55.078125 20.296875 52.4375 C 21.269531 50.003906 24.527344 48.484375 25.570312 46.117188 C 26.628906 43.703125 28.03125 40.570312 28.945312 38.183594 C 29.605469 36.457031 30.042969 35.035156 30.25 32.996094 C 31.1875 30.625 29.605469 28.402344 30.25 26.816406 C 31.148438 24.609375 33.46875 23.007812 34.472656 20.949219 C 36.378906 17.039062 37.621094 13.441406 39.75 10.0625 C 40.921875 8.203125 42.332031 7.421875 44.726562 6.410156 C 48.042969 7.082031 51.332031 7.25 54.5625 6.410156 L 123.773438 6.410156 C 135.425781 8.316406 136.691406 16.527344 132.414062 28.101562 L 108.25 108.828125 C 104.765625 118.253906 102.667969 120.546875 92.605469 120.761719 L 13.742188 120.761719 C 5.648438 121.632812 12.492188 133.6875 22.65625 132.050781 L 105.882812 132.050781 C 110.757812 132.09375 113.769531 129.757812 114.664062 124.71875 L 141.320312 36.773438 L 141.320312 33.945312 C 146.4375 35.886719 149.878906 39.773438 148.640625 47.453125 C 143.566406 66.324219 132.363281 101.941406 123.773438 130.773438 C 120.039062 138.011719 114.816406 142.125 108.328125 143.589844 Z M 45.242188 104.464844 C 46.566406 104.402344 77.269531 104.589844 72.683594 104.472656 C 72.261719 104.460938 72.875 101.550781 72.683594 101.660156 C 66.253906 105.382812 85.585938 50.605469 85.679688 50.253906 C 86.148438 48.488281 84.789062 47.753906 84.097656 47.726562 C 80.890625 47.609375 70.917969 47.511719 66.574219 47.726562 C 65.734375 47.769531 61.339844 47.808594 60.445312 47.769531 C 60.453125 47.742188 60.453125 47.726562 60.445312 47.726562 C 60.21875 47.746094 60.246094 47.757812 60.445312 47.769531 C 60.355469 48.21875 58.808594 52.246094 58.929688 52.207031 C 72.484375 47.621094 49.832031 104.320312 46.109375 101.664062 C 45.324219 101.101562 45.527344 104.289062 45.242188 104.464844 C 45.195312 104.46875 45.183594 104.472656 45.210938 104.472656 C 45.21875 104.476562 45.230469 104.472656 45.242188 104.464844 Z M 87.316406 40.808594 C 81.378906 40.882812 76.03125 40.804688 70.519531 40.808594 C 69.066406 40.8125 67.457031 39.605469 67.890625 38.144531 C 69.632812 32.25 70.355469 30.347656 72.441406 23.773438 C 72.976562 22.082031 74.066406 21.257812 75.070312 21.257812 C 81.339844 21.25 86.496094 21.234375 91.867188 21.257812 C 93.027344 21.265625 94.03125 21.71875 93.714844 23.277344 C 92.417969 29.636719 90.9375 32.671875 89.164062 39.289062 C 88.882812 40.335938 88.421875 40.796875 87.316406 40.808594 Z M 87.316406 40.808594 " fill-opacity="1" fill-rule="evenodd"/></g></g></svg>