<svg xmlns="http://www.w3.org/2000/svg" xmlns:xlink="http://www.w3.org/1999/xlink" width="1920" zoomAndPan="magnify" viewBox="0 0 1440 809.999993" height="1080" preserveAspectRatio="xMidYMid meet" version="1.0"><defs><clipPath id="0f08f7c175"><path d="M 610.511719 264.085938 L 828 264.085938 L 828 464.335938 L 610.511719 464.335938 Z M 610.511719 264.085938 " clip-rule="nonzero"/></clipPath><clipPath id="e4061f43c6"><path d="M 610.511719 284.335938 L 610.511719 444.097656 C 610.511719 455.28125 619.578125 464.347656 630.761719 464.347656 L 809.238281 464.347656 C 820.421875 464.347656 829.488281 455.28125 829.488281 444.097656 L 829.488281 284.335938 C 829.488281 273.152344 820.421875 264.085938 809.238281 264.085938 L 630.761719 264.085938 C 619.578125 264.085938 610.511719 273.152344 610.511719 284.335938 Z M 610.511719 284.335938 " clip-rule="nonzero"/></clipPath></defs><g clip-path="url(#0f08f7c175)"><g clip-path="url(#e4061f43c6)"><path fill="#050404" d="M 768.648438 464.347656 L 640.132812 464.347656 C 623.566406 458.988281 612.089844 449.050781 610.679688 430.066406 C 611.664062 425.769531 612.527344 421.371094 612.816406 416.480469 C 614.355469 412.238281 611.414062 413.238281 612.582031 409.195312 C 613.542969 406.855469 620.828125 397.210938 622.699219 391.050781 C 624.023438 386.675781 626.222656 382.417969 627.636719 377.640625 C 628.144531 375.933594 627.082031 370.816406 627.636719 369.121094 C 628.503906 366.476562 631.375 364.875 632.28125 362.214844 C 635.921875 355.140625 637.953125 348.601562 640.132812 342.300781 C 641.296875 338.945312 639.664062 335.136719 640.132812 331.28125 C 641.558594 327.730469 646.3125 325.511719 647.835938 322.050781 C 649.382812 318.53125 651.429688 313.953125 652.757812 310.472656 C 653.722656 307.949219 654.367188 305.871094 654.667969 302.898438 C 656.035156 299.4375 653.722656 296.191406 654.667969 293.878906 C 655.976562 290.65625 659.367188 288.316406 660.832031 285.316406 C 663.617188 279.605469 665.425781 274.355469 668.535156 269.417969 C 670.246094 266.703125 672.304688 265.566406 675.800781 264.085938 C 680.644531 265.070312 685.445312 265.3125 690.160156 264.085938 L 791.195312 264.085938 C 808.207031 266.871094 810.054688 278.855469 803.808594 295.753906 L 768.535156 413.601562 C 763.445312 427.359375 760.386719 430.710938 745.695312 431.023438 L 630.570312 431.023438 C 618.75 432.292969 628.742188 449.894531 643.582031 447.503906 L 765.078125 447.503906 C 772.195312 447.566406 776.59375 444.15625 777.898438 436.800781 L 816.8125 308.410156 L 816.8125 304.28125 C 824.285156 307.117188 829.308594 312.789062 827.496094 324.003906 C 820.089844 351.554688 803.734375 403.546875 791.195312 445.640625 C 785.746094 456.207031 778.121094 462.210938 768.648438 464.347656 Z M 676.550781 407.230469 C 678.488281 407.140625 723.308594 407.417969 716.617188 407.242188 C 716 407.226562 716.894531 402.976562 716.617188 403.136719 C 707.226562 408.574219 735.449219 328.605469 735.585938 328.089844 C 736.269531 325.511719 734.285156 324.441406 733.273438 324.402344 C 728.59375 324.230469 714.03125 324.089844 707.695312 324.402344 C 706.46875 324.464844 700.054688 324.523438 698.75 324.464844 C 698.757812 324.421875 698.757812 324.402344 698.75 324.402344 C 698.417969 324.429688 698.457031 324.449219 698.75 324.464844 C 698.613281 325.121094 696.355469 331 696.53125 330.941406 C 716.320312 324.25 683.253906 407.019531 677.820312 403.140625 C 676.675781 402.324219 676.96875 406.976562 676.550781 407.234375 C 676.484375 407.238281 676.46875 407.242188 676.503906 407.246094 C 676.519531 407.246094 676.535156 407.242188 676.550781 407.234375 Z M 737.976562 314.304688 C 729.308594 314.414062 721.5 314.296875 713.453125 314.304688 C 711.332031 314.308594 708.984375 312.546875 709.613281 310.417969 C 712.160156 301.8125 713.214844 299.035156 716.257812 289.4375 C 717.039062 286.96875 718.632812 285.765625 720.097656 285.761719 C 729.253906 285.75 736.777344 285.726562 744.617188 285.761719 C 746.308594 285.769531 747.777344 286.4375 747.316406 288.714844 C 745.421875 297.992188 743.257812 302.425781 740.671875 312.085938 C 740.261719 313.617188 739.585938 314.285156 737.976562 314.304688 Z M 737.976562 314.304688 " fill-opacity="1" fill-rule="evenodd"/></g></g></svg>