<svg xmlns="http://www.w3.org/2000/svg" xmlns:xlink="http://www.w3.org/1999/xlink" width="1920" zoomAndPan="magnify" viewBox="0 0 1440 809.999993" height="1080" preserveAspectRatio="xMidYMid meet" version="1.0"><defs><filter x="0%" y="0%" width="100%" height="100%" id="d61c58a658"><feColorMatrix values="0 0 0 0 1 0 0 0 0 1 0 0 0 0 1 0 0 0 1 0" color-interpolation-filters="sRGB"/></filter><mask id="a47af55b4e"><g filter="url(#d61c58a658)"><rect x="-144" width="1728" fill="#000000" y="-80.999999" height="971.999992" fill-opacity="0.89"/></g></mask><clipPath id="659535b905"><path d="M 0.160156 0.921875 L 383.429688 0.921875 L 383.429688 509 L 0.160156 509 Z M 0.160156 0.921875 " clip-rule="nonzero"/></clipPath><clipPath id="14343c57cc"><path d="M 8.410156 0.921875 L 375.179688 0.921875 C 377.367188 0.921875 379.46875 1.789062 381.015625 3.339844 C 382.5625 4.886719 383.429688 6.984375 383.429688 9.171875 L 383.429688 500.828125 C 383.429688 503.015625 382.5625 505.113281 381.015625 506.660156 C 379.46875 508.210938 377.367188 509.078125 375.179688 509.078125 L 8.410156 509.078125 C 6.222656 509.078125 4.121094 508.210938 2.574219 506.660156 C 1.027344 505.113281 0.160156 503.015625 0.160156 500.828125 L 0.160156 9.171875 C 0.160156 6.984375 1.027344 4.886719 2.574219 3.339844 C 4.121094 1.789062 6.222656 0.921875 8.410156 0.921875 Z M 8.410156 0.921875 " clip-rule="nonzero"/></clipPath><clipPath id="c627b5c98e"><rect x="0" width="384" y="0" height="510"/></clipPath><clipPath id="132de250a4"><path d="M 602.914062 223.21875 L 836.914062 223.21875 L 836.914062 469.21875 L 602.914062 469.21875 Z M 602.914062 223.21875 " clip-rule="nonzero"/></clipPath><clipPath id="a3fc708f66"><path d="M 602.914062 231.46875 L 602.914062 461.234375 C 602.914062 465.789062 606.605469 469.484375 611.164062 469.484375 L 828.835938 469.484375 C 833.394531 469.484375 837.085938 465.789062 837.085938 461.234375 L 837.085938 231.46875 C 837.085938 229.28125 836.21875 227.183594 834.671875 225.636719 C 833.125 224.089844 831.027344 223.21875 828.835938 223.21875 L 611.164062 223.21875 C 606.605469 223.21875 602.914062 226.914062 602.914062 231.46875 Z M 602.914062 231.46875 " clip-rule="nonzero"/></clipPath></defs><g mask="url(#a47af55b4e)"><g transform="matrix(1, 0, 0, 1, 510, 150)"><g clip-path="url(#c627b5c98e)"><g clip-path="url(#659535b905)"><g clip-path="url(#14343c57cc)"><path fill="#ffffff" d="M 0.160156 0.921875 L 383.429688 0.921875 L 383.429688 508.457031 L 0.160156 508.457031 Z M 0.160156 0.921875 " fill-opacity="1" fill-rule="nonzero"/></g></g></g></g></g><g clip-path="url(#132de250a4)"><g clip-path="url(#a3fc708f66)"><path fill="#050404" d="M 637.632812 438.878906 C 634.507812 435.75 632.5625 431.417969 632.5625 426.648438 L 624.378906 426.648438 C 624.378906 431.324219 622.507812 435.578125 619.484375 438.695312 L 619.28125 438.878906 C 616.140625 442.019531 611.808594 443.972656 607.046875 443.972656 L 607.046875 452.152344 C 611.808594 452.152344 616.140625 454.105469 619.28125 457.242188 C 622.421875 460.382812 624.371094 464.71875 624.371094 469.476562 L 632.554688 469.476562 C 632.554688 464.71875 634.507812 460.382812 637.644531 457.242188 C 640.785156 454.105469 645.121094 452.152344 649.878906 452.152344 L 649.878906 443.972656 C 645.121094 443.972656 640.785156 442.019531 637.644531 438.878906 Z M 631.863281 451.464844 C 630.589844 452.738281 629.453125 454.148438 628.464844 455.660156 C 627.480469 454.140625 626.34375 452.738281 625.066406 451.464844 C 623.792969 450.1875 622.382812 449.050781 620.871094 448.066406 C 622.390625 447.078125 623.792969 445.941406 625.066406 444.667969 L 625.296875 444.414062 C 626.476562 443.203125 627.542969 441.871094 628.464844 440.441406 C 629.453125 441.964844 630.597656 443.378906 631.871094 444.660156 C 633.140625 445.941406 634.550781 447.078125 636.0625 448.066406 C 634.550781 449.050781 633.140625 450.1875 631.863281 451.464844 Z M 606.550781 244.027344 C 608.753906 246.230469 611.800781 247.597656 615.148438 247.597656 C 618.511719 247.597656 621.566406 246.230469 623.769531 244.027344 L 623.769531 244.007812 C 625.972656 241.804688 627.339844 238.757812 627.339844 235.410156 C 627.339844 232.046875 625.972656 228.992188 623.769531 226.789062 L 623.75 226.789062 C 621.546875 224.585938 618.5 223.21875 615.148438 223.21875 C 611.925781 223.21875 608.988281 224.480469 606.808594 226.539062 L 606.53125 226.789062 C 604.328125 228.992188 602.960938 232.042969 602.960938 235.410156 C 602.960938 238.765625 604.328125 241.804688 606.53125 244.007812 Z M 612.3125 232.570312 L 612.453125 232.417969 C 613.160156 231.78125 614.105469 231.394531 615.144531 231.394531 C 616.257812 231.394531 617.261719 231.84375 617.980469 232.566406 C 618.703125 233.292969 619.152344 234.292969 619.152344 235.402344 C 619.152344 236.515625 618.703125 237.519531 617.976562 238.242188 C 617.25 238.96875 616.246094 239.417969 615.144531 239.417969 C 614.03125 239.417969 613.027344 238.96875 612.300781 238.253906 C 611.585938 237.527344 611.136719 236.523438 611.136719 235.410156 C 611.140625 234.300781 611.589844 233.296875 612.3125 232.570312 Z M 799.824219 443.78125 L 799.824219 444.128906 C 799.824219 446.390625 797.992188 448.21875 795.738281 448.21875 C 793.476562 448.21875 791.648438 446.382812 791.648438 444.128906 L 791.648438 443.78125 C 791.648438 441.519531 793.484375 439.691406 795.738281 439.691406 C 797.996094 439.6875 799.824219 441.519531 799.824219 443.78125 Z M 607.054688 359.441406 C 604.796875 359.441406 602.964844 357.609375 602.964844 355.355469 L 602.964844 355.003906 C 602.964844 352.746094 604.800781 350.917969 607.054688 350.917969 C 609.308594 350.917969 611.140625 352.75 611.140625 355.003906 L 611.140625 355.355469 C 611.140625 357.609375 609.3125 359.441406 607.054688 359.441406 Z M 795.367188 354.589844 L 746.964844 444.101562 C 746.632812 444.714844 746.480469 445.378906 746.46875 446.03125 L 746.46875 457.304688 C 746.46875 461.769531 742.847656 465.390625 738.382812 465.390625 L 680.433594 465.390625 C 677.359375 465.390625 674.542969 463.660156 673.191406 460.902344 C 671.488281 457.398438 669.703125 452.964844 668.125 447.664062 C 666.070312 440.738281 664.378906 432.378906 663.679688 422.753906 C 660.171875 394.3125 663.589844 338.847656 663.589844 307.496094 C 663.589844 305.320312 664.480469 303.34375 665.917969 301.910156 C 667.351562 300.476562 669.328125 299.582031 671.5 299.582031 C 673.671875 299.582031 675.648438 300.476562 677.082031 301.910156 C 678.519531 303.34375 679.410156 305.328125 679.410156 307.496094 L 679.410156 354.09375 C 679.410156 356.171875 680.90625 358.027344 682.96875 358.285156 C 685.464844 358.597656 687.59375 356.660156 687.59375 354.226562 L 687.59375 284.8125 C 687.59375 282.636719 688.480469 280.660156 689.921875 279.230469 C 691.355469 277.796875 693.332031 276.902344 695.503906 276.902344 C 697.675781 276.902344 699.652344 277.796875 701.089844 279.230469 L 701.265625 279.398438 C 702.597656 280.8125 703.414062 282.726562 703.414062 284.8125 L 703.414062 354.226562 C 703.414062 356.660156 705.539062 358.597656 708.039062 358.285156 C 710.101562 358.027344 711.597656 356.171875 711.597656 354.09375 L 711.597656 260.28125 C 711.597656 258.109375 712.488281 256.132812 713.925781 254.695312 C 715.359375 253.261719 717.335938 252.371094 719.507812 252.371094 C 721.679688 252.371094 723.65625 253.261719 725.09375 254.695312 L 725.269531 254.863281 C 726.601562 256.277344 727.417969 258.195312 727.417969 260.28125 L 727.4375 277.859375 C 727.425781 278.089844 727.425781 278.324219 727.425781 278.558594 L 727.445312 352.425781 C 727.425781 354.683594 729.261719 356.511719 731.519531 356.511719 C 733.777344 356.511719 735.605469 354.675781 735.605469 352.425781 L 735.589844 278.558594 C 735.605469 276.386719 736.5 274.410156 737.933594 272.976562 C 739.367188 271.542969 741.34375 270.648438 743.519531 270.648438 C 745.699219 270.648438 747.679688 271.535156 749.101562 272.964844 C 750.542969 274.402344 751.429688 276.378906 751.429688 278.566406 L 751.429688 375.777344 C 751.429688 377.140625 752.101562 378.355469 753.128906 379.09375 C 753.800781 379.582031 754.625 379.863281 755.515625 379.863281 C 756.882812 379.863281 758.097656 379.191406 758.835938 378.164062 C 758.910156 378.066406 758.972656 377.96875 759.03125 377.863281 L 782.773438 344.890625 C 784.039062 343.128906 785.921875 342.042969 787.9375 341.710938 C 789.949219 341.386719 792.082031 341.816406 793.839844 343.085938 C 795.472656 344.261719 796.394531 345.929688 796.699219 347.75 C 797.0625 349.925781 796.574219 352.355469 795.367188 354.589844 Z M 796.277344 261.640625 C 797.546875 262.921875 798.957031 264.0625 800.472656 265.046875 C 798.949219 266.03125 797.546875 267.171875 796.273438 268.445312 C 795 269.71875 793.859375 271.128906 792.875 272.644531 C 791.890625 271.121094 790.75 269.71875 789.476562 268.445312 C 788.203125 267.171875 786.792969 266.03125 785.277344 265.046875 C 786.796875 264.0625 788.203125 262.921875 789.476562 261.648438 L 789.703125 261.394531 C 790.886719 260.183594 791.949219 258.851562 792.875 257.425781 C 793.867188 258.945312 795.011719 260.355469 796.277344 261.640625 Z M 837.027344 371.535156 C 837.027344 373.878906 836.082031 376.003906 834.542969 377.535156 C 833.003906 379.070312 830.882812 380.023438 828.539062 380.023438 C 826.191406 380.023438 824.070312 379.074219 822.535156 377.535156 C 821.003906 376.003906 820.050781 373.878906 820.050781 371.535156 C 820.050781 369.1875 820.996094 367.0625 822.535156 365.53125 C 824.070312 364 826.191406 363.042969 828.539062 363.042969 C 830.882812 363.042969 833.007812 363.992188 834.542969 365.53125 C 836.074219 367.070312 837.027344 369.195312 837.027344 371.535156 Z M 821.761719 386.765625 C 819.882812 385.929688 818.191406 384.75 816.761719 383.324219 C 813.746094 380.308594 811.878906 376.140625 811.878906 371.539062 C 811.878906 366.941406 813.746094 362.773438 816.761719 359.757812 C 818.308594 358.210938 820.160156 356.960938 822.214844 356.117188 C 823.582031 355.558594 824.449219 354.199219 824.449219 352.71875 L 824.449219 261.554688 C 824.449219 253.269531 821.058594 245.726562 815.589844 240.261719 C 810.125 234.792969 802.582031 231.402344 794.296875 231.402344 L 666.121094 231.402344 C 657.832031 231.402344 650.292969 234.792969 644.824219 240.261719 C 639.355469 245.726562 635.957031 253.269531 635.957031 261.554688 L 635.957031 385.226562 C 635.957031 392.40625 638.496094 399.015625 642.707031 404.199219 C 644.695312 406.644531 647.058594 408.773438 649.699219 410.503906 C 652.15625 412.109375 655.414062 410.320312 655.414062 407.390625 L 655.414062 307.488281 C 655.414062 303.0625 657.222656 299.035156 660.136719 296.117188 C 663.046875 293.207031 667.074219 291.394531 671.507812 291.394531 C 674.375 291.394531 677.078125 292.160156 679.417969 293.488281 L 679.417969 284.808594 C 679.417969 280.394531 681.226562 276.375 684.140625 273.4375 C 687.050781 270.523438 691.078125 268.714844 695.511719 268.714844 C 698.378906 268.714844 701.082031 269.480469 703.421875 270.808594 L 703.421875 260.28125 C 703.421875 255.855469 705.230469 251.820312 708.144531 248.910156 C 711.054688 245.996094 715.082031 244.1875 719.515625 244.1875 C 723.945312 244.1875 727.96875 245.996094 730.886719 248.910156 L 731.125 249.175781 C 733.894531 252.066406 735.605469 255.988281 735.59375 260.28125 L 735.59375 264.566406 C 737.941406 263.230469 740.648438 262.464844 743.523438 262.464844 C 747.933594 262.464844 751.953125 264.277344 754.890625 267.207031 C 757.808594 270.136719 759.617188 274.152344 759.617188 278.558594 L 759.617188 351.628906 C 759.617188 355.226562 764.226562 356.714844 766.328125 353.796875 L 776.164062 340.128906 C 778.75 336.535156 782.574219 334.324219 786.632812 333.664062 C 790.6875 333.007812 795.011719 333.886719 798.605469 336.472656 C 802.132812 339.007812 804.121094 342.566406 804.75 346.445312 C 805.398438 350.40625 804.589844 354.683594 802.546875 358.464844 L 774.71875 409.917969 C 773.382812 412.386719 775.175781 415.386719 777.976562 415.386719 L 794.285156 415.386719 C 802.570312 415.386719 810.113281 411.996094 815.578125 406.527344 C 819.789062 402.316406 822.769531 396.875 823.921875 390.804688 C 824.246094 389.117188 823.316406 387.460938 821.761719 386.765625 Z M 673.402344 245.183594 C 673.445312 245.183594 673.484375 245.191406 673.527344 245.191406 C 673.425781 245.191406 673.324219 245.191406 673.222656 245.199219 C 673.277344 245.191406 673.339844 245.183594 673.402344 245.183594 Z M 673.527344 253.710938 C 673.484375 253.710938 673.445312 253.71875 673.402344 253.71875 C 673.339844 253.71875 673.277344 253.710938 673.21875 253.710938 C 673.324219 253.710938 673.421875 253.710938 673.527344 253.710938 Z M 672.058594 245.394531 C 672.289062 245.320312 672.507812 245.277344 672.730469 245.242188 C 671.359375 245.46875 670.214844 246.378906 669.664062 247.617188 C 670.109375 246.589844 670.953125 245.75 672.058594 245.394531 Z M 672.730469 253.65625 C 672.507812 253.621094 672.289062 253.578125 672.058594 253.503906 C 670.953125 253.144531 670.109375 252.316406 669.664062 251.28125 C 670.214844 252.519531 671.359375 253.429688 672.730469 253.65625 Z M 673.617188 257.375 C 673.617188 259.929688 671.273438 261.9375 668.617188 261.371094 C 666.730469 260.964844 665.4375 259.191406 665.4375 257.257812 L 665.4375 257.164062 C 665.4375 255.214844 666.730469 253.441406 668.617188 253.035156 C 671.273438 252.460938 673.617188 254.476562 673.617188 257.03125 Z M 677.492188 249.625 Z M 677.492188 249.273438 Z M 802.058594 274.226562 C 798.921875 277.363281 796.96875 281.699219 796.96875 286.457031 L 788.785156 286.457031 C 788.785156 281.699219 786.835938 277.363281 783.695312 274.226562 C 780.554688 271.085938 776.222656 269.132812 771.460938 269.132812 L 771.460938 260.953125 C 776.222656 260.953125 780.554688 259 783.695312 255.859375 L 783.898438 255.675781 C 786.921875 252.5625 788.792969 248.304688 788.792969 243.628906 L 793.121094 243.585938 C 793.121094 243.585938 796.972656 243.628906 796.972656 243.628906 C 796.972656 248.398438 798.921875 252.734375 802.066406 255.859375 C 805.207031 259 809.539062 260.953125 814.296875 260.953125 L 814.296875 269.132812 C 809.535156 269.132812 805.199219 271.078125 802.058594 274.226562 Z M 802.058594 274.226562 " fill-opacity="1" fill-rule="evenodd"/></g></g></svg>