<svg xmlns="http://www.w3.org/2000/svg" xmlns:xlink="http://www.w3.org/1999/xlink" width="200" zoomAndPan="magnify" viewBox="0 0 150 149.999998" height="200" preserveAspectRatio="xMidYMid meet" version="1.0"><defs><clipPath id="05b6ae714d"><path d="M 26 15.546875 L 83 15.546875 L 83 21 L 26 21 Z M 26 15.546875 " clip-rule="nonzero"/></clipPath><clipPath id="627e97e082"><path d="M 2 118 L 50 118 L 50 134.796875 L 2 134.796875 Z M 2 118 " clip-rule="nonzero"/></clipPath><clipPath id="2ea5f8d2c9"><path d="M 0 15.546875 L 94 15.546875 L 94 78 L 0 78 Z M 0 15.546875 " clip-rule="nonzero"/></clipPath></defs><path fill="#050404" d="M 108.800781 23.300781 L 108.800781 49.148438 C 108.800781 50.570312 107.644531 51.730469 106.214844 51.730469 L 98.460938 51.730469 L 98.460938 20.714844 L 106.214844 20.714844 C 107.644531 20.714844 108.800781 21.875 108.800781 23.300781 Z M 108.800781 23.300781 " fill-opacity="1" fill-rule="nonzero"/><path fill="#050404" d="M 124.308594 25.882812 L 113.96875 25.882812 L 113.96875 46.5625 L 124.308594 46.5625 Z M 124.308594 25.882812 " fill-opacity="1" fill-rule="nonzero"/><path fill="#050404" d="M 57.105469 62.070312 L 59.691406 62.070312 L 59.691406 69.824219 C 59.691406 71.25 58.53125 72.410156 57.105469 72.410156 L 54.519531 72.410156 L 54.519531 64.65625 C 54.519531 63.230469 55.679688 62.070312 57.105469 62.070312 Z M 57.105469 62.070312 " fill-opacity="1" fill-rule="nonzero"/><g clip-path="url(#05b6ae714d)"><path fill="#050404" d="M 80.367188 20.714844 L 28.671875 20.714844 C 27.246094 20.714844 26.089844 19.554688 26.089844 18.128906 L 26.089844 15.546875 L 82.953125 15.546875 L 82.953125 18.128906 C 82.953125 19.554688 81.796875 20.714844 80.367188 20.714844 Z M 80.367188 20.714844 " fill-opacity="1" fill-rule="nonzero"/></g><path fill="#050404" d="M 134.648438 40.101562 L 129.480469 43.976562 L 129.480469 28.46875 L 134.648438 32.347656 Z M 134.648438 40.101562 " fill-opacity="1" fill-rule="nonzero"/><g clip-path="url(#627e97e082)"><path fill="#050404" d="M 7.996094 121.519531 C 7.996094 125.796875 11.476562 129.273438 15.75 129.273438 L 26.089844 129.273438 C 30.363281 129.273438 33.84375 125.796875 33.84375 121.519531 L 33.84375 118.933594 L 49.351562 118.933594 L 49.351562 131.859375 C 49.351562 133.285156 48.195312 134.445312 46.765625 134.445312 L 5.410156 134.445312 C 3.984375 134.445312 2.824219 133.285156 2.824219 131.859375 L 2.824219 118.933594 L 7.996094 118.933594 Z M 39.011719 129.273438 L 44.183594 129.273438 L 44.183594 124.105469 L 39.011719 124.105469 Z M 39.011719 129.273438 " fill-opacity="1" fill-rule="nonzero"/></g><path fill="#050404" d="M 149.699219 36.222656 C 148.433594 37.84375 146.492188 38.808594 144.375 38.808594 L 139.816406 38.808594 L 139.816406 33.640625 L 144.375 33.640625 C 146.492188 33.640625 148.433594 34.601562 149.699219 36.222656 Z M 149.699219 36.222656 " fill-opacity="1" fill-rule="nonzero"/><path fill="#050404" d="M 45.882812 110.027344 L 47.753906 113.765625 L 4.421875 113.765625 L 6.292969 110.027344 C 6.734375 109.144531 7.621094 108.597656 8.605469 108.597656 L 43.570312 108.597656 C 44.554688 108.597656 45.441406 109.144531 45.882812 110.027344 Z M 45.882812 110.027344 " fill-opacity="1" fill-rule="nonzero"/><g clip-path="url(#2ea5f8d2c9)"><path fill="#050404" d="M 0.242188 36.222656 L 0.242188 33.640625 C 0.242188 32.761719 0.328125 31.902344 0.449219 31.054688 L 15.75 31.054688 L 15.75 25.882812 L 2.011719 25.882812 C 4.921875 19.78125 11.136719 15.546875 18.335938 15.546875 L 20.917969 15.546875 L 20.917969 18.128906 C 20.917969 22.40625 24.398438 25.882812 28.671875 25.882812 L 80.367188 25.882812 C 84.644531 25.882812 88.121094 22.40625 88.121094 18.128906 L 88.121094 15.546875 L 90.707031 15.546875 C 92.132812 15.546875 93.292969 16.707031 93.292969 18.128906 L 93.292969 54.316406 C 93.292969 55.742188 92.132812 56.902344 90.707031 56.902344 L 57.105469 56.902344 C 52.832031 56.902344 49.351562 60.378906 49.351562 64.65625 L 49.351562 73.398438 L 41.089844 77.527344 C 35.625 77.257812 31.257812 72.765625 31.257812 67.242188 L 31.257812 62.070312 C 31.257812 53.519531 24.304688 46.5625 15.75 46.5625 L 2.011719 46.5625 C 1.246094 44.953125 0.710938 43.21875 0.449219 41.394531 L 15.75 41.394531 L 15.75 36.222656 Z M 75.199219 46.5625 C 75.199219 47.988281 76.355469 49.148438 77.785156 49.148438 L 82.953125 49.148438 C 84.378906 49.148438 85.539062 47.988281 85.539062 46.5625 L 85.539062 41.394531 C 85.539062 39.964844 84.378906 38.808594 82.953125 38.808594 L 77.785156 38.808594 C 76.355469 38.808594 75.199219 39.964844 75.199219 41.394531 Z M 54.519531 46.5625 C 54.519531 47.988281 55.679688 49.148438 57.105469 49.148438 L 62.273438 49.148438 C 63.703125 49.148438 64.859375 47.988281 64.859375 46.5625 L 64.859375 41.394531 C 64.859375 39.964844 63.703125 38.808594 62.273438 38.808594 L 57.105469 38.808594 C 55.679688 38.808594 54.519531 39.964844 54.519531 41.394531 Z M 54.519531 46.5625 " fill-opacity="1" fill-rule="nonzero"/></g><path fill="#050404" d="M 26.089844 124.105469 L 15.75 124.105469 C 14.324219 124.105469 13.164062 122.945312 13.164062 121.519531 L 13.164062 118.933594 L 28.671875 118.933594 L 28.671875 121.519531 C 28.671875 122.945312 27.515625 124.105469 26.089844 124.105469 Z M 26.089844 124.105469 " fill-opacity="1" fill-rule="nonzero"/><path fill="#050404" d="M 18.335938 56.902344 C 13.417969 56.902344 8.960938 54.925781 5.699219 51.730469 L 15.75 51.730469 C 21.453125 51.730469 26.089844 56.367188 26.089844 62.070312 L 26.089844 67.242188 C 26.089844 74.910156 31.691406 81.277344 39.011719 82.515625 L 39.011719 103.425781 L 13.164062 103.425781 L 13.164062 100.84375 C 13.164062 94.292969 14.332031 87.863281 16.632812 81.730469 L 17.125 80.414062 C 19.640625 73.699219 20.917969 66.660156 20.917969 59.484375 L 20.917969 56.902344 Z M 18.335938 56.902344 " fill-opacity="1" fill-rule="nonzero"/></svg>