<svg xmlns="http://www.w3.org/2000/svg" xmlns:xlink="http://www.w3.org/1999/xlink" width="1920" zoomAndPan="magnify" viewBox="0 0 1440 809.999993" height="1080" preserveAspectRatio="xMidYMid meet" version="1.0"><defs><filter x="0%" y="0%" width="100%" height="100%" id="5cf36ecd7f"><feColorMatrix values="0 0 0 0 1 0 0 0 0 1 0 0 0 0 1 0 0 0 1 0" color-interpolation-filters="sRGB"/></filter><mask id="78bfaa4336"><g filter="url(#5cf36ecd7f)"><rect x="-144" width="1728" fill="#000000" y="-80.999999" height="971.999992" fill-opacity="0.89"/></g></mask><clipPath id="f35d38e518"><path d="M 0.160156 0.921875 L 383.429688 0.921875 L 383.429688 509 L 0.160156 509 Z M 0.160156 0.921875 " clip-rule="nonzero"/></clipPath><clipPath id="1fb69d1ec4"><path d="M 8.410156 0.921875 L 375.179688 0.921875 C 377.367188 0.921875 379.46875 1.789062 381.015625 3.339844 C 382.5625 4.886719 383.429688 6.984375 383.429688 9.171875 L 383.429688 500.828125 C 383.429688 503.015625 382.5625 505.113281 381.015625 506.660156 C 379.46875 508.210938 377.367188 509.078125 375.179688 509.078125 L 8.410156 509.078125 C 6.222656 509.078125 4.121094 508.210938 2.574219 506.660156 C 1.027344 505.113281 0.160156 503.015625 0.160156 500.828125 L 0.160156 9.171875 C 0.160156 6.984375 1.027344 4.886719 2.574219 3.339844 C 4.121094 1.789062 6.222656 0.921875 8.410156 0.921875 Z M 8.410156 0.921875 " clip-rule="nonzero"/></clipPath><clipPath id="59dfa6b858"><rect x="0" width="384" y="0" height="510"/></clipPath><clipPath id="dce207a025"><path d="M 611.449219 238.769531 L 828.199219 238.769531 L 828.199219 455.519531 L 611.449219 455.519531 Z M 611.449219 238.769531 " clip-rule="nonzero"/></clipPath><clipPath id="62406d81ac"><path d="M 611.449219 247.769531 L 611.449219 446.871094 C 611.449219 451.839844 615.480469 455.871094 620.449219 455.871094 L 819.550781 455.871094 C 824.519531 455.871094 828.550781 451.839844 828.550781 446.871094 L 828.550781 247.769531 C 828.550781 242.796875 824.519531 238.769531 819.550781 238.769531 L 620.449219 238.769531 C 615.480469 238.769531 611.449219 242.796875 611.449219 247.769531 Z M 611.449219 247.769531 " clip-rule="nonzero"/></clipPath></defs><g mask="url(#78bfaa4336)"><g transform="matrix(1, 0, 0, 1, 510, 150)"><g clip-path="url(#59dfa6b858)"><g clip-path="url(#f35d38e518)"><g clip-path="url(#1fb69d1ec4)"><path fill="#ffffff" d="M 0.160156 0.921875 L 383.429688 0.921875 L 383.429688 508.457031 L 0.160156 508.457031 Z M 0.160156 0.921875 " fill-opacity="1" fill-rule="nonzero"/></g></g></g></g></g><g clip-path="url(#dce207a025)"><g clip-path="url(#62406d81ac)"><path fill="#050404" d="M 719.9375 238.644531 C 779.882812 238.644531 828.550781 287.3125 828.550781 347.253906 C 828.550781 407.203125 779.882812 455.871094 719.9375 455.871094 C 659.992188 455.871094 611.328125 407.203125 611.328125 347.253906 C 611.328125 287.3125 659.992188 238.644531 719.9375 238.644531 Z M 759.132812 352.234375 C 760.902344 351.199219 761.992188 349.304688 761.992188 347.253906 C 761.992188 345.207031 760.902344 343.316406 759.132812 342.28125 L 701.464844 308.507812 C 699.683594 307.464844 697.476562 307.453125 695.683594 308.480469 C 693.890625 309.511719 692.785156 311.421875 692.785156 313.488281 L 692.785156 381.027344 C 692.785156 383.09375 693.890625 385.003906 695.683594 386.03125 C 697.476562 387.058594 699.683594 387.046875 701.464844 386.003906 Z M 759.132812 352.234375 " fill-opacity="1" fill-rule="evenodd"/></g></g></svg>