<svg xmlns="http://www.w3.org/2000/svg" xmlns:xlink="http://www.w3.org/1999/xlink" width="1920" zoomAndPan="magnify" viewBox="0 0 1440 809.999993" height="1080" preserveAspectRatio="xMidYMid meet" version="1.0"><defs><filter x="0%" y="0%" width="100%" height="100%" id="7792b9fefc"><feColorMatrix values="0 0 0 0 1 0 0 0 0 1 0 0 0 0 1 0 0 0 1 0" color-interpolation-filters="sRGB"/></filter><mask id="a13de03384"><g filter="url(#7792b9fefc)"><rect x="-144" width="1728" fill="#000000" y="-80.999999" height="971.999992" fill-opacity="0.89"/></g></mask><clipPath id="12f4a9eae1"><path d="M 0.160156 0.921875 L 383.429688 0.921875 L 383.429688 509 L 0.160156 509 Z M 0.160156 0.921875 " clip-rule="nonzero"/></clipPath><clipPath id="625af4f3d5"><path d="M 8.410156 0.921875 L 375.179688 0.921875 C 377.367188 0.921875 379.46875 1.789062 381.015625 3.339844 C 382.5625 4.886719 383.429688 6.984375 383.429688 9.171875 L 383.429688 500.828125 C 383.429688 503.015625 382.5625 505.113281 381.015625 506.660156 C 379.46875 508.210938 377.367188 509.078125 375.179688 509.078125 L 8.410156 509.078125 C 6.222656 509.078125 4.121094 508.210938 2.574219 506.660156 C 1.027344 505.113281 0.160156 503.015625 0.160156 500.828125 L 0.160156 9.171875 C 0.160156 6.984375 1.027344 4.886719 2.574219 3.339844 C 4.121094 1.789062 6.222656 0.921875 8.410156 0.921875 Z M 8.410156 0.921875 " clip-rule="nonzero"/></clipPath><clipPath id="8c20e4dedf"><rect x="0" width="384" y="0" height="510"/></clipPath><clipPath id="eefe237531"><path d="M 662 250.378906 L 754 250.378906 L 754 259 L 662 259 Z M 662 250.378906 " clip-rule="nonzero"/></clipPath><clipPath id="f4105d69a2"><path d="M 624 417 L 700 417 L 700 442.378906 L 624 442.378906 Z M 624 417 " clip-rule="nonzero"/></clipPath><clipPath id="a276c6a447"><path d="M 620 250.378906 L 771 250.378906 L 771 351 L 620 351 Z M 620 250.378906 " clip-rule="nonzero"/></clipPath></defs><g mask="url(#a13de03384)"><g transform="matrix(1, 0, 0, 1, 510, 150)"><g clip-path="url(#8c20e4dedf)"><g clip-path="url(#12f4a9eae1)"><g clip-path="url(#625af4f3d5)"><path fill="#ffffff" d="M 0.160156 0.921875 L 383.429688 0.921875 L 383.429688 508.457031 L 0.160156 508.457031 Z M 0.160156 0.921875 " fill-opacity="1" fill-rule="nonzero"/></g></g></g></g></g><path fill="#050404" d="M 795.589844 262.898438 L 795.589844 304.636719 C 795.589844 306.9375 793.71875 308.8125 791.414062 308.8125 L 778.894531 308.8125 L 778.894531 258.726562 L 791.414062 258.726562 C 793.71875 258.726562 795.589844 260.597656 795.589844 262.898438 Z M 795.589844 262.898438 " fill-opacity="1" fill-rule="nonzero"/><path fill="#050404" d="M 820.632812 267.074219 L 803.9375 267.074219 L 803.9375 300.464844 L 820.632812 300.464844 Z M 820.632812 267.074219 " fill-opacity="1" fill-rule="nonzero"/><path fill="#050404" d="M 712.113281 325.507812 L 716.285156 325.507812 L 716.285156 338.03125 C 716.285156 340.328125 714.414062 342.203125 712.113281 342.203125 L 707.9375 342.203125 L 707.9375 329.683594 C 707.9375 327.382812 709.808594 325.507812 712.113281 325.507812 Z M 712.113281 325.507812 " fill-opacity="1" fill-rule="nonzero"/><g clip-path="url(#eefe237531)"><path fill="#050404" d="M 749.675781 258.726562 L 666.199219 258.726562 C 663.894531 258.726562 662.023438 256.851562 662.023438 254.550781 L 662.023438 250.378906 L 753.851562 250.378906 L 753.851562 254.550781 C 753.851562 256.851562 751.980469 258.726562 749.675781 258.726562 Z M 749.675781 258.726562 " fill-opacity="1" fill-rule="nonzero"/></g><path fill="#050404" d="M 837.328125 290.03125 L 828.980469 296.289062 L 828.980469 271.246094 L 837.328125 277.507812 Z M 837.328125 290.03125 " fill-opacity="1" fill-rule="nonzero"/><g clip-path="url(#f4105d69a2)"><path fill="#050404" d="M 632.808594 421.507812 C 632.808594 428.410156 638.425781 434.03125 645.328125 434.03125 L 662.023438 434.03125 C 668.929688 434.03125 674.546875 428.410156 674.546875 421.507812 L 674.546875 417.335938 L 699.589844 417.335938 L 699.589844 438.203125 C 699.589844 440.503906 697.71875 442.378906 695.414062 442.378906 L 628.632812 442.378906 C 626.328125 442.378906 624.460938 440.503906 624.460938 438.203125 L 624.460938 417.335938 L 632.808594 417.335938 Z M 682.894531 434.03125 L 691.242188 434.03125 L 691.242188 425.683594 L 682.894531 425.683594 Z M 682.894531 434.03125 " fill-opacity="1" fill-rule="nonzero"/></g><path fill="#050404" d="M 861.632812 283.769531 C 859.589844 286.386719 856.453125 287.941406 853.035156 287.941406 L 845.671875 287.941406 L 845.671875 279.59375 L 853.035156 279.59375 C 856.453125 279.59375 859.589844 281.152344 861.632812 283.769531 Z M 861.632812 283.769531 " fill-opacity="1" fill-rule="nonzero"/><path fill="#050404" d="M 693.988281 402.945312 L 697.011719 408.988281 L 627.039062 408.988281 L 630.0625 402.945312 C 630.769531 401.523438 632.203125 400.636719 633.792969 400.636719 L 690.253906 400.636719 C 691.84375 400.636719 693.273438 401.523438 693.988281 402.945312 Z M 693.988281 402.945312 " fill-opacity="1" fill-rule="nonzero"/><g clip-path="url(#a276c6a447)"><path fill="#050404" d="M 620.285156 283.769531 L 620.285156 279.59375 C 620.285156 278.175781 620.421875 276.789062 620.621094 275.421875 L 645.328125 275.421875 L 645.328125 267.074219 L 623.144531 267.074219 C 627.84375 257.21875 637.878906 250.378906 649.503906 250.378906 L 653.675781 250.378906 L 653.675781 254.550781 C 653.675781 261.457031 659.292969 267.074219 666.199219 267.074219 L 749.675781 267.074219 C 756.582031 267.074219 762.199219 261.457031 762.199219 254.550781 L 762.199219 250.378906 L 766.371094 250.378906 C 768.675781 250.378906 770.546875 252.25 770.546875 254.550781 L 770.546875 312.988281 C 770.546875 315.285156 768.675781 317.160156 766.371094 317.160156 L 712.113281 317.160156 C 705.207031 317.160156 699.589844 322.777344 699.589844 329.683594 L 699.589844 343.796875 L 686.246094 350.46875 C 677.425781 350.03125 670.371094 342.78125 670.371094 333.855469 L 670.371094 325.507812 C 670.371094 311.695312 659.140625 300.464844 645.328125 300.464844 L 623.144531 300.464844 C 621.90625 297.867188 621.039062 295.0625 620.621094 292.117188 L 645.328125 292.117188 L 645.328125 283.769531 Z M 741.328125 300.464844 C 741.328125 302.769531 743.199219 304.636719 745.503906 304.636719 L 753.851562 304.636719 C 756.15625 304.636719 758.023438 302.769531 758.023438 300.464844 L 758.023438 292.117188 C 758.023438 289.8125 756.15625 287.941406 753.851562 287.941406 L 745.503906 287.941406 C 743.199219 287.941406 741.328125 289.8125 741.328125 292.117188 Z M 707.9375 300.464844 C 707.9375 302.769531 709.808594 304.636719 712.113281 304.636719 L 720.460938 304.636719 C 722.761719 304.636719 724.632812 302.769531 724.632812 300.464844 L 724.632812 292.117188 C 724.632812 289.8125 722.761719 287.941406 720.460938 287.941406 L 712.113281 287.941406 C 709.808594 287.941406 707.9375 289.8125 707.9375 292.117188 Z M 707.9375 300.464844 " fill-opacity="1" fill-rule="nonzero"/></g><path fill="#050404" d="M 662.023438 425.683594 L 645.328125 425.683594 C 643.023438 425.683594 641.15625 423.808594 641.15625 421.507812 L 641.15625 417.335938 L 666.199219 417.335938 L 666.199219 421.507812 C 666.199219 423.808594 664.328125 425.683594 662.023438 425.683594 Z M 662.023438 425.683594 " fill-opacity="1" fill-rule="nonzero"/><path fill="#050404" d="M 649.503906 317.160156 C 641.5625 317.160156 634.363281 313.96875 629.097656 308.8125 L 645.328125 308.8125 C 654.535156 308.8125 662.023438 316.300781 662.023438 325.507812 L 662.023438 333.855469 C 662.023438 346.238281 671.070312 356.523438 682.894531 358.523438 L 682.894531 392.289062 L 641.15625 392.289062 L 641.15625 388.117188 C 641.15625 377.539062 643.039062 367.15625 646.753906 357.253906 L 647.550781 355.128906 C 651.613281 344.285156 653.675781 332.917969 653.675781 321.335938 L 653.675781 317.160156 Z M 649.503906 317.160156 " fill-opacity="1" fill-rule="nonzero"/></svg>