<?xml version="1.0" encoding="UTF-8"?>
<svg version="1.1" xmlns="http://www.w3.org/2000/svg" width="3375" height="3375">
<path d="M0 0 C2.40177187 0.00544879 4.80353386 0.0078102 7.20531082 0.00987244 C31.03431719 0.04172585 54.70015237 0.56592768 78.41469193 3.09324646 C80.55746311 3.31882068 82.70117856 3.53110153 84.84566116 3.73973083 C154.00665301 10.52254247 223.12925524 27.13685455 287.54829788 53.31785583 C288.68476761 53.77740662 289.82123734 54.2369574 290.99214554 54.71043396 C309.53248024 62.23072359 327.62126801 70.42428336 345.54829788 79.31785583 C347.04676868 80.05399541 348.54543961 80.78972788 350.04439163 81.52488708 C353.22105191 83.08980779 356.38335877 84.68084168 359.53706741 86.29148865 C360.96085538 87.01807333 362.38650113 87.7410229 363.8134346 88.46141052 C401.03796984 107.29538696 436.25822636 130.23564518 469.54829788 155.31785583 C470.44983597 155.99558044 470.44983597 155.99558044 471.36958694 156.68699646 C488.21010369 169.38320538 504.48068766 182.88535998 520.07173538 197.08738708 C522.14396392 198.95370017 524.23648061 200.78941372 526.34126663 202.61863708 C536.8224058 211.7755988 546.81650552 221.49701729 556.67329788 231.31785583 C557.70184891 232.33951843 557.70184891 232.33951843 558.75117874 233.38182068 C562.6072129 237.24966722 566.27017154 241.22773797 569.83784866 245.36228943 C572.61209346 248.53409942 575.5250741 251.57229456 578.42329788 254.63035583 C583.26134612 259.77500503 587.88248036 265.01049404 592.29048538 270.53269958 C594.40377968 273.13958339 596.57769043 275.67389158 598.78267288 278.20262146 C605.56442484 285.98940109 611.84261422 294.10140914 618.05366898 302.34715271 C619.38701741 304.10520377 620.73613792 305.84833728 622.09907913 307.58348083 C641.27939184 332.06898642 657.80348745 358.53696332 673.54829788 385.31785583 C674.05925003 386.17991638 674.57020218 387.04197693 675.09663773 387.93016052 C715.4087883 456.07208739 743.67208304 531.40298815 777.75142288 753.28269958 C777.75844432 754.87469511 777.76553115 756.46669034 777.77267838 758.0586853 C777.79209729 763.12424622 777.797113 768.18976146 777.79829788 773.25535583 C777.79873974 774.1183152 777.79918159 774.98127457 777.79963684 775.87038422 C777.80669087 802.13325048 777.47851881 828.19164162 774.54829788 854.31785583 C774.37467904 855.92410826 774.20134615 857.53039161 774.02827835 859.13670349 C764.69106645 944.54022291 740.96068622 1027.95193574 671.1493721 1168.63768005 C669.63840576 1171.16701652 668.15366188 1173.70966913 666.67720413 1176.25926208 C642.87635858 1217.08257163 613.64117049 1255.90893843 581.81392288 1290.80613708 C579.93113197 1292.89343804 578.07981592 1295.00120026 576.23579788 1297.12254333 C566.77098044 1307.95660437 556.70127921 1318.25696209 546.54829788 1328.44285583 C545.77195999 1329.22378601 544.9956221 1330.00471619 544.19575882 1330.80931091 C540.0683556 1334.9256285 535.85464099 1338.87064347 531.43745804 1342.67381287 C528.45992752 1345.26501091 525.60665896 1347.98484816 522.73579788 1350.69285583 C517.76510834 1355.34424762 512.68608596 1359.76935634 507.36861038 1364.02488708 C504.75193688 1366.15229338 502.20418794 1368.33732399 499.66304398 1370.5532074 C491.95649311 1377.26264348 483.95087221 1383.49838311 475.78023148 1389.63035583 C473.60053582 1391.27836025 471.44190386 1392.95065159 469.28657913 1394.63035583 C437.16575594 1419.46252107 402.13650938 1441.03245922 366.23628616 1459.89598083 C364.00281032 1461.07743073 361.78456124 1462.27889345 359.57564163 1463.50535583 C284.72620269 1504.75418556 197.80174879 1530.9289882 6.26465988 1549.76428223 C3.62313713 1549.75518305 0.98164305 1549.75126487 -1.65989304 1549.74815369 C-28.64962469 1549.70207868 -55.35118553 1548.8296214 -82.17295456 1545.58995056 C-84.38630039 1545.32566515 -86.60074503 1545.07615937 -88.81644821 1544.83250427 C-171.72808209 1535.6828857 -251.87983078 1511.24455306 -327.45170212 1476.31785583 C-329.00824509 1475.60049255 -329.00824509 1475.60049255 -330.59623337 1474.86863708 C-343.99867326 1468.66283807 -357.02965687 1461.91936547 -369.92484665 1454.72166443 C-372.24707546 1453.43153731 -374.57868354 1452.16139907 -376.91654587 1450.89988708 C-407.21145834 1434.47937613 -436.0027652 1415.1166515 -463.45170212 1394.31785583 C-464.34018845 1393.6488324 -464.34018845 1393.6488324 -465.24662399 1392.96629333 C-481.98638177 1380.34857996 -498.30831191 1367.01446366 -513.72123337 1352.80223083 C-515.89921139 1350.82055126 -518.09785871 1348.87549343 -520.31888962 1346.94285583 C-530.76131288 1337.82884495 -540.70027183 1328.16267464 -550.51420212 1318.38035583 C-551.29899948 1317.60015076 -552.08379684 1316.81994568 -552.89237595 1316.01609802 C-557.02640374 1311.87101313 -560.99065999 1307.64123683 -564.80985641 1303.20481873 C-567.40011949 1300.22784575 -570.11940575 1297.37546283 -572.82670212 1294.50535583 C-577.4780939 1289.53466629 -581.90320262 1284.45564391 -586.15873337 1279.13816833 C-588.28639289 1276.52118337 -590.47174073 1273.97316043 -592.6877861 1271.43162537 C-599.42996594 1263.6880671 -605.69815947 1255.63907229 -611.86234665 1247.4306488 C-613.38304026 1245.40913075 -614.91380358 1243.39569873 -616.44779587 1241.38426208 C-661.54831199 1182.05565147 -697.2506679 1116.00534371 -723.45170212 1046.31785583 C-723.69084335 1045.6852887 -723.92998459 1045.05272156 -724.17637253 1044.40098572 C-746.17712199 986.16648372 -760.04666551 925.06301498 -767.45170212 863.31785583 C-767.5593187 862.4278186 -767.66693527 861.53778137 -767.77781296 860.62077332 C-774.21651349 806.55215111 -774.55192064 749.45821412 -768.45170212 695.31785583 C-768.27806507 693.71844146 -768.10473269 692.11899398 -767.93168259 690.51951599 C-759.19683358 610.94752761 -738.18788148 532.72428669 -657.45170212 368.31785583 C-656.9301152 367.46933044 -656.40852829 366.62080505 -655.87113571 365.74656677 C-640.8299749 341.33830907 -624.44020905 317.65073384 -606.45170212 295.31785583 C-605.93607712 294.67606384 -605.42045212 294.03427185 -604.88920212 293.37303162 C-595.20429972 281.33383653 -585.41329636 269.41068821 -574.93607712 258.04832458 C-572.96658463 255.88374086 -571.03508728 253.69827018 -569.11576462 251.48973083 C-559.97548621 241.01649516 -550.26050648 231.03756995 -540.45170212 221.19285583 C-539.77059372 220.50715515 -539.08948532 219.82145447 -538.38773727 219.11497498 C-534.51989073 215.25894081 -530.54181999 211.59598218 -526.40726852 208.02830505 C-523.23545853 205.25406026 -520.19726339 202.34107962 -517.13920212 199.44285583 C-511.99455293 194.60480759 -506.75906392 189.98367335 -501.23685837 185.57566833 C-498.63019605 183.46255358 -496.09607296 181.28889207 -493.56766891 179.08396912 C-485.82804361 172.34395044 -477.78236204 166.07784722 -469.57767868 159.91600037 C-467.51775996 158.36751301 -465.46447567 156.81062447 -463.41263962 155.25144958 C-433.98249934 132.94425105 -402.86072923 113.02099485 -370.45170212 95.31785583 C-369.47991013 94.78225037 -368.50811813 94.2466449 -367.5068779 93.69480896 C-350.14844501 84.14598609 -332.56440441 75.37103804 -314.45170212 67.31785583 C-313.3020195 66.80625916 -312.15233688 66.29466248 -310.9678154 65.76756287 C-237.75354688 33.3865012 -160.65125093 12.71589235 -81.07670212 4.00535583 C-80.39410324 3.92981476 -79.71150436 3.85427368 -79.00822067 3.77644348 C-73.82877783 3.21365615 -68.64379926 2.74720631 -63.45170212 2.31785583 C-61.90883026 2.1886525 -61.90883026 2.1886525 -60.33478928 2.05683899 C-40.20390645 0.41995405 -20.18642191 -0.04770025 0 0 Z " fill="#050404" transform="translate(1684.45170211792,912.6821441650391)"/>
<path d="M0 0 C4.44432592 -0.0005035 8.88864984 -0.00281611 13.33297491 -0.00549722 C28.1482301 -0.0142464 42.96347822 -0.01892515 57.77873601 -0.01816674 C58.56811987 -0.01812679 59.35750373 -0.01808683 60.17080832 -0.01804566 C61.35641237 -0.01798434 61.35641237 -0.01798434 62.56596802 -0.01792178 C75.35576037 -0.01751588 88.14552321 -0.02708671 100.93530704 -0.04118403 C114.22814936 -0.05571458 127.52097745 -0.06244537 140.81382787 -0.06159025 C148.21255964 -0.06126418 155.61126008 -0.06380007 163.00998449 -0.0747683 C274.81652029 -0.23264336 274.81652029 -0.23264336 312.861238 6.73317504 C315.49572635 7.21173248 318.13445292 7.66078738 320.77432394 8.10866332 C331.41862227 9.94031206 341.91498183 11.9844547 352.25088644 15.16725707 C353.53720968 15.5612268 353.53720968 15.5612268 354.84951925 15.96315551 C382.30097946 24.48582154 408.29028582 35.70275829 431.25088644 53.16725707 C431.81195089 53.58555785 432.37301535 54.00385863 432.95108175 54.4348352 C489.36262016 96.54259321 520.96246026 159.06802326 531.31338644 227.94460082 C533.74263284 245.77710608 534.97532027 263.63874538 535.93838644 281.60475707 C535.99905294 282.69754973 536.05971945 283.7903424 536.12222433 284.91624999 C537.00749198 301.17878116 537.44696494 317.44628435 537.77652121 333.72804809 C537.79835423 334.80381921 537.82018725 335.87959033 537.84268188 336.98796058 C538.34266645 362.21365256 538.43201699 387.43688581 538.45107508 412.66685843 C538.45407287 416.46381168 538.45818735 420.26076235 538.46257925 424.05771422 C538.47461515 434.73793229 538.48502097 445.41814685 538.48845434 456.09837127 C538.48867391 456.77116155 538.48889347 457.44395183 538.48911969 458.13712969 C538.48933797 458.81075811 538.48955625 459.48438653 538.48978114 460.17842793 C538.49022448 461.54156629 538.49067104 462.90470465 538.49112082 464.26784301 C538.49134225 464.94388573 538.49156367 465.61992846 538.49179181 466.31645733 C538.49547215 476.52358804 538.51039375 486.73065773 538.53213644 496.93776488 C538.75233815 602.11870274 538.75233815 602.11870274 536.88369894 646.44069457 C536.83748199 647.55516495 536.83748199 647.55516495 536.79033136 648.69214988 C535.85738717 671.02522309 534.26546585 693.15567012 530.25088644 715.16725707 C530.04173605 716.34610473 529.83258566 717.52495238 529.61709738 718.7395227 C527.49736838 730.43618069 524.83534836 741.88211183 520.95303488 753.12428832 C520.18058548 755.3718045 519.43872503 757.62843692 518.69619894 759.88600707 C514.64702495 772.01214883 509.79793025 783.65162387 504.25088644 795.16725707 C503.93039328 795.83563598 503.60990011 796.50401488 503.27969503 797.1926477 C493.04499134 818.21411208 478.29932038 836.342054 462.25088644 853.16725707 C461.42064962 854.04051635 461.42064962 854.04051635 460.57364035 854.93141723 C452.36473886 863.51078614 443.79276917 871.10851152 434.25088644 878.16725707 C433.68402121 878.59490355 433.11715597 879.02255004 432.533113 879.46315551 C423.5516562 886.23126985 414.17314018 891.8897869 404.25088644 897.16725707 C403.15647238 897.76151488 402.06205832 898.3557727 400.93448019 898.96803832 C390.1055401 904.63661707 378.67908605 908.87681692 367.25088644 913.16725707 C366.33669943 913.51554564 365.42251242 913.86383422 364.48062277 914.22267699 C318.74686593 931.34089883 268.12604889 931.48346378 219.96512461 933.04662585 C217.47741444 933.12742183 214.98975265 933.20972055 212.50214052 933.29348063 C184.35426421 934.22020852 156.22109211 934.31661733 128.05991364 934.30158257 C121.67263295 934.29899773 115.28535348 934.30141319 108.89807272 934.30296874 C97.5018933 934.30488785 86.1057234 934.30183734 74.7095456 934.2967094 C64.47673999 934.29224666 54.24394575 934.29301957 44.01114035 934.29762816 C31.99433492 934.30303806 19.977538 934.30494103 7.96073091 934.3020159 C1.6487667 934.30048152 -4.66318978 934.30017894 -10.97515345 934.30355239 C-39.91667009 934.31693309 -68.82106869 934.069862 -97.74911356 933.16725707 C-100.03874301 933.10004933 -102.32838411 933.03323627 -104.61804056 932.96695495 C-184.30783937 930.65658906 -258.87773321 912.92665965 -317.74911356 856.16725707 C-318.61665262 855.34096801 -319.48419168 854.51467895 -320.37801981 853.66335082 C-325.9873203 848.21013521 -330.96692598 842.35141691 -335.74911356 836.16725707 C-336.27698465 835.4887268 -336.80485575 834.81019652 -337.34872293 834.11110473 C-345.45892314 823.61595581 -352.60368112 812.9741066 -358.701262 801.18971801 C-359.64817925 799.36207064 -360.62282852 797.54885678 -361.60067606 795.73756957 C-376.35982109 767.63453999 -385.03525756 735.83278446 -389.37411356 704.47975707 C-389.47994761 703.72326873 -389.58578165 702.96678039 -389.69482279 702.18736815 C-397.05198799 649.09710808 -396.06626409 594.68843248 -395.98795156 541.19039025 C-395.97719831 533.63249519 -395.97762982 526.07460969 -395.97810832 518.51670845 C-395.97860215 505.00242723 -395.96963078 491.4881702 -395.95492411 477.9738977 C-395.94079986 464.98723958 -395.93375612 452.00060266 -395.93441629 439.01393676 C-395.93445625 438.21078884 -395.93449621 437.40764092 -395.93453737 436.58015518 C-395.93457773 435.77811293 -395.93461808 434.97607068 -395.93465966 434.14972413 C-395.93535582 419.15573191 -395.92943042 404.16174831 -395.92050644 389.16775893 C-395.91795658 384.68141689 -395.91657164 380.19507638 -395.91617559 375.70873364 C-395.91106663 320.03172958 -395.91106663 320.03172958 -395.29720926 297.22829223 C-395.2775902 296.49365902 -395.25797114 295.75902581 -395.23775756 295.00213099 C-394.83058676 280.36377434 -393.95030358 265.76160183 -392.74911356 251.16725707 C-392.67579813 250.26571898 -392.6024827 249.3641809 -392.52694559 248.43532348 C-389.38331506 211.28530627 -380.30709905 174.6656129 -363.74911356 141.16725707 C-363.38318094 140.42298461 -363.01724833 139.67871215 -362.64022684 138.91188598 C-352.31757985 118.14354058 -338.82753335 99.82102114 -322.74911356 83.16725707 C-321.77530741 82.15260375 -321.77530741 82.15260375 -320.7818284 81.11745238 C-311.66232692 71.65813353 -302.419642 62.85027072 -291.74911356 55.16725707 C-291.12182352 54.71157348 -290.49453348 54.25588988 -289.84823465 53.7863977 C-265.45367889 36.18395636 -237.78041368 23.10629163 -208.74911356 15.16725707 C-208.08282938 14.98098754 -207.4165452 14.79471801 -206.73007059 14.60280395 C-166.6540131 3.5166097 -124.88037838 1.53962551 -83.50741434 0.61525512 C-82.58990908 0.59434039 -81.67240382 0.57342565 -80.72709537 0.55187714 C-53.821834 -0.04322911 -26.91040076 0.00241802 0 0 Z " fill="#050404" transform="translate(1616.749113559723,1220.8327429294586)"/>
<path d="M0 0 C4.44432592 -0.0005035 8.88864984 -0.00281611 13.33297491 -0.00549722 C28.1482301 -0.0142464 42.96347822 -0.01892515 57.77873601 -0.01816674 C58.56811987 -0.01812679 59.35750373 -0.01808683 60.17080832 -0.01804566 C61.35641237 -0.01798434 61.35641237 -0.01798434 62.56596802 -0.01792178 C75.35576037 -0.01751588 88.14552321 -0.02708671 100.93530704 -0.04118403 C114.22814936 -0.05571458 127.52097745 -0.06244537 140.81382787 -0.06159025 C148.21255964 -0.06126418 155.61126008 -0.06380007 163.00998449 -0.0747683 C274.81652029 -0.23264336 274.81652029 -0.23264336 312.861238 6.73317504 C315.49572635 7.21173248 318.13445292 7.66078738 320.77432394 8.10866332 C331.41862227 9.94031206 341.91498183 11.9844547 352.25088644 15.16725707 C353.53720968 15.5612268 353.53720968 15.5612268 354.84951925 15.96315551 C382.30097946 24.48582154 408.29028582 35.70275829 431.25088644 53.16725707 C431.81195089 53.58555785 432.37301535 54.00385863 432.95108175 54.4348352 C489.36262016 96.54259321 520.96246026 159.06802326 531.31338644 227.94460082 C533.74263284 245.77710608 534.97532027 263.63874538 535.93838644 281.60475707 C535.99905294 282.69754973 536.05971945 283.7903424 536.12222433 284.91624999 C537.00749198 301.17878116 537.44696494 317.44628435 537.77652121 333.72804809 C537.79835423 334.80381921 537.82018725 335.87959033 537.84268188 336.98796058 C538.34266645 362.21365256 538.43201699 387.43688581 538.45107508 412.66685843 C538.45407287 416.46381168 538.45818735 420.26076235 538.46257925 424.05771422 C538.47461515 434.73793229 538.48502097 445.41814685 538.48845434 456.09837127 C538.48867391 456.77116155 538.48889347 457.44395183 538.48911969 458.13712969 C538.48933797 458.81075811 538.48955625 459.48438653 538.48978114 460.17842793 C538.49022448 461.54156629 538.49067104 462.90470465 538.49112082 464.26784301 C538.49134225 464.94388573 538.49156367 465.61992846 538.49179181 466.31645733 C538.49547215 476.52358804 538.51039375 486.73065773 538.53213644 496.93776488 C538.75233815 602.11870274 538.75233815 602.11870274 536.88369894 646.44069457 C536.83748199 647.55516495 536.83748199 647.55516495 536.79033136 648.69214988 C535.85738717 671.02522309 534.26546585 693.15567012 530.25088644 715.16725707 C530.04173605 716.34610473 529.83258566 717.52495238 529.61709738 718.7395227 C527.49736838 730.43618069 524.83534836 741.88211183 520.95303488 753.12428832 C520.18058548 755.3718045 519.43872503 757.62843692 518.69619894 759.88600707 C514.64702495 772.01214883 509.79793025 783.65162387 504.25088644 795.16725707 C503.93039328 795.83563598 503.60990011 796.50401488 503.27969503 797.1926477 C493.04499134 818.21411208 478.29932038 836.342054 462.25088644 853.16725707 C461.42064962 854.04051635 461.42064962 854.04051635 460.57364035 854.93141723 C452.36473886 863.51078614 443.79276917 871.10851152 434.25088644 878.16725707 C433.68402121 878.59490355 433.11715597 879.02255004 432.533113 879.46315551 C423.5516562 886.23126985 414.17314018 891.8897869 404.25088644 897.16725707 C403.15647238 897.76151488 402.06205832 898.3557727 400.93448019 898.96803832 C390.1055401 904.63661707 378.67908605 908.87681692 367.25088644 913.16725707 C366.33669943 913.51554564 365.42251242 913.86383422 364.48062277 914.22267699 C318.74686593 931.34089883 268.12604889 931.48346378 219.96512461 933.04662585 C217.47741444 933.12742183 214.98975265 933.20972055 212.50214052 933.29348063 C184.35426421 934.22020852 156.22109211 934.31661733 128.05991364 934.30158257 C121.67263295 934.29899773 115.28535348 934.30141319 108.89807272 934.30296874 C97.5018933 934.30488785 86.1057234 934.30183734 74.7095456 934.2967094 C64.47673999 934.29224666 54.24394575 934.29301957 44.01114035 934.29762816 C31.99433492 934.30303806 19.977538 934.30494103 7.96073091 934.3020159 C1.6487667 934.30048152 -4.66318978 934.30017894 -10.97515345 934.30355239 C-39.91667009 934.31693309 -68.82106869 934.069862 -97.74911356 933.16725707 C-100.03874301 933.10004933 -102.32838411 933.03323627 -104.61804056 932.96695495 C-184.30783937 930.65658906 -258.87773321 912.92665965 -317.74911356 856.16725707 C-318.61665262 855.34096801 -319.48419168 854.51467895 -320.37801981 853.66335082 C-325.9873203 848.21013521 -330.96692598 842.35141691 -335.74911356 836.16725707 C-336.27698465 835.4887268 -336.80485575 834.81019652 -337.34872293 834.11110473 C-345.45892314 823.61595581 -352.60368112 812.9741066 -358.701262 801.18971801 C-359.64817925 799.36207064 -360.62282852 797.54885678 -361.60067606 795.73756957 C-376.35982109 767.63453999 -385.03525756 735.83278446 -389.37411356 704.47975707 C-389.47994761 703.72326873 -389.58578165 702.96678039 -389.69482279 702.18736815 C-397.05198799 649.09710808 -396.06626409 594.68843248 -395.98795156 541.19039025 C-395.97719831 533.63249519 -395.97762982 526.07460969 -395.97810832 518.51670845 C-395.97860215 505.00242723 -395.96963078 491.4881702 -395.95492411 477.9738977 C-395.94079986 464.98723958 -395.93375612 452.00060266 -395.93441629 439.01393676 C-395.93445625 438.21078884 -395.93449621 437.40764092 -395.93453737 436.58015518 C-395.93457773 435.77811293 -395.93461808 434.97607068 -395.93465966 434.14972413 C-395.93535582 419.15573191 -395.92943042 404.16174831 -395.92050644 389.16775893 C-395.91795658 384.68141689 -395.91657164 380.19507638 -395.91617559 375.70873364 C-395.91106663 320.03172958 -395.91106663 320.03172958 -395.29720926 297.22829223 C-395.2775902 296.49365902 -395.25797114 295.75902581 -395.23775756 295.00213099 C-394.83058676 280.36377434 -393.95030358 265.76160183 -392.74911356 251.16725707 C-392.67579813 250.26571898 -392.6024827 249.3641809 -392.52694559 248.43532348 C-389.38331506 211.28530627 -380.30709905 174.6656129 -363.74911356 141.16725707 C-363.38318094 140.42298461 -363.01724833 139.67871215 -362.64022684 138.91188598 C-352.31757985 118.14354058 -338.82753335 99.82102114 -322.74911356 83.16725707 C-321.77530741 82.15260375 -321.77530741 82.15260375 -320.7818284 81.11745238 C-311.66232692 71.65813353 -302.419642 62.85027072 -291.74911356 55.16725707 C-291.12182352 54.71157348 -290.49453348 54.25588988 -289.84823465 53.7863977 C-265.45367889 36.18395636 -237.78041368 23.10629163 -208.74911356 15.16725707 C-208.08282938 14.98098754 -207.4165452 14.79471801 -206.73007059 14.60280395 C-166.6540131 3.5166097 -124.88037838 1.53962551 -83.50741434 0.61525512 C-82.58990908 0.59434039 -81.67240382 0.57342565 -80.72709537 0.55187714 C-53.821834 -0.04322911 -26.91040076 0.00241802 0 0 Z M-90.10482645 85.10402465 C-91.86300363 85.16657441 -91.86300363 85.16657441 -93.65669954 85.23038781 C-158.78733411 87.60637284 -220.12383638 96.13768338 -266.65634012 145.84694457 C-271.54719787 151.26956613 -275.81288479 157.02370036 -279.74911356 163.16725707 C-280.4490745 164.25651488 -281.14903543 165.3457727 -281.87020731 166.46803832 C-290.7659129 181.22485207 -297.16762853 197.33027233 -301.2271409 214.04811645 C-301.73066181 216.09234539 -302.2753074 218.12109324 -302.83114481 220.15163207 C-305.95186451 231.93717556 -307.19220942 243.92074922 -308.42367411 256.0285852 C-308.60012494 257.73034956 -308.78037127 259.43181777 -308.98111552 261.13088769 C-309.60214619 266.42825337 -310.01557939 271.70491399 -310.27616739 277.03140807 C-310.31860697 277.88195403 -310.36104654 278.7325 -310.40477216 279.60882008 C-311.91965325 310.97839229 -312.03303257 342.33201215 -311.98795174 373.72938364 C-311.97725145 381.39412877 -311.97762859 389.05886425 -311.97810832 396.72361542 C-311.97860354 410.43359983 -311.96959502 424.14356051 -311.95492411 437.85353637 C-311.94082846 451.03355378 -311.93375468 464.21355037 -311.93441629 477.39357543 C-311.93445625 478.20691804 -311.93449621 479.02026066 -311.93453737 479.85825001 C-311.93457773 480.67045501 -311.93461808 481.48266 -311.93465966 482.31947726 C-311.9353563 497.5137648 -311.92942363 512.70804385 -311.92050644 527.90232859 C-311.91795658 532.45229394 -311.91657198 537.00225777 -311.91617524 541.55222379 C-312.20513611 601.18368437 -312.20513611 601.18368437 -309.49911356 660.72975707 C-309.4059083 662.0055664 -309.4059083 662.0055664 -309.3108201 663.30714965 C-305.3324262 716.85704663 -291.21209986 769.22195072 -249.11630106 805.57741332 C-204.62726594 842.85475553 -147.40829724 847.52781853 -91.74911356 849.16725707 C-90.73923238 849.19729971 -90.73923238 849.19729971 -89.70894957 849.22794926 C-60.48370439 850.09171536 -31.27796712 850.31834468 -2.04109573 850.30158257 C3.94603307 850.29898499 9.93316063 850.30141664 15.92028952 850.30296874 C25.96636374 850.30477031 36.01243054 850.30243866 46.05850363 850.29762816 C57.52710272 850.29219847 68.99568398 850.29394708 80.46428263 850.29945457 C90.45900452 850.30405473 100.45372117 850.30460291 110.44844377 850.3020159 C116.35259677 850.30048924 122.25674152 850.30015573 128.16089392 850.30355239 C151.93280187 850.31534823 175.6933871 850.20293882 199.46060324 849.69948363 C200.94606173 849.66811384 200.94606173 849.66811384 202.46152949 849.63611031 C217.81867477 849.30395596 233.1591459 848.79856164 248.49868917 847.97487426 C252.042511 847.78672899 255.58695628 847.61734083 259.13174582 847.44850707 C272.27653073 846.78636221 285.18420164 845.61633559 298.17669821 843.5020349 C300.83474483 843.07302124 303.49966468 842.69676394 306.16494894 842.31569457 C333.3617813 838.02688824 361.32849476 828.14725616 383.25088644 811.16725707 C384.13131613 810.50725707 385.01174582 809.84725707 385.91885519 809.16725707 C411.04739549 789.56922268 428.33035682 764.45722571 438.48965597 734.41481566 C439.19173952 732.34189035 439.92016269 730.28015041 440.65323019 728.21803832 C444.30743017 717.60630686 446.10104629 706.73657146 447.84854269 695.67360473 C448.33512574 692.64249937 448.88852769 689.62493715 449.43838644 686.60475707 C456.46986671 643.03809293 453.56041221 596.83866952 453.5214863 552.77965135 C453.51683203 547.36242088 453.51638215 541.94520294 453.51851797 536.52797103 C453.51882444 535.74151606 453.5191309 534.9550611 453.51944666 534.14477416 C453.52008643 532.5446051 453.52073486 530.94443605 453.52139184 529.344267 C453.52702223 514.52788303 453.52065309 499.71152427 453.50979111 484.89514445 C453.5008517 472.3136356 453.50242529 459.7321637 453.51162863 447.15065551 C453.52244436 432.35906311 453.52648451 417.56749247 453.5204041 402.77589667 C453.51976733 401.18514729 453.51913858 399.59439791 453.51851797 398.00364852 C453.51820942 397.22197595 453.51790087 396.44030338 453.51758297 395.63494376 C453.51589027 390.25121999 453.51873288 384.86751075 453.52347708 379.48378921 C457.33483003 247.79830162 457.33483003 247.79830162 398.25088644 135.16725707 C359.30630026 96.62475364 305.53952577 88.33049661 253.07486105 85.54152465 C251.87784311 85.47702923 250.68082517 85.41253382 249.44753397 85.346084 C220.93123853 83.84735303 192.42345043 83.73771679 163.87748826 83.79311813 C156.38133431 83.80726298 148.88520376 83.80508816 141.38903987 83.80300961 C127.95974598 83.79986137 114.5305061 83.81124152 101.10122824 83.83107543 C88.24444068 83.85005722 75.38771631 83.85715854 62.53091574 83.85158324 C48.33215143 83.8454437 34.13341441 83.84584896 19.93465227 83.85706908 C18.4035935 83.85827563 16.87253473 83.85948161 15.34147596 83.86068702 C14.58930088 83.86129056 13.8371258 83.86189409 13.06215753 83.86251592 C7.91006813 83.86630001 2.7579894 83.86600075 -2.39410067 83.86410117 C-31.64518041 83.85601959 -60.86962528 84.06057681 -90.10482645 85.10402465 Z " fill="#FEFEFE" transform="translate(1616.749113559723,1220.8327429294586)"/>
<path d="M0 0 C1.16813232 0.17692383 1.16813232 0.17692383 2.35986328 0.35742188 C38.68277955 6.21408886 76.84855581 23.53361368 105 47 C105.54092285 47.44907715 106.0818457 47.8981543 106.63916016 48.36083984 C110.81639036 51.84322062 114.92506276 55.39867723 119 59 C119.82927002 59.73234863 119.82927002 59.73234863 120.67529297 60.47949219 C126.87383195 65.9831277 132.71496112 71.59674577 138 78 C138.73347656 78.845625 139.46695312 79.69125 140.22265625 80.5625 C168.17633578 113.16774268 188.26372333 153.97553143 194.625 196.625 C194.74617188 197.39328125 194.86734375 198.1615625 194.9921875 198.953125 C196.34793667 207.76549458 197.15426855 216.50860992 197.203125 225.42578125 C197.21004868 226.28762527 197.21697235 227.1494693 197.22410583 228.03742981 C197.24126096 230.79583358 197.24769024 233.55404543 197.25 236.3125 C197.25133942 237.25341492 197.25267883 238.19432983 197.25405884 239.16375732 C197.25016923 251.73844812 197.06202771 264.08709063 194.50952148 276.44995117 C194.10493727 278.47481084 193.74408035 280.50839851 193.39868164 282.54418945 C191.73034051 292.30820557 189.24065664 301.56178473 186.0625 310.9375 C185.82589661 311.64356384 185.58929321 312.34962769 185.34552002 313.0770874 C176.74008891 338.60273894 164.34609375 361.6462532 148 383 C147.32195312 383.89332031 146.64390625 384.78664063 145.9453125 385.70703125 C109.11604239 433.00437191 52.13555279 466.97612431 -7.60058594 474.73388672 C-19.62605204 476.06760243 -31.63410398 476.21676525 -43.72070312 476.24023438 C-46.73075022 476.24993794 -49.74011206 476.28106514 -52.75 476.3125 C-64.82944929 476.37876094 -76.17550156 475.46606384 -88 473 C-89.01416992 472.79584473 -90.02833984 472.59168945 -91.07324219 472.38134766 C-93.56088124 471.85746501 -96.03026464 471.28971293 -98.5 470.6875 C-99.37325928 470.47512695 -100.24651855 470.26275391 -101.14624023 470.04394531 C-143.407307 459.48729707 -180.63444372 436.86076197 -212 407 C-212.72574219 406.31550781 -213.45148438 405.63101562 -214.19921875 404.92578125 C-219.11135859 400.16805052 -223.45790804 395.02877278 -227.68701172 389.65917969 C-228.60371526 388.50077187 -229.52783327 387.34820991 -230.45751953 386.20019531 C-270.93517681 336.17507672 -287.0703843 272.51253933 -281.46484375 208.94921875 C-280.85551808 203.26085738 -280.01597912 197.62919419 -279 192 C-278.87141602 191.27006836 -278.74283203 190.54013672 -278.61035156 189.78808594 C-271.75950759 152.70985406 -254.40654631 117.32470166 -231 88 C-230.57992676 87.4642334 -230.15985352 86.9284668 -229.72705078 86.37646484 C-217.26772995 70.56481578 -202.52698452 55.54887873 -186 44 C-185.21512207 43.45150391 -184.43024414 42.90300781 -183.62158203 42.33789062 C-128.61034142 4.24439798 -66.21155352 -10.3234934 0 0 Z " fill="#FEFEFE" transform="translate(1730,1451)"/>
<path d="M0 0 C1.05832031 0.67417969 2.11664062 1.34835937 3.20703125 2.04296875 C39.76290682 26.31041214 62.86062912 62.9564553 71.75 105.59765625 C75.83131016 131.64435098 73.96177019 159.21659716 65 184 C64.33677734 185.84658203 64.33677734 185.84658203 63.66015625 187.73046875 C48.51677075 227.53953479 18.71554252 257.70739176 -19.625 275.75 C-21.40972142 276.51638038 -23.20164276 277.26618756 -25 278 C-25.9590625 278.40734375 -26.918125 278.8146875 -27.90625 279.234375 C-56.29554901 290.39715762 -92.58003125 292.82091697 -122 284 C-122.64759277 283.81808105 -123.29518555 283.63616211 -123.96240234 283.44873047 C-146.23162425 277.12565021 -166.44322742 265.97390585 -184 251 C-184.61375488 250.47809082 -185.22750977 249.95618164 -185.85986328 249.41845703 C-200.19196892 237.05937135 -211.22621012 222.737068 -220 206 C-220.50660156 205.10023438 -221.01320313 204.20046875 -221.53515625 203.2734375 C-239.07326271 170.81624848 -242.98062982 130.54617407 -234 95 C-233.81808105 94.2560498 -233.63616211 93.51209961 -233.44873047 92.74560547 C-223.92987759 54.64467425 -198.31464947 20.65786659 -164.9050293 0.16064453 C-149.27961864 -9.16114232 -133.69456109 -15.69336877 -116 -20 C-115.2894043 -20.17934082 -114.57880859 -20.35868164 -113.84667969 -20.54345703 C-76.34545828 -29.71386256 -32.15495138 -20.7776662 0 0 Z " fill="#050404" transform="translate(1770,1555)"/>
<path d="M0 0 C10.36421132 9.78607164 17.87672633 21.65842495 18.45703125 36.1796875 C18.46487521 38.12760404 18.45693614 40.07564503 18.43359375 42.0234375 C18.44519531 42.99152344 18.45679688 43.95960937 18.46875 44.95703125 C18.40948053 59.67561745 12.37997587 71.70123546 2.3515625 82.30078125 C-9.68398934 93.96727018 -23.91038339 98.8287973 -40.5300293 98.90844727 C-54.75202143 98.60854204 -67.41380042 91.90414629 -77.69140625 82.3359375 C-84.58658655 75.08240554 -89.51661946 66.24123685 -91.94140625 56.5234375 C-92.21404297 55.4715625 -92.21404297 55.4715625 -92.4921875 54.3984375 C-94.97204984 38.52731854 -93.17932607 23.64973782 -84.02734375 10.25 C-75.31297025 -1.14069795 -63.04388728 -11.01191717 -48.38671875 -13.296875 C-30.37125821 -14.62069478 -14.28031646 -12.02353338 0 0 Z " fill="#FEFEFE" transform="translate(1973.94140625,1395.4765625)"/>
</svg>
