<?xml version="1.0" standalone="no"?>
<!DOCTYPE svg PUBLIC "-//W3C//DTD SVG 20010904//EN"
 "http://www.w3.org/TR/2001/REC-SVG-20010904/DTD/svg10.dtd">
<svg version="1.0" xmlns="http://www.w3.org/2000/svg"
 width="2608.000000pt" height="549.000000pt" viewBox="0 0 2608.000000 549.000000"
 preserveAspectRatio="xMidYMid meet">

<g transform="translate(0.000000,549.000000) scale(0.100000,-0.100000)"
fill="#000000" stroke="none">
<path d="M6430 2780 l0 -2670 120 0 120 0 0 679 0 679 57 73 c87 114 241 305
418 519 89 107 228 276 309 375 82 99 152 181 156 183 9 3 129 -145 1206
-1493 l807 -1010 144 -3 c138 -2 144 -2 131 16 -7 10 -350 436 -763 947 -915
1134 -1375 1708 -1375 1716 0 11 301 380 845 1033 138 166 338 409 445 541
107 132 293 359 415 505 121 146 250 301 285 345 36 44 88 108 117 143 29 34
53 67 53 72 0 6 -52 10 -134 10 l-133 0 -24 -34 c-13 -19 -247 -304 -519 -633
-272 -329 -653 -791 -848 -1028 -195 -236 -501 -608 -681 -825 -394 -476 -836
-1011 -876 -1062 -16 -20 -32 -35 -35 -32 -3 3 -7 819 -10 1812 l-5 1807 -112
3 -113 3 0 -2671z"/>
<path d="M18797 5273 c-47 -98 -113 -236 -145 -308 -33 -71 -90 -193 -127
-270 -37 -77 -118 -250 -180 -385 -105 -227 -352 -756 -635 -1355 -178 -378
-646 -1374 -877 -1870 -80 -171 -199 -422 -264 -560 l-119 -250 -1181 -3
-1181 -2 6 982 c3 541 7 1703 8 2583 l3 1600 -122 3 -123 3 0 -723 c0 -398 -3
-1597 -7 -2665 l-6 -1943 1395 0 1396 0 42 98 c24 53 110 241 193 417 82 176
218 469 302 650 84 182 206 440 270 575 65 135 152 324 195 420 43 96 148 323
234 503 86 181 156 331 156 333 0 2 95 207 210 454 116 248 210 452 210 454 0
2 57 123 126 268 70 144 161 340 204 433 128 280 235 505 240 505 3 0 11 -12
17 -27 6 -16 165 -356 353 -758 188 -401 402 -858 475 -1015 73 -157 191 -409
262 -560 295 -623 1098 -2338 1206 -2572 l82 -178 128 0 127 0 0 2561 c0 1873
3 2558 11 2553 14 -8 264 -322 660 -829 350 -447 466 -594 1389 -1765 371
-470 764 -970 875 -1110 726 -922 890 -1129 982 -1242 56 -71 108 -137 115
-148 12 -19 24 -20 185 -20 l171 0 -4 2662 c-3 1464 -7 2665 -10 2670 -3 4
-58 8 -122 8 l-117 0 0 -457 c0 -252 -1 -1398 -2 -2547 -3 -1913 -4 -2087 -19
-2075 -9 7 -37 40 -62 74 -26 33 -184 235 -352 449 -553 705 -1113 1418 -1261
1606 -170 216 -729 928 -978 1245 -95 121 -252 321 -350 445 -474 602 -882
1122 -927 1182 l-49 67 -177 0 c-98 1 -179 0 -180 -1 -1 -2 -5 -1085 -8 -2407
l-5 -2403 -164 348 c-90 192 -224 475 -297 629 -73 154 -230 489 -349 745
-491 1053 -1199 2568 -1290 2760 -54 113 -109 233 -124 266 l-26 61 -95 7
c-52 3 -120 6 -151 6 l-56 0 -86 -177z"/>
<path d="M10217 4163 c-4 -702 -7 -1901 -7 -2665 l0 -1388 1600 0 1600 0 0 73
0 74 -197 6 c-108 4 -777 7 -1486 7 l-1290 0 6 422 c4 232 7 774 7 1205 l0
783 1480 0 1480 0 0 95 0 95 -1486 0 -1485 0 5 378 c4 207 9 740 12 1185 l6
807 1474 0 1474 0 0 100 0 100 -1593 0 -1594 0 -6 -1277z"/>
<path d="M4445 5362 c-33 -4 -68 -12 -77 -17 -9 -6 -850 -840 -1870 -1855
-1019 -1015 -1990 -1980 -2158 -2145 -168 -165 -313 -310 -322 -322 -16 -19
-18 -52 -18 -355 l0 -333 29 -60 c62 -130 128 -189 260 -234 73 -24 87 -25
361 -29 157 -2 308 -2 335 0 l50 3 -244 247 -244 247 267 273 c147 150 273
274 279 276 7 1 252 -234 544 -523 l532 -525 383 1 c211 1 447 4 526 8 l142 6
-417 405 c-959 929 -1163 1130 -1163 1145 0 7 30 41 68 76 37 34 160 152 274
261 113 109 214 198 223 198 9 0 170 -152 358 -338 188 -186 601 -591 917
-901 316 -310 640 -628 719 -707 l143 -144 387 0 387 0 55 27 c68 34 178 142
210 208 l24 50 3 2374 2 2374 -25 54 c-31 68 -129 172 -192 203 -86 43 -143
50 -423 54 -146 3 -292 1 -325 -2z"/>
<path d="M2215 5347 c-20 -12 -226 -211 -705 -682 -129 -127 -410 -402 -625
-610 -214 -209 -501 -489 -638 -622 l-247 -243 2 -534 3 -534 1615 1604 c888
883 1616 1612 1618 1619 3 13 -65 15 -500 15 -376 -1 -508 -4 -523 -13z"/>
<path d="M262 5330 c-106 -38 -183 -108 -230 -208 l-27 -57 -3 -394 -3 -394
291 284 c161 156 403 391 538 521 135 130 250 244 254 253 8 13 -32 15 -379
15 -355 -1 -392 -2 -441 -20z"/>
</g>
</svg>
