<?xml version="1.0" encoding="UTF-8"?>
<svg version="1.1" xmlns="http://www.w3.org/2000/svg" width="3375" height="3375">
<path d="M0 0 C0.99264013 -0.00560927 1.98528026 -0.01121854 3.00800039 -0.01699778 C6.33144312 -0.03090757 9.65413991 -0.01637644 12.97757155 -0.00196791 C15.39567093 -0.0061412 17.81376782 -0.01206675 20.23185912 -0.01958537 C25.50431864 -0.03193466 30.7765611 -0.03184832 36.04900789 -0.02085119 C43.94203026 -0.00446255 51.83491871 -0.01119011 59.72794416 -0.02238176 C73.18062984 -0.04077839 86.63325502 -0.04018339 100.08594614 -0.02925825 C113.71916467 -0.01825393 127.35234338 -0.0159313 140.98556429 -0.02420759 C141.84659234 -0.02472428 142.70762038 -0.02524097 143.59474018 -0.02577332 C147.10156412 -0.0279064 150.60838801 -0.03010123 154.11521186 -0.03237442 C186.78128107 -0.05353433 219.4473236 -0.05496542 252.1133967 -0.04378462 C253.56546862 -0.04328785 253.56546862 -0.04328785 255.04687532 -0.04278104 C256.01647001 -0.04244932 256.98606471 -0.0421176 257.98504107 -0.04177583 C287.51139706 -0.03168749 317.03774202 -0.02907549 346.56409937 -0.03386641 C348.54048748 -0.03417632 350.5168756 -0.03448495 352.49326371 -0.03479229 C360.43534347 -0.03603413 368.37742323 -0.03730879 376.31950298 -0.03863134 C398.52169356 -0.04229958 420.72388419 -0.04458183 442.92607504 -0.04577589 C443.93715604 -0.04583047 444.94823703 -0.04588506 445.98995684 -0.04594129 C478.21291394 -0.04757868 510.43586719 -0.04306943 542.65882307 -0.03437757 C543.70411896 -0.03409658 544.74941486 -0.03381558 545.82638638 -0.03352607 C562.80184056 -0.02894615 579.77729466 -0.02406836 596.75274875 -0.01916538 C664.07891881 0.00025958 731.40505706 -0.00064064 798.73122698 -0.02008772 C815.6968791 -0.0249724 832.66253122 -0.02981657 849.62818342 -0.03437757 C850.67279127 -0.03465937 851.71739911 -0.03494116 852.79366173 -0.03523149 C884.98180229 -0.04385509 917.1699402 -0.04751354 949.35808188 -0.04577589 C950.36843605 -0.04572155 951.37879022 -0.04566722 952.41976118 -0.04561123 C974.5978048 -0.04436136 996.77584814 -0.0418269 1018.95389148 -0.03813388 C1026.88923204 -0.03681729 1034.82457262 -0.03556497 1042.75991319 -0.03433103 C1044.73405827 -0.03402148 1046.70820334 -0.03370656 1048.68234842 -0.03338625 C1078.20091371 -0.02861002 1107.71946657 -0.03268126 1137.23803032 -0.04278104 C1138.68997804 -0.04327781 1138.68997804 -0.04327781 1140.17125803 -0.04378462 C1141.62053275 -0.04428071 1141.62053275 -0.04428071 1143.09908574 -0.04478683 C1175.67107165 -0.05581445 1208.24302552 -0.05177203 1240.81500684 -0.03066164 C1244.31133276 -0.02845218 1247.80765871 -0.02630537 1251.3039847 -0.02420759 C1252.59108885 -0.02342635 1252.59108885 -0.02342635 1253.9041951 -0.02262933 C1267.50140085 -0.01473398 1281.09856683 -0.02023887 1294.69576901 -0.03128362 C1308.05973509 -0.04185435 1321.42363393 -0.03816952 1334.78759147 -0.01922726 C1342.62614839 -0.00854107 1350.46452112 -0.0087957 1358.3030693 -0.02515365 C1364.1175622 -0.03606735 1369.93189764 -0.0261936 1375.74637694 -0.00812855 C1378.08759972 -0.00408969 1380.42884598 -0.00679115 1382.77005019 -0.01695231 C1409.84233141 -0.12614046 1409.84233141 -0.12614046 1419.21047503 8.72405291 C1424.18458964 14.61786058 1426.83469579 20.79478137 1426.8365642 28.47898005 C1426.83923391 29.49050708 1426.84190362 30.50203411 1426.84465423 31.54421347 C1426.84142252 33.21279397 1426.84142252 33.21279397 1426.83812553 34.91508317 C1426.8406017 36.69621715 1426.8406017 36.69621715 1426.84312789 38.51333364 C1426.84671624 41.83061371 1426.84579339 45.14783851 1426.8430261 48.46511582 C1426.8411093 52.07945015 1426.84498216 55.69377896 1426.84812289 59.30811179 C1426.85284579 65.67425023 1426.85381872 72.0403809 1426.85239455 78.40652081 C1426.85027816 87.93694468 1426.85388003 97.46736046 1426.85860932 106.99778308 C1426.86649347 123.23794039 1426.86957191 139.4780955 1426.87005526 155.71825457 C1426.87055713 172.18401748 1426.87319879 188.64977793 1426.87846285 205.11554003 C1426.87879298 206.15419014 1426.87912312 207.19284026 1426.87946326 208.26296462 C1426.88081321 212.49299005 1426.88217587 216.72301548 1426.88355536 220.9530409 C1426.89987089 271.07125527 1426.90624547 321.18946917 1426.91100323 371.30768574 C1426.91338494 396.2550639 1426.9170881 421.2024418 1426.92104033 446.14981975 C1426.93370543 526.13840814 1426.94448968 606.12699652 1426.94788079 686.1155859 C1426.94804303 689.93977381 1426.94820859 693.76396172 1426.94837517 697.58814964 C1426.94870897 705.25785047 1426.94903946 712.9275513 1426.94936973 720.59725213 C1426.94975663 729.57695467 1426.95014624 738.55665722 1426.95054079 747.53635976 C1426.95065321 750.10644103 1426.95076463 752.67652229 1426.95087505 755.24660356 C1426.95442551 837.81241639 1426.96950779 920.37822052 1426.99281279 1002.94403003 C1427.00954884 1062.26114724 1427.0250271 1121.57826281 1427.02954775 1180.8953824 C1427.02968798 1182.72426368 1427.02968798 1182.72426368 1427.02983104 1184.59009205 C1427.03184986 1211.35259785 1427.03300609 1238.11510361 1427.03335963 1264.87760947 C1427.03349581 1274.45317507 1427.0337048 1284.02874067 1427.03395288 1293.60430627 C1427.03401444 1295.98656386 1427.03407276 1298.36882146 1427.03412783 1300.75107905 C1427.03504852 1338.74742382 1427.04502718 1376.74375953 1427.05958532 1414.74010132 C1427.07418533 1452.99873094 1427.07925305 1491.25734942 1427.07116577 1529.51598133 C1427.07005033 1534.79787055 1427.06903969 1540.07975978 1427.06809145 1545.36164904 C1427.06790148 1546.39708464 1427.06771152 1547.43252025 1427.06751579 1548.4993327 C1427.0647777 1564.92204975 1427.07213833 1581.34474627 1427.08366482 1597.76745886 C1427.09477887 1613.89983305 1427.09526378 1630.03217809 1427.08429463 1646.16455271 C1427.0781791 1655.6328711 1427.08034349 1665.10110176 1427.09454661 1674.56941196 C1427.10315347 1680.84951446 1427.10097394 1687.12955209 1427.0898479 1693.40965053 C1427.08383852 1696.9749392 1427.08256291 1700.54005528 1427.09453276 1704.10533281 C1427.10727874 1707.93241245 1427.09691948 1711.75922906 1427.08422118 1715.58631349 C1427.09533393 1717.24054953 1427.09533393 1717.24054953 1427.10667117 1718.92820449 C1427.04594031 1727.58615917 1425.56849486 1734.08946872 1419.64797503 1740.75139666 C1418.95574847 1741.56092791 1418.2635219 1742.37045916 1417.55031878 1743.20452166 C1410.64758005 1748.78747953 1403.0590782 1750.0940611 1394.4005633 1750.00279331 C1393.40571566 1750.00840258 1392.41086801 1750.01401185 1391.38587347 1750.01979109 C1388.05490826 1750.03370132 1384.72468724 1750.01916952 1381.39373308 1750.00476122 C1378.9702148 1750.00893449 1376.54669901 1750.01486003 1374.12318879 1750.02237868 C1368.83884907 1750.03472812 1363.55472592 1750.0346415 1358.27039891 1750.02364451 C1350.35960607 1750.00725608 1342.44894685 1750.01398333 1334.53815093 1750.02517507 C1321.05522212 1750.0435718 1307.57235367 1750.04297666 1294.08941942 1750.03205156 C1280.42556319 1750.02104729 1266.76174668 1750.01872457 1253.09788805 1750.0270009 C1252.23492971 1750.02751759 1251.37197136 1750.02803429 1250.48286276 1750.02856663 C1246.9681799 1750.03069971 1243.45349709 1750.03289454 1239.93881431 1750.03516774 C1207.19966873 1750.05632757 1174.46054978 1750.05775879 1141.72140032 1750.04657793 C1140.75119158 1750.04624675 1139.78098283 1750.04591557 1138.78137382 1750.04557435 C1137.8096154 1750.04524263 1136.83785697 1750.04491091 1135.83665133 1750.04456914 C1106.24488638 1750.03448096 1076.65313244 1750.03186873 1047.06136614 1750.03665972 C1045.08063039 1750.03696963 1043.09989463 1750.03727826 1041.11915888 1750.0375856 C1033.15962704 1750.03882744 1025.2000952 1750.0401021 1017.24056337 1750.04142465 C994.98965878 1750.04509289 972.73875415 1750.04737514 950.4878493 1750.0485692 C948.96790331 1750.04865108 948.96790331 1750.04865108 947.41725135 1750.04873461 C915.12378606 1750.05037199 882.83032461 1750.04586276 850.53686053 1750.03717089 C849.48927861 1750.03688989 848.44169669 1750.03660889 847.36236986 1750.03631938 C830.34975968 1750.03173946 813.33714959 1750.02686167 796.3245395 1750.02195869 C728.84835634 1750.00253298 661.37220493 1750.00343461 593.8960219 1750.02288103 C576.89204448 1750.0277657 559.88806704 1750.03260986 542.88408953 1750.03717089 C541.837127 1750.03745268 540.79016448 1750.03773447 539.71147581 1750.0380248 C507.45201696 1750.04664808 475.19256074 1750.05030692 442.93310076 1750.0485692 C441.92054525 1750.04851487 440.90798975 1750.04846053 439.86475074 1750.04840454 C417.63866699 1750.04715469 395.41258351 1750.04462026 373.18650003 1750.04092719 C365.23403608 1750.03961059 357.28157212 1750.03835828 349.32910816 1750.03712435 C347.35069844 1750.03681479 345.37228873 1750.03649987 343.39387901 1750.03617956 C313.80910677 1750.03140294 284.22434693 1750.03547533 254.63957623 1750.04557435 C253.18426312 1750.04607112 253.18426312 1750.04607112 251.69954973 1750.04657793 C250.73112667 1750.04690866 249.7627036 1750.04723939 248.76493438 1750.04758014 C216.12125489 1750.05860648 183.47760737 1750.05456793 150.83393246 1750.03345495 C147.33030901 1750.03124549 143.82668552 1750.02909868 140.323062 1750.0270009 C139.46319922 1750.02648008 138.60333643 1750.02595925 137.7174172 1750.02542264 C124.08892318 1750.01752568 110.46046884 1750.02303389 96.8319784 1750.03407693 C83.4389831 1750.04464473 70.04605489 1750.04096822 56.65306812 1750.02202058 C48.79635271 1750.01132995 40.93982105 1750.0115967 33.08311434 1750.02794696 C27.2569697 1750.03885271 21.43098238 1750.02899675 15.60485134 1750.01092187 C13.25759566 1750.00687992 10.91031659 1750.00959246 8.56307939 1750.01974562 C5.38183485 1750.03253418 2.20158519 1750.02072992 -0.97961324 1750.00279331 C-2.34046203 1750.01713776 -2.34046203 1750.01713776 -3.7288027 1750.031772 C-11.88204335 1749.93809605 -19.1140185 1747.82670933 -25.16452497 1742.18889666 C-30.49991806 1736.32499765 -33.41256775 1730.50025346 -33.41703215 1722.52307326 C-33.42001867 1721.51138005 -33.4230052 1720.49968685 -33.42608222 1719.45733628 C-33.42338212 1717.78847571 -33.42338212 1717.78847571 -33.42062747 1716.08590078 C-33.42265095 1714.89828062 -33.42467442 1713.71066046 -33.42675921 1712.48705181 C-33.43138839 1709.16921412 -33.43151115 1705.85143017 -33.42978967 1702.53359323 C-33.42900986 1698.91864289 -33.4340099 1695.30369985 -33.43827638 1691.68875259 C-33.4449809 1685.32151158 -33.44793224 1678.95427718 -33.44848084 1672.58703279 C-33.44931358 1663.05489627 -33.455827 1653.52276946 -33.46344381 1643.99063625 C-33.47624177 1627.74742403 -33.48418135 1611.50421259 -33.48947996 1595.26099634 C-33.49485653 1578.79200428 -33.50234026 1562.32301526 -33.51239294 1545.85402536 C-33.51302451 1544.81516723 -33.51365609 1543.77630909 -33.5143068 1542.70597041 C-33.5168818 1538.47508888 -33.5194654 1534.24420735 -33.52206165 1530.01332584 C-33.55568221 1475.10805462 -33.57616881 1420.20278017 -33.59450163 1365.29750205 C-33.59847755 1353.42397382 -33.60266351 1341.55044565 -33.60685704 1329.67691749 C-33.63801292 1241.35287936 -33.66509945 1153.02884027 -33.68180381 1064.70479814 C-33.68569067 1044.22332584 -33.68971076 1023.74185357 -33.69378806 1003.26038131 C-33.69429893 1000.68932024 -33.69480766 998.11825916 -33.69531426 995.54719809 C-33.71158733 912.96052384 -33.74858466 830.37387885 -33.79946806 747.78721906 C-33.83601347 688.45562342 -33.86972243 629.12403391 -33.88201708 569.79242754 C-33.88227117 568.57267156 -33.88252526 567.35291558 -33.88278705 566.0961973 C-33.88830299 539.32157677 -33.89214384 512.54695625 -33.89441252 485.77233525 C-33.89535052 474.99972053 -33.89650666 464.22710583 -33.89772695 453.45449114 C-33.89785448 452.27547459 -33.897982 451.09645804 -33.89811339 449.88171371 C-33.90232444 411.87810405 -33.92511751 373.87453352 -33.95748189 335.87093825 C-33.9899721 297.59961888 -34.00360001 259.32834219 -33.99108768 221.05700963 C-33.989363 215.77133195 -33.98785021 210.48565423 -33.98646444 205.19997644 C-33.98618483 204.16381357 -33.98590522 203.12765069 -33.98561714 202.06008894 C-33.98173781 185.63701641 -33.9980548 169.21402814 -34.02274435 152.79097631 C-34.04659159 136.65153092 -34.0491323 120.51219986 -34.02884002 104.3727483 C-34.01758062 94.90461309 -34.02281669 85.43683101 -34.05224756 75.96873289 C-34.07015056 69.68365697 -34.06635939 63.39883773 -34.04480106 57.11377385 C-34.03318424 53.54878261 -34.03087654 49.98448187 -34.05528844 46.41953974 C-34.08133275 42.58591828 -34.06078627 38.75333226 -34.03586662 34.91968584 C-34.05080175 33.82623806 -34.06573687 32.73279029 -34.08112458 31.60620773 C-33.96073744 22.87649093 -31.29334097 15.37765308 -25.70162006 8.56748372 C-18.54215598 1.82157357 -9.53625479 -0.10075264 0 0 Z " fill="#E6E6E6" transform="translate(989.2895249724388,819.4986033439636)"/>
<path d="M0 0 C7.05267309 0.64222997 14.03113992 0.75023553 21.109375 0.7265625 C22.29660156 0.73042969 23.48382812 0.73429687 24.70703125 0.73828125 C25.85042969 0.73699219 26.99382812 0.73570313 28.171875 0.734375 C29.19410156 0.73324707 30.21632813 0.73211914 31.26953125 0.73095703 C34.04089904 0.68345503 34.04089904 0.68345503 36.42662191 0.10186416 C39.30290067 -0.43452774 41.94802816 -0.52742444 44.87326813 -0.53265858 C46.03169362 -0.53711642 47.1901191 -0.54157426 48.3836484 -0.54616719 C49.65201147 -0.54598283 50.92037454 -0.54579847 52.22717285 -0.54560852 C53.59165791 -0.54890945 54.95614199 -0.5526355 56.32062483 -0.55675 C60.0695541 -0.56675217 63.81846736 -0.57048392 67.56740808 -0.57313931 C71.61123997 -0.57704769 75.65505924 -0.5866257 79.69888306 -0.59535217 C89.46483437 -0.61510212 99.23078669 -0.6251812 108.99675298 -0.63407996 C113.59849823 -0.63846551 118.20024234 -0.64383165 122.80198669 -0.64906883 C138.10423799 -0.6660801 153.40648857 -0.68057336 168.70874786 -0.68781757 C172.67855327 -0.68972739 176.64835868 -0.69164774 180.61816406 -0.69360352 C182.0981339 -0.69432913 182.0981339 -0.69432913 183.60800213 -0.6950694 C199.58419119 -0.70336631 215.5603053 -0.72869797 231.53646165 -0.76118419 C247.94785431 -0.79428268 264.35920892 -0.81226888 280.77063513 -0.81546181 C289.98135877 -0.81762439 299.19197312 -0.82633599 308.40266418 -0.85192299 C316.24841042 -0.87366816 324.09402081 -0.88166169 331.93979377 -0.87195621 C335.93942153 -0.86742246 339.93876925 -0.8692434 343.93835831 -0.88871765 C347.60776992 -0.9064291 351.27669884 -0.90528783 354.94611615 -0.88982036 C356.88581754 -0.88634572 358.82552448 -0.90241085 360.76515436 -0.91942483 C375.40549299 -0.8128968 392.73267955 4.46073957 403.59375 14.828125 C415.91337122 29.24335189 417.38148167 44.35518397 416.109375 62.6015625 C414.59053414 76.59739972 410.028366 90.09730953 405.671875 103.4140625 C402.96235099 111.69798667 400.38228656 119.9949539 398.01831055 128.38452148 C396.80470222 132.6799061 395.52572572 136.95403641 394.234375 141.2265625 C393.77858625 142.73956539 393.32286105 144.25258742 392.8671875 145.765625 C392.60317139 146.6414624 392.33915527 147.5172998 392.06713867 148.41967773 C390.61300742 153.25059607 389.16432011 158.0831451 387.7150116 162.91551208 C385.77975117 169.36779732 383.84311218 175.81966766 381.90588379 182.2713623 C380.54886534 186.79094462 379.19215978 191.3106208 377.83556366 195.8303299 C376.83975624 199.14794598 375.84377276 202.46550901 374.84741211 205.78295898 C368.92428849 225.50438546 368.92428849 225.50438546 363.09155273 245.25268555 C361.80324586 249.64535405 360.49193125 254.03084901 359.171875 258.4140625 C358.72523005 259.89973045 358.27861752 261.38540816 357.83203125 262.87109375 C357.57623291 263.7216333 357.32043457 264.57217285 357.05688477 265.44848633 C355.83340346 269.51992695 354.61202083 273.59199584 353.390625 277.6640625 C351.38367393 284.3550854 349.37564735 291.04578408 347.36643982 297.73612976 C346.084912 302.00360771 344.80379299 306.27120834 343.52270508 310.53881836 C342.87052441 312.71106785 342.21817985 314.88326814 341.56567383 317.05541992 C338.06168498 328.7205094 334.57061699 340.38875261 331.14428711 352.0769043 C329.83739178 356.52787102 328.50957206 360.97227315 327.171875 365.4140625 C326.72523005 366.89973045 326.27861752 368.38540816 325.83203125 369.87109375 C325.57429932 370.72807861 325.31656738 371.58506348 325.05102539 372.46801758 C323.86078689 376.42879308 322.6725686 380.39017315 321.484375 384.3515625 C319.29264348 391.65864367 317.0996062 398.96533181 314.90574646 406.27177429 C313.54878416 410.79122344 312.19211772 415.31076134 310.83556271 419.83033276 C309.83975572 423.14794792 308.84377247 426.46550997 307.84741211 429.78295898 C306.86417979 433.056762 305.88132975 436.3306795 304.89884758 439.60470772 C304.32963561 441.50148075 303.76022434 443.39819398 303.19081116 445.29490662 C301.18686974 451.97823358 299.20766261 458.66791079 297.2578125 465.3671875 C291.29519514 485.77199302 283.34434826 512.93941336 264.109375 524.6015625 C263.49578125 524.97796875 262.8821875 525.354375 262.25 525.7421875 C253.06027337 530.83071382 241.74505798 532.72267028 231.35230541 532.73184776 C230.36586444 532.73476291 230.36586444 532.73476291 229.35949537 532.73773694 C227.15844201 532.7430463 224.9574517 532.74129668 222.75639343 532.73959351 C221.16133088 532.7420125 219.56626895 532.74487506 217.97120792 532.74814284 C213.58972728 532.75588863 209.20826231 532.75751486 204.82677567 532.75819397 C200.10068863 532.760035 195.37461072 532.76764259 190.64852905 532.77467346 C182.45877382 532.78619583 174.26902065 532.79444183 166.07925987 532.80079269 C153.13419107 532.81112131 140.18914791 532.83168521 127.24409485 532.85391235 C122.81485661 532.86139191 118.38561827 532.86880566 113.95637989 532.87619972 C112.84948349 532.87805029 111.74258709 532.87990085 110.60214838 532.8818075 C98.00372967 532.90273226 85.40530813 532.92156201 72.80688477 532.93945312 C71.65527065 532.94109131 70.50365654 532.94272949 69.31714503 532.94441731 C50.65151564 532.97070701 31.98588428 532.98934842 13.32024422 533.00604503 C-5.84389278 533.02346445 -25.00799094 533.05230725 -44.17209691 533.0909344 C-55.99255572 533.11433328 -67.81295121 533.12832887 -79.63343336 533.13026203 C-87.73361966 533.13237109 -95.83374297 533.14529774 -103.93390099 533.16674136 C-108.60738439 533.17877038 -113.28074274 533.18592163 -117.9542408 533.18002892 C-122.23459971 533.1747285 -126.51470365 533.1832268 -130.79502001 533.20258529 C-132.34141732 533.20715501 -133.88783961 533.20669832 -135.4342318 533.20063691 C-149.03621432 533.10929495 -149.03621432 533.10929495 -160.953125 538.9765625 C-164.40025803 543.79294001 -163.70947274 550.02400124 -162.890625 555.6015625 C-161.7279456 559.05226696 -160.07599883 561.70379965 -157.890625 564.6015625 C-157.3440625 565.35050781 -156.7975 566.09945312 -156.234375 566.87109375 C-147.94025653 577.18602499 -136.59490847 582.74878635 -123.890625 585.6015625 C-118.113539 586.14078865 -112.38136188 586.12420471 -106.5838623 586.07826233 C-104.86186383 586.07945849 -103.13986584 586.08240493 -101.41787291 586.08693498 C-96.71773934 586.09420837 -92.01798823 586.07657221 -87.31791282 586.05457723 C-82.23673443 586.03517468 -77.15556412 586.03901598 -72.07435608 586.0397644 C-62.13281957 586.03742367 -52.19145233 586.01324387 -42.24997246 585.98094846 C-34.16782824 585.95501694 -26.08569982 585.93663242 -18.00352478 585.92358208 C-16.85171391 585.92170837 -15.69990304 585.91983466 -14.51318881 585.91790418 C-12.17305428 585.91411789 -9.83291973 585.91034346 -7.49278516 585.90658074 C14.4328926 585.87033253 36.35844383 585.80868264 58.28403646 585.73878979 C77.08307259 585.67953019 95.8820336 585.64416697 114.68115234 585.62573242 C136.53023359 585.6043069 158.37919223 585.56646609 180.22819662 585.50371927 C182.55955593 585.49708034 184.89091532 585.49046875 187.22227478 585.48388481 C188.36924466 585.48064431 189.51621455 585.47740381 190.69794109 585.47406511 C198.76714175 585.45244575 206.83630641 585.44268091 214.90553284 585.43766975 C224.74391096 585.43131017 234.58205771 585.40735448 244.4203316 585.36095238 C249.43667786 585.3377536 254.45271096 585.32242011 259.4691143 585.32879829 C264.06723208 585.33442524 268.66467311 585.31684236 273.26265138 585.28127389 C274.91992925 585.27242726 276.57727774 585.27183507 278.23455578 585.28064836 C291.55989978 585.34401243 302.80098679 583.23258414 313.109375 574.15234375 C318.84856318 566.83263694 321.30656539 558.28777331 323.609375 549.4140625 C324.21069394 547.18022107 324.81484693 544.94714053 325.421875 542.71484375 C325.710625 541.65217285 325.999375 540.58950195 326.296875 539.49462891 C327.28418611 535.97911307 328.41102557 532.55075904 329.609375 529.1015625 C331.86605698 522.5682832 333.71631427 515.95339347 335.546875 509.2890625 C337.77952565 501.16879812 340.17634085 493.16046236 342.91210938 485.19677734 C344.80191138 479.6489302 346.46038404 474.05567456 348.046875 468.4140625 C352.28607053 453.34059513 356.88064077 438.3832123 361.671875 423.4765625 C364.21828029 415.5478383 366.58380636 407.58383242 368.84008789 399.56811523 C371.50558686 390.12380181 374.39109427 380.74902635 377.265625 371.36669922 C378.56257353 367.11634069 379.8365893 362.85920714 381.109375 358.6015625 C384.69811257 346.60960636 388.35364289 334.63807991 392.00488281 322.66503906 C395.05860667 312.64949228 398.1067739 302.63257065 401.109375 292.6015625 C405.52560647 277.85970521 409.95928588 263.12682231 414.671875 248.4765625 C417.21898858 240.54633751 419.58282755 232.58020405 421.84228516 224.5637207 C425.54975238 211.44075502 429.54930637 198.4043048 433.73779297 185.42724609 C437.01059447 175.2861452 440.00114924 165.0934614 442.80078125 154.81103516 C443.0740625 153.81249512 443.34734375 152.81395508 443.62890625 151.78515625 C443.86714111 150.90400146 444.10537598 150.02284668 444.35083008 149.11499023 C445.109375 146.6015625 445.109375 146.6015625 446.17602539 143.98583984 C447.38301667 140.90253438 447.5345572 138.08605619 447.734375 134.7890625 C447.80914063 133.62761719 447.88390625 132.46617187 447.9609375 131.26953125 C448.00992188 130.38910156 448.05890625 129.50867187 448.109375 128.6015625 C458.37080304 130.09958119 467.92125502 137.54041004 474.109375 145.6015625 C483.69371807 161.61218924 485.29120965 177.25495181 481.21484375 195.359375 C479.07742939 203.79040082 476.55092551 212.11822918 474.05322266 220.44775391 C472.53082283 225.53475882 471.03675526 230.62995291 469.546875 235.7265625 C469.25804443 236.71229248 468.96921387 237.69802246 468.67163086 238.71362305 C466.67240984 245.57155355 464.77666521 252.45332399 462.921875 259.3515625 C461.16987318 265.861842 459.30675122 272.27960478 457.09765625 278.65234375 C455.40002209 283.71840616 453.95037409 288.85921861 452.45703125 293.98828125 C451.0545217 298.80469926 449.61630492 303.61007306 448.171875 308.4140625 C447.84727295 309.49397461 447.84727295 309.49397461 447.51611328 310.59570312 C447.02803111 312.21915987 446.53963393 313.84252191 446.05102539 315.46582031 C445.33194715 317.86038629 444.6152461 320.25561315 443.90014648 322.65136719 C440.89112371 332.72174313 437.8393337 342.77849611 434.76171875 352.828125 C434.18787193 354.70297829 434.18787193 354.70297829 433.60243225 356.6157074 C432.01882415 361.78915627 430.43509213 366.96256466 428.84741211 372.13476562 C423.0463105 391.02884007 423.0463105 391.02884007 417.64720154 410.0405426 C416.29874627 414.97940419 414.80178746 419.83362264 413.109375 424.6640625 C410.88105097 431.18889401 408.84424278 437.74530398 406.92700195 444.36767578 C405.4154557 449.5839216 403.82499059 454.77119814 402.19506836 459.9519043 C397.43757254 475.08574122 392.7651255 490.24530365 388.32983398 505.47680664 C387.21319463 509.27787686 386.03613681 513.05786943 384.84375 516.8359375 C382.09805347 525.57864427 379.45414427 534.35105488 376.82495117 543.12939453 C376.045483 545.73120891 375.26404291 548.33242542 374.48242188 550.93359375 C373.97126731 552.63799479 373.46019845 554.34242153 372.94921875 556.046875 C372.70108429 556.87215698 372.45294983 557.69743896 372.19729614 558.54772949 C371.090461 562.24510764 370.00373851 565.9437733 368.99755859 569.66992188 C367.22604119 576.1918916 365.34853467 582.04965005 361.859375 587.8515625 C361.46806396 588.5221167 361.07675293 589.1926709 360.67358398 589.88354492 C357.29638714 595.54585779 353.47217257 600.65651187 349.109375 605.6015625 C348.36171875 606.49230469 347.6140625 607.38304687 346.84375 608.30078125 C334.18552724 622.93940337 315.09335268 637.04072436 295.25787055 638.97766256 C290.76389269 639.1764247 286.27075448 639.15489761 281.77342224 639.13641357 C280.03593299 639.14389816 278.29845047 639.15310581 276.56097847 639.16387486 C271.81322993 639.18822343 267.06576442 639.18782727 262.31796777 639.18309736 C257.18684433 639.18227818 252.05580991 639.20438647 246.92472839 639.22332764 C236.88150608 639.25648897 226.8383777 639.26754409 216.79510521 639.26977715 C208.62668097 639.27168102 200.45828759 639.27991612 192.28987312 639.29257965 C169.10456585 639.32778957 145.91933249 639.3462599 122.73399829 639.34325776 C120.86089497 639.34301802 120.86089497 639.34301802 118.94995117 639.34277344 C117.69968165 639.34260991 116.44941214 639.34244639 115.16125567 639.34227791 C94.90863245 639.34065285 74.65630697 639.37891541 54.40376984 639.4353269 C33.58279853 639.49286164 12.76197224 639.52040322 -8.05908054 639.5169518 C-19.73813421 639.51562658 -31.41687579 639.52649711 -43.09585762 639.569664 C-53.04134655 639.60618954 -62.98638193 639.61469957 -72.93190909 639.58762631 C-77.99985573 639.57461718 -83.0669336 639.57414636 -88.13479614 639.60903931 C-126.56479147 639.85720317 -126.56479147 639.85720317 -140.13478553 631.64782572 C-142.64832062 630.1500696 -145.26958202 628.899353 -147.90070349 627.62328982 C-176.06017438 613.61359963 -195.80735003 590.68465374 -205.86328125 561.05859375 C-210.91016681 544.07572788 -211.97551355 529.01284615 -208.4609375 511.75244141 C-206.85326682 503.7639714 -205.83801017 495.7893939 -205.10400391 487.67773438 C-204.95120161 486.19097155 -204.76171003 484.70780106 -204.54833984 483.22851562 C-204.43828613 482.43896484 -204.32823242 481.64941406 -204.21484375 480.8359375 C-204.05181763 479.76424316 -204.05181763 479.76424316 -203.88549805 478.67089844 C-203.89172698 476.15678293 -204.66745969 474.76860561 -205.890625 472.6015625 C-207.46619152 465.6858015 -204.82603326 460.90959626 -201.20703125 455.1484375 C-200.4353487 453.96585019 -199.66317386 452.78358405 -198.890625 451.6015625 C-194.84857214 445.2947303 -190.84230018 438.96543289 -186.890625 432.6015625 C-186.43719727 431.87195312 -185.98376953 431.14234375 -185.51660156 430.390625 C-178.19244089 418.42655103 -173.50509762 405.97592848 -168.98291016 392.73339844 C-166.94126685 386.87953159 -164.68704324 381.10725502 -162.45263672 375.32495117 C-162.14471191 374.52549072 -161.83678711 373.72603027 -161.51953125 372.90234375 C-161.25213135 372.21309814 -160.98473145 371.52385254 -160.70922852 370.8137207 C-160.43908936 370.0837085 -160.1689502 369.35369629 -159.890625 368.6015625 C-159.52743164 367.65095947 -159.16423828 366.70035645 -158.79003906 365.72094727 C-157.83139761 362.39614765 -157.73208154 359.83759831 -157.87109375 356.390625 C-157.90009766 355.22789062 -157.92910156 354.06515625 -157.95898438 352.8671875 C-158.03816957 350.44749565 -158.12924465 348.02816259 -158.23242188 345.609375 C-158.39628572 338.01281518 -157.80530973 333.44480767 -152.890625 327.6015625 C-147.11349283 320.66397774 -142.75409567 314.11849184 -139.078125 305.8515625 C-138.32390259 304.18601318 -138.32390259 304.18601318 -137.55444336 302.48681641 C-132.07032022 290.13704076 -127.44351075 277.49915168 -123.01367188 264.73974609 C-122.11158375 262.2189981 -121.15098099 259.76622453 -120.09375 257.30859375 C-117.48684875 250.71079031 -116.62655443 244.64146002 -116.8125 237.58984375 C-116.81942368 236.86373901 -116.82634735 236.13763428 -116.83348083 235.38952637 C-116.87096452 231.66200169 -116.97796525 227.94650463 -117.16137695 224.22338867 C-117.6242596 212.59181735 -117.6242596 212.59181735 -114.35546875 208.0546875 C-112.69311523 206.27148438 -112.69311523 206.27148438 -110.890625 204.6015625 C-109.99742554 203.7053418 -109.99742554 203.7053418 -109.08618164 202.79101562 C-106.59800629 200.33203574 -104.04802294 197.94786891 -101.45703125 195.59765625 C-92.44554493 186.99159467 -88.54106799 174.7893049 -83.890625 163.4765625 C-83.63082855 162.84592896 -83.3710321 162.21529541 -83.10336304 161.56555176 C-79.9506428 153.89549559 -76.86901273 146.20702216 -74.203125 138.3515625 C-73.85604492 137.34585205 -73.85604492 137.34585205 -73.50195312 136.31982422 C-71.17842039 129.15438432 -70.81102568 122.39720143 -71.00390625 114.9140625 C-71.03419922 113.72039062 -71.06449219 112.52671875 -71.09570312 111.296875 C-71.16733645 108.83268877 -71.25849942 106.36899311 -71.36914062 103.90625 C-71.56854865 93.92507 -69.08684393 89.07971489 -62.390625 81.93359375 C-61.565625 81.10214844 -60.740625 80.27070312 -59.890625 79.4140625 C-51.19392575 69.840078 -46.65509958 56.87873142 -41.47851562 45.18359375 C-26.65806611 11.75099299 -26.65806611 11.75099299 -13.890625 3.6015625 C-12.95476562 2.93640625 -12.95476562 2.93640625 -12 2.2578125 C-7.87386868 -0.30801706 -4.80146668 -0.50806392 0 0 Z " fill="#050404" transform="translate(1551.890625,1197.3984375)"/>
<path d="M0 0 C0.99264013 -0.00560927 1.98528026 -0.01121854 3.00800039 -0.01699778 C6.33144312 -0.03090757 9.65413991 -0.01637644 12.97757155 -0.00196791 C15.39567093 -0.0061412 17.81376782 -0.01206675 20.23185912 -0.01958537 C25.50431864 -0.03193466 30.7765611 -0.03184832 36.04900789 -0.02085119 C43.94203026 -0.00446255 51.83491871 -0.01119011 59.72794416 -0.02238176 C73.18062984 -0.04077839 86.63325502 -0.04018339 100.08594614 -0.02925825 C113.71916467 -0.01825393 127.35234338 -0.0159313 140.98556429 -0.02420759 C141.84659234 -0.02472428 142.70762038 -0.02524097 143.59474018 -0.02577332 C147.10156412 -0.0279064 150.60838801 -0.03010123 154.11521186 -0.03237442 C186.78128107 -0.05353433 219.4473236 -0.05496542 252.1133967 -0.04378462 C253.56546862 -0.04328785 253.56546862 -0.04328785 255.04687532 -0.04278104 C256.01647001 -0.04244932 256.98606471 -0.0421176 257.98504107 -0.04177583 C287.51139706 -0.03168749 317.03774202 -0.02907549 346.56409937 -0.03386641 C348.54048748 -0.03417632 350.5168756 -0.03448495 352.49326371 -0.03479229 C360.43534347 -0.03603413 368.37742323 -0.03730879 376.31950298 -0.03863134 C398.52169356 -0.04229958 420.72388419 -0.04458183 442.92607504 -0.04577589 C443.93715604 -0.04583047 444.94823703 -0.04588506 445.98995684 -0.04594129 C478.21291394 -0.04757868 510.43586719 -0.04306943 542.65882307 -0.03437757 C543.70411896 -0.03409658 544.74941486 -0.03381558 545.82638638 -0.03352607 C562.80184056 -0.02894615 579.77729466 -0.02406836 596.75274875 -0.01916538 C664.07891881 0.00025958 731.40505706 -0.00064064 798.73122698 -0.02008772 C815.6968791 -0.0249724 832.66253122 -0.02981657 849.62818342 -0.03437757 C850.67279127 -0.03465937 851.71739911 -0.03494116 852.79366173 -0.03523149 C884.98180229 -0.04385509 917.1699402 -0.04751354 949.35808188 -0.04577589 C950.36843605 -0.04572155 951.37879022 -0.04566722 952.41976118 -0.04561123 C974.5978048 -0.04436136 996.77584814 -0.0418269 1018.95389148 -0.03813388 C1026.88923204 -0.03681729 1034.82457262 -0.03556497 1042.75991319 -0.03433103 C1044.73405827 -0.03402148 1046.70820334 -0.03370656 1048.68234842 -0.03338625 C1078.20091371 -0.02861002 1107.71946657 -0.03268126 1137.23803032 -0.04278104 C1138.68997804 -0.04327781 1138.68997804 -0.04327781 1140.17125803 -0.04378462 C1141.62053275 -0.04428071 1141.62053275 -0.04428071 1143.09908574 -0.04478683 C1175.67107165 -0.05581445 1208.24302552 -0.05177203 1240.81500684 -0.03066164 C1244.31133276 -0.02845218 1247.80765871 -0.02630537 1251.3039847 -0.02420759 C1252.59108885 -0.02342635 1252.59108885 -0.02342635 1253.9041951 -0.02262933 C1267.50140085 -0.01473398 1281.09856683 -0.02023887 1294.69576901 -0.03128362 C1308.05973509 -0.04185435 1321.42363393 -0.03816952 1334.78759147 -0.01922726 C1342.62614839 -0.00854107 1350.46452112 -0.0087957 1358.3030693 -0.02515365 C1364.1175622 -0.03606735 1369.93189764 -0.0261936 1375.74637694 -0.00812855 C1378.08759972 -0.00408969 1380.42884598 -0.00679115 1382.77005019 -0.01695231 C1409.84233141 -0.12614046 1409.84233141 -0.12614046 1419.21047503 8.72405291 C1424.18458964 14.61786058 1426.83469579 20.79478137 1426.8365642 28.47898005 C1426.83923391 29.49050708 1426.84190362 30.50203411 1426.84465423 31.54421347 C1426.84142252 33.21279397 1426.84142252 33.21279397 1426.83812553 34.91508317 C1426.8406017 36.69621715 1426.8406017 36.69621715 1426.84312789 38.51333364 C1426.84671624 41.83061371 1426.84579339 45.14783851 1426.8430261 48.46511582 C1426.8411093 52.07945015 1426.84498216 55.69377896 1426.84812289 59.30811179 C1426.85284579 65.67425023 1426.85381872 72.0403809 1426.85239455 78.40652081 C1426.85027816 87.93694468 1426.85388003 97.46736046 1426.85860932 106.99778308 C1426.86649347 123.23794039 1426.86957191 139.4780955 1426.87005526 155.71825457 C1426.87055713 172.18401748 1426.87319879 188.64977793 1426.87846285 205.11554003 C1426.87879298 206.15419014 1426.87912312 207.19284026 1426.87946326 208.26296462 C1426.88081321 212.49299005 1426.88217587 216.72301548 1426.88355536 220.9530409 C1426.89987089 271.07125527 1426.90624547 321.18946917 1426.91100323 371.30768574 C1426.91338494 396.2550639 1426.9170881 421.2024418 1426.92104033 446.14981975 C1426.93370543 526.13840814 1426.94448968 606.12699652 1426.94788079 686.1155859 C1426.94804303 689.93977381 1426.94820859 693.76396172 1426.94837517 697.58814964 C1426.94870897 705.25785047 1426.94903946 712.9275513 1426.94936973 720.59725213 C1426.94975663 729.57695467 1426.95014624 738.55665722 1426.95054079 747.53635976 C1426.95065321 750.10644103 1426.95076463 752.67652229 1426.95087505 755.24660356 C1426.95442551 837.81241639 1426.96950779 920.37822052 1426.99281279 1002.94403003 C1427.00954884 1062.26114724 1427.0250271 1121.57826281 1427.02954775 1180.8953824 C1427.02968798 1182.72426368 1427.02968798 1182.72426368 1427.02983104 1184.59009205 C1427.03184986 1211.35259785 1427.03300609 1238.11510361 1427.03335963 1264.87760947 C1427.03349581 1274.45317507 1427.0337048 1284.02874067 1427.03395288 1293.60430627 C1427.03401444 1295.98656386 1427.03407276 1298.36882146 1427.03412783 1300.75107905 C1427.03504852 1338.74742382 1427.04502718 1376.74375953 1427.05958532 1414.74010132 C1427.07418533 1452.99873094 1427.07925305 1491.25734942 1427.07116577 1529.51598133 C1427.07005033 1534.79787055 1427.06903969 1540.07975978 1427.06809145 1545.36164904 C1427.06790148 1546.39708464 1427.06771152 1547.43252025 1427.06751579 1548.4993327 C1427.0647777 1564.92204975 1427.07213833 1581.34474627 1427.08366482 1597.76745886 C1427.09477887 1613.89983305 1427.09526378 1630.03217809 1427.08429463 1646.16455271 C1427.0781791 1655.6328711 1427.08034349 1665.10110176 1427.09454661 1674.56941196 C1427.10315347 1680.84951446 1427.10097394 1687.12955209 1427.0898479 1693.40965053 C1427.08383852 1696.9749392 1427.08256291 1700.54005528 1427.09453276 1704.10533281 C1427.10727874 1707.93241245 1427.09691948 1711.75922906 1427.08422118 1715.58631349 C1427.09533393 1717.24054953 1427.09533393 1717.24054953 1427.10667117 1718.92820449 C1427.04594031 1727.58615917 1425.56849486 1734.08946872 1419.64797503 1740.75139666 C1418.95574847 1741.56092791 1418.2635219 1742.37045916 1417.55031878 1743.20452166 C1410.64758005 1748.78747953 1403.0590782 1750.0940611 1394.4005633 1750.00279331 C1393.40571566 1750.00840258 1392.41086801 1750.01401185 1391.38587347 1750.01979109 C1388.05490826 1750.03370132 1384.72468724 1750.01916952 1381.39373308 1750.00476122 C1378.9702148 1750.00893449 1376.54669901 1750.01486003 1374.12318879 1750.02237868 C1368.83884907 1750.03472812 1363.55472592 1750.0346415 1358.27039891 1750.02364451 C1350.35960607 1750.00725608 1342.44894685 1750.01398333 1334.53815093 1750.02517507 C1321.05522212 1750.0435718 1307.57235367 1750.04297666 1294.08941942 1750.03205156 C1280.42556319 1750.02104729 1266.76174668 1750.01872457 1253.09788805 1750.0270009 C1252.23492971 1750.02751759 1251.37197136 1750.02803429 1250.48286276 1750.02856663 C1246.9681799 1750.03069971 1243.45349709 1750.03289454 1239.93881431 1750.03516774 C1207.19966873 1750.05632757 1174.46054978 1750.05775879 1141.72140032 1750.04657793 C1140.75119158 1750.04624675 1139.78098283 1750.04591557 1138.78137382 1750.04557435 C1137.8096154 1750.04524263 1136.83785697 1750.04491091 1135.83665133 1750.04456914 C1106.24488638 1750.03448096 1076.65313244 1750.03186873 1047.06136614 1750.03665972 C1045.08063039 1750.03696963 1043.09989463 1750.03727826 1041.11915888 1750.0375856 C1033.15962704 1750.03882744 1025.2000952 1750.0401021 1017.24056337 1750.04142465 C994.98965878 1750.04509289 972.73875415 1750.04737514 950.4878493 1750.0485692 C948.96790331 1750.04865108 948.96790331 1750.04865108 947.41725135 1750.04873461 C915.12378606 1750.05037199 882.83032461 1750.04586276 850.53686053 1750.03717089 C849.48927861 1750.03688989 848.44169669 1750.03660889 847.36236986 1750.03631938 C830.34975968 1750.03173946 813.33714959 1750.02686167 796.3245395 1750.02195869 C728.84835634 1750.00253298 661.37220493 1750.00343461 593.8960219 1750.02288103 C576.89204448 1750.0277657 559.88806704 1750.03260986 542.88408953 1750.03717089 C541.837127 1750.03745268 540.79016448 1750.03773447 539.71147581 1750.0380248 C507.45201696 1750.04664808 475.19256074 1750.05030692 442.93310076 1750.0485692 C441.92054525 1750.04851487 440.90798975 1750.04846053 439.86475074 1750.04840454 C417.63866699 1750.04715469 395.41258351 1750.04462026 373.18650003 1750.04092719 C365.23403608 1750.03961059 357.28157212 1750.03835828 349.32910816 1750.03712435 C347.35069844 1750.03681479 345.37228873 1750.03649987 343.39387901 1750.03617956 C313.80910677 1750.03140294 284.22434693 1750.03547533 254.63957623 1750.04557435 C253.18426312 1750.04607112 253.18426312 1750.04607112 251.69954973 1750.04657793 C250.73112667 1750.04690866 249.7627036 1750.04723939 248.76493438 1750.04758014 C216.12125489 1750.05860648 183.47760737 1750.05456793 150.83393246 1750.03345495 C147.33030901 1750.03124549 143.82668552 1750.02909868 140.323062 1750.0270009 C139.46319922 1750.02648008 138.60333643 1750.02595925 137.7174172 1750.02542264 C124.08892318 1750.01752568 110.46046884 1750.02303389 96.8319784 1750.03407693 C83.4389831 1750.04464473 70.04605489 1750.04096822 56.65306812 1750.02202058 C48.79635271 1750.01132995 40.93982105 1750.0115967 33.08311434 1750.02794696 C27.2569697 1750.03885271 21.43098238 1750.02899675 15.60485134 1750.01092187 C13.25759566 1750.00687992 10.91031659 1750.00959246 8.56307939 1750.01974562 C5.38183485 1750.03253418 2.20158519 1750.02072992 -0.97961324 1750.00279331 C-2.34046203 1750.01713776 -2.34046203 1750.01713776 -3.7288027 1750.031772 C-11.88204335 1749.93809605 -19.1140185 1747.82670933 -25.16452497 1742.18889666 C-30.49991806 1736.32499765 -33.41256775 1730.50025346 -33.41703215 1722.52307326 C-33.42001867 1721.51138005 -33.4230052 1720.49968685 -33.42608222 1719.45733628 C-33.42338212 1717.78847571 -33.42338212 1717.78847571 -33.42062747 1716.08590078 C-33.42265095 1714.89828062 -33.42467442 1713.71066046 -33.42675921 1712.48705181 C-33.43138839 1709.16921412 -33.43151115 1705.85143017 -33.42978967 1702.53359323 C-33.42900986 1698.91864289 -33.4340099 1695.30369985 -33.43827638 1691.68875259 C-33.4449809 1685.32151158 -33.44793224 1678.95427718 -33.44848084 1672.58703279 C-33.44931358 1663.05489627 -33.455827 1653.52276946 -33.46344381 1643.99063625 C-33.47624177 1627.74742403 -33.48418135 1611.50421259 -33.48947996 1595.26099634 C-33.49485653 1578.79200428 -33.50234026 1562.32301526 -33.51239294 1545.85402536 C-33.51302451 1544.81516723 -33.51365609 1543.77630909 -33.5143068 1542.70597041 C-33.5168818 1538.47508888 -33.5194654 1534.24420735 -33.52206165 1530.01332584 C-33.55568221 1475.10805462 -33.57616881 1420.20278017 -33.59450163 1365.29750205 C-33.59847755 1353.42397382 -33.60266351 1341.55044565 -33.60685704 1329.67691749 C-33.63801292 1241.35287936 -33.66509945 1153.02884027 -33.68180381 1064.70479814 C-33.68569067 1044.22332584 -33.68971076 1023.74185357 -33.69378806 1003.26038131 C-33.69429893 1000.68932024 -33.69480766 998.11825916 -33.69531426 995.54719809 C-33.71158733 912.96052384 -33.74858466 830.37387885 -33.79946806 747.78721906 C-33.83601347 688.45562342 -33.86972243 629.12403391 -33.88201708 569.79242754 C-33.88227117 568.57267156 -33.88252526 567.35291558 -33.88278705 566.0961973 C-33.88830299 539.32157677 -33.89214384 512.54695625 -33.89441252 485.77233525 C-33.89535052 474.99972053 -33.89650666 464.22710583 -33.89772695 453.45449114 C-33.89785448 452.27547459 -33.897982 451.09645804 -33.89811339 449.88171371 C-33.90232444 411.87810405 -33.92511751 373.87453352 -33.95748189 335.87093825 C-33.9899721 297.59961888 -34.00360001 259.32834219 -33.99108768 221.05700963 C-33.989363 215.77133195 -33.98785021 210.48565423 -33.98646444 205.19997644 C-33.98618483 204.16381357 -33.98590522 203.12765069 -33.98561714 202.06008894 C-33.98173781 185.63701641 -33.9980548 169.21402814 -34.02274435 152.79097631 C-34.04659159 136.65153092 -34.0491323 120.51219986 -34.02884002 104.3727483 C-34.01758062 94.90461309 -34.02281669 85.43683101 -34.05224756 75.96873289 C-34.07015056 69.68365697 -34.06635939 63.39883773 -34.04480106 57.11377385 C-34.03318424 53.54878261 -34.03087654 49.98448187 -34.05528844 46.41953974 C-34.08133275 42.58591828 -34.06078627 38.75333226 -34.03586662 34.91968584 C-34.05080175 33.82623806 -34.06573687 32.73279029 -34.08112458 31.60620773 C-33.96073744 22.87649093 -31.29334097 15.37765308 -25.70162006 8.56748372 C-18.54215598 1.82157357 -9.53625479 -0.10075264 0 0 Z M-21.66452497 22.00139666 C-22.12600935 22.56858416 -22.58749372 23.13577166 -23.06296247 23.72014666 C-25.56913106 27.35967811 -26.53952727 30.01223891 -26.54028531 34.46103795 C-26.54530791 35.46855044 -26.55033052 36.47606294 -26.55550533 37.51410611 C-26.55084198 38.62199647 -26.54617863 39.72988684 -26.54137397 40.87134963 C-26.54430283 42.05403553 -26.5472317 43.23672142 -26.55024932 44.45524629 C-26.5563852 47.75927867 -26.55349408 51.06308605 -26.5469135 54.36710336 C-26.54194283 57.96696849 -26.54856147 61.5668151 -26.55371717 65.16667739 C-26.56118129 71.5073007 -26.56114882 77.84789046 -26.55632768 84.18851582 C-26.54914573 93.68072196 -26.55343798 103.17289898 -26.56000903 112.66510432 C-26.57086351 128.84010086 -26.57215928 145.01508578 -26.56831068 161.19008493 C-26.56443974 177.5897341 -26.56488102 193.98937459 -26.57062048 210.3890233 C-26.5709793 211.42350431 -26.57133813 212.45798533 -26.57170783 213.52381425 C-26.57318268 217.73685877 -26.57468707 221.94990328 -26.57622929 226.16294778 C-26.59188174 268.97269373 -26.59454135 311.78243372 -26.59207323 354.59218202 C-26.5917348 360.5114951 -26.5914127 366.43080818 -26.59110755 372.35012126 C-26.5910465 373.52576874 -26.59098546 374.70141623 -26.59092257 375.91268939 C-26.58965176 401.94347709 -26.59225006 427.97426396 -26.59563361 454.00505141 C-26.59640435 459.94520753 -26.59714907 465.88536365 -26.59789863 471.82551977 C-26.59820032 474.20946354 -26.5985022 476.59340731 -26.59880427 478.97735108 C-26.59895395 480.15901139 -26.59910363 481.34067171 -26.59925785 482.55813991 C-26.59956137 484.94826081 -26.59986606 487.3383817 -26.60017189 489.72850259 C-26.60884799 557.56940537 -26.61348661 625.41030742 -26.60922426 693.25121069 C-26.6091462 694.50805209 -26.60906815 695.76489349 -26.60898772 697.05982099 C-26.60811489 711.0756413 -26.60718563 725.0914616 -26.60623709 739.1072819 C-26.60615158 740.37275744 -26.60606607 741.63823297 -26.60597797 742.94205625 C-26.60545918 750.6186074 -26.60545918 750.6186074 -26.60493574 758.29515854 C-26.59939929 839.24891883 -26.60694276 920.20266772 -26.62570661 1001.15642595 C-26.63042863 1021.55420126 -26.63510905 1041.95197658 -26.63954347 1062.34975195 C-26.6398168 1063.60563527 -26.64009012 1064.8615186 -26.64037172 1066.15545899 C-26.64873971 1104.84688082 -26.65342237 1143.53830169 -26.65425104 1182.22972441 C-26.65427741 1183.44402059 -26.65430377 1184.65831677 -26.65433094 1185.90940981 C-26.65487166 1212.56282085 -26.65449941 1239.21623181 -26.65329122 1265.86964282 C-26.65286558 1275.4061116 -26.65250046 1284.94258039 -26.65216178 1294.47904918 C-26.65207648 1296.85158436 -26.65198754 1299.22411954 -26.65189496 1301.59665472 C-26.65044469 1339.44050818 -26.65758214 1377.2843539 -26.66889892 1415.12820551 C-26.68053415 1454.2905001 -26.68112894 1493.45278085 -26.6690555 1532.61507551 C-26.66780361 1536.8165726 -26.66660013 1541.0180697 -26.66543478 1545.21956682 C-26.66514448 1546.25071833 -26.66485419 1547.28186984 -26.6645551 1548.34426837 C-26.660222 1564.70174832 -26.66597391 1581.05920869 -26.67587497 1597.41668557 C-26.68538926 1613.48335032 -26.68426806 1629.54998471 -26.67166875 1645.61664767 C-26.66459423 1655.0474674 -26.6657986 1664.47820004 -26.67901713 1673.90901365 C-26.68696932 1680.16301291 -26.68414964 1686.41694588 -26.67236749 1692.67093899 C-26.66598405 1696.22219861 -26.66435203 1699.77328549 -26.6759347 1703.32453585 C-26.68825961 1707.13491098 -26.67752888 1710.94501897 -26.6644218 1714.75539619 C-26.67171216 1715.85611432 -26.67900252 1716.95683246 -26.6865138 1718.09090569 C-26.6219207 1727.10819245 -24.77978416 1732.86020121 -18.28952497 1739.50139666 C-11.39683494 1743.75433306 -4.38042776 1743.64746177 3.46177381 1743.62789649 C4.93633304 1743.63018631 4.93633304 1743.63018631 6.44068135 1743.63252239 C9.75528206 1743.6364385 13.0698376 1743.63319978 16.38443857 1743.63003111 C18.78684258 1743.63137698 21.18924638 1743.63316042 23.59164977 1743.63534334 C28.84204685 1743.63909684 34.0924307 1743.6397222 39.34282772 1743.6376374 C47.20290709 1743.63453346 55.06297736 1743.6371728 62.92305606 1743.64093611 C76.31799508 1743.64717729 89.71293086 1743.64864112 103.10787112 1743.64751863 C116.68631633 1743.64639509 130.26475881 1743.64742509 143.8432036 1743.6510911 C144.70014873 1743.65132075 145.55709387 1743.6515504 146.44000703 1743.65178702 C149.93009147 1743.65272863 153.42017591 1743.65368432 156.91026034 1743.65465821 C193.34010657 1743.66480893 229.76995127 1743.66786442 266.19979875 1743.66845032 C270.12242918 1743.66851506 274.04505962 1743.668583 277.96769005 1743.66865373 C278.9410645 1743.66867073 279.91443895 1743.66868774 280.9173096 1743.66870526 C302.47505529 1743.66911349 324.03280067 1743.67130269 345.5905462 1743.67380957 C354.46369023 1743.67483791 363.33683425 1743.67582793 372.20997828 1743.67682582 C373.68052741 1743.67699171 373.68052741 1743.67699171 375.1807846 1743.67716094 C431.36974769 1743.6834861 487.55871059 1743.68760994 543.74767405 1743.68715239 C545.8510111 1743.68713661 547.95434815 1743.68712087 550.0576852 1743.68710518 C559.55436849 1743.68703179 569.05105177 1743.68694362 578.54773505 1743.68685129 C582.78266849 1743.68681017 587.01760192 1743.68677002 591.25253536 1743.68672998 C593.37219699 1743.68670958 595.49185861 1743.68668856 597.61152024 1743.68666692 C664.65052956 1743.68598654 731.68953359 1743.69330585 798.72854143 1743.7072072 C815.6208239 1743.71070811 832.51310638 1743.71417751 849.40538889 1743.7174716 C850.44545665 1743.71767447 851.4855244 1743.71787735 852.55710937 1743.71808637 C884.60210289 1743.72429929 916.64709599 1743.72806653 948.69209009 1743.72932959 C949.69786181 1743.72936954 950.70363353 1743.72940949 951.73988318 1743.72945065 C973.81672218 1743.73030384 995.89356117 1743.73056515 1017.97040019 1743.73028027 C1025.86945553 1743.73018378 1033.76851087 1743.73013174 1041.66756621 1743.73010154 C1043.63271494 1743.73009363 1045.59786367 1743.73008342 1047.5630124 1743.73007092 C1078.90157677 1743.72989445 1110.24013662 1743.7355984 1141.57869969 1743.74422474 C1173.13373637 1743.75286652 1204.6887668 1743.75507292 1236.24380417 1743.74846341 C1240.60085088 1743.74755107 1244.9578976 1743.7467078 1249.31494433 1743.7459054 C1250.1690712 1743.74574531 1251.02319808 1743.74558522 1251.90320759 1743.74542029 C1265.44626754 1743.74306412 1278.98931669 1743.74743213 1292.53237461 1743.75457659 C1305.83827299 1743.761456 1319.14415537 1743.76123661 1332.45005339 1743.75338445 C1340.25786012 1743.74899106 1348.06561983 1743.75010313 1355.8734227 1743.75925123 C1361.65990083 1743.76542379 1367.44633363 1743.76123845 1373.23280736 1743.75291793 C1375.56664352 1743.75118839 1377.90048512 1743.75285154 1380.23431575 1743.75821914 C1383.39245666 1743.76499941 1386.55034685 1743.75953093 1389.70847791 1743.75094432 C1391.06767334 1743.75829375 1391.06767334 1743.75829375 1392.45432726 1743.76579165 C1398.99536568 1743.72858023 1406.1065485 1743.23313102 1411.71047503 1739.50139666 C1413.65228534 1737.44728272 1413.65228534 1737.44728272 1415.39797503 1735.06389666 C1415.99996722 1734.28143572 1416.6019594 1733.49897478 1417.22219378 1732.69280291 C1419.51842626 1729.31173618 1419.83574615 1726.64534526 1419.8379822 1722.66474118 C1419.84096873 1721.6592042 1419.84395525 1720.65366722 1419.84703228 1719.61765943 C1419.84523221 1718.50683721 1419.84343214 1717.39601498 1419.84157753 1716.25153148 C1419.843601 1715.06967771 1419.84562447 1713.88782393 1419.84770926 1712.67015641 C1419.85234345 1709.36385299 1419.8524598 1706.05760342 1419.85073973 1702.75130072 C1419.84996068 1699.15063999 1419.85495826 1695.54998661 1419.85922644 1691.94932896 C1419.86593437 1685.60573936 1419.86888253 1679.2621564 1419.86943089 1672.91856341 C1419.87026327 1663.42186293 1419.87677491 1653.92517222 1419.88439386 1644.42847507 C1419.89719491 1628.24613612 1419.90513245 1612.06379795 1419.91043001 1595.88145494 C1419.91580581 1579.47332255 1419.92328878 1563.06519322 1419.93334299 1546.65706301 C1419.93397457 1545.62220171 1419.93460614 1544.58734041 1419.93525686 1543.52111968 C1419.93783185 1539.30654824 1419.94041544 1535.09197681 1419.94301171 1530.87740539 C1419.97663578 1476.17843419 1419.99711903 1421.47945976 1420.01545168 1366.78048163 C1420.01942737 1354.95225855 1420.02361338 1343.12403554 1420.02780709 1331.29581254 C1420.05896218 1243.31547827 1420.08605005 1155.33514306 1420.10275387 1067.35480478 C1420.10664076 1046.95217867 1420.11066084 1026.54955258 1420.11473812 1006.14692651 C1420.11524898 1003.58574912 1420.11575771 1001.02457174 1420.11626431 998.46339435 C1420.13253847 916.18873897 1420.16953736 833.91411296 1420.22041811 751.6394721 C1420.25696074 692.53346937 1420.290671 633.42747279 1420.30296713 574.32145929 C1420.30334827 572.49900104 1420.30334827 572.49900104 1420.3037371 570.63972545 C1420.30925289 543.97087765 1420.31309383 517.30202986 1420.31536258 490.63318159 C1420.31630059 479.90329567 1420.31745672 469.17340978 1420.31867701 458.44352388 C1420.31880453 457.2691774 1420.31893205 456.09483091 1420.31906344 454.88489816 C1420.32327542 417.02342531 1420.34607338 379.16199172 1420.37843194 341.30053331 C1420.41091349 303.17569386 1420.42455381 265.05089724 1420.41203774 226.92604454 C1420.41031303 221.6620753 1420.40880025 216.39810602 1420.4074145 211.13413668 C1420.40699508 209.58625766 1420.40699508 209.58625766 1420.4065672 208.00710836 C1420.40268597 191.64300052 1420.41901402 175.27897716 1420.44369441 158.91489008 C1420.46752577 142.83832848 1420.4700962 126.76188165 1420.44979008 110.68531388 C1420.43851945 101.25078473 1420.44379995 91.81660982 1420.47319761 82.38211777 C1420.49107198 76.12310605 1420.48734182 69.8643524 1420.46575111 63.60535289 C1420.45410992 60.05272717 1420.45189711 56.50079518 1420.47623849 52.9482182 C1420.50217407 49.1329233 1420.48179578 45.31867639 1420.45681667 41.50335681 C1420.4717518 40.40687904 1420.48668693 39.31040127 1420.50207464 38.18069691 C1420.39920424 30.80127291 1418.65165504 26.04358454 1413.71047503 20.50139666 C1408.99826134 16.25828536 1404.78701544 14.37747971 1398.49841975 14.37483482 C1397.65817291 14.3720595 1396.81792606 14.36928419 1395.9522172 14.36642477 C1395.0316729 14.36846111 1394.11112861 14.37049745 1393.16268903 14.37259549 C1392.17734473 14.37082048 1391.19200042 14.36904547 1390.1767972 14.36721667 C1386.84227976 14.36244846 1383.50780506 14.36485649 1380.17328554 14.36717558 C1377.76127443 14.36522386 1375.34926364 14.36283548 1372.93725336 14.36004761 C1367.65956689 14.35496973 1362.3818928 14.35303149 1357.10420492 14.35379835 C1349.203239 14.35493211 1341.30228349 14.35035799 1333.4013199 14.34466751 C1319.93750092 14.33514737 1306.47368402 14.33044696 1293.00986201 14.32835817 C1279.35962366 14.32623115 1265.70938852 14.32197486 1252.05915171 14.31511545 C1250.76741571 14.31446953 1250.76741571 14.31446953 1249.44958404 14.31381056 C1245.94239794 14.31205225 1242.43521186 14.31028261 1238.92802578 14.30849754 C1196.38862066 14.28688813 1153.84921491 14.27601767 1111.30980556 14.2670213 C1097.51814176 14.26408825 1083.72647813 14.26071848 1069.93481451 14.25705409 C1068.96214171 14.2567958 1067.98946891 14.25653751 1066.98732118 14.25627139 C1063.05240391 14.25522519 1059.11748665 14.25417677 1055.18256938 14.25312557 C987.87776093 14.23516096 920.57295224 14.21978065 853.26814174 14.21236654 C847.98052508 14.21178256 842.69290841 14.21118529 837.40529175 14.21058892 C836.35638231 14.2104708 835.30747287 14.21035268 834.2267783 14.21023098 C823.59961136 14.20903357 812.97244442 14.20782482 802.34527749 14.20659845 C800.21447718 14.20635322 798.08367686 14.20610936 795.95287655 14.20586688 C727.50126819 14.19807508 659.04967696 14.17568705 590.59807609 14.14319045 C541.41984103 14.11985153 492.24160936 14.09829634 443.06336886 14.09118414 C442.05245137 14.09103712 441.04153387 14.0908901 439.99998252 14.09073862 C417.81010358 14.08755412 395.62022467 14.08550301 373.43034553 14.08451107 C364.50253519 14.08409632 355.57472487 14.08354142 346.64691454 14.08294916 C345.66980257 14.08288849 344.69269059 14.08282782 343.68596916 14.08276532 C312.18550358 14.0807477 280.6850582 14.06649737 249.18459967 14.04600416 C217.46529244 14.0254417 185.74600858 14.0175195 154.02669535 14.02708192 C149.64693113 14.02840045 145.26716688 14.02957847 140.88740259 14.03067255 C140.02882085 14.0308924 139.1702391 14.03111225 138.28563973 14.03133876 C124.67177907 14.03445726 111.05796301 14.02411036 97.44411269 14.008197 C84.06865791 13.99284002 70.69326504 13.99166749 57.31780814 14.00574524 C49.46905401 14.01357609 41.62048862 14.01038431 33.7717532 13.99110807 C27.95498484 13.97803601 22.13836673 13.98568019 16.32160114 14.00159543 C13.9755018 14.00476025 11.62938163 14.00113704 9.2833061 13.99010368 C6.10841317 13.97613833 2.93451527 13.98667485 -0.24034232 14.003452 C-1.60681431 13.98857594 -1.60681431 13.98857594 -3.00089179 13.97339935 C-10.33994634 14.0555647 -16.96132753 16.02045194 -21.66452497 22.00139666 Z " fill="#FBFBFB" transform="translate(989.2895249724388,819.4986033439636)"/>
<path d="M0 0 C4.34815022 -0.0056218 8.69600842 -0.03004258 13.04406452 -0.05797195 C16.44381116 -0.07653866 19.84348353 -0.08179934 23.2432766 -0.08333588 C24.84961852 -0.08634458 26.4559597 -0.09431221 28.06225014 -0.10752106 C30.28018909 -0.12455757 32.49735444 -0.12271518 34.71533203 -0.11621094 C35.96957474 -0.11985657 37.22381744 -0.1235022 38.5160675 -0.1272583 C43.07050659 0.38059222 45.61750618 2.04597297 48.81176758 5.24023438 C49.57257711 12.43579263 47.45418962 18.27317022 45.07739258 25.00585938 C44.68779861 26.141035 44.29820465 27.27621063 43.89680481 28.44578552 C42.62946547 32.13116963 41.34556526 35.81055511 40.06176758 39.49023438 C39.18579936 42.02547397 38.3138524 44.56208795 37.44238281 47.09887695 C36.13501511 50.90227142 34.82681915 54.70536289 33.51268005 58.50642395 C30.15460939 68.2214648 26.85463732 77.95441854 23.61218262 87.70861816 C22.8993245 89.85238123 22.18342894 91.99510969 21.46704102 94.13769531 C19.15454148 101.0713249 16.92643035 108.02526717 14.796875 115.01733398 C13.76987929 118.37727709 12.71920674 121.72910503 11.66333008 125.08007812 C7.8410107 137.24763913 4.08502521 149.41110165 0.83959961 161.74780273 C-0.38540164 166.39077205 -1.71198558 170.98367232 -3.14135742 175.56835938 C-16.62941333 213.3817044 -16.62941333 213.3817044 -16.18823242 252.24023438 C-14.86823242 252.57023437 -13.54823242 252.90023438 -12.18823242 253.24023438 C-12.18823242 257.53023437 -12.18823242 261.82023437 -12.18823242 266.24023438 C-21.9173899 266.27056363 -31.64653617 266.29143399 -41.37573242 266.30273438 C-42.47325459 266.3040184 -42.47325459 266.3040184 -43.59294891 266.30532837 C-66.67081845 266.32911925 -89.73899421 266.15049233 -112.81323242 265.74023438 C-113.8226269 265.72229765 -113.8226269 265.72229765 -114.85241318 265.70399857 C-122.96454376 265.5589911 -131.07647489 265.40476824 -139.18823242 265.24023438 C-139.2423943 263.63644097 -139.2810988 262.03212031 -139.31323242 260.42773438 C-139.33643555 259.53441406 -139.35963867 258.64109375 -139.38354492 257.72070312 C-139.18823242 255.24023438 -139.18823242 255.24023438 -137.18823242 252.24023438 C-136.30135742 252.01335937 -135.41448242 251.78648437 -134.50073242 251.55273438 C-126.81576226 248.5077462 -122.44927214 239.92524788 -118.56323242 232.99023438 C-118.05598633 232.09038818 -117.54874023 231.19054199 -117.02612305 230.26342773 C-100.40265424 200.19315972 -88.39630546 167.6299009 -77.18823242 135.24023438 C-76.79506836 134.12052246 -76.4019043 133.00081055 -75.99682617 131.84716797 C-66.18334508 103.85202699 -57.09094004 74.20440818 -56.68823242 44.30273438 C-56.66962158 43.42117676 -56.65101074 42.53961914 -56.63183594 41.63134766 C-56.7036857 34.36405836 -58.64043165 28.31258237 -63.31323242 22.67773438 C-67.55525923 20.55672097 -71.53275775 20.91480314 -76.18823242 21.24023438 C-75.77813528 19.78004002 -75.35963364 18.32220666 -74.93823242 16.86523438 C-74.70620117 16.053125 -74.47416992 15.24101563 -74.23510742 14.40429688 C-73.29466962 11.5619289 -72.2410407 8.81831853 -71.12280273 6.04248047 C-70.58009735 4.69311905 -70.58009735 4.69311905 -70.02642822 3.3164978 C-69.74982361 2.63133087 -69.47321899 1.94616394 -69.18823242 1.24023438 C-46.12449133 0.42387901 -23.07809423 0.02530464 0 0 Z " fill="#E6E6E6" transform="translate(1691.188232421875,1388.759765625)"/>
<path d="M0 0 C12.21 0 24.42 0 37 0 C39.37487675 4.74975349 41.56295285 9.16158869 43.48828125 14.04296875 C44.16588501 15.75057373 44.16588501 15.75057373 44.85717773 17.49267578 C45.33743408 18.71196777 45.81769043 19.93125977 46.3125 21.1875 C47.37051046 23.85621864 48.43138526 26.5237963 49.4921875 29.19140625 C49.90920174 30.24137787 49.90920174 30.24137787 50.3346405 31.31256104 C53.50574877 39.28916151 56.72719824 47.24529345 59.95370483 55.19961548 C60.91488414 57.56924434 61.87506572 59.93927579 62.83520508 62.30932617 C66.17973405 70.55818011 69.554856 78.79253885 73 87 C75.70478748 81.73026243 78.12373889 76.46016295 80.28393555 70.94750977 C80.58527405 70.18716934 80.88661255 69.42682892 81.19708252 68.64344788 C81.84413233 67.00941264 82.48953709 65.37472518 83.13342857 63.73944283 C84.15150861 61.15384472 85.17394762 58.57000754 86.19746399 55.98655701 C87.99688282 51.44258884 89.79247436 46.89711987 91.58679199 42.35113525 C94.46846574 35.05043701 97.35332238 27.75100669 100.24323463 20.4535656 C101.25202833 17.90340298 102.25754068 15.35196297 103.26286316 12.8004303 C103.87651808 11.24914097 104.49030565 9.6979041 105.10424805 8.14672852 C105.38424149 7.43353455 105.66423492 6.72034058 105.95271301 5.98553467 C107.8862333 1.1137667 107.8862333 1.1137667 109 0 C121.21 0 133.42 0 146 0 C146 42.57 146 85.14 146 129 C135.77 129 125.54 129 115 129 C114.67 104.25 114.34 79.5 114 54 C105.53275905 76.81163424 105.53275905 76.81163424 97.06689453 99.6237793 C95.42553711 104.04455566 95.42553711 104.04455566 94.65597534 106.11677551 C94.12083149 107.55813643 93.58593582 108.99958951 93.05123901 110.44111633 C92.23933812 112.6298273 91.4266399 114.81824073 90.61376953 117.0065918 C90.15632355 118.23903122 89.69887756 119.47147064 89.22756958 120.74125671 C88.18564141 123.5071907 87.09770953 126.25572616 86 129 C77.42 129 68.84 129 60 129 C59.22285645 126.90567627 58.44571289 124.81135254 57.64501953 122.65356445 C55.07515298 115.7283155 52.50459063 108.80332497 49.93368721 101.87846088 C48.37521651 97.68057243 46.81697913 93.48259767 45.25927734 89.28442383 C43.75556595 85.23178632 42.25123856 81.17937797 40.74648666 77.12712669 C40.17295332 75.58228867 39.5996407 74.03736869 39.02655411 72.49236488 C38.22287955 70.32582755 37.41841556 68.15958489 36.61376953 65.9934082 C36.15632355 64.76096878 35.69887756 63.52852936 35.22756958 62.25874329 C34.18564141 59.4928093 33.09770953 56.74427384 32 54 C31.67 78.75 31.34 103.5 31 129 C20.77 129 10.54 129 0 129 C0 86.43 0 43.86 0 0 Z " fill="#060505" transform="translate(1265,2092)"/>
<path d="M0 0 C32 0 32 0 39.85546875 7.1875 C41.57818604 9.66867065 41.57818604 9.66867065 42.63769531 11.89013672 C43.05458618 12.72349548 43.47147705 13.55685425 43.90100098 14.41546631 C44.53781799 15.69481049 44.53781799 15.69481049 45.1875 17 C46.16449318 18.73239732 47.15399137 20.45779626 48.15527344 22.17626953 C50.18659798 25.68750485 52.1573551 29.22325974 54.08935547 32.79003906 C58.09063503 40.08082482 62.72152097 46.93746077 67.3710022 53.82519531 C69.54064626 57.05025235 71.66914011 60.3018938 73.796875 63.5546875 C74.49135742 64.61155762 75.18583984 65.66842773 75.90136719 66.75732422 C78.30943752 70.47812345 80.65101327 74.24162123 83 78 C83.33 52.26 83.66 26.52 84 0 C94.23 0 104.46 0 115 0 C115 42.57 115 85.14 115 129 C84 129 84 129 75.12109375 120.3671875 C73.04411316 117.42811584 73.04411316 117.42811584 71.67260742 114.82446289 C71.14218842 113.85171417 70.61176941 112.87896545 70.0652771 111.8767395 C69.52811066 110.88616547 68.99094421 109.89559143 68.4375 108.875 C67.24412448 106.87698571 66.04001863 104.88534261 64.82543945 102.90014648 C62.48150189 99.03495344 60.19951447 95.14436618 57.97460938 91.20947266 C54.45466015 84.99340103 50.60328412 79.03621851 46.6875 73.0625 C45.72898136 71.53511213 44.77427119 70.00532453 43.82421875 68.47265625 C40.31630595 62.91724802 36.64451169 57.46676754 33 52 C32.67 77.41 32.34 102.82 32 129 C21.44 129 10.88 129 0 129 C0 86.43 0 43.86 0 0 Z " fill="#070606" transform="translate(1568,2092)"/>
<path d="M0 0 C12.21 0 24.42 0 37 0 C43.45890783 17.10755526 49.74209254 34.27099026 55.92220306 51.48081207 C58.08599791 57.50512869 60.25338491 63.52815336 62.421875 69.55078125 C62.77888552 70.54252224 62.77888552 70.54252224 63.14310837 71.5542984 C66.31930372 80.3746012 69.52360675 89.18410717 72.765625 97.98046875 C73.12284637 98.95066452 73.48006775 99.92086029 73.84811401 100.92045593 C75.48665992 105.36800951 77.13083679 109.8133599 78.78369141 114.25561523 C79.3533403 115.79795886 79.92284865 117.3403544 80.4921875 118.8828125 C80.75042297 119.5704216 81.00865845 120.2580307 81.27471924 120.96647644 C82.31695442 123.80170365 83 125.95049896 83 129 C72.11 129 61.22 129 50 129 C43 109.75 43 109.75 43 106 C26.83 106 10.66 106 -6 106 C-6.99 109.63 -7.98 113.26 -9 117 C-10.32 120.96 -11.64 124.92 -13 129 C-23.89 129 -34.78 129 -46 129 C-42.62485733 117.74952444 -42.62485733 117.74952444 -41.18505859 113.74536133 C-40.85913727 112.83499619 -40.53321594 111.92463104 -40.19741821 110.98667908 C-39.85125458 110.02814529 -39.50509094 109.06961151 -39.1484375 108.08203125 C-38.59112442 106.52912132 -38.59112442 106.52912132 -38.02255249 104.94483948 C-36.80929796 101.56645332 -35.59224201 98.18945129 -34.375 94.8125 C-33.52619572 92.45204733 -32.67756523 90.09153216 -31.82910156 87.73095703 C-29.22367401 80.48576228 -26.61247965 73.24265439 -24 66 C-23.59197144 64.86846497 -23.18394287 63.73692993 -22.7635498 62.57110596 C-20.09507757 55.17142353 -17.42389466 47.77272472 -14.75 40.375 C-14.4066864 39.42501129 -14.0633728 38.47502258 -13.70965576 37.49624634 C-9.18491038 24.98060157 -4.61132335 12.48402305 0 0 Z " fill="#070606" transform="translate(1471,2092)"/>
<path d="M0 0 C2.76628915 -0.2667616 5.30619631 -0.34804189 8.0703125 -0.29296875 C9.26465408 -0.28660149 9.26465408 -0.28660149 10.48312378 -0.28010559 C13.03075729 -0.26328834 15.57760489 -0.22563179 18.125 -0.1875 C19.85024901 -0.17245705 21.57551039 -0.15876796 23.30078125 -0.14648438 C27.53415782 -0.11337501 31.76694559 -0.06157285 36 0 C39.60204017 8.41011311 42.85309278 16.90185265 45.921875 25.51953125 C46.38415958 26.81022887 46.84674303 28.10081948 47.30960083 29.39131165 C48.53951014 32.82261658 49.76581582 36.25519818 50.99129486 39.68808746 C53.04131141 45.42823688 55.09748958 51.16618536 57.15269089 56.90447998 C57.67120282 58.35240834 58.18957667 59.80038615 58.70781326 61.24841309 C62.19616338 70.99507756 65.71064083 80.73158841 69.2578125 90.45703125 C69.65669678 91.55221573 70.05558105 92.64740021 70.46655273 93.77577209 C72.71414003 99.94648855 72.71414003 99.94648855 74.9720459 106.11343384 C75.98323337 108.86828342 76.98828139 111.62530291 77.9921875 114.3828125 C78.43269943 115.57370232 78.43269943 115.57370232 78.8821106 116.78865051 C79.14901703 117.52500229 79.41592346 118.26135406 79.69091797 119.02001953 C79.92132782 119.6486087 80.15173767 120.27719788 80.38912964 120.92483521 C81.16422379 123.55787847 81.54876483 126.29258895 82 129 C71.11 129 60.22 129 49 129 C47.845 125.57625 46.69 122.1525 45.5 118.625 C45.13455078 117.54686035 44.76910156 116.4687207 44.39257812 115.35791016 C43.9662207 114.08633057 43.9662207 114.08633057 43.53125 112.7890625 C43.23798828 111.91975098 42.94472656 111.05043945 42.64257812 110.15478516 C42 108 42 108 42 106 C26.16 106.33 10.32 106.66 -6 107 C-8.64 114.26 -11.28 121.52 -14 129 C-24.89 129 -35.78 129 -47 129 C-42.52258545 115.41336275 -37.86908292 101.92700878 -32.9375 88.5 C-31.54633606 84.69989065 -30.15761664 80.89889109 -28.76953125 77.09765625 C-28.40047668 76.08755997 -28.03142212 75.07746368 -27.65118408 74.03675842 C-24.70675934 65.96614953 -21.79585988 57.88379048 -18.8950901 49.7974205 C-18.1395147 47.69138696 -17.38340498 45.58554602 -16.62712097 43.47976685 C-16.12453615 42.08026342 -15.62195741 40.6807578 -15.11938477 39.28125 C-14.87120719 38.59016584 -14.62302961 37.89908169 -14.3673315 37.18705559 C-13.12287045 33.72067865 -11.88003525 30.25373266 -10.64035034 26.78564453 C-9.69104436 24.12992288 -8.73973898 21.47493634 -7.78596497 18.82081604 C-6.91148647 16.38718382 -6.04007328 13.9524473 -5.17216492 11.51646423 C-4.7829335 10.43587234 -4.39370209 9.35528046 -3.99267578 8.24194336 C-3.65454865 7.29765976 -3.31642151 6.35337616 -2.9680481 5.38047791 C-2 3 -2 3 0 0 Z " fill="#070606" transform="translate(1874,2092)"/>
<path d="M0 0 C1.24725861 -0.01051392 1.24725861 -0.01051392 2.51971436 -0.02124023 C5.26088117 -0.03880655 8.00101068 -0.02720259 10.7421875 -0.01367188 C12.65120644 -0.01636719 14.56022404 -0.02024994 16.46923828 -0.02526855 C20.46725555 -0.03116175 24.46491499 -0.02260639 28.46289062 -0.00390625 C33.58440636 0.01888317 38.70508362 0.00575914 43.8265686 -0.01819611 C47.76772363 -0.0326589 51.70868027 -0.02804588 55.64984131 -0.01768494 C57.5380666 -0.01501898 59.42630998 -0.01828279 61.31451416 -0.02760315 C63.9549522 -0.0377767 66.59403756 -0.02225704 69.234375 0 C70.01270691 -0.00809692 70.79103882 -0.01619385 71.59295654 -0.02453613 C75.31021965 0.0334345 77.44460603 0.40889996 80.61987305 2.40843201 C82.6171875 4.51757812 82.6171875 4.51757812 82.95703125 6.78149414 C82.82425781 7.58256592 82.69148438 8.3836377 82.5546875 9.20898438 C82.41675781 10.09086426 82.27882813 10.97274414 82.13671875 11.88134766 C81.96527344 12.75130371 81.79382812 13.62125977 81.6171875 14.51757812 C81.47667969 15.25991699 81.33617187 16.00225586 81.19140625 16.76708984 C80.72261481 19.01372187 80.18452708 21.23132214 79.6171875 23.45507812 C79.40497559 24.2978833 79.19276367 25.14068848 78.97412109 26.0090332 C76.75085074 34.51829019 73.9255384 42.81253398 71.06542969 51.12524414 C67.98069157 60.16598847 65.36843711 69.28451586 63.08837891 78.5612793 C62.70818604 80.02078003 62.70818604 80.02078003 62.3203125 81.50976562 C62.00562012 82.78376221 62.00562012 82.78376221 61.68457031 84.08349609 C60.19422891 87.48210172 58.51417608 89.17990764 55.6171875 91.51757812 C52.61292084 92.01736219 50.17467984 92.2131186 47.17431641 92.18041992 C45.91724632 92.19597176 45.91724632 92.19597176 44.63478088 92.21183777 C41.87060245 92.23889185 39.10801277 92.22924864 36.34375 92.21679688 C34.41709959 92.22270711 32.49045287 92.22995439 30.56381226 92.23847961 C26.52704732 92.25035812 22.49083378 92.24365668 18.45410156 92.22436523 C13.28987098 92.20150342 8.12728851 92.22822903 2.9632206 92.2694273 C-1.01580925 92.29505045 -4.99444731 92.29241272 -8.97352982 92.28153419 C-10.87686279 92.28005056 -12.78022624 92.28770218 -14.68348312 92.30478477 C-17.35037674 92.3248324 -20.01438972 92.30630323 -22.68115234 92.27807617 C-23.85189049 92.29865082 -23.85189049 92.29865082 -25.04627991 92.31964111 C-30.35755014 92.20773712 -33.16032556 90.70591023 -37.09935379 87.17258072 C-38.92675995 84.81616527 -39.0587466 82.58975488 -38.78289795 79.67410278 C-38.04621704 75.70327466 -37.03711157 71.87571391 -35.859375 68.01367188 C-35.59186432 67.10910751 -35.32435364 66.20454315 -35.04873657 65.27256775 C-32.08569322 55.34171044 -28.9483164 45.46401935 -25.74121094 35.60961914 C-24.74255068 32.53306125 -23.75799049 29.45219116 -22.7734375 26.37109375 C-22.13105967 24.38969775 -21.48786184 22.40856736 -20.84375 20.42773438 C-20.41079117 19.06371239 -20.41079117 19.06371239 -19.96908569 17.6721344 C-16.44867742 6.97554812 -12.04471539 -0.1253002 0 0 Z " fill="#E6E6E6" transform="translate(1695.3828125,1265.482421875)"/>
<path d="M0 0 C10.23 0 20.46 0 31 0 C31.01458252 2.46718506 31.02916504 4.93437012 31.04418945 7.47631836 C31.09464811 15.65075635 31.16126291 23.8250061 31.23571491 31.999259 C31.28033961 36.95269565 31.31961302 41.90605156 31.34643555 46.85961914 C31.37254749 51.6449142 31.41300533 56.4298972 31.46318626 61.21499825 C31.47980175 63.03568181 31.49134901 64.85641929 31.49761391 66.67716789 C31.5073132 69.23815079 31.53544061 71.79834482 31.56762695 74.35913086 C31.56547432 75.47476158 31.56547432 75.47476158 31.5632782 76.6129303 C31.68225314 83.35723273 33.02120019 89.60461076 37.375 94.875 C42.50873605 99.03088156 46.17155766 100.53452171 52.8125 100.4375 C53.52374023 100.43065186 54.23498047 100.42380371 54.96777344 100.41674805 C62.07238761 100.19930972 66.29574373 98.70425627 71.375 93.625 C74.78630976 88.1144227 75.30107892 82.87644944 75.31884766 76.51611328 C75.32889328 75.68618362 75.3389389 74.85625397 75.34928894 74.00117493 C75.38003291 71.27422744 75.39713154 68.54737775 75.4140625 65.8203125 C75.43278122 63.92315841 75.45235516 62.02601257 75.4727478 60.12887573 C75.52400058 55.14771402 75.56366298 50.16652534 75.60089111 45.1852417 C75.64097375 40.09738531 75.69204665 35.00964045 75.7421875 29.921875 C75.8388657 19.94798736 75.9222801 9.97405341 76 0 C86.56 0 97.12 0 108 0 C108.06813541 10.43240406 108.1230218 20.86465712 108.15543652 31.29723454 C108.1710043 36.14298419 108.19207743 40.98857198 108.22631836 45.83422852 C108.2592323 50.52214049 108.27691958 55.20989807 108.28463173 59.89791679 C108.29011837 61.67463036 108.30082988 63.45133676 108.31719017 65.22798347 C108.48735606 84.4967928 106.53318969 102.10476601 92.5546875 116.7421875 C78.35594032 129.29092736 61.65134081 130.83010038 43.52001953 130.17919922 C30.8171824 129.2758973 19.68994217 122.6112935 11.04296875 113.56640625 C2.58576563 102.94234803 -0.17475923 90.57846661 -0.11352539 77.31079102 C-0.11367142 76.47096176 -0.11381744 75.63113251 -0.1139679 74.76585388 C-0.11327564 72.01184433 -0.10551563 69.25790387 -0.09765625 66.50390625 C-0.09578963 64.58577003 -0.09436688 62.66763333 -0.09336853 60.74949646 C-0.0895626 55.71732247 -0.07974883 50.68517765 -0.06866455 45.65301514 C-0.05840898 40.51151931 -0.05386204 35.37001874 -0.04882812 30.22851562 C-0.03812475 20.15232892 -0.02054362 10.07617145 0 0 Z " fill="#070606" transform="translate(1706,2092)"/>
<path d="M0 0 C1.56234375 -0.01160156 1.56234375 -0.01160156 3.15625 -0.0234375 C9.14114972 -0.00832412 14.27432077 0.50083646 20 2.25 C20.86367187 2.51039063 21.72734375 2.77078125 22.6171875 3.0390625 C33.46008166 7.05355965 41.0822668 13.7611285 46 24.25 C47.95299228 29.48757021 48 32.40133692 48 38.25 C36.78 38.25 25.56 38.25 14 38.25 C13.34 35.94 12.68 33.63 12 31.25 C9.07367922 27.53278171 7.56313363 26.49153949 2.890625 25.76953125 C-2.19832224 25.55653233 -5.83224628 25.58900733 -10.3125 28.125 C-12.63052797 32.4176444 -13.26463429 36.48902385 -12 41.25 C-8.75268221 45.21502208 -5.58267163 47.20789999 -0.875 49.125 C-0.28170898 49.36984131 0.31158203 49.61468262 0.92285156 49.86694336 C6.14568593 51.98980291 11.45077957 53.8908104 16.75 55.8125 C31.0833768 61.01640055 42.13102633 66.29246521 49.1484375 80.58984375 C52.21757363 90.1773745 50.21001772 101.35781303 46 110.25 C40.32944089 120.28120182 30.2673634 127.04848601 19.40234375 130.33984375 C14.47823631 131.52092373 9.66690519 131.54384265 4.625 131.5 C3.74328125 131.50773437 2.8615625 131.51546875 1.953125 131.5234375 C-13.46654569 131.47821852 -26.36553868 127.16023075 -37.71484375 116.6640625 C-44.28129944 109.81356165 -47 101.57116597 -47 92.25 C-35.78 92.25 -24.56 92.25 -13 92.25 C-12.01 94.89 -11.02 97.53 -10 100.25 C-7.50372927 103.39046963 -5.87002709 104.50656571 -2 105.25 C3.95824437 105.76126849 8.93049586 105.7986529 14 102.25 C16.55489369 98.06602775 17.01620059 94.02281099 16 89.25 C10.90730063 80.88342246 -3.71140098 77.85840976 -12.5625 75.3125 C-23.8990827 71.91013078 -34.80806027 67.02406787 -42 57.25 C-43.68977524 53.99789066 -44.93789549 50.75241607 -46 47.25 C-46.495 45.765 -46.495 45.765 -47 44.25 C-47.98922988 32.83331419 -46.03280148 23.0246928 -38.69140625 14.02734375 C-28.14631078 2.94646976 -14.78640238 -0.10980002 0 0 Z " fill="#070606" transform="translate(2068,2090.75)"/>
<path d="M0 0 C10.23 0 20.46 0 31 0 C31 42.57 31 85.14 31 129 C20.77 129 10.54 129 0 129 C0 86.43 0 43.86 0 0 Z " fill="#050404" transform="translate(1971,2092)"/>
<path d="M0 0 C2 1 2 1 2.77200317 2.69454956 C3.01627045 3.42940582 3.26053772 4.16426208 3.51220703 4.92138672 C3.93241623 6.16805618 3.93241623 6.16805618 4.3611145 7.43991089 C4.65702484 8.34403717 4.95293518 9.24816345 5.2578125 10.1796875 C5.56572723 11.10339142 5.87364197 12.02709534 6.19088745 12.97879028 C6.84161204 14.93633425 7.48865398 16.8951056 8.13232422 18.85498047 C9.11949105 21.8582401 10.11932238 24.85705321 11.12109375 27.85546875 C11.7507583 29.75495713 12.37968904 31.65468896 13.0078125 33.5546875 C13.3077713 34.45476532 13.6077301 35.35484314 13.91677856 36.28219604 C14.19061371 37.11961334 14.46444885 37.95703064 14.74658203 38.81982422 C14.98925812 39.55627167 15.2319342 40.29271912 15.48196411 41.05148315 C16 43 16 43 16 46 C5.77 46 -4.46 46 -15 46 C-13.64460464 39.90072087 -12.19896209 34.16022615 -10.21484375 28.28125 C-9.95369278 27.49729858 -9.69254181 26.71334717 -9.42347717 25.90563965 C-8.87684884 24.26807482 -8.32803495 22.63123801 -7.77709961 20.99511719 C-6.93090797 18.48040983 -6.09291489 15.96307388 -5.25585938 13.4453125 C-4.7218318 11.84879849 -4.18734354 10.25243848 -3.65234375 8.65625 C-3.40129379 7.90218872 -3.15024384 7.14812744 -2.8915863 6.37121582 C-1.1155545 1.1155545 -1.1155545 1.1155545 0 0 Z " fill="#DFDFDF" transform="translate(1489,2128)"/>
<path d="M0 0 C2 1 2 1 3.1484375 4.24609375 C3.56359935 5.64136782 3.972046 7.03865148 4.375 8.4375 C5.75747232 13.05607572 7.14249978 17.60751981 9 22.0625 C10.75334426 26.2805864 12.28256257 30.55093032 13.75 34.875 C13.97300781 35.51832275 14.19601562 36.16164551 14.42578125 36.82446289 C15.52666381 40.11283026 16 42.47951717 16 46 C5.77 46 -4.46 46 -15 46 C-13.17484886 39.30777917 -11.35542489 32.79337802 -9.08203125 26.26953125 C-8.81992355 25.5082341 -8.55781586 24.74693695 -8.2877655 23.96257019 C-7.46596938 21.57806154 -6.63934092 19.19526339 -5.8125 16.8125 C-5.24772306 15.17654405 -4.68326747 13.54047711 -4.11914062 11.90429688 C-2.74979253 7.9349097 -1.37611403 3.96704636 0 0 Z " fill="#E0E0E0" transform="translate(1891,2128)"/>
</svg>
