<?xml version="1.0" encoding="UTF-8"?>
<svg version="1.1" xmlns="http://www.w3.org/2000/svg" width="3375" height="3375">
<path d="M0 0 C0.99264013 -0.00560927 1.98528026 -0.01121854 3.00800039 -0.01699778 C6.33144312 -0.03090757 9.65413991 -0.01637644 12.97757155 -0.00196791 C15.39567093 -0.0061412 17.81376782 -0.01206675 20.23185912 -0.01958537 C25.50431864 -0.03193466 30.7765611 -0.03184832 36.04900789 -0.02085119 C43.94203026 -0.00446255 51.83491871 -0.01119011 59.72794416 -0.02238176 C73.18062984 -0.04077839 86.63325502 -0.04018339 100.08594614 -0.02925825 C113.71916467 -0.01825393 127.35234338 -0.0159313 140.98556429 -0.02420759 C141.84659234 -0.02472428 142.70762038 -0.02524097 143.59474018 -0.02577332 C147.10156412 -0.0279064 150.60838801 -0.03010123 154.11521186 -0.03237442 C186.78128107 -0.05353433 219.4473236 -0.05496542 252.1133967 -0.04378462 C253.56546862 -0.04328785 253.56546862 -0.04328785 255.04687532 -0.04278104 C256.01647001 -0.04244932 256.98606471 -0.0421176 257.98504107 -0.04177583 C287.51139706 -0.03168749 317.03774202 -0.02907549 346.56409937 -0.03386641 C348.54048748 -0.03417632 350.5168756 -0.03448495 352.49326371 -0.03479229 C360.43534347 -0.03603413 368.37742323 -0.03730879 376.31950298 -0.03863134 C398.52169356 -0.04229958 420.72388419 -0.04458183 442.92607504 -0.04577589 C443.93715604 -0.04583047 444.94823703 -0.04588506 445.98995684 -0.04594129 C478.21291394 -0.04757868 510.43586719 -0.04306943 542.65882307 -0.03437757 C543.70411896 -0.03409658 544.74941486 -0.03381558 545.82638638 -0.03352607 C562.80184056 -0.02894615 579.77729466 -0.02406836 596.75274875 -0.01916538 C664.07891881 0.00025958 731.40505706 -0.00064064 798.73122698 -0.02008772 C815.6968791 -0.0249724 832.66253122 -0.02981657 849.62818342 -0.03437757 C850.67279127 -0.03465937 851.71739911 -0.03494116 852.79366173 -0.03523149 C884.98180229 -0.04385509 917.1699402 -0.04751354 949.35808188 -0.04577589 C950.36843605 -0.04572155 951.37879022 -0.04566722 952.41976118 -0.04561123 C974.5978048 -0.04436136 996.77584814 -0.0418269 1018.95389148 -0.03813388 C1026.88923204 -0.03681729 1034.82457262 -0.03556497 1042.75991319 -0.03433103 C1044.73405827 -0.03402148 1046.70820334 -0.03370656 1048.68234842 -0.03338625 C1078.20091371 -0.02861002 1107.71946657 -0.03268126 1137.23803032 -0.04278104 C1138.68997804 -0.04327781 1138.68997804 -0.04327781 1140.17125803 -0.04378462 C1141.62053275 -0.04428071 1141.62053275 -0.04428071 1143.09908574 -0.04478683 C1175.67107165 -0.05581445 1208.24302552 -0.05177203 1240.81500684 -0.03066164 C1244.31133276 -0.02845218 1247.80765871 -0.02630537 1251.3039847 -0.02420759 C1252.59108885 -0.02342635 1252.59108885 -0.02342635 1253.9041951 -0.02262933 C1267.50140085 -0.01473398 1281.09856683 -0.02023887 1294.69576901 -0.03128362 C1308.05973509 -0.04185435 1321.42363393 -0.03816952 1334.78759147 -0.01922726 C1342.62614839 -0.00854107 1350.46452112 -0.0087957 1358.3030693 -0.02515365 C1364.1175622 -0.03606735 1369.93189764 -0.0261936 1375.74637694 -0.00812855 C1378.08759972 -0.00408969 1380.42884598 -0.00679115 1382.77005019 -0.01695231 C1409.84233141 -0.12614046 1409.84233141 -0.12614046 1419.21047503 8.72405291 C1424.18458964 14.61786058 1426.83469579 20.79478137 1426.8365642 28.47898005 C1426.83923391 29.49050708 1426.84190362 30.50203411 1426.84465423 31.54421347 C1426.84142252 33.21279397 1426.84142252 33.21279397 1426.83812553 34.91508317 C1426.8406017 36.69621715 1426.8406017 36.69621715 1426.84312789 38.51333364 C1426.84671624 41.83061371 1426.84579339 45.14783851 1426.8430261 48.46511582 C1426.8411093 52.07945015 1426.84498216 55.69377896 1426.84812289 59.30811179 C1426.85284579 65.67425023 1426.85381872 72.0403809 1426.85239455 78.40652081 C1426.85027816 87.93694468 1426.85388003 97.46736046 1426.85860932 106.99778308 C1426.86649347 123.23794039 1426.86957191 139.4780955 1426.87005526 155.71825457 C1426.87055713 172.18401748 1426.87319879 188.64977793 1426.87846285 205.11554003 C1426.87879298 206.15419014 1426.87912312 207.19284026 1426.87946326 208.26296462 C1426.88081321 212.49299005 1426.88217587 216.72301548 1426.88355536 220.9530409 C1426.89987089 271.07125527 1426.90624547 321.18946917 1426.91100323 371.30768574 C1426.91338494 396.2550639 1426.9170881 421.2024418 1426.92104033 446.14981975 C1426.93370543 526.13840814 1426.94448968 606.12699652 1426.94788079 686.1155859 C1426.94804303 689.93977381 1426.94820859 693.76396172 1426.94837517 697.58814964 C1426.94870897 705.25785047 1426.94903946 712.9275513 1426.94936973 720.59725213 C1426.94975663 729.57695467 1426.95014624 738.55665722 1426.95054079 747.53635976 C1426.95065321 750.10644103 1426.95076463 752.67652229 1426.95087505 755.24660356 C1426.95442551 837.81241639 1426.96950779 920.37822052 1426.99281279 1002.94403003 C1427.00954884 1062.26114724 1427.0250271 1121.57826281 1427.02954775 1180.8953824 C1427.02968798 1182.72426368 1427.02968798 1182.72426368 1427.02983104 1184.59009205 C1427.03184986 1211.35259785 1427.03300609 1238.11510361 1427.03335963 1264.87760947 C1427.03349581 1274.45317507 1427.0337048 1284.02874067 1427.03395288 1293.60430627 C1427.03401444 1295.98656386 1427.03407276 1298.36882146 1427.03412783 1300.75107905 C1427.03504852 1338.74742382 1427.04502718 1376.74375953 1427.05958532 1414.74010132 C1427.07418533 1452.99873094 1427.07925305 1491.25734942 1427.07116577 1529.51598133 C1427.07005033 1534.79787055 1427.06903969 1540.07975978 1427.06809145 1545.36164904 C1427.06790148 1546.39708464 1427.06771152 1547.43252025 1427.06751579 1548.4993327 C1427.0647777 1564.92204975 1427.07213833 1581.34474627 1427.08366482 1597.76745886 C1427.09477887 1613.89983305 1427.09526378 1630.03217809 1427.08429463 1646.16455271 C1427.0781791 1655.6328711 1427.08034349 1665.10110176 1427.09454661 1674.56941196 C1427.10315347 1680.84951446 1427.10097394 1687.12955209 1427.0898479 1693.40965053 C1427.08383852 1696.9749392 1427.08256291 1700.54005528 1427.09453276 1704.10533281 C1427.10727874 1707.93241245 1427.09691948 1711.75922906 1427.08422118 1715.58631349 C1427.09533393 1717.24054953 1427.09533393 1717.24054953 1427.10667117 1718.92820449 C1427.04594031 1727.58615917 1425.56849486 1734.08946872 1419.64797503 1740.75139666 C1418.95574847 1741.56092791 1418.2635219 1742.37045916 1417.55031878 1743.20452166 C1410.64758005 1748.78747953 1403.0590782 1750.0940611 1394.4005633 1750.00279331 C1393.40571566 1750.00840258 1392.41086801 1750.01401185 1391.38587347 1750.01979109 C1388.05490826 1750.03370132 1384.72468724 1750.01916952 1381.39373308 1750.00476122 C1378.9702148 1750.00893449 1376.54669901 1750.01486003 1374.12318879 1750.02237868 C1368.83884907 1750.03472812 1363.55472592 1750.0346415 1358.27039891 1750.02364451 C1350.35960607 1750.00725608 1342.44894685 1750.01398333 1334.53815093 1750.02517507 C1321.05522212 1750.0435718 1307.57235367 1750.04297666 1294.08941942 1750.03205156 C1280.42556319 1750.02104729 1266.76174668 1750.01872457 1253.09788805 1750.0270009 C1252.23492971 1750.02751759 1251.37197136 1750.02803429 1250.48286276 1750.02856663 C1246.9681799 1750.03069971 1243.45349709 1750.03289454 1239.93881431 1750.03516774 C1207.19966873 1750.05632757 1174.46054978 1750.05775879 1141.72140032 1750.04657793 C1140.75119158 1750.04624675 1139.78098283 1750.04591557 1138.78137382 1750.04557435 C1137.8096154 1750.04524263 1136.83785697 1750.04491091 1135.83665133 1750.04456914 C1106.24488638 1750.03448096 1076.65313244 1750.03186873 1047.06136614 1750.03665972 C1045.08063039 1750.03696963 1043.09989463 1750.03727826 1041.11915888 1750.0375856 C1033.15962704 1750.03882744 1025.2000952 1750.0401021 1017.24056337 1750.04142465 C994.98965878 1750.04509289 972.73875415 1750.04737514 950.4878493 1750.0485692 C948.96790331 1750.04865108 948.96790331 1750.04865108 947.41725135 1750.04873461 C915.12378606 1750.05037199 882.83032461 1750.04586276 850.53686053 1750.03717089 C849.48927861 1750.03688989 848.44169669 1750.03660889 847.36236986 1750.03631938 C830.34975968 1750.03173946 813.33714959 1750.02686167 796.3245395 1750.02195869 C728.84835634 1750.00253298 661.37220493 1750.00343461 593.8960219 1750.02288103 C576.89204448 1750.0277657 559.88806704 1750.03260986 542.88408953 1750.03717089 C541.837127 1750.03745268 540.79016448 1750.03773447 539.71147581 1750.0380248 C507.45201696 1750.04664808 475.19256074 1750.05030692 442.93310076 1750.0485692 C441.92054525 1750.04851487 440.90798975 1750.04846053 439.86475074 1750.04840454 C417.63866699 1750.04715469 395.41258351 1750.04462026 373.18650003 1750.04092719 C365.23403608 1750.03961059 357.28157212 1750.03835828 349.32910816 1750.03712435 C347.35069844 1750.03681479 345.37228873 1750.03649987 343.39387901 1750.03617956 C313.80910677 1750.03140294 284.22434693 1750.03547533 254.63957623 1750.04557435 C253.18426312 1750.04607112 253.18426312 1750.04607112 251.69954973 1750.04657793 C250.73112667 1750.04690866 249.7627036 1750.04723939 248.76493438 1750.04758014 C216.12125489 1750.05860648 183.47760737 1750.05456793 150.83393246 1750.03345495 C147.33030901 1750.03124549 143.82668552 1750.02909868 140.323062 1750.0270009 C139.46319922 1750.02648008 138.60333643 1750.02595925 137.7174172 1750.02542264 C124.08892318 1750.01752568 110.46046884 1750.02303389 96.8319784 1750.03407693 C83.4389831 1750.04464473 70.04605489 1750.04096822 56.65306812 1750.02202058 C48.79635271 1750.01132995 40.93982105 1750.0115967 33.08311434 1750.02794696 C27.2569697 1750.03885271 21.43098238 1750.02899675 15.60485134 1750.01092187 C13.25759566 1750.00687992 10.91031659 1750.00959246 8.56307939 1750.01974562 C5.38183485 1750.03253418 2.20158519 1750.02072992 -0.97961324 1750.00279331 C-2.34046203 1750.01713776 -2.34046203 1750.01713776 -3.7288027 1750.031772 C-11.88204335 1749.93809605 -19.1140185 1747.82670933 -25.16452497 1742.18889666 C-30.49991806 1736.32499765 -33.41256775 1730.50025346 -33.41703215 1722.52307326 C-33.42001867 1721.51138005 -33.4230052 1720.49968685 -33.42608222 1719.45733628 C-33.42338212 1717.78847571 -33.42338212 1717.78847571 -33.42062747 1716.08590078 C-33.42265095 1714.89828062 -33.42467442 1713.71066046 -33.42675921 1712.48705181 C-33.43138839 1709.16921412 -33.43151115 1705.85143017 -33.42978967 1702.53359323 C-33.42900986 1698.91864289 -33.4340099 1695.30369985 -33.43827638 1691.68875259 C-33.4449809 1685.32151158 -33.44793224 1678.95427718 -33.44848084 1672.58703279 C-33.44931358 1663.05489627 -33.455827 1653.52276946 -33.46344381 1643.99063625 C-33.47624177 1627.74742403 -33.48418135 1611.50421259 -33.48947996 1595.26099634 C-33.49485653 1578.79200428 -33.50234026 1562.32301526 -33.51239294 1545.85402536 C-33.51302451 1544.81516723 -33.51365609 1543.77630909 -33.5143068 1542.70597041 C-33.5168818 1538.47508888 -33.5194654 1534.24420735 -33.52206165 1530.01332584 C-33.55568221 1475.10805462 -33.57616881 1420.20278017 -33.59450163 1365.29750205 C-33.59847755 1353.42397382 -33.60266351 1341.55044565 -33.60685704 1329.67691749 C-33.63801292 1241.35287936 -33.66509945 1153.02884027 -33.68180381 1064.70479814 C-33.68569067 1044.22332584 -33.68971076 1023.74185357 -33.69378806 1003.26038131 C-33.69429893 1000.68932024 -33.69480766 998.11825916 -33.69531426 995.54719809 C-33.71158733 912.96052384 -33.74858466 830.37387885 -33.79946806 747.78721906 C-33.83601347 688.45562342 -33.86972243 629.12403391 -33.88201708 569.79242754 C-33.88227117 568.57267156 -33.88252526 567.35291558 -33.88278705 566.0961973 C-33.88830299 539.32157677 -33.89214384 512.54695625 -33.89441252 485.77233525 C-33.89535052 474.99972053 -33.89650666 464.22710583 -33.89772695 453.45449114 C-33.89785448 452.27547459 -33.897982 451.09645804 -33.89811339 449.88171371 C-33.90232444 411.87810405 -33.92511751 373.87453352 -33.95748189 335.87093825 C-33.9899721 297.59961888 -34.00360001 259.32834219 -33.99108768 221.05700963 C-33.989363 215.77133195 -33.98785021 210.48565423 -33.98646444 205.19997644 C-33.98618483 204.16381357 -33.98590522 203.12765069 -33.98561714 202.06008894 C-33.98173781 185.63701641 -33.9980548 169.21402814 -34.02274435 152.79097631 C-34.04659159 136.65153092 -34.0491323 120.51219986 -34.02884002 104.3727483 C-34.01758062 94.90461309 -34.02281669 85.43683101 -34.05224756 75.96873289 C-34.07015056 69.68365697 -34.06635939 63.39883773 -34.04480106 57.11377385 C-34.03318424 53.54878261 -34.03087654 49.98448187 -34.05528844 46.41953974 C-34.08133275 42.58591828 -34.06078627 38.75333226 -34.03586662 34.91968584 C-34.05080175 33.82623806 -34.06573687 32.73279029 -34.08112458 31.60620773 C-33.96073744 22.87649093 -31.29334097 15.37765308 -25.70162006 8.56748372 C-18.54215598 1.82157357 -9.53625479 -0.10075264 0 0 Z " fill="#E6E5E5" transform="translate(989.2895249724388,819.4986033439636)"/>
<path d="M0 0 C1.46452551 0.65175724 2.92936131 1.30281775 4.39453125 1.953125 C20.83973328 9.3575146 36.21695469 18.70410677 51 29 C51.92683594 29.64195313 52.85367188 30.28390625 53.80859375 30.9453125 C65.58495715 39.30950523 76.70717994 48.58157663 87.25390625 58.44140625 C89.89964603 60.90649808 92.59756077 63.29917 95.3125 65.6875 C98.85705066 68.87196932 102.0482686 72.16096617 105.11328125 75.8046875 C107.36926427 78.42966153 109.74887561 80.92079682 112.125 83.4375 C118.99882827 90.83852101 124.99199243 98.89343708 131 107 C131.44730469 107.59538574 131.89460938 108.19077148 132.35546875 108.80419922 C158.17383427 143.21213635 176.37964972 183.75450076 186.38427734 225.4765625 C186.92765766 227.70351687 187.50866479 229.91408091 188.11328125 232.125 C194.60868803 256.48619687 195.75541018 281.99403726 195.625 307.0625 C195.62294277 308.43483427 195.62127919 309.80716918 195.61999512 311.17950439 C195.57548909 333.54005306 193.90745472 355.15209926 189 377 C188.84823303 377.69346527 188.69646606 378.38693054 188.5401001 379.10140991 C186.34410199 389.11199458 183.66734929 398.84718847 180.375 408.5625 C180.15968628 409.20063629 179.94437256 409.83877258 179.72253418 410.49624634 C165.31835856 453.04561326 143.8501029 492.31266414 114 526 C113.18917969 526.92167969 112.37835937 527.84335938 111.54296875 528.79296875 C99.6293303 542.06084568 87.1421054 555.10262008 73 566 C71.87603878 566.92099083 70.75515246 567.84574199 69.63671875 568.7734375 C60.20295984 576.5564152 50.3149075 583.43725515 40 590 C39.37689941 590.39783691 38.75379883 590.79567383 38.11181641 591.20556641 C19.13395948 603.21706598 -1.06609625 612.92821971 -22 621 C-22.93247559 621.36077637 -23.86495117 621.72155273 -24.82568359 622.09326172 C-55.54398467 633.79675637 -88.94777326 641.09098373 -121.87890625 641.203125 C-122.5335832 641.20595238 -123.18826015 641.20877975 -123.8627758 641.21169281 C-127.34105691 641.22660113 -130.8192976 641.23587807 -134.29760742 641.24023438 C-137.11414829 641.2445799 -139.93037606 641.25832924 -142.74682617 641.28125 C-165.41783892 641.46182187 -187.67704061 640.32144091 -209.875 635.3125 C-211.02734131 635.05686279 -212.17968262 634.80122559 -213.36694336 634.5378418 C-263.94522147 622.99822105 -312.08868357 600.37687939 -352 567 C-352.97839844 566.19433594 -353.95679688 565.38867188 -354.96484375 564.55859375 C-372.57347298 549.95915396 -388.86920258 534.02000772 -403 516 C-403.77472656 515.03191406 -404.54945312 514.06382812 -405.34765625 513.06640625 C-428.20002292 484.05730054 -446.13255829 450.93985004 -458 416 C-458.52932129 414.46714355 -458.52932129 414.46714355 -459.06933594 412.90332031 C-469.39128379 382.81554292 -476.12287212 350.6266084 -476.16796875 318.70703125 C-476.1723848 317.76688171 -476.17680084 316.82673218 -476.18135071 315.85809326 C-476.35010895 266.1914412 -469.72570891 219.97968814 -450 174 C-449.49629883 172.79947998 -449.49629883 172.79947998 -448.98242188 171.57470703 C-436.42354852 141.7324885 -418.71696733 114.77977616 -398 90 C-397.37714111 89.23961426 -397.37714111 89.23961426 -396.74169922 88.46386719 C-390.29910616 80.6000078 -383.43541881 73.25487738 -376.25 66.0625 C-375.45803223 65.26972656 -374.66606445 64.47695312 -373.85009766 63.66015625 C-304.96658154 -4.57501052 -210.44217283 -34.33561494 0 0 Z " fill="#050404" transform="translate(1828,1211)"/>
<path d="M0 0 C0.99264013 -0.00560927 1.98528026 -0.01121854 3.00800039 -0.01699778 C6.33144312 -0.03090757 9.65413991 -0.01637644 12.97757155 -0.00196791 C15.39567093 -0.0061412 17.81376782 -0.01206675 20.23185912 -0.01958537 C25.50431864 -0.03193466 30.7765611 -0.03184832 36.04900789 -0.02085119 C43.94203026 -0.00446255 51.83491871 -0.01119011 59.72794416 -0.02238176 C73.18062984 -0.04077839 86.63325502 -0.04018339 100.08594614 -0.02925825 C113.71916467 -0.01825393 127.35234338 -0.0159313 140.98556429 -0.02420759 C141.84659234 -0.02472428 142.70762038 -0.02524097 143.59474018 -0.02577332 C147.10156412 -0.0279064 150.60838801 -0.03010123 154.11521186 -0.03237442 C186.78128107 -0.05353433 219.4473236 -0.05496542 252.1133967 -0.04378462 C253.56546862 -0.04328785 253.56546862 -0.04328785 255.04687532 -0.04278104 C256.01647001 -0.04244932 256.98606471 -0.0421176 257.98504107 -0.04177583 C287.51139706 -0.03168749 317.03774202 -0.02907549 346.56409937 -0.03386641 C348.54048748 -0.03417632 350.5168756 -0.03448495 352.49326371 -0.03479229 C360.43534347 -0.03603413 368.37742323 -0.03730879 376.31950298 -0.03863134 C398.52169356 -0.04229958 420.72388419 -0.04458183 442.92607504 -0.04577589 C443.93715604 -0.04583047 444.94823703 -0.04588506 445.98995684 -0.04594129 C478.21291394 -0.04757868 510.43586719 -0.04306943 542.65882307 -0.03437757 C543.70411896 -0.03409658 544.74941486 -0.03381558 545.82638638 -0.03352607 C562.80184056 -0.02894615 579.77729466 -0.02406836 596.75274875 -0.01916538 C664.07891881 0.00025958 731.40505706 -0.00064064 798.73122698 -0.02008772 C815.6968791 -0.0249724 832.66253122 -0.02981657 849.62818342 -0.03437757 C850.67279127 -0.03465937 851.71739911 -0.03494116 852.79366173 -0.03523149 C884.98180229 -0.04385509 917.1699402 -0.04751354 949.35808188 -0.04577589 C950.36843605 -0.04572155 951.37879022 -0.04566722 952.41976118 -0.04561123 C974.5978048 -0.04436136 996.77584814 -0.0418269 1018.95389148 -0.03813388 C1026.88923204 -0.03681729 1034.82457262 -0.03556497 1042.75991319 -0.03433103 C1044.73405827 -0.03402148 1046.70820334 -0.03370656 1048.68234842 -0.03338625 C1078.20091371 -0.02861002 1107.71946657 -0.03268126 1137.23803032 -0.04278104 C1138.68997804 -0.04327781 1138.68997804 -0.04327781 1140.17125803 -0.04378462 C1141.62053275 -0.04428071 1141.62053275 -0.04428071 1143.09908574 -0.04478683 C1175.67107165 -0.05581445 1208.24302552 -0.05177203 1240.81500684 -0.03066164 C1244.31133276 -0.02845218 1247.80765871 -0.02630537 1251.3039847 -0.02420759 C1252.59108885 -0.02342635 1252.59108885 -0.02342635 1253.9041951 -0.02262933 C1267.50140085 -0.01473398 1281.09856683 -0.02023887 1294.69576901 -0.03128362 C1308.05973509 -0.04185435 1321.42363393 -0.03816952 1334.78759147 -0.01922726 C1342.62614839 -0.00854107 1350.46452112 -0.0087957 1358.3030693 -0.02515365 C1364.1175622 -0.03606735 1369.93189764 -0.0261936 1375.74637694 -0.00812855 C1378.08759972 -0.00408969 1380.42884598 -0.00679115 1382.77005019 -0.01695231 C1409.84233141 -0.12614046 1409.84233141 -0.12614046 1419.21047503 8.72405291 C1424.18458964 14.61786058 1426.83469579 20.79478137 1426.8365642 28.47898005 C1426.83923391 29.49050708 1426.84190362 30.50203411 1426.84465423 31.54421347 C1426.84142252 33.21279397 1426.84142252 33.21279397 1426.83812553 34.91508317 C1426.8406017 36.69621715 1426.8406017 36.69621715 1426.84312789 38.51333364 C1426.84671624 41.83061371 1426.84579339 45.14783851 1426.8430261 48.46511582 C1426.8411093 52.07945015 1426.84498216 55.69377896 1426.84812289 59.30811179 C1426.85284579 65.67425023 1426.85381872 72.0403809 1426.85239455 78.40652081 C1426.85027816 87.93694468 1426.85388003 97.46736046 1426.85860932 106.99778308 C1426.86649347 123.23794039 1426.86957191 139.4780955 1426.87005526 155.71825457 C1426.87055713 172.18401748 1426.87319879 188.64977793 1426.87846285 205.11554003 C1426.87879298 206.15419014 1426.87912312 207.19284026 1426.87946326 208.26296462 C1426.88081321 212.49299005 1426.88217587 216.72301548 1426.88355536 220.9530409 C1426.89987089 271.07125527 1426.90624547 321.18946917 1426.91100323 371.30768574 C1426.91338494 396.2550639 1426.9170881 421.2024418 1426.92104033 446.14981975 C1426.93370543 526.13840814 1426.94448968 606.12699652 1426.94788079 686.1155859 C1426.94804303 689.93977381 1426.94820859 693.76396172 1426.94837517 697.58814964 C1426.94870897 705.25785047 1426.94903946 712.9275513 1426.94936973 720.59725213 C1426.94975663 729.57695467 1426.95014624 738.55665722 1426.95054079 747.53635976 C1426.95065321 750.10644103 1426.95076463 752.67652229 1426.95087505 755.24660356 C1426.95442551 837.81241639 1426.96950779 920.37822052 1426.99281279 1002.94403003 C1427.00954884 1062.26114724 1427.0250271 1121.57826281 1427.02954775 1180.8953824 C1427.02968798 1182.72426368 1427.02968798 1182.72426368 1427.02983104 1184.59009205 C1427.03184986 1211.35259785 1427.03300609 1238.11510361 1427.03335963 1264.87760947 C1427.03349581 1274.45317507 1427.0337048 1284.02874067 1427.03395288 1293.60430627 C1427.03401444 1295.98656386 1427.03407276 1298.36882146 1427.03412783 1300.75107905 C1427.03504852 1338.74742382 1427.04502718 1376.74375953 1427.05958532 1414.74010132 C1427.07418533 1452.99873094 1427.07925305 1491.25734942 1427.07116577 1529.51598133 C1427.07005033 1534.79787055 1427.06903969 1540.07975978 1427.06809145 1545.36164904 C1427.06790148 1546.39708464 1427.06771152 1547.43252025 1427.06751579 1548.4993327 C1427.0647777 1564.92204975 1427.07213833 1581.34474627 1427.08366482 1597.76745886 C1427.09477887 1613.89983305 1427.09526378 1630.03217809 1427.08429463 1646.16455271 C1427.0781791 1655.6328711 1427.08034349 1665.10110176 1427.09454661 1674.56941196 C1427.10315347 1680.84951446 1427.10097394 1687.12955209 1427.0898479 1693.40965053 C1427.08383852 1696.9749392 1427.08256291 1700.54005528 1427.09453276 1704.10533281 C1427.10727874 1707.93241245 1427.09691948 1711.75922906 1427.08422118 1715.58631349 C1427.09533393 1717.24054953 1427.09533393 1717.24054953 1427.10667117 1718.92820449 C1427.04594031 1727.58615917 1425.56849486 1734.08946872 1419.64797503 1740.75139666 C1418.95574847 1741.56092791 1418.2635219 1742.37045916 1417.55031878 1743.20452166 C1410.64758005 1748.78747953 1403.0590782 1750.0940611 1394.4005633 1750.00279331 C1393.40571566 1750.00840258 1392.41086801 1750.01401185 1391.38587347 1750.01979109 C1388.05490826 1750.03370132 1384.72468724 1750.01916952 1381.39373308 1750.00476122 C1378.9702148 1750.00893449 1376.54669901 1750.01486003 1374.12318879 1750.02237868 C1368.83884907 1750.03472812 1363.55472592 1750.0346415 1358.27039891 1750.02364451 C1350.35960607 1750.00725608 1342.44894685 1750.01398333 1334.53815093 1750.02517507 C1321.05522212 1750.0435718 1307.57235367 1750.04297666 1294.08941942 1750.03205156 C1280.42556319 1750.02104729 1266.76174668 1750.01872457 1253.09788805 1750.0270009 C1252.23492971 1750.02751759 1251.37197136 1750.02803429 1250.48286276 1750.02856663 C1246.9681799 1750.03069971 1243.45349709 1750.03289454 1239.93881431 1750.03516774 C1207.19966873 1750.05632757 1174.46054978 1750.05775879 1141.72140032 1750.04657793 C1140.75119158 1750.04624675 1139.78098283 1750.04591557 1138.78137382 1750.04557435 C1137.8096154 1750.04524263 1136.83785697 1750.04491091 1135.83665133 1750.04456914 C1106.24488638 1750.03448096 1076.65313244 1750.03186873 1047.06136614 1750.03665972 C1045.08063039 1750.03696963 1043.09989463 1750.03727826 1041.11915888 1750.0375856 C1033.15962704 1750.03882744 1025.2000952 1750.0401021 1017.24056337 1750.04142465 C994.98965878 1750.04509289 972.73875415 1750.04737514 950.4878493 1750.0485692 C948.96790331 1750.04865108 948.96790331 1750.04865108 947.41725135 1750.04873461 C915.12378606 1750.05037199 882.83032461 1750.04586276 850.53686053 1750.03717089 C849.48927861 1750.03688989 848.44169669 1750.03660889 847.36236986 1750.03631938 C830.34975968 1750.03173946 813.33714959 1750.02686167 796.3245395 1750.02195869 C728.84835634 1750.00253298 661.37220493 1750.00343461 593.8960219 1750.02288103 C576.89204448 1750.0277657 559.88806704 1750.03260986 542.88408953 1750.03717089 C541.837127 1750.03745268 540.79016448 1750.03773447 539.71147581 1750.0380248 C507.45201696 1750.04664808 475.19256074 1750.05030692 442.93310076 1750.0485692 C441.92054525 1750.04851487 440.90798975 1750.04846053 439.86475074 1750.04840454 C417.63866699 1750.04715469 395.41258351 1750.04462026 373.18650003 1750.04092719 C365.23403608 1750.03961059 357.28157212 1750.03835828 349.32910816 1750.03712435 C347.35069844 1750.03681479 345.37228873 1750.03649987 343.39387901 1750.03617956 C313.80910677 1750.03140294 284.22434693 1750.03547533 254.63957623 1750.04557435 C253.18426312 1750.04607112 253.18426312 1750.04607112 251.69954973 1750.04657793 C250.73112667 1750.04690866 249.7627036 1750.04723939 248.76493438 1750.04758014 C216.12125489 1750.05860648 183.47760737 1750.05456793 150.83393246 1750.03345495 C147.33030901 1750.03124549 143.82668552 1750.02909868 140.323062 1750.0270009 C139.46319922 1750.02648008 138.60333643 1750.02595925 137.7174172 1750.02542264 C124.08892318 1750.01752568 110.46046884 1750.02303389 96.8319784 1750.03407693 C83.4389831 1750.04464473 70.04605489 1750.04096822 56.65306812 1750.02202058 C48.79635271 1750.01132995 40.93982105 1750.0115967 33.08311434 1750.02794696 C27.2569697 1750.03885271 21.43098238 1750.02899675 15.60485134 1750.01092187 C13.25759566 1750.00687992 10.91031659 1750.00959246 8.56307939 1750.01974562 C5.38183485 1750.03253418 2.20158519 1750.02072992 -0.97961324 1750.00279331 C-2.34046203 1750.01713776 -2.34046203 1750.01713776 -3.7288027 1750.031772 C-11.88204335 1749.93809605 -19.1140185 1747.82670933 -25.16452497 1742.18889666 C-30.49991806 1736.32499765 -33.41256775 1730.50025346 -33.41703215 1722.52307326 C-33.42001867 1721.51138005 -33.4230052 1720.49968685 -33.42608222 1719.45733628 C-33.42338212 1717.78847571 -33.42338212 1717.78847571 -33.42062747 1716.08590078 C-33.42265095 1714.89828062 -33.42467442 1713.71066046 -33.42675921 1712.48705181 C-33.43138839 1709.16921412 -33.43151115 1705.85143017 -33.42978967 1702.53359323 C-33.42900986 1698.91864289 -33.4340099 1695.30369985 -33.43827638 1691.68875259 C-33.4449809 1685.32151158 -33.44793224 1678.95427718 -33.44848084 1672.58703279 C-33.44931358 1663.05489627 -33.455827 1653.52276946 -33.46344381 1643.99063625 C-33.47624177 1627.74742403 -33.48418135 1611.50421259 -33.48947996 1595.26099634 C-33.49485653 1578.79200428 -33.50234026 1562.32301526 -33.51239294 1545.85402536 C-33.51302451 1544.81516723 -33.51365609 1543.77630909 -33.5143068 1542.70597041 C-33.5168818 1538.47508888 -33.5194654 1534.24420735 -33.52206165 1530.01332584 C-33.55568221 1475.10805462 -33.57616881 1420.20278017 -33.59450163 1365.29750205 C-33.59847755 1353.42397382 -33.60266351 1341.55044565 -33.60685704 1329.67691749 C-33.63801292 1241.35287936 -33.66509945 1153.02884027 -33.68180381 1064.70479814 C-33.68569067 1044.22332584 -33.68971076 1023.74185357 -33.69378806 1003.26038131 C-33.69429893 1000.68932024 -33.69480766 998.11825916 -33.69531426 995.54719809 C-33.71158733 912.96052384 -33.74858466 830.37387885 -33.79946806 747.78721906 C-33.83601347 688.45562342 -33.86972243 629.12403391 -33.88201708 569.79242754 C-33.88227117 568.57267156 -33.88252526 567.35291558 -33.88278705 566.0961973 C-33.88830299 539.32157677 -33.89214384 512.54695625 -33.89441252 485.77233525 C-33.89535052 474.99972053 -33.89650666 464.22710583 -33.89772695 453.45449114 C-33.89785448 452.27547459 -33.897982 451.09645804 -33.89811339 449.88171371 C-33.90232444 411.87810405 -33.92511751 373.87453352 -33.95748189 335.87093825 C-33.9899721 297.59961888 -34.00360001 259.32834219 -33.99108768 221.05700963 C-33.989363 215.77133195 -33.98785021 210.48565423 -33.98646444 205.19997644 C-33.98618483 204.16381357 -33.98590522 203.12765069 -33.98561714 202.06008894 C-33.98173781 185.63701641 -33.9980548 169.21402814 -34.02274435 152.79097631 C-34.04659159 136.65153092 -34.0491323 120.51219986 -34.02884002 104.3727483 C-34.01758062 94.90461309 -34.02281669 85.43683101 -34.05224756 75.96873289 C-34.07015056 69.68365697 -34.06635939 63.39883773 -34.04480106 57.11377385 C-34.03318424 53.54878261 -34.03087654 49.98448187 -34.05528844 46.41953974 C-34.08133275 42.58591828 -34.06078627 38.75333226 -34.03586662 34.91968584 C-34.05080175 33.82623806 -34.06573687 32.73279029 -34.08112458 31.60620773 C-33.96073744 22.87649093 -31.29334097 15.37765308 -25.70162006 8.56748372 C-18.54215598 1.82157357 -9.53625479 -0.10075264 0 0 Z M-21.66452497 22.00139666 C-22.12600935 22.56858416 -22.58749372 23.13577166 -23.06296247 23.72014666 C-25.56913106 27.35967811 -26.53952727 30.01223891 -26.54028531 34.46103795 C-26.54530791 35.46855044 -26.55033052 36.47606294 -26.55550533 37.51410611 C-26.55084198 38.62199647 -26.54617863 39.72988684 -26.54137397 40.87134963 C-26.54430283 42.05403553 -26.5472317 43.23672142 -26.55024932 44.45524629 C-26.5563852 47.75927867 -26.55349408 51.06308605 -26.5469135 54.36710336 C-26.54194283 57.96696849 -26.54856147 61.5668151 -26.55371717 65.16667739 C-26.56118129 71.5073007 -26.56114882 77.84789046 -26.55632768 84.18851582 C-26.54914573 93.68072196 -26.55343798 103.17289898 -26.56000903 112.66510432 C-26.57086351 128.84010086 -26.57215928 145.01508578 -26.56831068 161.19008493 C-26.56443974 177.5897341 -26.56488102 193.98937459 -26.57062048 210.3890233 C-26.5709793 211.42350431 -26.57133813 212.45798533 -26.57170783 213.52381425 C-26.57318268 217.73685877 -26.57468707 221.94990328 -26.57622929 226.16294778 C-26.59188174 268.97269373 -26.59454135 311.78243372 -26.59207323 354.59218202 C-26.5917348 360.5114951 -26.5914127 366.43080818 -26.59110755 372.35012126 C-26.5910465 373.52576874 -26.59098546 374.70141623 -26.59092257 375.91268939 C-26.58965176 401.94347709 -26.59225006 427.97426396 -26.59563361 454.00505141 C-26.59640435 459.94520753 -26.59714907 465.88536365 -26.59789863 471.82551977 C-26.59820032 474.20946354 -26.5985022 476.59340731 -26.59880427 478.97735108 C-26.59895395 480.15901139 -26.59910363 481.34067171 -26.59925785 482.55813991 C-26.59956137 484.94826081 -26.59986606 487.3383817 -26.60017189 489.72850259 C-26.60884799 557.56940537 -26.61348661 625.41030742 -26.60922426 693.25121069 C-26.6091462 694.50805209 -26.60906815 695.76489349 -26.60898772 697.05982099 C-26.60811489 711.0756413 -26.60718563 725.0914616 -26.60623709 739.1072819 C-26.60615158 740.37275744 -26.60606607 741.63823297 -26.60597797 742.94205625 C-26.60545918 750.6186074 -26.60545918 750.6186074 -26.60493574 758.29515854 C-26.59939929 839.24891883 -26.60694276 920.20266772 -26.62570661 1001.15642595 C-26.63042863 1021.55420126 -26.63510905 1041.95197658 -26.63954347 1062.34975195 C-26.6398168 1063.60563527 -26.64009012 1064.8615186 -26.64037172 1066.15545899 C-26.64873971 1104.84688082 -26.65342237 1143.53830169 -26.65425104 1182.22972441 C-26.65427741 1183.44402059 -26.65430377 1184.65831677 -26.65433094 1185.90940981 C-26.65487166 1212.56282085 -26.65449941 1239.21623181 -26.65329122 1265.86964282 C-26.65286558 1275.4061116 -26.65250046 1284.94258039 -26.65216178 1294.47904918 C-26.65207648 1296.85158436 -26.65198754 1299.22411954 -26.65189496 1301.59665472 C-26.65044469 1339.44050818 -26.65758214 1377.2843539 -26.66889892 1415.12820551 C-26.68053415 1454.2905001 -26.68112894 1493.45278085 -26.6690555 1532.61507551 C-26.66780361 1536.8165726 -26.66660013 1541.0180697 -26.66543478 1545.21956682 C-26.66514448 1546.25071833 -26.66485419 1547.28186984 -26.6645551 1548.34426837 C-26.660222 1564.70174832 -26.66597391 1581.05920869 -26.67587497 1597.41668557 C-26.68538926 1613.48335032 -26.68426806 1629.54998471 -26.67166875 1645.61664767 C-26.66459423 1655.0474674 -26.6657986 1664.47820004 -26.67901713 1673.90901365 C-26.68696932 1680.16301291 -26.68414964 1686.41694588 -26.67236749 1692.67093899 C-26.66598405 1696.22219861 -26.66435203 1699.77328549 -26.6759347 1703.32453585 C-26.68825961 1707.13491098 -26.67752888 1710.94501897 -26.6644218 1714.75539619 C-26.67171216 1715.85611432 -26.67900252 1716.95683246 -26.6865138 1718.09090569 C-26.6219207 1727.10819245 -24.77978416 1732.86020121 -18.28952497 1739.50139666 C-11.39683494 1743.75433306 -4.38042776 1743.64746177 3.46177381 1743.62789649 C4.93633304 1743.63018631 4.93633304 1743.63018631 6.44068135 1743.63252239 C9.75528206 1743.6364385 13.0698376 1743.63319978 16.38443857 1743.63003111 C18.78684258 1743.63137698 21.18924638 1743.63316042 23.59164977 1743.63534334 C28.84204685 1743.63909684 34.0924307 1743.6397222 39.34282772 1743.6376374 C47.20290709 1743.63453346 55.06297736 1743.6371728 62.92305606 1743.64093611 C76.31799508 1743.64717729 89.71293086 1743.64864112 103.10787112 1743.64751863 C116.68631633 1743.64639509 130.26475881 1743.64742509 143.8432036 1743.6510911 C144.70014873 1743.65132075 145.55709387 1743.6515504 146.44000703 1743.65178702 C149.93009147 1743.65272863 153.42017591 1743.65368432 156.91026034 1743.65465821 C193.34010657 1743.66480893 229.76995127 1743.66786442 266.19979875 1743.66845032 C270.12242918 1743.66851506 274.04505962 1743.668583 277.96769005 1743.66865373 C278.9410645 1743.66867073 279.91443895 1743.66868774 280.9173096 1743.66870526 C302.47505529 1743.66911349 324.03280067 1743.67130269 345.5905462 1743.67380957 C354.46369023 1743.67483791 363.33683425 1743.67582793 372.20997828 1743.67682582 C373.68052741 1743.67699171 373.68052741 1743.67699171 375.1807846 1743.67716094 C431.36974769 1743.6834861 487.55871059 1743.68760994 543.74767405 1743.68715239 C545.8510111 1743.68713661 547.95434815 1743.68712087 550.0576852 1743.68710518 C559.55436849 1743.68703179 569.05105177 1743.68694362 578.54773505 1743.68685129 C582.78266849 1743.68681017 587.01760192 1743.68677002 591.25253536 1743.68672998 C593.37219699 1743.68670958 595.49185861 1743.68668856 597.61152024 1743.68666692 C664.65052956 1743.68598654 731.68953359 1743.69330585 798.72854143 1743.7072072 C815.6208239 1743.71070811 832.51310638 1743.71417751 849.40538889 1743.7174716 C850.44545665 1743.71767447 851.4855244 1743.71787735 852.55710937 1743.71808637 C884.60210289 1743.72429929 916.64709599 1743.72806653 948.69209009 1743.72932959 C949.69786181 1743.72936954 950.70363353 1743.72940949 951.73988318 1743.72945065 C973.81672218 1743.73030384 995.89356117 1743.73056515 1017.97040019 1743.73028027 C1025.86945553 1743.73018378 1033.76851087 1743.73013174 1041.66756621 1743.73010154 C1043.63271494 1743.73009363 1045.59786367 1743.73008342 1047.5630124 1743.73007092 C1078.90157677 1743.72989445 1110.24013662 1743.7355984 1141.57869969 1743.74422474 C1173.13373637 1743.75286652 1204.6887668 1743.75507292 1236.24380417 1743.74846341 C1240.60085088 1743.74755107 1244.9578976 1743.7467078 1249.31494433 1743.7459054 C1250.1690712 1743.74574531 1251.02319808 1743.74558522 1251.90320759 1743.74542029 C1265.44626754 1743.74306412 1278.98931669 1743.74743213 1292.53237461 1743.75457659 C1305.83827299 1743.761456 1319.14415537 1743.76123661 1332.45005339 1743.75338445 C1340.25786012 1743.74899106 1348.06561983 1743.75010313 1355.8734227 1743.75925123 C1361.65990083 1743.76542379 1367.44633363 1743.76123845 1373.23280736 1743.75291793 C1375.56664352 1743.75118839 1377.90048512 1743.75285154 1380.23431575 1743.75821914 C1383.39245666 1743.76499941 1386.55034685 1743.75953093 1389.70847791 1743.75094432 C1391.06767334 1743.75829375 1391.06767334 1743.75829375 1392.45432726 1743.76579165 C1398.99536568 1743.72858023 1406.1065485 1743.23313102 1411.71047503 1739.50139666 C1413.65228534 1737.44728272 1413.65228534 1737.44728272 1415.39797503 1735.06389666 C1415.99996722 1734.28143572 1416.6019594 1733.49897478 1417.22219378 1732.69280291 C1419.51842626 1729.31173618 1419.83574615 1726.64534526 1419.8379822 1722.66474118 C1419.84096873 1721.6592042 1419.84395525 1720.65366722 1419.84703228 1719.61765943 C1419.84523221 1718.50683721 1419.84343214 1717.39601498 1419.84157753 1716.25153148 C1419.843601 1715.06967771 1419.84562447 1713.88782393 1419.84770926 1712.67015641 C1419.85234345 1709.36385299 1419.8524598 1706.05760342 1419.85073973 1702.75130072 C1419.84996068 1699.15063999 1419.85495826 1695.54998661 1419.85922644 1691.94932896 C1419.86593437 1685.60573936 1419.86888253 1679.2621564 1419.86943089 1672.91856341 C1419.87026327 1663.42186293 1419.87677491 1653.92517222 1419.88439386 1644.42847507 C1419.89719491 1628.24613612 1419.90513245 1612.06379795 1419.91043001 1595.88145494 C1419.91580581 1579.47332255 1419.92328878 1563.06519322 1419.93334299 1546.65706301 C1419.93397457 1545.62220171 1419.93460614 1544.58734041 1419.93525686 1543.52111968 C1419.93783185 1539.30654824 1419.94041544 1535.09197681 1419.94301171 1530.87740539 C1419.97663578 1476.17843419 1419.99711903 1421.47945976 1420.01545168 1366.78048163 C1420.01942737 1354.95225855 1420.02361338 1343.12403554 1420.02780709 1331.29581254 C1420.05896218 1243.31547827 1420.08605005 1155.33514306 1420.10275387 1067.35480478 C1420.10664076 1046.95217867 1420.11066084 1026.54955258 1420.11473812 1006.14692651 C1420.11524898 1003.58574912 1420.11575771 1001.02457174 1420.11626431 998.46339435 C1420.13253847 916.18873897 1420.16953736 833.91411296 1420.22041811 751.6394721 C1420.25696074 692.53346937 1420.290671 633.42747279 1420.30296713 574.32145929 C1420.30334827 572.49900104 1420.30334827 572.49900104 1420.3037371 570.63972545 C1420.30925289 543.97087765 1420.31309383 517.30202986 1420.31536258 490.63318159 C1420.31630059 479.90329567 1420.31745672 469.17340978 1420.31867701 458.44352388 C1420.31880453 457.2691774 1420.31893205 456.09483091 1420.31906344 454.88489816 C1420.32327542 417.02342531 1420.34607338 379.16199172 1420.37843194 341.30053331 C1420.41091349 303.17569386 1420.42455381 265.05089724 1420.41203774 226.92604454 C1420.41031303 221.6620753 1420.40880025 216.39810602 1420.4074145 211.13413668 C1420.40699508 209.58625766 1420.40699508 209.58625766 1420.4065672 208.00710836 C1420.40268597 191.64300052 1420.41901402 175.27897716 1420.44369441 158.91489008 C1420.46752577 142.83832848 1420.4700962 126.76188165 1420.44979008 110.68531388 C1420.43851945 101.25078473 1420.44379995 91.81660982 1420.47319761 82.38211777 C1420.49107198 76.12310605 1420.48734182 69.8643524 1420.46575111 63.60535289 C1420.45410992 60.05272717 1420.45189711 56.50079518 1420.47623849 52.9482182 C1420.50217407 49.1329233 1420.48179578 45.31867639 1420.45681667 41.50335681 C1420.4717518 40.40687904 1420.48668693 39.31040127 1420.50207464 38.18069691 C1420.39920424 30.80127291 1418.65165504 26.04358454 1413.71047503 20.50139666 C1408.99826134 16.25828536 1404.78701544 14.37747971 1398.49841975 14.37483482 C1397.65817291 14.3720595 1396.81792606 14.36928419 1395.9522172 14.36642477 C1395.0316729 14.36846111 1394.11112861 14.37049745 1393.16268903 14.37259549 C1392.17734473 14.37082048 1391.19200042 14.36904547 1390.1767972 14.36721667 C1386.84227976 14.36244846 1383.50780506 14.36485649 1380.17328554 14.36717558 C1377.76127443 14.36522386 1375.34926364 14.36283548 1372.93725336 14.36004761 C1367.65956689 14.35496973 1362.3818928 14.35303149 1357.10420492 14.35379835 C1349.203239 14.35493211 1341.30228349 14.35035799 1333.4013199 14.34466751 C1319.93750092 14.33514737 1306.47368402 14.33044696 1293.00986201 14.32835817 C1279.35962366 14.32623115 1265.70938852 14.32197486 1252.05915171 14.31511545 C1250.76741571 14.31446953 1250.76741571 14.31446953 1249.44958404 14.31381056 C1245.94239794 14.31205225 1242.43521186 14.31028261 1238.92802578 14.30849754 C1196.38862066 14.28688813 1153.84921491 14.27601767 1111.30980556 14.2670213 C1097.51814176 14.26408825 1083.72647813 14.26071848 1069.93481451 14.25705409 C1068.96214171 14.2567958 1067.98946891 14.25653751 1066.98732118 14.25627139 C1063.05240391 14.25522519 1059.11748665 14.25417677 1055.18256938 14.25312557 C987.87776093 14.23516096 920.57295224 14.21978065 853.26814174 14.21236654 C847.98052508 14.21178256 842.69290841 14.21118529 837.40529175 14.21058892 C836.35638231 14.2104708 835.30747287 14.21035268 834.2267783 14.21023098 C823.59961136 14.20903357 812.97244442 14.20782482 802.34527749 14.20659845 C800.21447718 14.20635322 798.08367686 14.20610936 795.95287655 14.20586688 C727.50126819 14.19807508 659.04967696 14.17568705 590.59807609 14.14319045 C541.41984103 14.11985153 492.24160936 14.09829634 443.06336886 14.09118414 C442.05245137 14.09103712 441.04153387 14.0908901 439.99998252 14.09073862 C417.81010358 14.08755412 395.62022467 14.08550301 373.43034553 14.08451107 C364.50253519 14.08409632 355.57472487 14.08354142 346.64691454 14.08294916 C345.66980257 14.08288849 344.69269059 14.08282782 343.68596916 14.08276532 C312.18550358 14.0807477 280.6850582 14.06649737 249.18459967 14.04600416 C217.46529244 14.0254417 185.74600858 14.0175195 154.02669535 14.02708192 C149.64693113 14.02840045 145.26716688 14.02957847 140.88740259 14.03067255 C140.02882085 14.0308924 139.1702391 14.03111225 138.28563973 14.03133876 C124.67177907 14.03445726 111.05796301 14.02411036 97.44411269 14.008197 C84.06865791 13.99284002 70.69326504 13.99166749 57.31780814 14.00574524 C49.46905401 14.01357609 41.62048862 14.01038431 33.7717532 13.99110807 C27.95498484 13.97803601 22.13836673 13.98568019 16.32160114 14.00159543 C13.9755018 14.00476025 11.62938163 14.00113704 9.2833061 13.99010368 C6.10841317 13.97613833 2.93451527 13.98667485 -0.24034232 14.003452 C-1.60681431 13.98857594 -1.60681431 13.98857594 -3.00089179 13.97339935 C-10.33994634 14.0555647 -16.96132753 16.02045194 -21.66452497 22.00139666 Z " fill="#FBFBFB" transform="translate(989.2895249724388,819.4986033439636)"/>
<path d="M0 0 C3.11781478 1.65553174 6.08554436 3.45014553 9.06347656 5.34570312 C10.76353796 6.37658093 12.46361684 7.40743094 14.16461182 8.43676758 C15.92636189 9.50884339 17.67974451 10.59354866 19.43164062 11.68164062 C25.046076 15.16063616 30.74993396 18.48990492 36.43847656 21.84570312 C38.69246981 23.18540052 40.94637602 24.52524435 43.20019531 25.86523438 C50.93337059 30.44781529 58.72285466 34.93056569 66.51611328 39.40991211 C74.30012422 43.88823032 82.04300821 48.43154949 89.76757812 53.01147461 C96.32948517 56.90042872 102.90975209 60.75666113 109.50097656 64.59570312 C115.96566108 68.36145693 122.42878328 72.12978272 128.88378906 75.91210938 C129.47528244 76.25865067 130.06677582 76.60519196 130.67619324 76.9622345 C133.70397925 78.73672916 136.730496 80.51334544 139.75512695 82.29321289 C145.4919471 85.66699843 151.23608249 89.02532141 157.01399231 92.3283844 C159.6837378 93.85568105 162.34856985 95.39143926 165.01309204 96.92782593 C166.28180733 97.65620457 167.55290304 98.38045484 168.82650757 99.10025024 C183.87453668 107.6082254 183.87453668 107.6082254 186.93847656 115.84570312 C187.73370805 120.76776751 187.56907168 125.49377133 185.25097656 129.97070312 C182.67057385 133.45296706 179.77795515 135.37675559 176.07519531 137.59179688 C175.50309326 137.93618301 174.93099121 138.28056915 174.34155273 138.63539124 C172.54511151 139.71341225 170.74267437 140.78072333 168.93847656 141.84570312 C167.84575439 142.49410156 166.75303223 143.1425 165.62719727 143.81054688 C162.23690058 145.81169187 158.83883468 147.79923478 155.43847656 149.78320312 C154.1760155 150.52132829 152.91364796 151.25961343 151.65136719 151.99804688 C149.04169853 153.52453812 146.43163835 155.05035657 143.82128906 156.57568359 C138.28922594 159.8089922 132.76212358 163.05075741 127.23486328 166.29226685 C124.21962523 168.06046137 121.20403215 169.82805021 118.18847656 171.59570312 C116.98014155 172.30403359 115.77180821 173.01236692 114.56347656 173.72070312 C107.31347661 177.9707031 107.31347661 177.9707031 105.50105286 179.03315735 C104.29246399 179.74164118 103.08387634 180.4501271 101.87528992 181.15861511 C98.85837633 182.92716292 95.84144162 184.69567467 92.82446289 186.46411133 C87.34015784 189.67884764 81.85602012 192.8938679 76.37265015 196.11019897 C63.61676354 203.59227669 50.8572515 211.06786641 38.07885742 218.51147461 C32.42703718 221.80532297 26.78164521 225.10987138 21.14160156 228.42382812 C20.47978882 228.81252075 19.81797607 229.20121338 19.1361084 229.60168457 C15.88312855 231.51222157 12.63086584 233.42395777 9.37988281 235.33789062 C8.19632363 236.03326197 7.01273151 236.72857725 5.82910156 237.42382812 C4.78786133 238.03645508 3.74662109 238.64908203 2.67382812 239.28027344 C-3.25135499 242.67122971 -7.20537209 243.52043548 -14.06152344 242.84570312 C-19.50671074 241.06554574 -22.84378736 237.45744212 -26.06152344 232.84570312 C-27.35674167 228.96004842 -27.21301758 225.27494463 -27.21542358 221.22468567 C-27.21980584 220.33346895 -27.22418809 219.44225224 -27.22870314 218.52402896 C-27.24210107 215.52553868 -27.24827225 212.5270778 -27.25439453 209.52856445 C-27.26229471 207.3834927 -27.27056361 205.23842228 -27.2791748 203.09335327 C-27.3054046 196.0381599 -27.3207034 188.98296057 -27.33496094 181.92773438 C-27.34032022 179.5000629 -27.34569773 177.07239147 -27.35109329 174.64472008 C-27.3727234 164.54703314 -27.3914605 154.44934781 -27.40271568 144.35164356 C-27.41895716 129.87507578 -27.4521386 115.39877632 -27.50911653 100.9223097 C-27.54780381 90.74641216 -27.56734696 80.57058642 -27.57263625 70.39461726 C-27.57629132 64.31554125 -27.58832972 58.23675136 -27.62073898 52.1577549 C-27.6507979 46.43757097 -27.65713892 40.7178466 -27.64535522 34.99760056 C-27.64513431 32.89977875 -27.65345399 30.80193576 -27.67100906 28.70418739 C-27.6937013 25.83611878 -27.68540517 22.96971654 -27.66952515 20.10163879 C-27.68340723 19.27487021 -27.69728932 18.44810162 -27.71159208 17.59627944 C-27.61185803 10.26673018 -24.68081412 5.46499381 -19.56152344 0.34570312 C-13.30631133 -2.33510206 -6.39084775 -2.40956365 0 0 Z " fill="#E6E6E6" transform="translate(1631.0615234375,1396.154296875)"/>
<path d="M0 0 C14.66884956 10.958054 24.46732569 25.4102679 27.30078125 43.71875 C28.73104381 60.32374942 25.61115592 78.01856443 15.1953125 91.4296875 C12.98382338 93.96471634 10.69345793 96.35490075 8.30078125 98.71875 C7.68589844 99.35554688 7.07101562 99.99234375 6.4375 100.6484375 C-5.46196299 112.11472946 -21.32333492 116.004452 -37.35864258 115.96337891 C-54.45393352 115.62898707 -69.23995932 109.98920192 -81.5546875 98.0625 C-95.11197463 83.24579275 -99.32276813 66.25899498 -98.79248047 46.69970703 C-98.59697378 42.54698115 -97.87337692 38.69746882 -96.69921875 34.71875 C-96.44269531 33.84089844 -96.18617187 32.96304688 -95.921875 32.05859375 C-90.38870729 15.17412059 -78.89256545 3.44147443 -63.24609375 -4.53125 C-43.66989174 -13.58690807 -18.08861836 -11.91720739 0 0 Z " fill="#070606" transform="translate(1740.69921875,2099.28125)"/>
<path d="M0 0 C0.93328125 0.24878906 1.8665625 0.49757813 2.828125 0.75390625 C18.28330637 5.91394261 29.7406485 16.70764473 37.45703125 30.88671875 C44.76667286 45.63553992 46.37354651 65.23322821 41.20141602 81.03564453 C39.98836964 84.15490664 38.57789986 87.04318322 37 90 C36.45859375 91.01964844 35.9171875 92.03929688 35.359375 93.08984375 C26.90486291 107.49016926 13.96678602 116.7995028 -2.02734375 121.30859375 C-20.07967599 125.50736222 -38.00691121 123.57851659 -54 114 C-63.74388118 107.30637728 -70.99262257 99.55727697 -76.375 89.0625 C-76.70902832 88.41861328 -77.04305664 87.77472656 -77.38720703 87.11132812 C-84.22294966 73.05284766 -84.54516716 53.45022307 -79.9375 38.6875 C-73.08372019 21.56259613 -61.35923227 9.90975394 -45 2 C-44.10410156 1.54496094 -43.20820312 1.08992188 -42.28515625 0.62109375 C-29.89729036 -4.59963681 -12.78889329 -3.5156004 0 0 Z " fill="#060505" transform="translate(1411,2254)"/>
<path d="M0 0 C11.55 0 23.1 0 35 0 C38.10350341 6.20700683 41.01558853 12.18349409 43.53125 18.6015625 C44.0010453 19.78350945 44.0010453 19.78350945 44.48033142 20.98933411 C45.14697645 22.66774594 45.81168947 24.34692628 46.47457886 26.02682495 C47.86965492 29.56161827 49.27486196 33.09235462 50.67955017 36.62333679 C51.39653919 38.42581434 52.11306048 40.22847802 52.82911682 42.03132629 C56.05221461 50.14412147 59.3055753 58.24440853 62.58544922 66.33441162 C63.15211942 67.73310469 63.71771741 69.13223266 64.28222656 70.53179932 C65.05937773 72.45840939 65.83973799 74.3836858 66.62109375 76.30859375 C67.0586499 77.38939209 67.49620605 78.47019043 67.94702148 79.58374023 C68.78353962 81.90545211 68.78353962 81.90545211 70 83 C70.59349243 81.51234131 70.59349243 81.51234131 71.19897461 79.99462891 C78.86866811 60.7746731 86.55719667 41.56221208 94.30349731 22.37298584 C95.06014274 20.49773345 95.81589905 18.62212207 96.57077026 16.74615479 C97.62671744 14.12272368 98.68593949 11.50063952 99.74609375 8.87890625 C100.06203491 8.09225082 100.37797607 7.3055954 100.70349121 6.49510193 C102.88566102 1.11433898 102.88566102 1.11433898 104 0 C115.55 0 127.1 0 139 0 C139 40.59 139 81.18 139 123 C129.1 123 119.2 123 109 123 C108.67 99.9 108.34 76.8 108 53 C99.42 76.1 90.84 99.2 82 123 C73.75 123 65.5 123 57 123 C48.42 99.9 39.84 76.8 31 53 C30.67 76.1 30.34 99.2 30 123 C20.1 123 10.2 123 0 123 C0 82.41 0 41.82 0 0 Z " fill="#060505" transform="translate(1173,2253)"/>
<path d="M0 0 C11.88 0 23.76 0 36 0 C37.05316406 2.60261719 38.10632812 5.20523438 39.19140625 7.88671875 C39.88931427 9.61108749 40.58722994 11.33545312 41.28515625 13.05981445 C42.81320943 16.83540682 44.34045495 20.61132461 45.8671875 24.38745117 C49.70699306 33.88194577 53.55656215 43.37220289 57.43359375 52.8515625 C58.46081701 55.36784988 59.48767259 57.88428692 60.51437378 60.40078735 C61.16896474 62.00249524 61.82514214 63.60355572 62.48294067 65.20394897 C63.39883293 67.43254903 64.30932978 69.66328397 65.21875 71.89453125 C65.62225929 72.86992355 65.62225929 72.86992355 66.03392029 73.86502075 C67.39477584 77.21956354 68.43224091 80.42133283 69 84 C69.66 84 70.32 84 71 84 C71.10429321 83.33405823 71.20858643 82.66811646 71.31604004 81.98199463 C72.16865924 78.26466319 73.52764896 74.81763447 74.94335938 71.28808594 C75.2442598 70.52818359 75.54516022 69.76828125 75.85517883 68.98535156 C76.84718965 66.48334314 77.84532086 63.98382837 78.84375 61.484375 C79.53525019 59.74525575 80.22644879 58.00601656 80.9173584 56.2666626 C82.36395106 52.62755308 83.81344494 48.98961739 85.26513672 45.35253906 C87.12949227 40.68119576 88.98773917 36.00745221 90.84398651 31.33288193 C92.26942905 27.74457032 93.69748993 24.1573056 95.12641907 20.57038116 C95.81288823 18.84658997 96.49866935 17.12252462 97.1837616 15.39818573 C98.13880949 12.99586444 99.09722722 10.59491649 100.05664062 8.19433594 C100.3413472 7.47642883 100.62605377 6.75852173 100.91938782 6.01885986 C102.88559791 1.11440209 102.88559791 1.11440209 104 0 C115.55 0 127.1 0 139 0 C139 40.59 139 81.18 139 123 C129.1 123 119.2 123 109 123 C108.67 100.23 108.34 77.46 108 54 C102.43588407 68.85071265 102.43588407 68.85071265 96.87304688 83.7019043 C91.95819388 96.81785224 86.99771499 109.91538611 82 123 C73.75 123 65.5 123 57 123 C56.04996094 120.24140625 55.09992187 117.4828125 54.12109375 114.640625 C49.69210386 101.91313619 44.87377084 89.33672887 40.0625 76.75 C37.071875 68.9125 34.08125 61.075 31 53 C30.67 76.1 30.34 99.2 30 123 C20.1 123 10.2 123 0 123 C0 82.41 0 41.82 0 0 Z " fill="#060505" transform="translate(2063,2253)"/>
<path d="M0 0 C75.11946995 0 75.11946995 0 93.71484375 17.65234375 C105.70462489 29.97005052 110.36360348 43.26320338 110.3125 60.25 C110.32861328 61.30574219 110.34472656 62.36148438 110.36132812 63.44921875 C110.37111026 79.43322827 105.35304074 93.249165 94.20703125 104.8203125 C93.11455078 105.89925781 93.11455078 105.89925781 92 107 C91.44699219 107.57492188 90.89398437 108.14984375 90.32421875 108.7421875 C68.04993856 130.07685785 23.50691938 123 0 123 C0 82.41 0 41.82 0 0 Z " fill="#060505" transform="translate(1929,2091)"/>
<path d="M0 0 C75.11946995 0 75.11946995 0 93.71484375 17.65234375 C105.70462489 29.97005052 110.36360348 43.26320338 110.3125 60.25 C110.32861328 61.30574219 110.34472656 62.36148438 110.36132812 63.44921875 C110.37111026 79.43322827 105.35304074 93.249165 94.20703125 104.8203125 C93.11455078 105.89925781 93.11455078 105.89925781 92 107 C91.44699219 107.57492188 90.89398437 108.14984375 90.32421875 108.7421875 C68.04993856 130.07685785 23.50691938 123 0 123 C0 82.41 0 41.82 0 0 Z " fill="#060505" transform="translate(1425,2091)"/>
<path d="M0 0 C9.9 0 19.8 0 30 0 C34.26269299 6.08956141 38.48397224 12.16258139 42.5546875 18.375 C43.31170456 19.52645508 43.31170456 19.52645508 44.08401489 20.70117188 C45.68240133 23.13320388 47.27871369 25.56658919 48.875 28 C49.90351598 29.56518951 50.93216129 31.13029403 51.9609375 32.6953125 C60.99600098 46.44918388 69.99441012 60.22674488 79 74 C79.33 49.58 79.66 25.16 80 0 C89.9 0 99.8 0 110 0 C110 40.59 110 81.18 110 123 C100.1 123 90.2 123 80 123 C70.96140408 110.57193061 70.96140408 110.57193061 67.33203125 104.5625 C61.37155664 94.87209069 55.02568226 85.44580299 48.6875 76 C46.95061323 73.40859303 45.2144638 70.81669929 43.47969055 68.22387695 C42.41248122 66.62907808 41.34404164 65.03510146 40.27409363 63.44213867 C39.78620865 62.71357666 39.29832367 61.98501465 38.7956543 61.234375 C38.3750322 60.60756836 37.9544101 59.98076172 37.52104187 59.33496094 C35.29766291 55.92183792 33.15891298 52.45426077 31 49 C30.67 73.42 30.34 97.84 30 123 C20.1 123 10.2 123 0 123 C0 82.41 0 41.82 0 0 Z " fill="#060505" transform="translate(1471,2253)"/>
<path d="M0 0 C8.62471351 7.11904319 13.94347793 16.62875463 17.4296875 27.15234375 C17.4296875 27.48234375 17.4296875 27.81234375 17.4296875 28.15234375 C12.69761745 28.32606425 7.96742182 28.45271537 3.23291016 28.53686523 C1.6245082 28.57195705 0.01632782 28.61964622 -1.59130859 28.68041992 C-15.01250982 29.17488523 -15.01250982 29.17488523 -18.86108398 26.64868164 C-20.41796875 24.77734375 -20.41796875 24.77734375 -21.49633789 22.90625 C-23.23465602 20.0674054 -25.65675593 18.99911336 -28.6875 17.8125 C-37.61922277 15.76715969 -48.1697118 15.76853984 -56.49609375 19.83984375 C-63.75758522 24.43468581 -68.51527702 30.76924746 -70.5703125 39.15234375 C-72.1181186 52.41548627 -71.65898742 64.63841047 -63.70703125 75.7578125 C-61.49973448 78.23143759 -59.48421313 79.73280255 -56.6328125 81.40234375 C-55.38177734 82.15257813 -55.38177734 82.15257813 -54.10546875 82.91796875 C-46.09074637 86.82036054 -33.9101559 86.5666092 -25.4140625 84.31640625 C-16.57538525 80.25170591 -12.31799263 73.89693071 -8.5703125 65.15234375 C-20.7803125 65.15234375 -32.9903125 65.15234375 -45.5703125 65.15234375 C-45.5703125 57.89234375 -45.5703125 50.63234375 -45.5703125 43.15234375 C-24.1203125 43.15234375 -2.6703125 43.15234375 19.4296875 43.15234375 C19.4296875 76.81008754 19.4296875 76.81008754 12.4296875 86.15234375 C11.52669922 87.50199219 11.52669922 87.50199219 10.60546875 88.87890625 C1.41580915 101.6326896 -12.64949939 109.50139781 -27.859375 112.64453125 C-44.95067235 114.98334036 -62.03827328 113.16527321 -76.5703125 103.15234375 C-80.1054133 100.33659486 -83.37287512 97.34414191 -86.5703125 94.15234375 C-87.43462891 93.30542969 -87.43462891 93.30542969 -88.31640625 92.44140625 C-100.12833789 79.86246606 -103.10960146 62.72930745 -102.84375 46.18359375 C-102.2410256 30.52469441 -96.10665416 15.83526203 -85.1953125 4.5 C-61.60487914 -16.59799174 -25.78661921 -18.53658189 0 0 Z " fill="#070606" transform="translate(1932.5703125,2263.84765625)"/>
<path d="M0 0 C11.55 0 23.1 0 35 0 C39.4997038 10.12433355 39.4997038 10.12433355 40.83666992 13.86572266 C41.14248993 14.716091 41.44830994 15.56645935 41.76339722 16.44259644 C42.24209763 17.78972214 42.24209763 17.78972214 42.73046875 19.1640625 C43.07844513 20.13425323 43.42642151 21.10444397 43.78494263 22.10403442 C44.92218323 25.27660496 46.05479793 28.45080658 47.1875 31.625 C48.38805538 34.97730264 49.58982828 38.32916736 50.79161072 41.68103027 C51.61709484 43.98370242 52.44217416 46.28651972 53.26686096 48.58947754 C57.58768804 60.65302597 61.94820465 72.70212367 66.3125 84.75 C67.01786263 86.69741377 67.72318596 88.64484177 68.4284668 90.59228516 C68.7633461 91.51695587 69.0982254 92.44162659 69.44325256 93.39431763 C70.39139471 96.01435342 71.33769168 98.63504941 72.28369141 101.25585938 C73.376067 104.28132146 74.47715539 107.30331903 75.58740234 110.32226562 C76.05177611 111.59504541 76.51613291 112.86783138 76.98046875 114.140625 C77.37516357 115.21344727 77.7698584 116.28626953 78.17651367 117.39160156 C79 120 79 120 79 123 C68.77 123 58.54 123 48 123 C47.030625 120.298125 46.06125 117.59625 45.0625 114.8125 C44.75836182 113.97050049 44.45422363 113.12850098 44.14086914 112.26098633 C43.89973389 111.58318115 43.65859863 110.90537598 43.41015625 110.20703125 C43.16402588 109.5210083 42.91789551 108.83498535 42.66430664 108.12817383 C41.93727219 105.79904507 41.47851613 103.39258065 41 101 C25.82 101.33 10.64 101.66 -5 102 C-7.31 108.93 -9.62 115.86 -12 123 C-22.56 123 -33.12 123 -44 123 C-40.62470727 111.74902424 -40.62470727 111.74902424 -38.94140625 107.09033203 C-38.56184784 106.03587387 -38.18228943 104.98141571 -37.79122925 103.89500427 C-37.3857486 102.77723099 -36.98026794 101.6594577 -36.5625 100.5078125 C-36.12938507 99.30741837 -35.69627014 98.10702423 -35.25003052 96.87025452 C-34.07907428 93.62551475 -32.90464399 90.38204297 -31.72940826 87.13885117 C-30.75146953 84.43882272 -29.77556115 81.73806222 -28.7996006 79.03731823 C-19.26906531 52.66625645 -9.64877462 26.32800742 0 0 Z " fill="#070606" transform="translate(1742,2253)"/>
<path d="M0 0 C1.15363037 0.00757324 2.30726074 0.01514648 3.49584961 0.02294922 C18.06847265 0.30523262 29.23406786 3.99279045 39.5625 14.625 C45.15753042 21.23629343 47.25 27.85343081 47.25 36.4375 C36.36 36.4375 25.47 36.4375 14.25 36.4375 C13.59 34.1275 12.93 31.8175 12.25 29.4375 C8.57532578 25.66612383 5.26908157 25.1125155 0.1875 24.875 C-3.85239268 25.03057351 -5.49099728 25.27811371 -9 27.4375 C-11.25706651 31.30675687 -11.66676683 34.06728143 -10.75 38.4375 C-5.89929414 47.91842508 9.55842146 50.79069034 18.88476562 53.8671875 C31.11685915 58.08255512 41.25969979 63.87980638 47.40234375 75.64453125 C50.07387851 84.44705363 49.65031549 95.83682959 45.75 104.125 C39.87343749 113.94666742 31.70499458 120.66798996 20.76953125 124.25 C4.77795669 127.820212 -12.99834422 126.47174689 -27.20703125 118.16796875 C-36.34484527 111.94976351 -41.36431683 104.17307426 -43.75 93.4375 C-43.75 91.4575 -43.75 89.4775 -43.75 87.4375 C-33.19 87.4375 -22.63 87.4375 -11.75 87.4375 C-10.76 90.0775 -9.77 92.7175 -8.75 95.4375 C-6.09200616 98.57876545 -4.29967802 100.29598749 -0.140625 100.67578125 C8.374982 100.89371941 8.374982 100.89371941 15.25 96.4375 C16.50553102 92.67090693 17.12028436 89.32427847 16.25 85.4375 C10.99136474 77.99059394 0.81367516 75.94108464 -7.37011719 73.27783203 C-21.67956115 68.60098668 -34.46962136 63.67835804 -41.875 49.61328125 C-45.48312159 40.64130034 -44.79748145 29.80679985 -41.1328125 21.00390625 C-35.60301011 10.74096791 -26.281865 4.54359846 -15.37084961 1.04394531 C-10.2923853 -0.13117396 -5.18937715 -0.04732982 0 0 Z " fill="#070606" transform="translate(1824.75,2089.5625)"/>
<path d="M0 0 C10.23 0 20.46 0 31 0 C33.62145872 6.5536468 36.10353795 13.02201236 38.3125 19.70703125 C38.60809814 20.59428391 38.90369629 21.48153656 39.20825195 22.39567566 C39.82808835 24.25818213 40.44648104 26.12116964 41.06347656 27.98461914 C41.99461446 30.7962381 42.93051272 33.60623701 43.8671875 36.41601562 C46.70062377 44.93343107 49.48560675 53.45751192 52.09228516 62.04760742 C53.70970488 67.30835426 55.44811044 72.52856791 57.1875 77.75 C57.54263672 78.82765625 57.89777344 79.9053125 58.26367188 81.015625 C58.77317383 82.54703125 58.77317383 82.54703125 59.29296875 84.109375 C59.5974292 85.02686523 59.90188965 85.94435547 60.21557617 86.88964844 C60.8167889 88.95560075 60.8167889 88.95560075 62 90 C63.40292124 86.02329845 64.79591553 82.0431814 66.1875 78.0625 C66.57486328 76.96486328 66.96222656 75.86722656 67.36132812 74.73632812 C69.51474234 68.56083448 71.50978483 62.36948236 73.31640625 56.0859375 C76.17573811 46.16579198 79.44831017 36.38805706 82.73095703 26.60131836 C83.7655976 23.51598747 84.79522681 20.42901572 85.82421875 17.34179688 C86.48148455 15.37490431 87.13902595 13.40810382 87.796875 11.44140625 C88.10413513 10.52073868 88.41139526 9.60007111 88.72796631 8.65150452 C89.0120636 7.8055925 89.29616089 6.95968048 89.58886719 6.08813477 C89.83803894 5.3444313 90.08721069 4.60072784 90.34393311 3.83448792 C91 2 91 2 92 0 C102.56 0 113.12 0 124 0 C117.64315297 18.54948806 111.19143617 37.06409439 104.6875 55.5625 C104.27770905 56.7280542 103.86791809 57.8936084 103.44570923 59.09448242 C97.63033406 75.6246331 91.75448766 92.13144093 85.74487305 108.59204102 C85.49461868 109.27942856 85.24436432 109.9668161 84.98652649 110.67503357 C84.32787026 112.48336788 83.66673219 114.29079771 83.00537109 116.09814453 C81.89917948 119.15275418 81.89917948 119.15275418 81 123 C68.46 123 55.92 123 43 123 C39.30102201 113.1360587 35.63550177 103.28205685 32.12890625 93.3515625 C31.45502815 91.44954632 30.78114943 89.54753036 30.10724354 87.64552402 C29.16519127 84.98554994 28.2244918 82.32509828 27.28379059 79.66464615 C25.08568877 73.44891287 22.88468611 67.23420601 20.68359375 61.01953125 C20.31985909 59.99226331 20.31985909 59.99226331 19.94877625 58.94424248 C16.72969302 49.85424111 13.48987874 40.77205692 10.22265625 31.69921875 C9.86617508 30.7078894 9.50969391 29.71656006 9.14241028 28.69519043 C7.50609987 24.14520712 5.86550933 19.596862 4.21704102 15.05126953 C3.64708084 13.46785165 3.07732412 11.88436052 2.5078125 10.30078125 C2.12043663 9.24125496 2.12043663 9.24125496 1.72523499 8.1603241 C0.69845578 5.29205945 0 3.07340491 0 0 Z " fill="#070606" transform="translate(1237,2091)"/>
<path d="M0 0 C25.08 0 50.16 0 76 0 C76 7.92 76 15.84 76 24 C60.82 24 45.64 24 30 24 C30 32.25 30 40.5 30 49 C43.2 49 56.4 49 70 49 C70 56.59 70 64.18 70 72 C56.8 72 43.6 72 30 72 C30 80.91 30 89.82 30 99 C45.18 99 60.36 99 76 99 C76 106.92 76 114.84 76 123 C50.92 123 25.84 123 0 123 C0 82.41 0 41.82 0 0 Z " fill="#070606" transform="translate(1968,2253)"/>
<path d="M0 0 C25.08 0 50.16 0 76 0 C76 7.92 76 15.84 76 24 C60.82 24 45.64 24 30 24 C30 32.25 30 40.5 30 49 C43.2 49 56.4 49 70 49 C70 56.59 70 64.18 70 72 C56.8 72 43.6 72 30 72 C30 80.91 30 89.82 30 99 C45.18 99 60.36 99 76 99 C76 106.92 76 114.84 76 123 C50.92 123 25.84 123 0 123 C0 82.41 0 41.82 0 0 Z " fill="#070606" transform="translate(2056,2091)"/>
<path d="M0 0 C25.08 0 50.16 0 76 0 C76 7.92 76 15.84 76 24 C60.82 24 45.64 24 30 24 C30 32.25 30 40.5 30 49 C43.2 49 56.4 49 70 49 C70 56.59 70 64.18 70 72 C56.8 72 43.6 72 30 72 C30 80.91 30 89.82 30 99 C45.18 99 60.36 99 76 99 C76 106.92 76 114.84 76 123 C50.92 123 25.84 123 0 123 C0 82.41 0 41.82 0 0 Z " fill="#070606" transform="translate(1552,2091)"/>
<path d="M0 0 C31.35 0 62.7 0 95 0 C95 7.92 95 15.84 95 24 C84.11 24 73.22 24 62 24 C62 56.67 62 89.34 62 123 C52.43 123 42.86 123 33 123 C33 90.33 33 57.66 33 24 C22.11 24 11.22 24 0 24 C0 16.08 0 8.16 0 0 Z " fill="#050404" transform="translate(1596,2253)"/>
<path d="M0 0 C7.5585216 5.60839456 13.40017808 13.01901302 15.07421875 22.5390625 C15.89938257 35.30881078 15.3560128 47.44504695 6.84375 57.7890625 C-0.02527291 64.58226838 -7.52022682 67.81306298 -17.17578125 67.9140625 C-26.38836557 67.76955137 -33.62351236 65.61499738 -40.3984375 59.22265625 C-48.65237343 50.1243279 -50.57859485 39.26691659 -50.26171875 27.25 C-49.26905465 16.28452453 -45.1049439 8.86017425 -36.92578125 1.5390625 C-27.29055824 -5.68256588 -10.27944905 -6.24795035 0 0 Z " fill="#E4E3E3" transform="translate(1408.92578125,2282.4609375)"/>
<path d="M0 0 C7.92054129 4.71697508 13.3894087 11.66468944 15.7734375 20.64453125 C17.56638651 32.73847974 17.4561479 45.9847957 10.19921875 56.25 C4.51871428 62.99989132 -1.07188675 67.04001823 -9.8125 68.4375 C-20.85876829 69.25129513 -28.421817 68.20604735 -37.0625 61.1875 C-43.69353828 55.01878511 -47.77107542 47.72735165 -48.11328125 38.57421875 C-48.12779096 36.75786625 -48.13142746 34.94139908 -48.125 33.125 C-48.14111328 32.22587891 -48.15722656 31.32675781 -48.17382812 30.40039062 C-48.18095758 20.5403499 -45.61335076 12.68055855 -38.8125 5.4375 C-28.15747596 -3.98488401 -13.09986562 -6.17141911 0 0 Z " fill="#E5E5E5" transform="translate(1720.8125,2119.5625)"/>
<path d="M0 0 C9.9 0 19.8 0 30 0 C30 40.59 30 81.18 30 123 C20.1 123 10.2 123 0 123 C0 82.41 0 41.82 0 0 Z " fill="#080707" transform="translate(1373,2091)"/>
<path d="M0 0 C31.53167421 0 31.53167421 0 41 9 C49.12218711 17.72996981 50.58670504 26.58284991 50.21484375 38.1953125 C49.67456761 47.76311176 47.1441173 55.94090944 40.109375 62.859375 C28.03005647 72.46576218 15.41035916 71 0 71 C0 47.57 0 24.14 0 0 Z " fill="#E5E4E4" transform="translate(1959,2117)"/>
<path d="M0 0 C31.53167421 0 31.53167421 0 41 9 C49.12218711 17.72996981 50.58670504 26.58284991 50.21484375 38.1953125 C49.67456761 47.76311176 47.1441173 55.94090944 40.109375 62.859375 C28.03005647 72.46576218 15.41035916 71 0 71 C0 47.57 0 24.14 0 0 Z " fill="#E5E5E5" transform="translate(1455,2117)"/>
<path d="M0 0 C0 7.59 0 15.18 0 23 C-4.69514959 24.94008092 -9.39061635 26.87935567 -14.08691406 28.81665039 C-15.68150552 29.47471783 -17.2759101 30.13323828 -18.87011719 30.79223633 C-21.17332709 31.74422015 -23.47722393 32.69452473 -25.78125 33.64453125 C-26.48366821 33.9352803 -27.18608643 34.22602936 -27.90979004 34.52558899 C-28.58989136 34.80565292 -29.26999268 35.08571686 -29.97070312 35.37426758 C-30.85006531 35.73733757 -30.85006531 35.73733757 -31.74719238 36.10774231 C-35.14591053 37.45385477 -38.57716884 38.71643831 -42 40 C-42 33.07 -42 26.14 -42 19 C-38.53622288 17.25647066 -35.07178449 15.51434607 -31.60571289 13.77539062 C-29.86466644 12.90119331 -28.12469888 12.02484833 -26.38476562 11.1484375 C-20.55997369 8.22774411 -14.71607205 5.35305371 -8.82421875 2.5703125 C-7.77709717 2.07547363 -6.72997559 1.58063477 -5.65112305 1.07080078 C-3 0 -3 0 0 0 Z " fill="#090808" transform="translate(1409,2044)"/>
<path d="M0 0 C2 1 2 1 2.77200317 2.70800781 C3.01627045 3.44889648 3.26053772 4.18978516 3.51220703 4.953125 C3.93241623 6.20947754 3.93241623 6.20947754 4.3611145 7.49121094 C4.65702484 8.40161133 4.95293518 9.31201172 5.2578125 10.25 C5.56572723 11.17844727 5.87364197 12.10689453 6.19088745 13.06347656 C7.17594055 16.04005346 8.15036303 19.01999831 9.125 22 C9.78971201 24.01063252 10.4550683 26.02105217 11.12109375 28.03125 C12.33329881 31.70191132 13.5453178 35.3726172 14.74658203 39.046875 C14.98925812 39.78776367 15.2319342 40.52865234 15.48196411 41.29199219 C16 43 16 43 16 44 C6.1 44 -3.8 44 -14 44 C-12.6500174 37.92507828 -11.22083019 32.28587881 -9.1796875 26.46484375 C-8.91616486 25.70071671 -8.65264221 24.93658966 -8.38113403 24.14930725 C-7.55036362 21.74374715 -6.71281809 19.34061338 -5.875 16.9375 C-5.30553688 15.29247435 -4.73652246 13.6472933 -4.16796875 12.00195312 C-2.78381833 7.99948968 -1.39359276 3.99918506 0 0 Z " fill="#E0DFDF" transform="translate(1759,2287)"/>
</svg>
