<?xml version="1.0" encoding="UTF-8"?>
<!DOCTYPE svg PUBLIC "-//W3C//DTD SVG 1.1//EN" "http://www.w3.org/Graphics/SVG/1.1/DTD/svg11.dtd">
<svg xmlns="http://www.w3.org/2000/svg" version="1.1" width="3375px" height="3375px" style="shape-rendering:geometricPrecision; text-rendering:geometricPrecision; image-rendering:optimizeQuality; fill-rule:evenodd; clip-rule:evenodd" xmlns:xlink="http://www.w3.org/1999/xlink">
<g><path style="opacity:1" fill="#050404" d="M 1815.5,922.5 C 1818.22,923.913 1821.22,924.58 1824.5,924.5C 1865.2,931.258 1904.87,941.591 1943.5,955.5C 1944.78,956.931 1946.45,957.598 1948.5,957.5C 1969.3,964.321 1989.63,972.321 2009.5,981.5C 2009.82,983.048 2010.82,983.715 2012.5,983.5C 2035.6,993.88 2057.93,1005.55 2079.5,1018.5C 2079.97,1019.91 2080.97,1020.57 2082.5,1020.5C 2083.49,1020.33 2084.16,1020.66 2084.5,1021.5C 2084.97,1022.91 2085.97,1023.57 2087.5,1023.5C 2088.49,1023.33 2089.16,1023.66 2089.5,1024.5C 2089.97,1025.91 2090.97,1026.57 2092.5,1026.5C 2093.49,1026.33 2094.16,1026.66 2094.5,1027.5C 2094.97,1028.91 2095.97,1029.57 2097.5,1029.5C 2103.1,1032.45 2108.44,1035.78 2113.5,1039.5C 2114.03,1041.45 2115.37,1042.45 2117.5,1042.5C 2117.97,1043.91 2118.97,1044.57 2120.5,1044.5C 2120.97,1045.91 2121.97,1046.57 2123.5,1046.5C 2123.97,1047.91 2124.97,1048.57 2126.5,1048.5C 2126.97,1049.91 2127.97,1050.57 2129.5,1050.5C 2130.03,1052.45 2131.37,1053.45 2133.5,1053.5C 2133.97,1054.91 2134.97,1055.57 2136.5,1055.5C 2138.23,1056.03 2139.56,1057.03 2140.5,1058.5C 2140.97,1059.91 2141.97,1060.57 2143.5,1060.5C 2144.03,1062.45 2145.37,1063.45 2147.5,1063.5C 2148.03,1065.45 2149.37,1066.45 2151.5,1066.5C 2152.03,1068.45 2153.37,1069.45 2155.5,1069.5C 2156.17,1069.5 2156.5,1069.83 2156.5,1070.5C 2156.97,1071.91 2157.97,1072.57 2159.5,1072.5C 2160.17,1072.5 2160.5,1072.83 2160.5,1073.5C 2160.97,1074.91 2161.97,1075.57 2163.5,1075.5C 2165.91,1076.7 2167.91,1078.37 2169.5,1080.5C 2170.26,1082.26 2171.6,1083.26 2173.5,1083.5C 2174.5,1083.83 2175.17,1084.5 2175.5,1085.5C 2175.97,1086.91 2176.97,1087.57 2178.5,1087.5C 2179.5,1087.83 2180.17,1088.5 2180.5,1089.5C 2181.26,1091.26 2182.6,1092.26 2184.5,1092.5C 2185.5,1092.83 2186.17,1093.5 2186.5,1094.5C 2187.58,1096.59 2189.25,1097.92 2191.5,1098.5C 2192.5,1098.83 2193.17,1099.5 2193.5,1100.5C 2194.58,1102.59 2196.25,1103.92 2198.5,1104.5C 2199.83,1105.17 2200.83,1106.17 2201.5,1107.5C 2202.91,1109.91 2204.91,1111.58 2207.5,1112.5C 2209.17,1113.5 2210.5,1114.83 2211.5,1116.5C 2215.23,1121.23 2219.56,1125.23 2224.5,1128.5C 2231.5,1134.83 2238.17,1141.5 2244.5,1148.5C 2247.77,1153.44 2251.77,1157.77 2256.5,1161.5C 2257.5,1161.83 2258.17,1162.5 2258.5,1163.5C 2260.77,1167.44 2263.77,1170.77 2267.5,1173.5C 2268.76,1176.43 2270.76,1178.76 2273.5,1180.5C 2274.76,1183.43 2276.76,1185.76 2279.5,1187.5C 2280.76,1190.43 2282.76,1192.76 2285.5,1194.5C 2286.08,1196.75 2287.41,1198.42 2289.5,1199.5C 2290.08,1201.75 2291.41,1203.42 2293.5,1204.5C 2294.08,1206.75 2295.41,1208.42 2297.5,1209.5C 2299.11,1213.05 2301.44,1216.05 2304.5,1218.5C 2304.74,1220.4 2305.74,1221.74 2307.5,1222.5C 2307.74,1224.4 2308.74,1225.74 2310.5,1226.5C 2311.43,1229.37 2313.1,1231.7 2315.5,1233.5C 2319.68,1240.52 2324.34,1247.19 2329.5,1253.5C 2432.04,1410.25 2474.54,1582.25 2457,1769.5C 2444.82,1879.53 2411.32,1982.53 2356.5,2078.5C 2354,2081.49 2352,2084.83 2350.5,2088.5C 2348,2091.49 2346,2094.83 2344.5,2098.5C 2342.05,2100.63 2340.38,2103.3 2339.5,2106.5C 2338.09,2106.97 2337.43,2107.97 2337.5,2109.5C 2336.09,2109.97 2335.43,2110.97 2335.5,2112.5C 2334.09,2112.97 2333.43,2113.97 2333.5,2115.5C 2332.09,2115.97 2331.43,2116.97 2331.5,2118.5C 2330.09,2118.97 2329.43,2119.97 2329.5,2121.5C 2328.09,2121.97 2327.43,2122.97 2327.5,2124.5C 2326.09,2124.97 2325.43,2125.97 2325.5,2127.5C 2322.4,2130.27 2320.06,2133.61 2318.5,2137.5C 2316.1,2139.3 2314.43,2141.63 2313.5,2144.5C 2311.74,2145.26 2310.74,2146.6 2310.5,2148.5C 2308.74,2149.26 2307.74,2150.6 2307.5,2152.5C 2305.74,2153.26 2304.74,2154.6 2304.5,2156.5C 2302.74,2157.26 2301.74,2158.6 2301.5,2160.5C 2301.5,2161.17 2301.17,2161.5 2300.5,2161.5C 2298.74,2162.26 2297.74,2163.6 2297.5,2165.5C 2295.74,2166.26 2294.74,2167.6 2294.5,2169.5C 2294.5,2170.17 2294.17,2170.5 2293.5,2170.5C 2291.74,2171.26 2290.74,2172.6 2290.5,2174.5C 2290.5,2175.17 2290.17,2175.5 2289.5,2175.5C 2287.74,2176.26 2286.74,2177.6 2286.5,2179.5C 2286.5,2180.17 2286.17,2180.5 2285.5,2180.5C 2283.41,2181.58 2282.08,2183.25 2281.5,2185.5C 2281.17,2186.5 2280.5,2187.17 2279.5,2187.5C 2277.41,2188.58 2276.08,2190.25 2275.5,2192.5C 2275.17,2193.5 2274.5,2194.17 2273.5,2194.5C 2271.41,2195.58 2270.08,2197.25 2269.5,2199.5C 2268.5,2201.17 2267.17,2202.5 2265.5,2203.5C 2263.74,2204.26 2262.74,2205.6 2262.5,2207.5C 2260.5,2210.17 2258.17,2212.5 2255.5,2214.5C 2253.74,2215.26 2252.74,2216.6 2252.5,2218.5C 2114.36,2363.06 1945.03,2444.22 1744.5,2462C 1646.8,2469.06 1551.13,2458.4 1457.5,2430C 1456.75,2429.33 1456.41,2428.5 1456.5,2427.5C 1487.63,2379.91 1514.13,2329.58 1536,2276.5C 1542.46,2259.77 1548.13,2242.77 1553,2225.5C 1568.39,2164.29 1584.55,2103.29 1601.5,2042.5C 1613.55,2062.39 1629.22,2078.89 1648.5,2092C 1698.92,2124.22 1753.92,2136.55 1813.5,2129C 1908.46,2118.27 1987.96,2077.77 2052,2007.5C 2116.34,1933.63 2156.34,1847.96 2172,1750.5C 2183.58,1685.76 2183.25,1621.09 2171,1556.5C 2141.88,1430.99 2072.38,1335.15 1962.5,1269C 1881.69,1222.88 1794.69,1200.38 1701.5,1201.5C 1612.71,1199.37 1528.04,1216.87 1447.5,1254C 1305.61,1325.62 1221.45,1440.12 1195,1597.5C 1180.95,1693.56 1197.62,1783.89 1245,1868.5C 1266.6,1906.77 1295.77,1937.94 1332.5,1962C 1339.55,1966.19 1346.89,1969.86 1354.5,1973C 1364.63,1975.19 1371.13,1971.36 1374,1961.5C 1381.14,1931.76 1388.47,1902.1 1396,1872.5C 1397.36,1865.42 1396.36,1858.76 1393,1852.5C 1369.13,1821.09 1352.46,1786.09 1343,1747.5C 1317.68,1627.23 1347.18,1522.73 1431.5,1434C 1492.32,1376.7 1564.65,1344.7 1648.5,1338C 1709.61,1332.56 1768.61,1341.22 1825.5,1364C 1922.58,1408.1 1981.41,1482.6 2002,1587.5C 2014.92,1680.05 2003.25,1769.38 1967,1855.5C 1949.91,1893.52 1926.08,1926.69 1895.5,1955C 1853.41,1991.53 1804.41,2008.53 1748.5,2006C 1691.41,1996.9 1657.24,1964.07 1646,1907.5C 1644.62,1891.92 1645.95,1876.59 1650,1861.5C 1664.58,1808.2 1680.24,1755.2 1697,1702.5C 1706.45,1671.17 1711.95,1639.17 1713.5,1606.5C 1714.33,1570.79 1701.66,1540.96 1675.5,1517C 1644.93,1496.92 1612.27,1492.92 1577.5,1505C 1549.69,1515.81 1527.52,1533.64 1511,1558.5C 1479.49,1609.49 1468.16,1664.82 1477,1724.5C 1480.32,1751.29 1487.16,1777.12 1497.5,1802C 1467.76,1928.14 1437.92,2054.31 1408,2180.5C 1398.61,2228.06 1395.28,2276.06 1398,2324.5C 1399.7,2352.87 1401.87,2381.21 1404.5,2409.5C 1237.06,2342.71 1107.56,2231.71 1016,2076.5C 934.491,1932.78 900.824,1778.44 915,1613.5C 940.029,1391.2 1039.53,1211.03 1213.5,1073C 1392.69,939.203 1593.35,889.037 1815.5,922.5 Z"/></g>
<g><path style="opacity:0.341" fill="#999999" d="M 1815.5,922.5 C 1818.78,922.42 1821.78,923.087 1824.5,924.5C 1821.22,924.58 1818.22,923.913 1815.5,922.5 Z"/></g>
<g><path style="opacity:0.686" fill="#949494" d="M 1943.5,955.5 C 1945.55,955.402 1947.22,956.069 1948.5,957.5C 1946.45,957.598 1944.78,956.931 1943.5,955.5 Z"/></g>
<g><path style="opacity:0.98" fill="#858484" d="M 2009.5,981.5 C 2010.71,981.932 2011.71,982.599 2012.5,983.5C 2010.82,983.715 2009.82,983.048 2009.5,981.5 Z"/></g>
<g><path style="opacity:0.227" fill="#c0c0c0" d="M 2079.5,1018.5 C 2081.03,1018.43 2082.03,1019.09 2082.5,1020.5C 2080.97,1020.57 2079.97,1019.91 2079.5,1018.5 Z"/></g>
<g><path style="opacity:0.227" fill="#c0c0c0" d="M 2084.5,1021.5 C 2086.03,1021.43 2087.03,1022.09 2087.5,1023.5C 2085.97,1023.57 2084.97,1022.91 2084.5,1021.5 Z"/></g>
<g><path style="opacity:0.263" fill="#bfbfbf" d="M 2089.5,1024.5 C 2091.03,1024.43 2092.03,1025.09 2092.5,1026.5C 2090.97,1026.57 2089.97,1025.91 2089.5,1024.5 Z"/></g>
<g><path style="opacity:0.165" fill="#c6c6c6" d="M 2094.5,1027.5 C 2096.03,1027.43 2097.03,1028.09 2097.5,1029.5C 2095.97,1029.57 2094.97,1028.91 2094.5,1027.5 Z"/></g>
<g><path style="opacity:1" fill="#808080" d="M 2113.5,1039.5 C 2115.23,1040.03 2116.56,1041.03 2117.5,1042.5C 2115.37,1042.45 2114.03,1041.45 2113.5,1039.5 Z"/></g>
<g><path style="opacity:0.212" fill="#c0bfbf" d="M 2117.5,1042.5 C 2119.03,1042.43 2120.03,1043.09 2120.5,1044.5C 2118.97,1044.57 2117.97,1043.91 2117.5,1042.5 Z"/></g>
<g><path style="opacity:0.02" fill="#d1d1d1" d="M 2120.5,1044.5 C 2122.03,1044.43 2123.03,1045.09 2123.5,1046.5C 2121.97,1046.57 2120.97,1045.91 2120.5,1044.5 Z"/></g>
<g><path style="opacity:0.02" fill="#d6d6d6" d="M 2123.5,1046.5 C 2125.03,1046.43 2126.03,1047.09 2126.5,1048.5C 2124.97,1048.57 2123.97,1047.91 2123.5,1046.5 Z"/></g>
<g><path style="opacity:0.004" fill="#dedede" d="M 2126.5,1048.5 C 2128.03,1048.43 2129.03,1049.09 2129.5,1050.5C 2127.97,1050.57 2126.97,1049.91 2126.5,1048.5 Z"/></g>
<g><path style="opacity:0.941" fill="#919090" d="M 2129.5,1050.5 C 2131.23,1051.03 2132.56,1052.03 2133.5,1053.5C 2131.37,1053.45 2130.03,1052.45 2129.5,1050.5 Z"/></g>
<g><path style="opacity:0.004" fill="#cbcbcb" d="M 2133.5,1053.5 C 2135.03,1053.43 2136.03,1054.09 2136.5,1055.5C 2134.97,1055.57 2133.97,1054.91 2133.5,1053.5 Z"/></g>
<g><path style="opacity:0.012" fill="#c4c4c4" d="M 2140.5,1058.5 C 2142.03,1058.43 2143.03,1059.09 2143.5,1060.5C 2141.97,1060.57 2140.97,1059.91 2140.5,1058.5 Z"/></g>
<g><path style="opacity:0.894" fill="#8c8c8c" d="M 2143.5,1060.5 C 2145.23,1061.03 2146.56,1062.03 2147.5,1063.5C 2145.37,1063.45 2144.03,1062.45 2143.5,1060.5 Z"/></g>
<g><path style="opacity:0.914" fill="#898989" d="M 2147.5,1063.5 C 2149.23,1064.03 2150.56,1065.03 2151.5,1066.5C 2149.37,1066.45 2148.03,1065.45 2147.5,1063.5 Z"/></g>
<g><path style="opacity:0.933" fill="#838383" d="M 2151.5,1066.5 C 2153.23,1067.03 2154.56,1068.03 2155.5,1069.5C 2153.37,1069.45 2152.03,1068.45 2151.5,1066.5 Z"/></g>
<g><path style="opacity:0.024" fill="#c7c7c7" d="M 2156.5,1070.5 C 2158.03,1070.43 2159.03,1071.09 2159.5,1072.5C 2157.97,1072.57 2156.97,1071.91 2156.5,1070.5 Z"/></g>
<g><path style="opacity:0.004" fill="#d2d2d2" d="M 2160.5,1073.5 C 2162.03,1073.43 2163.03,1074.09 2163.5,1075.5C 2161.97,1075.57 2160.97,1074.91 2160.5,1073.5 Z"/></g>
<g><path style="opacity:0.012" fill="#c8c8c8" d="M 2169.5,1080.5 C 2171.4,1080.74 2172.74,1081.74 2173.5,1083.5C 2171.6,1083.26 2170.26,1082.26 2169.5,1080.5 Z"/></g>
<g><path style="opacity:0.024" fill="#d2d1d1" d="M 2175.5,1085.5 C 2177.03,1085.43 2178.03,1086.09 2178.5,1087.5C 2176.97,1087.57 2175.97,1086.91 2175.5,1085.5 Z"/></g>
<g><path style="opacity:0.004" fill="#d1d1d1" d="M 2180.5,1089.5 C 2182.4,1089.74 2183.74,1090.74 2184.5,1092.5C 2182.6,1092.26 2181.26,1091.26 2180.5,1089.5 Z"/></g>
<g><path style="opacity:0.004" fill="#d3d3d3" d="M 2186.5,1094.5 C 2188.75,1095.08 2190.42,1096.41 2191.5,1098.5C 2189.25,1097.92 2187.58,1096.59 2186.5,1094.5 Z"/></g>
<g><path style="opacity:0.004" fill="#d4d4d4" d="M 2193.5,1100.5 C 2195.75,1101.08 2197.42,1102.41 2198.5,1104.5C 2196.25,1103.92 2194.58,1102.59 2193.5,1100.5 Z"/></g>
<g><path style="opacity:0.004" fill="#d8d7d7" d="M 2201.5,1107.5 C 2204.09,1108.42 2206.09,1110.09 2207.5,1112.5C 2204.91,1111.58 2202.91,1109.91 2201.5,1107.5 Z"/></g>
<g><path style="opacity:0.012" fill="#d0d0d0" d="M 2211.5,1116.5 C 2216.44,1119.77 2220.77,1123.77 2224.5,1128.5C 2219.56,1125.23 2215.23,1121.23 2211.5,1116.5 Z"/></g>
<g><path style="opacity:0.988" fill="#b4b4b4" d="M 2244.5,1148.5 C 2249.23,1152.23 2253.23,1156.56 2256.5,1161.5C 2251.77,1157.77 2247.77,1153.44 2244.5,1148.5 Z"/></g>
<g><path style="opacity:0.714" fill="#c7c7c7" d="M 2258.5,1163.5 C 2262.23,1166.23 2265.23,1169.56 2267.5,1173.5C 2263.77,1170.77 2260.77,1167.44 2258.5,1163.5 Z"/></g>
<g><path style="opacity:0.933" fill="#c3c3c3" d="M 2267.5,1173.5 C 2270.24,1175.24 2272.24,1177.57 2273.5,1180.5C 2270.76,1178.76 2268.76,1176.43 2267.5,1173.5 Z"/></g>
<g><path style="opacity:0.812" fill="#c6c6c6" d="M 2273.5,1180.5 C 2276.24,1182.24 2278.24,1184.57 2279.5,1187.5C 2276.76,1185.76 2274.76,1183.43 2273.5,1180.5 Z"/></g>
<g><path style="opacity:0.925" fill="#c9c9c9" d="M 2279.5,1187.5 C 2282.24,1189.24 2284.24,1191.57 2285.5,1194.5C 2282.76,1192.76 2280.76,1190.43 2279.5,1187.5 Z"/></g>
<g><path style="opacity:0.729" fill="#d1d1d1" d="M 2285.5,1194.5 C 2287.59,1195.58 2288.92,1197.25 2289.5,1199.5C 2287.41,1198.42 2286.08,1196.75 2285.5,1194.5 Z"/></g>
<g><path style="opacity:1" fill="#fefefe" d="M 1456.5,2427.5 C 1438.8,2422.49 1421.47,2416.49 1404.5,2409.5C 1401.87,2381.21 1399.7,2352.87 1398,2324.5C 1395.28,2276.06 1398.61,2228.06 1408,2180.5C 1437.92,2054.31 1467.76,1928.14 1497.5,1802C 1487.16,1777.12 1480.32,1751.29 1477,1724.5C 1468.16,1664.82 1479.49,1609.49 1511,1558.5C 1527.52,1533.64 1549.69,1515.81 1577.5,1505C 1612.27,1492.92 1644.93,1496.92 1675.5,1517C 1701.66,1540.96 1714.33,1570.79 1713.5,1606.5C 1711.95,1639.17 1706.45,1671.17 1697,1702.5C 1680.24,1755.2 1664.58,1808.2 1650,1861.5C 1645.95,1876.59 1644.62,1891.92 1646,1907.5C 1657.24,1964.07 1691.41,1996.9 1748.5,2006C 1804.41,2008.53 1853.41,1991.53 1895.5,1955C 1926.08,1926.69 1949.91,1893.52 1967,1855.5C 2003.25,1769.38 2014.92,1680.05 2002,1587.5C 1981.41,1482.6 1922.58,1408.1 1825.5,1364C 1768.61,1341.22 1709.61,1332.56 1648.5,1338C 1564.65,1344.7 1492.32,1376.7 1431.5,1434C 1347.18,1522.73 1317.68,1627.23 1343,1747.5C 1352.46,1786.09 1369.13,1821.09 1393,1852.5C 1396.36,1858.76 1397.36,1865.42 1396,1872.5C 1388.47,1902.1 1381.14,1931.76 1374,1961.5C 1371.13,1971.36 1364.63,1975.19 1354.5,1973C 1346.89,1969.86 1339.55,1966.19 1332.5,1962C 1295.77,1937.94 1266.6,1906.77 1245,1868.5C 1197.62,1783.89 1180.95,1693.56 1195,1597.5C 1221.45,1440.12 1305.61,1325.62 1447.5,1254C 1528.04,1216.87 1612.71,1199.37 1701.5,1201.5C 1794.69,1200.38 1881.69,1222.88 1962.5,1269C 2072.38,1335.15 2141.88,1430.99 2171,1556.5C 2183.25,1621.09 2183.58,1685.76 2172,1750.5C 2156.34,1847.96 2116.34,1933.63 2052,2007.5C 1987.96,2077.77 1908.46,2118.27 1813.5,2129C 1753.92,2136.55 1698.92,2124.22 1648.5,2092C 1629.22,2078.89 1613.55,2062.39 1601.5,2042.5C 1584.55,2103.29 1568.39,2164.29 1553,2225.5C 1548.13,2242.77 1542.46,2259.77 1536,2276.5C 1514.13,2329.58 1487.63,2379.91 1456.5,2427.5 Z"/></g>
<g><path style="opacity:0.671" fill="#d6d6d6" d="M 2289.5,1199.5 C 2291.59,1200.58 2292.92,1202.25 2293.5,1204.5C 2291.41,1203.42 2290.08,1201.75 2289.5,1199.5 Z"/></g>
<g><path style="opacity:0.643" fill="#dcdcdc" d="M 2293.5,1204.5 C 2295.59,1205.58 2296.92,1207.25 2297.5,1209.5C 2295.41,1208.42 2294.08,1206.75 2293.5,1204.5 Z"/></g>
<g><path style="opacity:0.271" fill="#dddddd" d="M 2297.5,1209.5 C 2300.56,1211.95 2302.89,1214.95 2304.5,1218.5C 2301.44,1216.05 2299.11,1213.05 2297.5,1209.5 Z"/></g>
<g><path style="opacity:0.816" fill="#e6e6e6" d="M 2304.5,1218.5 C 2306.26,1219.26 2307.26,1220.6 2307.5,1222.5C 2305.74,1221.74 2304.74,1220.4 2304.5,1218.5 Z"/></g>
<g><path style="opacity:0.855" fill="#e4e4e4" d="M 2307.5,1222.5 C 2309.26,1223.26 2310.26,1224.6 2310.5,1226.5C 2308.74,1225.74 2307.74,1224.4 2307.5,1222.5 Z"/></g>
<g><path style="opacity:0.278" fill="#e7e7e7" d="M 2310.5,1226.5 C 2312.9,1228.3 2314.57,1230.63 2315.5,1233.5C 2313.1,1231.7 2311.43,1229.37 2310.5,1226.5 Z"/></g>
<g><path style="opacity:0.278" fill="#e7e7e7" d="M 2315.5,1233.5 C 2321.15,1239.46 2325.82,1246.13 2329.5,1253.5C 2324.34,1247.19 2319.68,1240.52 2315.5,1233.5 Z"/></g>
<g><path style="opacity:0.634" fill="#e8e8e8" d="M 2329.5,1253.5 C 2410.61,1372.67 2454.78,1504.67 2462,1649.5C 2468.48,1794.42 2437.48,1930.76 2369,2058.5C 2365.06,2065.4 2360.89,2072.07 2356.5,2078.5C 2411.32,1982.53 2444.82,1879.53 2457,1769.5C 2474.54,1582.25 2432.04,1410.25 2329.5,1253.5 Z"/></g>
<g><path style="opacity:0.225" fill="#e5e5e5" d="M 2356.5,2078.5 C 2355.5,2082.51 2353.5,2085.84 2350.5,2088.5C 2352,2084.83 2354,2081.49 2356.5,2078.5 Z"/></g>
<g><path style="opacity:0.21" fill="#e6e6e6" d="M 2350.5,2088.5 C 2349.5,2092.51 2347.5,2095.84 2344.5,2098.5C 2346,2094.83 2348,2091.49 2350.5,2088.5 Z"/></g>
<g><path style="opacity:0.225" fill="#ebebeb" d="M 2344.5,2098.5 C 2343.62,2101.7 2341.95,2104.37 2339.5,2106.5C 2340.38,2103.3 2342.05,2100.63 2344.5,2098.5 Z"/></g>
<g><path style="opacity:0.071" fill="#eaeaea" d="M 2339.5,2106.5 C 2339.57,2108.03 2338.91,2109.03 2337.5,2109.5C 2337.43,2107.97 2338.09,2106.97 2339.5,2106.5 Z"/></g>
<g><path style="opacity:0.102" fill="#e5e4e4" d="M 2337.5,2109.5 C 2337.57,2111.03 2336.91,2112.03 2335.5,2112.5C 2335.43,2110.97 2336.09,2109.97 2337.5,2109.5 Z"/></g>
<g><path style="opacity:0.102" fill="#e4e4e4" d="M 2335.5,2112.5 C 2335.57,2114.03 2334.91,2115.03 2333.5,2115.5C 2333.43,2113.97 2334.09,2112.97 2335.5,2112.5 Z"/></g>
<g><path style="opacity:0.102" fill="#e5e5e5" d="M 2333.5,2115.5 C 2333.57,2117.03 2332.91,2118.03 2331.5,2118.5C 2331.43,2116.97 2332.09,2115.97 2333.5,2115.5 Z"/></g>
<g><path style="opacity:0.102" fill="#e5e5e5" d="M 2331.5,2118.5 C 2331.57,2120.03 2330.91,2121.03 2329.5,2121.5C 2329.43,2119.97 2330.09,2118.97 2331.5,2118.5 Z"/></g>
<g><path style="opacity:0.098" fill="#e4e3e3" d="M 2329.5,2121.5 C 2329.57,2123.03 2328.91,2124.03 2327.5,2124.5C 2327.43,2122.97 2328.09,2121.97 2329.5,2121.5 Z"/></g>
<g><path style="opacity:0.063" fill="#e7e7e7" d="M 2327.5,2124.5 C 2327.57,2126.03 2326.91,2127.03 2325.5,2127.5C 2325.43,2125.97 2326.09,2124.97 2327.5,2124.5 Z"/></g>
<g><path style="opacity:0.227" fill="#e4e4e4" d="M 2325.5,2127.5 C 2323.94,2131.39 2321.6,2134.73 2318.5,2137.5C 2320.06,2133.61 2322.4,2130.27 2325.5,2127.5 Z"/></g>
<g><path style="opacity:0.094" fill="#e9e8e8" d="M 2318.5,2137.5 C 2317.57,2140.37 2315.9,2142.7 2313.5,2144.5C 2314.43,2141.63 2316.1,2139.3 2318.5,2137.5 Z"/></g>
<g><path style="opacity:0.125" fill="#ebebeb" d="M 2313.5,2144.5 C 2313.26,2146.4 2312.26,2147.74 2310.5,2148.5C 2310.74,2146.6 2311.74,2145.26 2313.5,2144.5 Z"/></g>
<g><path style="opacity:0.169" fill="#e6e6e6" d="M 2310.5,2148.5 C 2310.26,2150.4 2309.26,2151.74 2307.5,2152.5C 2307.74,2150.6 2308.74,2149.26 2310.5,2148.5 Z"/></g>
<g><path style="opacity:0.118" fill="#e4e4e4" d="M 2307.5,2152.5 C 2307.26,2154.4 2306.26,2155.74 2304.5,2156.5C 2304.74,2154.6 2305.74,2153.26 2307.5,2152.5 Z"/></g>
<g><path style="opacity:0.086" fill="#e9e8e8" d="M 2304.5,2156.5 C 2304.26,2158.4 2303.26,2159.74 2301.5,2160.5C 2301.74,2158.6 2302.74,2157.26 2304.5,2156.5 Z"/></g>
<g><path style="opacity:0.059" fill="#e2e2e2" d="M 2300.5,2161.5 C 2300.26,2163.4 2299.26,2164.74 2297.5,2165.5C 2297.74,2163.6 2298.74,2162.26 2300.5,2161.5 Z"/></g>
<g><path style="opacity:0.114" fill="#e4e4e4" d="M 2297.5,2165.5 C 2297.26,2167.4 2296.26,2168.74 2294.5,2169.5C 2294.74,2167.6 2295.74,2166.26 2297.5,2165.5 Z"/></g>
<g><path style="opacity:0.082" fill="#e5e5e5" d="M 2293.5,2170.5 C 2293.26,2172.4 2292.26,2173.74 2290.5,2174.5C 2290.74,2172.6 2291.74,2171.26 2293.5,2170.5 Z"/></g>
<g><path style="opacity:0.082" fill="#e8e8e8" d="M 2289.5,2175.5 C 2289.26,2177.4 2288.26,2178.74 2286.5,2179.5C 2286.74,2177.6 2287.74,2176.26 2289.5,2175.5 Z"/></g>
<g><path style="opacity:0.035" fill="#e5e5e5" d="M 2285.5,2180.5 C 2284.92,2182.75 2283.59,2184.42 2281.5,2185.5C 2282.08,2183.25 2283.41,2181.58 2285.5,2180.5 Z"/></g>
<g><path style="opacity:0.078" fill="#dedede" d="M 2279.5,2187.5 C 2278.92,2189.75 2277.59,2191.42 2275.5,2192.5C 2276.08,2190.25 2277.41,2188.58 2279.5,2187.5 Z"/></g>
<g><path style="opacity:0.075" fill="#dcdbdb" d="M 2273.5,2194.5 C 2272.92,2196.75 2271.59,2198.42 2269.5,2199.5C 2270.08,2197.25 2271.41,2195.58 2273.5,2194.5 Z"/></g>
<g><path style="opacity:0.031" fill="#dadada" d="M 2265.5,2203.5 C 2265.26,2205.4 2264.26,2206.74 2262.5,2207.5C 2262.74,2205.6 2263.74,2204.26 2265.5,2203.5 Z"/></g>
<g><path style="opacity:0.031" fill="#d9d9d9" d="M 2255.5,2214.5 C 2255.26,2216.4 2254.26,2217.74 2252.5,2218.5C 2252.74,2216.6 2253.74,2215.26 2255.5,2214.5 Z"/></g>
</svg>
