<?xml version="1.0" encoding="UTF-8"?>
<!DOCTYPE svg PUBLIC "-//W3C//DTD SVG 1.1//EN" "http://www.w3.org/Graphics/SVG/1.1/DTD/svg11.dtd">
<svg xmlns="http://www.w3.org/2000/svg" version="1.1" width="3375px" height="3375px" style="shape-rendering:geometricPrecision; text-rendering:geometricPrecision; image-rendering:optimizeQuality; fill-rule:evenodd; clip-rule:evenodd" xmlns:xlink="http://www.w3.org/1999/xlink">
<g><path style="opacity:0.999" fill="#050404" d="M 1627.5,1142.5 C 1745.48,1142.54 1863.48,1144.38 1981.5,1148C 2063.37,1150.25 2145.04,1155.58 2226.5,1164C 2352.63,1173.46 2423.46,1240.96 2439,1366.5C 2451.19,1454.4 2457.86,1542.74 2459,1631.5C 2461.52,1742.13 2456.85,1852.46 2445,1962.5C 2441.16,1996.88 2435.16,2030.88 2427,2064.5C 2402.72,2138.11 2352.89,2183.94 2277.5,2202C 2221.85,2211.17 2165.85,2217.17 2109.5,2220C 1846.88,2233.63 1584.21,2234.63 1321.5,2223C 1261,2220.45 1200.67,2215.78 1140.5,2209C 1109.67,2206.21 1080.01,2198.88 1051.5,2187C 990.813,2155.54 953.979,2106.04 941,2038.5C 929.184,1973.01 921.851,1907.01 919,1840.5C 910.504,1695.52 914.171,1550.85 930,1406.5C 933.963,1372.05 940.297,1338.05 949,1304.5C 974.944,1231.61 1025.78,1187.11 1101.5,1171C 1161.18,1161.88 1221.18,1155.88 1281.5,1153C 1396.93,1147.29 1512.26,1143.79 1627.5,1142.5 Z"/></g>
<g><path style="opacity:1" fill="#fefefe" d="M 1529.5,1457.5 C 1663.81,1533.99 1798.14,1610.49 1932.5,1687C 1798.25,1763.37 1664.09,1839.87 1530,1916.5C 1529.5,1763.5 1529.33,1610.5 1529.5,1457.5 Z"/></g>
</svg>
